<?xml version="1.0" encoding="UTF-8"?>
<!DOCTYPE svg PUBLIC "-//W3C//DTD SVG 1.1//EN" "http://www.w3.org/Graphics/SVG/1.1/DTD/svg11.dtd">
<!-- Creator: CorelDRAW X6 -->
<svg xmlns="http://www.w3.org/2000/svg" xml:space="preserve" width="60px" height="60px" version="1.1" style="shape-rendering:geometricPrecision; text-rendering:geometricPrecision; image-rendering:optimizeQuality; fill-rule:evenodd; clip-rule:evenodd"
viewBox="0 0 42748 42748"
 xmlns:xlink="http://www.w3.org/1999/xlink">
 <defs>
  <style type="text/css">
   <![CDATA[
    .fil0 {fill:none}
    .fil1 {fill:white}
   ]]>
  </style>
 </defs>
 <g id="Layer_x0020_1">
  <metadata id="CorelCorpID_0Corel-Layer"/>
  <g id="_1281870728">
   <polygon class="fil0" points="42748,0 0,0 0,42748 42748,42748 "/>
   <path class="fil1" d="M28663 25482c-1281,-2132 -3951,-2890 -5953,-1687 -519,312 -953,734 -1283,1235 -1403,-1776 -2539,-3891 -3219,-5475 628,-45 1231,-235 1775,-561 2001,-1202 2587,-3915 1306,-6049 -1281,-2132 -3952,-2890 -5953,-1687 -1345,808 -2039,2337 -1917,4153 1,4 0,9 0,13 1,3 2,10 2,14 13,166 29,333 54,503 7,40 19,77 33,113 373,2312 2100,10276 8655,14833 344,298 730,540 1139,726 19,11 36,22 56,33 47,28 98,44 150,54 586,236 1208,360 1818,360 729,0 1436,-173 2032,-531 2000,-1202 2587,-3915 1305,-6048zm-1807 5214c-863,518 -2042,520 -3068,76 -8068,-4718 -9364,-15141 -9400,-15445 -97,-1450 417,-2615 1450,-3235 1541,-926 3613,-318 4617,1355 1004,1673 568,3787 -973,4712 -583,350 -1256,492 -1948,413 -6,-1 -13,0 -19,-1 -17,-1 -34,-1 -51,0 -15,0 -31,1 -46,3 -15,3 -30,5 -45,9 -17,3 -33,8 -49,13 -7,3 -13,3 -19,5 -8,4 -16,9 -24,13 -14,7 -29,13 -43,22 -14,8 -29,17 -42,27 -12,8 -23,17 -34,27 -13,11 -25,23 -37,35 -10,10 -19,21 -28,33 -10,13 -19,26 -28,40 -8,13 -16,26 -23,40 -8,14 -14,29 -20,45 -5,13 -10,28 -14,42 -4,17 -8,35 -11,51 -2,8 -4,16 -5,24 -1,7 0,12 -1,19 -1,18 -1,35 0,53 0,15 1,30 3,45 2,15 5,30 9,45 3,17 8,34 13,50 2,7 3,13 5,19 704,1835 2206,4766 4117,6987 3,4 8,7 11,10 14,15 29,29 46,43 10,8 20,18 30,26 14,10 30,19 47,27 13,8 27,17 42,24 2,0 3,2 5,2 15,7 30,9 45,14 15,5 29,11 45,13 29,6 59,9 88,9 3,0 7,2 9,2 0,0 0,0 1,0 5,0 10,-2 16,-2 24,-1 49,-3 73,-8 10,-2 19,-5 29,-8 19,-5 38,-10 56,-18 12,-4 22,-10 33,-15 16,-8 31,-15 46,-24 13,-8 24,-17 36,-25 8,-7 18,-12 25,-19 4,-3 6,-7 10,-10 13,-12 25,-25 37,-40 10,-11 19,-22 29,-34 8,-13 16,-25 24,-39 8,-15 18,-30 25,-46 2,-5 5,-8 7,-13 257,-618 691,-1122 1252,-1459 1541,-926 3613,-318 4617,1354 1005,1672 568,3787 -973,4712z"/>
  </g>
 </g>
</svg>
