<?xml version="1.0" encoding="UTF-8"?>
<!DOCTYPE svg PUBLIC "-//W3C//DTD SVG 1.1//EN" "http://www.w3.org/Graphics/SVG/1.1/DTD/svg11.dtd">
<!-- Creator: CorelDRAW X6 -->
<svg xmlns="http://www.w3.org/2000/svg" xml:space="preserve" width="60px" height="60px" version="1.1" style="shape-rendering:geometricPrecision; text-rendering:geometricPrecision; image-rendering:optimizeQuality; fill-rule:evenodd; clip-rule:evenodd"
viewBox="0 0 8096 8096"
 xmlns:xlink="http://www.w3.org/1999/xlink">
 <defs>
  <style type="text/css">
   <![CDATA[
    .fil0 {fill:none}
    .fil1 {fill:white;fill-rule:nonzero}
   ]]>
  </style>
 </defs>
 <g id="Layer_x0020_1">
  <metadata id="CorelCorpID_0Corel-Layer"/>
  <g id="_601631136">
   <polygon class="fil0" points="0,0 8096,0 8096,8096 0,8096 "/>
   <g>
    <g>
     <path class="fil1" d="M5939 3567l-82 156 -4 -2 -4 -2 -4 -3 -4 -3 -3 -3 -3 -3 -3 -3 -3 -3 -3 -3 -2 -4 -2 -4 -2 -4 -2 -4 -2 -4 -2 -4 -1 -4 -1 -4 -1 -4 -1 -4 -1 -4 0 -4 0 -4 0 -4 0 -4 0 -4 1 -4 1 -4 1 -4 1 -4 1 -4 2 -4 2 -4 2 -4 2 -4 3 -4 3 -4 3 -3 3 -3 3 -3 3 -3 3 -3 4 -2 4 -2 4 -2 4 -2 4 -2 4 -2 4 -1 4 -1 4 -1 4 -1 4 -1 4 0 4 0 4 0 4 0 4 0 4 1 4 1 4 1 4 1 4 1 4 2 4 2zm221 363l-176 0 0 0 0 -8 0 -8 -1 -8 -1 -8 -1 -8 -2 -7 -2 -8 -2 -7 -3 -8 -3 -8 -3 -7 -3 -7 -3 -7 -4 -7 -4 -7 -4 -7 -4 -7 -4 -6 -5 -7 -5 -6 -5 -6 -5 -6 -5 -6 -6 -6 -6 -5 -6 -5 -6 -5 -6 -4 -7 -5 -7 -5 -7 -4 -7 -4 82 -156 12 7 12 7 11 7 11 7 11 8 11 8 11 9 10 9 9 9 10 10 9 10 9 11 8 11 8 11 8 11 7 12 7 12 7 12 6 13 6 12 5 13 5 13 4 13 4 13 4 14 3 13 3 14 2 14 2 14 1 14 1 15 0 15 0 0zm-176 0l176 0 0 4 0 4 0 4 -1 4 -1 4 -1 4 -1 4 -2 4 -2 4 -2 4 -2 4 -2 4 -2 4 -3 3 -3 3 -3 3 -3 3 -3 3 -3 3 -4 2 -4 2 -4 2 -4 2 -4 2 -4 2 -4 1 -4 1 -4 1 -4 1 -4 0 -4 0 -4 0 -4 0 -4 0 -4 0 -4 -1 -4 -1 -4 -1 -4 -1 -4 -2 -4 -2 -4 -2 -4 -2 -4 -2 -4 -2 -3 -3 -3 -3 -3 -3 -3 -3 -3 -3 -3 -3 -3 -4 -2 -4 -2 -4 -2 -4 -2 -4 -1 -4 -1 -4 -1 -4 -1 -4 -1 -4 0 -4 0 -4 0 -4zm0 1819l0 -1819 176 0 0 1819 0 0 -176 0zm0 0l176 0 0 4 0 4 0 4 -1 4 -1 4 -1 4 -1 4 -2 4 -2 4 -2 4 -2 4 -2 4 -2 4 -3 3 -3 3 -3 3 -3 3 -3 3 -3 3 -4 2 -4 2 -4 2 -4 2 -4 2 -4 2 -4 1 -4 1 -4 1 -4 1 -4 0 -4 0 -4 0 -4 0 -4 0 -4 0 -4 -1 -4 -1 -4 -1 -4 -1 -4 -2 -4 -2 -4 -2 -4 -2 -4 -2 -4 -2 -3 -3 -3 -3 -3 -3 -3 -3 -3 -3 -3 -3 -3 -4 -2 -4 -2 -4 -2 -4 -2 -4 -1 -4 -1 -4 -1 -4 -1 -4 -1 -4 0 -4 0 -4 0 -4zm-238 411l0 -176 0 0 12 0 13 -1 12 -1 11 -2 12 -3 11 -3 11 -4 11 -4 11 -5 10 -5 10 -6 9 -6 10 -7 9 -7 8 -7 8 -8 8 -8 7 -8 7 -9 7 -9 6 -9 6 -10 5 -10 4 -10 4 -11 4 -11 3 -11 3 -12 2 -11 2 -12 1 -12 0 -12 176 0 -1 21 -2 21 -3 21 -4 20 -5 20 -6 20 -7 19 -7 18 -9 19 -9 18 -10 17 -11 17 -12 16 -12 15 -13 15 -14 14 -14 13 -15 13 -16 12 -16 11 -17 11 -17 10 -18 9 -18 8 -19 7 -20 7 -20 5 -20 5 -21 4 -21 3 -20 1 -21 1 0 0zm0 -176l0 176 -4 0 -4 0 -4 0 -4 -1 -4 -1 -4 -1 -4 -1 -4 -2 -4 -2 -4 -2 -4 -2 -4 -2 -4 -2 -3 -3 -3 -3 -3 -3 -3 -3 -3 -3 -3 -3 -3 -4 -2 -4 -2 -4 -2 -4 -2 -4 -1 -4 -1 -4 -1 -4 -1 -4 -1 -4 0 -4 0 -4 0 -4 0 -4 0 -4 0 -4 1 -4 1 -4 1 -4 1 -4 1 -4 2 -4 2 -4 2 -4 2 -4 3 -4 3 -3 3 -3 3 -3 3 -3 3 -3 3 -3 4 -3 4 -2 4 -2 4 -2 4 -2 4 -1 4 -1 4 -1 4 -1 4 -1 4 0 4 0 4 0zm-3396 0l3396 0 0 176 -3396 0 0 0 0 -176zm0 0l0 176 -4 0 -4 0 -4 0 -4 -1 -4 -1 -4 -1 -4 -1 -4 -2 -4 -2 -4 -2 -4 -2 -4 -2 -4 -2 -3 -3 -3 -3 -3 -3 -3 -3 -3 -3 -3 -3 -3 -4 -2 -4 -2 -4 -2 -4 -2 -4 -1 -4 -1 -4 -1 -4 -1 -4 -1 -4 0 -4 0 -4 0 -4 0 -4 0 -4 0 -4 1 -4 1 -4 1 -4 1 -4 1 -4 2 -4 2 -4 2 -4 2 -4 3 -4 3 -3 3 -3 3 -3 3 -3 3 -3 3 -3 4 -3 4 -2 4 -2 4 -2 4 -2 4 -1 4 -1 4 -1 4 -1 4 -1 4 0 4 0 4 0zm-414 -235l176 0 0 0 0 12 1 12 2 12 2 11 3 12 3 11 4 11 4 11 5 10 5 11 5 10 6 10 7 9 7 9 7 9 8 8 8 8 9 7 9 7 9 7 10 6 10 6 10 5 11 5 11 4 11 4 11 3 12 3 11 2 12 1 13 1 12 0 0 176 -21 -1 -20 -1 -21 -3 -21 -4 -20 -5 -20 -5 -20 -7 -19 -7 -18 -8 -18 -9 -17 -10 -17 -11 -16 -12 -15 -12 -15 -13 -14 -14 -14 -14 -13 -15 -12 -15 -12 -16 -11 -17 -10 -18 -9 -17 -9 -18 -7 -19 -7 -19 -6 -20 -5 -20 -4 -20 -3 -21 -2 -21 -1 -21 0 0zm176 0l-176 0 0 -4 0 -4 0 -4 1 -4 1 -4 1 -4 1 -4 1 -4 2 -4 2 -4 2 -4 2 -4 3 -4 3 -3 3 -3 3 -3 3 -3 3 -3 3 -3 4 -3 4 -2 4 -2 4 -2 4 -2 4 -1 4 -1 4 -1 4 -1 4 -1 4 0 4 0 4 0 4 0 4 0 4 0 4 1 4 1 4 1 4 1 4 1 4 2 4 2 4 2 4 2 4 3 3 3 3 3 3 3 3 3 3 3 3 3 2 4 2 4 2 4 2 4 2 4 2 4 1 4 1 4 1 4 1 4 0 4 0 4 0 4zm0 -1819l0 1819 -176 0 0 -1819 0 0 176 0zm0 0l-176 0 0 -4 0 -4 0 -4 1 -4 1 -4 1 -4 1 -4 1 -4 2 -4 2 -4 2 -4 2 -4 3 -4 3 -3 3 -3 3 -3 3 -3 3 -3 3 -3 4 -3 4 -2 4 -2 4 -2 4 -2 4 -1 4 -1 4 -1 4 -1 4 -1 4 0 4 0 4 0 4 0 4 0 4 0 4 1 4 1 4 1 4 1 4 1 4 2 4 2 4 2 4 2 4 3 3 3 3 3 3 3 3 3 3 3 3 3 2 4 2 4 2 4 2 4 2 4 2 4 1 4 1 4 1 4 1 4 0 4 0 4 0 4zm34 -357l86 153 -7 4 -7 4 -6 4 -6 4 -7 5 -6 5 -5 5 -6 6 -5 5 -5 6 -5 6 -4 5 -5 7 -5 7 -4 6 -4 6 -4 7 -4 7 -4 7 -3 7 -3 7 -3 7 -2 7 -2 8 -2 7 -2 8 -1 8 -1 7 -1 8 -1 8 0 8 0 8 -176 0 0 -14 1 -14 1 -14 2 -14 2 -14 3 -13 3 -13 4 -14 4 -13 4 -13 5 -13 5 -12 5 -12 6 -12 6 -11 7 -12 7 -12 8 -12 8 -10 8 -10 9 -11 9 -10 9 -10 10 -9 9 -9 10 -9 10 -8 10 -8 11 -8 12 -8 11 -7 11 -7zm86 153l-86 -153 4 -2 4 -2 4 -2 4 -1 4 -1 4 -1 4 -1 4 0 4 0 4 0 4 0 4 0 4 0 4 1 4 1 4 1 4 1 4 1 4 2 4 2 4 2 4 2 4 2 4 2 3 3 3 3 3 3 3 3 3 3 3 4 2 4 2 4 2 4 2 4 2 4 1 4 1 4 1 4 1 4 0 4 0 4 0 4 0 4 0 4 0 4 -1 4 -1 4 -1 4 -1 4 -1 4 -2 4 -2 4 -2 4 -2 4 -2 4 -2 4 -3 3 -3 3 -3 3 -3 3 -3 3 -4 3 -4 2 -4 2z"/>
    </g>
    <g>
     <path class="fil1" d="M2614 3389l-115 -133 4 -3 4 -3 4 -2 4 -2 4 -2 4 -2 4 -2 4 -1 4 -1 4 -1 4 -1 4 -1 4 0 4 0 4 0 4 0 4 0 4 1 4 1 4 1 4 1 4 1 4 2 4 2 4 2 4 2 4 2 4 3 3 3 3 3 3 3 3 3 3 4 3 4 2 4 2 4 2 4 2 4 2 4 1 4 1 4 1 4 1 4 1 4 0 4 0 4 0 4 0 4 0 4 -1 4 -1 4 -1 4 -1 4 -1 4 -2 4 -2 4 -2 4 -2 4 -2 4 -3 4 -3 3 -3 3 -3 3 -3 3zm-543 239l428 -372 115 133 -428 372 -115 -133zm0 0l115 133 -4 3 -4 3 -4 2 -4 2 -4 2 -4 2 -4 2 -4 1 -4 1 -4 1 -4 1 -4 1 -4 0 -4 0 -4 0 -4 0 -4 0 -4 -1 -4 -1 -4 -1 -4 -1 -4 -1 -4 -2 -4 -2 -4 -2 -4 -2 -4 -2 -4 -3 -3 -3 -3 -3 -3 -3 -3 -3 -3 -4 -3 -4 -2 -4 -2 -4 -2 -4 -2 -4 -2 -4 -1 -4 -1 -4 -1 -4 -1 -4 -1 -4 0 -4 0 -4 0 -4 0 -4 0 -4 1 -4 1 -4 1 -4 1 -4 1 -4 2 -4 2 -4 2 -4 2 -4 2 -4 3 -4 3 -3 3 -3 3 -3 3 -3z"/>
    </g>
    <g>
     <path class="fil1" d="M4432 2475l116 -133 3 3 3 3 3 3 3 4 3 4 2 4 2 4 2 4 2 4 2 4 1 4 1 4 1 4 1 4 1 4 0 4 0 4 0 4 0 4 0 4 -1 4 -1 4 -1 4 -1 4 -1 4 -2 4 -2 4 -2 4 -2 4 -2 4 -3 4 -3 4 -3 3 -3 3 -3 3 -4 3 -4 3 -4 2 -4 2 -4 2 -4 2 -4 2 -4 1 -4 1 -4 1 -4 1 -4 1 -4 0 -4 0 -4 0 -4 0 -4 0 -4 -1 -4 -1 -4 -1 -4 -1 -4 -1 -4 -2 -4 -2 -4 -2 -4 -2 -4 -2 -4 -3 -4 -3zm-326 -517l442 384 -116 133 -442 -384 0 -133 116 0zm0 0l-116 133 -3 -3 -3 -3 -3 -3 -3 -4 -3 -4 -2 -4 -2 -4 -2 -4 -2 -4 -2 -4 -1 -4 -1 -4 -1 -4 -1 -4 -1 -4 0 -4 0 -4 0 -4 0 -4 0 -4 1 -4 1 -4 1 -4 1 -4 1 -4 2 -4 2 -4 2 -4 2 -4 2 -4 3 -4 3 -4 3 -3 3 -3 3 -3 4 -3 4 -3 4 -2 4 -2 4 -2 4 -2 4 -2 4 -1 4 -1 4 -1 4 -1 4 -1 4 0 4 0 4 0 4 0 4 0 4 1 4 1 4 1 4 1 4 1 4 2 4 2 4 2 4 2 4 2 4 3 4 3zm-532 363l417 -363 115 133 -417 363 -115 -133zm0 0l115 133 -4 3 -4 3 -4 2 -4 2 -4 2 -4 2 -4 2 -4 1 -4 1 -4 1 -4 1 -4 1 -4 0 -4 0 -4 0 -4 0 -4 0 -4 -1 -4 -1 -4 -1 -4 -1 -4 -1 -4 -2 -4 -2 -4 -2 -4 -2 -4 -2 -4 -3 -3 -3 -3 -3 -3 -3 -3 -3 -3 -4 -3 -4 -2 -4 -2 -4 -2 -4 -2 -4 -2 -4 -1 -4 -1 -4 -1 -4 -1 -4 -1 -4 0 -4 0 -4 0 -4 0 -4 0 -4 1 -4 1 -4 1 -4 1 -4 1 -4 2 -4 2 -4 2 -4 2 -4 2 -4 3 -4 3 -3 3 -3 3 -3 3 -3z"/>
    </g>
    <g>
     <path class="fil1" d="M5910 3761l115 -133 3 3 3 3 3 3 3 3 3 4 2 4 2 4 2 4 2 4 2 4 1 4 1 4 1 4 1 4 1 4 0 4 0 4 0 4 0 4 0 4 -1 4 -1 4 -1 4 -1 4 -1 4 -2 4 -2 4 -2 4 -2 4 -2 4 -3 4 -3 4 -3 3 -3 3 -3 3 -3 3 -4 3 -4 2 -4 2 -4 2 -4 2 -4 2 -4 1 -4 1 -4 1 -4 1 -4 1 -4 0 -4 0 -4 0 -4 0 -4 0 -4 -1 -4 -1 -4 -1 -4 -1 -4 -1 -4 -2 -4 -2 -4 -2 -4 -2 -4 -2 -4 -3 -4 -3zm-324 -515l439 382 -115 133 -439 -382 115 -133zm0 0l-115 133 -3 -3 -3 -3 -3 -3 -3 -3 -3 -4 -2 -4 -2 -4 -2 -4 -2 -4 -2 -4 -1 -4 -1 -4 -1 -4 -1 -4 -1 -4 0 -4 0 -4 0 -4 0 -4 0 -4 1 -4 1 -4 1 -4 1 -4 1 -4 2 -4 2 -4 2 -4 2 -4 2 -4 3 -4 3 -4 3 -3 3 -3 3 -3 3 -3 4 -3 4 -2 4 -2 4 -2 4 -2 4 -2 4 -1 4 -1 4 -1 4 -1 4 -1 4 0 4 0 4 0 4 0 4 0 4 1 4 1 4 1 4 1 4 1 4 2 4 2 4 2 4 2 4 2 4 3 4 3z"/>
    </g>
    <g>
     <g>
      <path class="fil1" d="M2063 5869l131 117 -3 3 -3 3 -3 3 -3 3 -4 3 -4 2 -4 2 -4 2 -4 2 -4 2 -4 1 -4 1 -4 1 -4 1 -4 0 -4 0 -4 0 -4 0 -4 0 -4 0 -4 -1 -4 -1 -4 -1 -4 -1 -4 -2 -4 -2 -4 -2 -4 -2 -4 -2 -4 -3 -4 -3 -4 -3 -3 -3 -3 -3 -3 -3 -3 -3 -3 -4 -2 -4 -2 -4 -2 -4 -2 -4 -2 -4 -1 -4 -1 -4 -1 -4 -1 -4 0 -4 0 -4 0 -4 0 -4 0 -4 0 -4 1 -4 1 -4 1 -4 1 -4 2 -4 2 -4 2 -4 2 -4 2 -4 3 -4 3 -4 3 -4zm1157 -1031l-1026 1148 -131 -117 1026 -1148 66 -29 66 147zm0 0l-131 -117 3 -3 3 -3 3 -3 3 -3 4 -3 4 -2 4 -2 4 -2 4 -2 4 -2 4 -1 4 -1 4 -1 4 -1 4 0 4 0 4 0 4 0 4 0 4 0 4 1 4 1 4 1 4 1 4 2 4 2 4 2 4 2 4 2 4 3 4 3 4 3 3 3 3 3 3 3 3 3 3 4 2 4 2 4 2 4 2 4 2 4 1 4 1 4 1 4 1 4 0 4 0 4 0 4 0 4 0 4 0 4 -1 4 -1 4 -1 4 -1 4 -2 4 -2 4 -2 4 -2 4 -2 4 -3 4 -3 4 -3 4zm1723 29l-1788 0 0 -176 1788 0 66 29 -66 147zm0 0l0 -176 4 0 4 0 4 0 4 1 4 1 4 1 4 1 4 1 4 2 4 2 4 2 4 2 4 3 3 3 3 3 3 3 3 3 3 3 3 3 2 4 2 4 2 4 2 4 2 4 2 4 1 4 1 4 1 4 1 4 0 4 0 4 0 4 0 4 0 4 0 4 -1 4 -1 4 -1 4 -1 4 -2 4 -2 4 -2 4 -2 4 -2 4 -2 4 -3 3 -3 3 -3 3 -3 3 -3 3 -3 3 -4 2 -4 2 -4 2 -4 2 -4 2 -4 2 -4 1 -4 1 -4 1 -4 1 -4 0 -4 0 -4 0zm960 1119l-1025 -1148 131 -117 1025 1148 -131 117zm0 0l131 -117 3 4 3 4 3 4 2 4 2 4 2 4 2 4 2 4 1 4 1 4 1 4 1 4 0 4 0 4 0 4 0 4 0 4 0 4 -1 4 -1 4 -1 4 -1 4 -2 4 -2 4 -2 4 -2 4 -2 4 -3 4 -3 3 -3 3 -3 3 -3 3 -4 3 -4 3 -4 3 -4 2 -4 2 -4 2 -4 2 -4 2 -4 1 -4 1 -4 1 -4 1 -4 0 -4 0 -4 0 -4 0 -4 0 -4 0 -4 -1 -4 -1 -4 -1 -4 -1 -4 -2 -4 -2 -4 -2 -4 -2 -4 -2 -4 -3 -3 -3 -3 -3 -3 -3 -3 -3z"/>
     </g>
    </g>
    <g>
     <path class="fil1" d="M2117 3722l-117 131 -3 -3 -3 -3 -3 -3 -3 -4 -3 -4 -2 -4 -2 -4 -2 -4 -2 -4 -2 -4 -1 -4 -1 -4 -1 -4 -1 -4 0 -4 0 -4 0 -4 0 -4 0 -4 0 -4 1 -4 1 -4 1 -4 1 -4 1 -4 2 -4 2 -4 2 -4 2 -4 3 -4 3 -4 3 -4 3 -3 3 -3 3 -3 4 -3 4 -3 4 -2 4 -2 4 -2 4 -2 4 -2 4 -1 4 -1 4 -1 4 -1 4 0 4 0 4 0 4 0 4 0 4 0 4 1 4 1 4 1 4 1 4 1 4 2 4 2 4 2 4 2 4 3 4 3 4 3zm956 1086l-1073 -955 117 -131 1073 955 -117 131zm0 0l117 -131 3 3 3 3 3 3 3 4 3 4 2 4 2 4 2 4 2 4 2 4 1 4 1 4 1 4 1 4 0 4 0 4 0 4 0 4 0 4 0 4 -1 4 -1 4 -1 4 -1 4 -1 4 -2 4 -2 4 -2 4 -2 4 -3 4 -3 4 -3 4 -3 3 -3 3 -3 3 -4 3 -4 3 -4 2 -4 2 -4 2 -4 2 -4 2 -4 1 -4 1 -4 1 -4 1 -4 0 -4 0 -4 0 -4 0 -4 0 -4 0 -4 -1 -4 -1 -4 -1 -4 -1 -4 -1 -4 -2 -4 -2 -4 -2 -4 -2 -4 -3 -4 -3 -4 -3z"/>
    </g>
    <g>
     <path class="fil1" d="M6079 3854l-117 -131 4 -3 4 -3 4 -3 4 -2 4 -2 4 -2 4 -2 4 -1 4 -1 4 -1 4 -1 4 -1 4 0 4 0 4 0 4 0 4 0 4 0 4 1 4 1 4 1 4 1 4 2 4 2 4 2 4 2 4 2 4 3 4 3 3 3 3 3 3 3 3 4 3 4 3 4 2 4 2 4 2 4 2 4 1 4 1 4 1 4 1 4 1 4 0 4 0 4 0 4 0 4 0 4 0 4 -1 4 -1 4 -1 4 -1 4 -2 4 -2 4 -2 4 -2 4 -2 4 -3 4 -3 4 -3 3 -3 3 -3 3zm-1190 824l1073 -955 117 131 -1073 955 -117 -131zm0 0l117 131 -4 3 -4 3 -4 3 -4 2 -4 2 -4 2 -4 2 -4 1 -4 1 -4 1 -4 1 -4 1 -4 0 -4 0 -4 0 -4 0 -4 0 -4 0 -4 -1 -4 -1 -4 -1 -4 -1 -4 -2 -4 -2 -4 -2 -4 -2 -4 -2 -4 -3 -4 -3 -3 -3 -3 -3 -3 -3 -3 -4 -3 -4 -3 -4 -2 -4 -2 -4 -2 -4 -2 -4 -1 -4 -1 -4 -1 -4 -1 -4 -1 -4 0 -4 0 -4 0 -4 0 -4 0 -4 0 -4 1 -4 1 -4 1 -4 1 -4 2 -4 2 -4 2 -4 2 -4 2 -4 3 -4 3 -4 3 -3 3 -3 3 -3z"/>
    </g>
    <g>
     <path class="fil1" d="M2515 4172l176 0 0 4 0 4 0 4 -1 4 -1 4 -1 4 -1 4 -2 4 -2 4 -2 4 -2 4 -2 4 -2 4 -3 3 -3 3 -3 3 -3 3 -3 3 -3 3 -4 2 -4 2 -4 2 -4 2 -4 2 -4 2 -4 1 -4 1 -4 1 -4 1 -4 0 -4 0 -4 0 -4 0 -4 0 -4 0 -4 -1 -4 -1 -4 -1 -4 -1 -4 -2 -4 -2 -4 -2 -4 -2 -4 -2 -4 -2 -3 -3 -3 -3 -3 -3 -3 -3 -3 -3 -3 -3 -3 -4 -2 -4 -2 -4 -2 -4 -2 -4 -1 -4 -1 -4 -1 -4 -1 -4 -1 -4 0 -4 0 -4 0 -4zm176 -1763l0 1763 -176 0 0 -1763 88 -88 88 88zm0 0l-176 0 0 -4 0 -4 0 -4 1 -4 1 -4 1 -4 1 -4 1 -4 2 -4 2 -4 2 -4 2 -4 3 -4 3 -3 3 -3 3 -3 3 -3 3 -3 3 -3 4 -3 4 -2 4 -2 4 -2 4 -2 4 -1 4 -1 4 -1 4 -1 4 -1 4 0 4 0 4 0 4 0 4 0 4 0 4 1 4 1 4 1 4 1 4 1 4 2 4 2 4 2 4 2 4 3 3 3 3 3 3 3 3 3 3 3 3 3 2 4 2 4 2 4 2 4 2 4 2 4 1 4 1 4 1 4 1 4 0 4 0 4 0 4zm2802 88l-2890 0 0 -176 2890 0 88 88 -88 88zm0 0l0 -176 4 0 4 0 4 0 4 1 4 1 4 1 4 1 4 1 4 2 4 2 4 2 4 2 4 3 3 3 3 3 3 3 3 3 3 3 3 3 2 4 2 4 2 4 2 4 2 4 2 4 1 4 1 4 1 4 1 4 0 4 0 4 0 4 0 4 0 4 0 4 -1 4 -1 4 -1 4 -1 4 -2 4 -2 4 -2 4 -2 4 -2 4 -2 4 -3 3 -3 3 -3 3 -3 3 -3 3 -3 3 -4 2 -4 2 -4 2 -4 2 -4 2 -4 2 -4 1 -4 1 -4 1 -4 1 -4 0 -4 0 -4 0zm-88 1739l0 -1827 176 0 0 1827 -176 0zm0 0l176 0 0 4 0 4 0 4 -1 4 -1 4 -1 4 -1 4 -2 4 -2 4 -2 4 -2 4 -2 4 -2 4 -3 3 -3 3 -3 3 -3 3 -3 3 -3 3 -4 2 -4 2 -4 2 -4 2 -4 2 -4 2 -4 1 -4 1 -4 1 -4 1 -4 0 -4 0 -4 0 -4 0 -4 0 -4 0 -4 -1 -4 -1 -4 -1 -4 -1 -4 -2 -4 -2 -4 -2 -4 -2 -4 -2 -4 -2 -3 -3 -3 -3 -3 -3 -3 -3 -3 -3 -3 -3 -3 -4 -2 -4 -2 -4 -2 -4 -2 -4 -1 -4 -1 -4 -1 -4 -1 -4 -1 -4 0 -4 0 -4 0 -4z"/>
    </g>
    <g>
     <path class="fil1" d="M3140 2892l0 176 -4 0 -4 0 -4 0 -4 -1 -4 -1 -4 -1 -4 -1 -4 -2 -4 -2 -4 -2 -4 -2 -4 -2 -4 -2 -3 -3 -3 -3 -3 -3 -3 -3 -3 -3 -3 -3 -3 -4 -2 -4 -2 -4 -2 -4 -2 -4 -1 -4 -1 -4 -1 -4 -1 -4 -1 -4 0 -4 0 -4 0 -4 0 -4 0 -4 0 -4 1 -4 1 -4 1 -4 1 -4 1 -4 2 -4 2 -4 2 -4 2 -4 3 -4 3 -3 3 -3 3 -3 3 -3 3 -3 3 -3 4 -3 4 -2 4 -2 4 -2 4 -2 4 -1 4 -1 4 -1 4 -1 4 -1 4 0 4 0 4 0zm1817 176l-1817 0 0 -176 1817 0 0 176zm0 0l0 -176 4 0 4 0 4 0 4 1 4 1 4 1 4 1 4 1 4 2 4 2 4 2 4 2 4 3 3 3 3 3 3 3 3 3 3 3 3 3 2 4 2 4 2 4 2 4 2 4 2 4 1 4 1 4 1 4 1 4 0 4 0 4 0 4 0 4 0 4 0 4 -1 4 -1 4 -1 4 -1 4 -2 4 -2 4 -2 4 -2 4 -2 4 -2 4 -3 3 -3 3 -3 3 -3 3 -3 3 -3 3 -4 2 -4 2 -4 2 -4 2 -4 2 -4 2 -4 1 -4 1 -4 1 -4 1 -4 0 -4 0 -4 0z"/>
    </g>
    <g>
     <path class="fil1" d="M3140 3464l0 176 -4 0 -4 0 -4 0 -4 -1 -4 -1 -4 -1 -4 -1 -4 -2 -4 -2 -4 -2 -4 -2 -4 -2 -4 -2 -3 -3 -3 -3 -3 -3 -3 -3 -3 -3 -3 -3 -3 -4 -2 -4 -2 -4 -2 -4 -2 -4 -1 -4 -1 -4 -1 -4 -1 -4 -1 -4 0 -4 0 -4 0 -4 0 -4 0 -4 0 -4 1 -4 1 -4 1 -4 1 -4 1 -4 2 -4 2 -4 2 -4 2 -4 3 -4 3 -3 3 -3 3 -3 3 -3 3 -3 3 -3 4 -3 4 -2 4 -2 4 -2 4 -2 4 -1 4 -1 4 -1 4 -1 4 -1 4 0 4 0 4 0zm1817 176l-1817 0 0 -176 1817 0 0 176zm0 0l0 -176 4 0 4 0 4 0 4 1 4 1 4 1 4 1 4 1 4 2 4 2 4 2 4 2 4 3 3 3 3 3 3 3 3 3 3 3 3 3 2 4 2 4 2 4 2 4 2 4 2 4 1 4 1 4 1 4 1 4 0 4 0 4 0 4 0 4 0 4 0 4 -1 4 -1 4 -1 4 -1 4 -2 4 -2 4 -2 4 -2 4 -2 4 -2 4 -3 3 -3 3 -3 3 -3 3 -3 3 -3 3 -4 2 -4 2 -4 2 -4 2 -4 2 -4 2 -4 1 -4 1 -4 1 -4 1 -4 0 -4 0 -4 0z"/>
    </g>
    <g>
     <path class="fil1" d="M3140 4036l0 176 -4 0 -4 0 -4 0 -4 -1 -4 -1 -4 -1 -4 -1 -4 -2 -4 -2 -4 -2 -4 -2 -4 -2 -4 -2 -3 -3 -3 -3 -3 -3 -3 -3 -3 -3 -3 -3 -3 -4 -2 -4 -2 -4 -2 -4 -2 -4 -1 -4 -1 -4 -1 -4 -1 -4 -1 -4 0 -4 0 -4 0 -4 0 -4 0 -4 0 -4 1 -4 1 -4 1 -4 1 -4 1 -4 2 -4 2 -4 2 -4 2 -4 3 -4 3 -3 3 -3 3 -3 3 -3 3 -3 3 -3 4 -3 4 -2 4 -2 4 -2 4 -2 4 -1 4 -1 4 -1 4 -1 4 -1 4 0 4 0 4 0zm1817 176l-1817 0 0 -176 1817 0 0 176zm0 0l0 -176 4 0 4 0 4 0 4 1 4 1 4 1 4 1 4 1 4 2 4 2 4 2 4 2 4 3 3 3 3 3 3 3 3 3 3 3 3 3 2 4 2 4 2 4 2 4 2 4 2 4 1 4 1 4 1 4 1 4 0 4 0 4 0 4 0 4 0 4 0 4 -1 4 -1 4 -1 4 -1 4 -2 4 -2 4 -2 4 -2 4 -2 4 -2 4 -3 3 -3 3 -3 3 -3 3 -3 3 -3 3 -4 2 -4 2 -4 2 -4 2 -4 2 -4 2 -4 1 -4 1 -4 1 -4 1 -4 0 -4 0 -4 0z"/>
    </g>
   </g>
  </g>
 </g>
</svg>
