<?xml version="1.0" encoding="UTF-8"?>
<!DOCTYPE svg PUBLIC "-//W3C//DTD SVG 1.1//EN" "http://www.w3.org/Graphics/SVG/1.1/DTD/svg11.dtd">
<!-- Creator: CorelDRAW X6 -->
<svg xmlns="http://www.w3.org/2000/svg" xml:space="preserve" width="60px" height="60px" version="1.1" style="shape-rendering:geometricPrecision; text-rendering:geometricPrecision; image-rendering:optimizeQuality; fill-rule:evenodd; clip-rule:evenodd"
viewBox="0 0 22530 22530"
 xmlns:xlink="http://www.w3.org/1999/xlink">
 <defs>
  <style type="text/css">
   <![CDATA[
    .fil0 {fill:none}
    .fil1 {fill:white}
   ]]>
  </style>
 </defs>
 <g id="Layer_x0020_1">
  <metadata id="CorelCorpID_0Corel-Layer"/>
  <g id="_1397355920">
   <polygon class="fil0" points="22530,0 0,0 0,22530 22530,22530 "/>
   <path class="fil1" d="M11268 16898c-79,0 -157,-31 -220,-94l-5147 -5100c-219,-203 -391,-438 -548,-689 -845,-1392 -626,-3176 548,-4334 673,-673 1580,-1048 2535,-1048 642,0 1283,172 1830,501 251,141 486,329 704,547 110,110 204,220 298,329 94,-110 187,-220 297,-329 220,-203 454,-391 704,-547 548,-329 1189,-501 1831,-501 954,0 1861,375 2534,1048 581,581 930,1320 1026,2088l0 0c915,515 1532,1495 1532,2619 0,1659 -1345,3004 -3004,3004 -640,0 -1233,-200 -1720,-542l-2981 2953c-63,63 -141,94 -219,94zm4920 -6659l0 0c103,0 188,84 188,188l0 773 773 0c104,0 188,84 188,188l0 0c0,103 -84,188 -188,188l-773 0 0 774c0,104 -84,188 -188,188l0 0c-103,0 -188,-84 -188,-188l0 -774 -774 0c-104,0 -188,-84 -188,-188l0 0c0,-103 84,-188 188,-188l774 0 0 -773c0,-104 84,-188 188,-188zm796 -1748c-125,-508 -389,-985 -788,-1371 -563,-548 -1315,-860 -2096,-860 -532,0 -1064,141 -1518,407 -203,125 -407,266 -579,454 -188,188 -344,392 -469,595 -63,94 -157,157 -266,157l0 0c-110,0 -220,-63 -267,-157 -125,-219 -281,-423 -469,-595 -172,-172 -375,-329 -579,-438 -454,-281 -985,-422 -1518,-422 -798,0 -1533,313 -2096,860 -954,955 -1142,2425 -454,3568 126,204 282,407 454,579l4929 4882 2729 -2704c-504,-538 -814,-1260 -814,-2056 0,-1659 1345,-3004 3004,-3004 276,0 542,38 796,107zm-796 457c1348,0 2441,1093 2441,2441 0,1348 -1093,2441 -2441,2441 -1348,0 -2441,-1093 -2441,-2441 0,-1348 1093,-2441 2441,-2441z"/>
  </g>
 </g>
</svg>
