<?xml version="1.0" encoding="UTF-8"?>
<!DOCTYPE svg PUBLIC "-//W3C//DTD SVG 1.1//EN" "http://www.w3.org/Graphics/SVG/1.1/DTD/svg11.dtd">
<!-- Creator: CorelDRAW X6 -->
<svg xmlns="http://www.w3.org/2000/svg" xml:space="preserve" width="188px" height="188px" version="1.1" style="shape-rendering:geometricPrecision; text-rendering:geometricPrecision; image-rendering:optimizeQuality; fill-rule:evenodd; clip-rule:evenodd"
viewBox="0 0 1146914 1146914"
 xmlns:xlink="http://www.w3.org/1999/xlink">
 <defs>
  <style type="text/css">
   <![CDATA[
    .fil0 {fill:none}
    .fil1 {fill:#171334}
   ]]>
  </style>
 </defs>
 <g id="Layer_x0020_1">
  <metadata id="CorelCorpID_0Corel-Layer"/>
  <g id="_704682088">
   <polygon class="fil0" points="1146914,0 0,0 0,1146914 1146914,1146914 "/>
   <path class="fil1" d="M769021 683676c-34368,-57198 -106007,-77535 -159715,-45262 -13922,8373 -25568,19694 -34425,33132 -37640,-47647 -68121,-104396 -86364,-146892 16848,-1207 33024,-6307 47625,-15049 53686,-32251 69407,-105039 35040,-162295 -34368,-57198 -106029,-77535 -159715,-45262 -36087,21681 -54705,62703 -51432,111426 29,108 0,238 0,347 29,79 51,267 51,376 347,4450 780,8937 1452,13496 188,1076 513,2066 889,3034 10006,62031 56345,275700 232208,397963 9226,7998 19586,14485 30560,19478 513,296 968,592 1503,889 1264,751 2630,1178 4024,1452 15721,6329 32410,9659 48774,9659 19557,0 38529,-4638 54517,-14247 53658,-32251 69407,-105039 35011,-162266l0 22zm-48485 139884c-23155,13900 -54785,13951 -82311,2037 -216465,-126583 -251230,-406228 -252198,-414385 -2601,-38905 11191,-70159 38905,-86797 41347,-24846 96933,-8532 123874,36354 26934,44887 15237,101600 -26103,126424 -15641,9392 -33696,13199 -52263,11083 -159,-29 -347,0 -513,-29 -455,-29 -910,-29 -1365,0 -405,0 -831,29 -1235,79 -405,79 -802,137 -1207,238 -455,79 -889,217 -1315,347 -188,79 -347,79 -513,137 -217,108 -426,238 -643,347 -376,188 -780,347 -1156,592 -376,217 -780,455 -1127,722 -325,217 -614,455 -910,722 -347,296 -672,614 -990,939 -267,267 -513,564 -751,889 -267,347 -513,701 -751,1076 -217,347 -426,701 -614,1076 -217,376 -376,780 -535,1207 -137,347 -267,751 -376,1127 -108,455 -217,939 -296,1365 -51,217 -108,426 -137,643 -29,188 0,325 -29,513 -29,484 -29,939 0,1423 0,405 29,802 79,1207 51,405 137,802 238,1207 79,455 217,910 347,1344 51,188 79,347 137,513 18885,49236 59184,127869 110458,187458 79,108 217,188 296,267 376,405 780,780 1235,1156 267,217 535,484 802,701 376,267 802,513 1264,722 347,217 722,455 1127,643 51,0 79,51 137,51 405,188 802,238 1207,376 405,137 780,296 1207,347 780,159 1582,238 2362,238 79,0 188,51 238,51 0,0 0,0 29,0 137,0 267,-51 426,-51 643,-29 1315,-79 1958,-217 267,-51 513,-137 780,-217 513,-137 1019,-267 1503,-484 325,-108 592,-267 889,-405 426,-217 831,-405 1235,-643 347,-217 643,-455 968,-672 217,-188 484,-325 672,-513 108,-79 159,-188 267,-267 347,-325 672,-672 990,-1076 267,-296 513,-592 780,-910 217,-347 426,-672 643,-1048 217,-405 484,-802 672,-1235 51,-137 137,-217 188,-347 6892,-16581 18538,-30105 33587,-39143 41347,-24846 96933,-8532 123874,36326 26962,44858 15237,101600 -26103,126424l65 65z"/>
  </g>
 </g>
</svg>
