<?xml version="1.0" encoding="UTF-8"?>
<!DOCTYPE svg PUBLIC "-//W3C//DTD SVG 1.1//EN" "http://www.w3.org/Graphics/SVG/1.1/DTD/svg11.dtd">
<!-- Creator: CorelDRAW X7 -->
<svg xmlns="http://www.w3.org/2000/svg" xml:space="preserve" width="50px" height="50px" version="1.1" style="shape-rendering:geometricPrecision; text-rendering:geometricPrecision; image-rendering:optimizeQuality; fill-rule:evenodd; clip-rule:evenodd"
viewBox="0 0 500 500"
 xmlns:xlink="http://www.w3.org/1999/xlink">
 <defs>
  <style type="text/css">
   <![CDATA[
    .fil0 {fill:none}
    .fil1 {fill:#4D4D4D}
   ]]>
  </style>
 </defs>
 <g id="Layer_x0020_1">
  <metadata id="CorelCorpID_0Corel-Layer"/>
  <rect class="fil0" width="500" height="500"/>
  <g id="_785602368">
   <path class="fil1" d="M312 374l-124 0c-5,0 -9,-4 -9,-8l-34 -190c0,-3 1,-6 2,-8 2,-2 5,-3 8,-3l190 0c3,0 6,1 8,3 1,2 2,5 2,8l-34 190c0,4 -4,8 -9,8zm-113 -25l102 0 29 -162 -162 0 31 162z"/>
   <g>
    <path class="fil1" d="M220 335c-4,0 -8,-4 -9,-9l-12 -112c-1,-5 3,-10 8,-11 6,0 10,4 11,9l12 112c0,6 -3,10 -9,11 0,0 0,0 -1,0z"/>
    <path class="fil1" d="M280 335c-1,0 -1,0 -1,0 -6,-1 -9,-5 -9,-11l12 -112c1,-5 5,-9 11,-9 5,1 9,6 8,11l-12 112c0,5 -5,9 -9,9z"/>
    <path class="fil1" d="M250 335c-6,0 -10,-5 -10,-10l0 -112c0,-5 4,-9 10,-9 5,0 9,4 9,9l0 112c0,5 -4,10 -9,10z"/>
   </g>
   <path class="fil1" d="M351 138l-35 0c0,-1 0,-1 0,-2 0,-5 -4,-10 -10,-10l-112 0c-6,0 -10,5 -10,10 0,1 0,1 0,2l-35 0c-6,0 -10,4 -10,10 0,5 4,10 10,10l202 0c6,0 10,-5 10,-10 0,-6 -4,-10 -10,-10z"/>
  </g>
 </g>
</svg>
