<?xml version="1.0" encoding="UTF-8"?>
<!DOCTYPE svg PUBLIC "-//W3C//DTD SVG 1.1//EN" "http://www.w3.org/Graphics/SVG/1.1/DTD/svg11.dtd">
<!-- Creator: CorelDRAW X6 -->
<svg xmlns="http://www.w3.org/2000/svg" xml:space="preserve" width="18px" height="18px" version="1.1" style="shape-rendering:geometricPrecision; text-rendering:geometricPrecision; image-rendering:optimizeQuality; fill-rule:evenodd; clip-rule:evenodd"
viewBox="0 0 6000 6000"
 xmlns:xlink="http://www.w3.org/1999/xlink">
 <defs>
  <style type="text/css">
   <![CDATA[
    .fil0 {fill:none}
    .fil1 {fill:#B3B3B3}
   ]]>
  </style>
 </defs>
 <g id="Layer_x0020_1">
  <metadata id="CorelCorpID_0Corel-Layer"/>
  <path class="fil0" d="M5333 0l-4667 0c-367,0 -667,300 -667,667l0 4667c0,367 300,667 667,667l4667 0c367,0 667,-300 667,-667l0 -4667c0,-367 -300,-667 -667,-667z"/>
  <path class="fil1" d="M1500 3000l0 0c0,-92 74,-167 167,-167l2667 0c92,0 167,75 167,167l0 0c0,92 -76,167 -167,167l-2667 0c-91,0 -167,-75 -167,-167z"/>
 </g>
</svg>
