<?xml version="1.0" encoding="UTF-8"?>
<!DOCTYPE svg PUBLIC "-//W3C//DTD SVG 1.1//EN" "http://www.w3.org/Graphics/SVG/1.1/DTD/svg11.dtd">
<!-- Creator: CorelDRAW X6 -->
<svg xmlns="http://www.w3.org/2000/svg" xml:space="preserve" width="18px" height="18px" version="1.1" style="shape-rendering:geometricPrecision; text-rendering:geometricPrecision; image-rendering:optimizeQuality; fill-rule:evenodd; clip-rule:evenodd"
viewBox="0 0 18000 18000"
 xmlns:xlink="http://www.w3.org/1999/xlink">
 <defs>
  <style type="text/css">
   <![CDATA[
    .fil0 {fill:#B3B3B3}
   ]]>
  </style>
 </defs>
 <g id="Layer_x0020_1">
  <metadata id="CorelCorpID_0Corel-Layer"/>
  <path class="fil0" d="M2000 0l14001 0c1101,0 2000,899 2000,2000l0 14001c0,1101 -899,2000 -2000,2000l-14001 0c-1101,0 -2000,-899 -2000,-2000l0 -14001c0,-1101 899,-2000 2000,-2000zm-1 999l14003 0c550,0 999,456 999,999l0 14003c0,543 -456,999 -999,999l-14003 0c-543,0 -999,-449 -999,-999l0 -14003c0,-550 449,-999 999,-999z"/>
  <path class="fil0" d="M4500 9000l0 0c0,-275 223,-501 500,-501l8000 0c275,0 501,226 501,501l0 0c0,275 -229,501 -501,501l-8000 0c-273,0 -500,-226 -500,-501z"/>
 </g>
</svg>
