<?xml version="1.0" encoding="UTF-8"?>
<!DOCTYPE svg PUBLIC "-//W3C//DTD SVG 1.1//EN" "http://www.w3.org/Graphics/SVG/1.1/DTD/svg11.dtd">
<!-- Creator: CorelDRAW X6 -->
<svg xmlns="http://www.w3.org/2000/svg" xml:space="preserve" width="308px" height="245px" version="1.1" style="shape-rendering:geometricPrecision; text-rendering:geometricPrecision; image-rendering:optimizeQuality; fill-rule:evenodd; clip-rule:evenodd"
viewBox="0 0 308000 245003"
 xmlns:xlink="http://www.w3.org/1999/xlink">
 <defs>
  <style type="text/css">
   <![CDATA[
    .fil0 {fill:#5E0037}
   ]]>
  </style>
 </defs>
 <g id="Layer_x0020_1">
  <metadata id="CorelCorpID_0Corel-Layer"/>
  <path class="fil0" d="M101122 89424l-86394 0 130107 134519 -43713 -134519zm53887 155580l-71 0 -7 0 -7 0 -20 0 -21 0 -7 0 -7 0 -7 0 -56 0 -31 -1 -25 0 -56 -2 -6 0 -50 -2 -37 -2 -74 -5 -12 -1 -43 -4 -43 -4 -13 -1 -54 -6 -18 -2 -38 -5 -47 -6 -7 -1 -54 -8 -24 -4 -31 -5 -53 -9 -1 0 -53 -9 -30 -6 -25 -5 -53 -12 -6 -1 -47 -11 -35 -8 -19 -5 -53 -13 -11 -4 -41 -11 -40 -12 -65 -18 -17 -6 -37 -11 -45 -14 -7 -2 -52 -17 -21 -8 -30 -11 -51 -18 -1 0 -78 -31 -24 -8 -51 -20 -4 -2 -46 -19 -32 -14 -19 -8 -50 -21 -9 -5 -40 -19 -37 -18 -13 -6 -48 -24 -14 -7 -34 -18 -41 -21 -7 -5 -48 -26 -19 -9 -28 -17 -45 -26 -4 -1 -46 -28 -24 -13 -24 -15 -46 -28 -2 -1 -44 -28 -137 -92 -31 -21 -13 -11 -45 -32 -11 -7 -33 -26c-213,-162 -412,-344 -594,-544l-150379 -155476c-1224,-1263 -1571,-3144 -884,-4762 195,-462 464,-877 788,-1235l48866 -79989c793,-1298 2196,-2091 3719,-2102 7,0 18,0 25,0 118,0 235,5 351,14l100126 -13 72 -1c4,0 4,0 7,0l106 2 11 0 138 6 11 1 11 0 6 0 5 1 21 1 11 1 11 0 11 1 13 0 99508 -13 106 -1c4,0 7,0 7,0l71 1 0 1 72 0 2 1 69 2 5 1 66 2 8 1 63 5 11 1 59 5 14 2 57 6 17 2 53 6 19 4 51 6 22 4 47 8 25 4 45 8 27 5 41 8 30 6 39 8 32 7 37 8 67 17 38 8 30 8 40 11 27 8 43 12 25 7 2 0 111 35 19 7 50 17 17 6 52 18 13 6 188 73 6 4c191,82 376,176 554,284l15 8c633,386 1170,936 1548,1608l6 12 48819 79904c666,768 1070,1771 1070,2870 1,1421 -670,2683 -1714,3484l-147509 154345c-793,1329 -2233,2139 -3767,2139zm-117 -18473l43706 -137105 -88255 -1 44549 137107zm52915 -137105l-42777 134201 128260 -134201 -85483 0zm-3227 -12718l41839 -67932 -84199 14 42360 67918zm7876 3946l83273 0 -41468 -67874 -41805 67874zm-18979 -5164l-39165 -62785 -42125 67950 84511 0 -3221 -5164zm-89186 1250l42131 -67964 -84737 14 42606 67950zm-7908 3914l-42593 -67926 -41494 67926 84087 0z"/>
 </g>
</svg>
