<svg xmlns="http://www.w3.org/2000/svg" xmlns:xlink="http://www.w3.org/1999/xlink" xmlns:sketch="http://www.bohemiancoding.com/sketch/ns" viewBox="0 0 40 50" version="1.1" x="0px" y="0px"><title>earring_accessory_fashion_jewelry</title><desc>Created with Sketch.</desc><g stroke="none" stroke-width="1" fill="none" fill-rule="evenodd" sketch:type="MSPage"><path d="M26,10.9645556 L26,13.7579757 C24.4772246,16.1132487 20,23.404314 20,27.7105263 C20,32.8990962 22.9101491,36 26.5,36 C30.0898509,36 33,32.8990962 33,27.7105263 C33,23.404314 28.5227754,16.1132487 27,13.7579757 L27,13.7579757 L27,10.9645556 C28.6961471,10.7219407 30,9.26323595 30,7.5 C30,5.56700338 28.4329966,4 26.5,4 C24.5670034,4 23,5.56700338 23,7.5 C23,9.26323595 24.3038529,10.7219407 26,10.9645556 Z M26.5,31.5789474 C28.9852814,31.5789474 31,29.6204818 31,26.3434903 C31,23.0664988 26.5,16.2105263 26.5,16.2105263 C26.5,16.2105263 22,23.0664988 22,26.3434903 C22,29.6204818 24.0147186,31.5789474 26.5,31.5789474 Z M13,10.9645556 L13,13.7579757 C11.4772246,16.1132487 7,23.404314 7,27.7105263 C7,32.8990962 9.91014913,36 13.5,36 C17.0898509,36 20,32.8990962 20,27.7105263 C20,23.404314 15.5227754,16.1132487 14,13.7579757 L14,13.7579757 L14,10.9645556 C15.6961471,10.7219407 17,9.26323595 17,7.5 C17,5.56700338 15.4329966,4 13.5,4 C11.5670034,4 10,5.56700338 10,7.5 C10,9.26323595 11.3038529,10.7219407 13,10.9645556 Z M13.5,31.5789474 C15.9852814,31.5789474 18,29.6204818 18,26.3434903 C18,23.0664988 13.5,16.2105263 13.5,16.2105263 C13.5,16.2105263 9,23.0664988 9,26.3434903 C9,29.6204818 11.0147186,31.5789474 13.5,31.5789474 Z" fill="#000000" sketch:type="MSShapeGroup"/></g><text x="0" y="55" fill="#000000" font-size="5px" font-weight="bold" font-family="'Helvetica Neue', Helvetica, Arial-Unicode, Arial, Sans-serif">Created by Pham Thi Dieu Linh</text><text x="0" y="60" fill="#000000" font-size="5px" font-weight="bold" font-family="'Helvetica Neue', Helvetica, Arial-Unicode, Arial, Sans-serif">from the Noun Project</text></svg>