<?xml version="1.0" encoding="UTF-8"?>
<!DOCTYPE svg PUBLIC "-//W3C//DTD SVG 1.1//EN" "http://www.w3.org/Graphics/SVG/1.1/DTD/svg11.dtd">
<!-- Creator: CorelDRAW X6 -->
<svg xmlns="http://www.w3.org/2000/svg" xml:space="preserve" width="40px" height="40px" version="1.1" style="shape-rendering:geometricPrecision; text-rendering:geometricPrecision; image-rendering:optimizeQuality; fill-rule:evenodd; clip-rule:evenodd"
viewBox="0 0 3419 3419"
 xmlns:xlink="http://www.w3.org/1999/xlink">
 <defs>
  <style type="text/css">
   <![CDATA[
    .fil0 {fill:none}
    .fil2 {fill:#A8B7CE}
    .fil1 {fill:white}
   ]]>
  </style>
 </defs>
 <g id="Layer_x0020_1">
  <metadata id="CorelCorpID_0Corel-Layer"/>
  <rect class="fil0" width="3419" height="3419"/>
  <g id="_736221656">
   <polygon class="fil1" points="1050,1616 1387,1897 1716,2172 1717,2172 2369,1617 2369,1355 2369,1289 2369,1078 2051,1078 1952,1078 1475,1078 1375,1078 1050,1078 1050,1291 1050,1357 "/>
   <path class="fil2" d="M2619 1454l0 1110 -1818 0 0 -1110 194 -127 0 -304 464 0 256 -168 253 168 456 0 0 303 195 129zm-806 14c-9,-3 -24,-6 -44,-6 -77,0 -138,72 -138,157 0,38 19,66 57,66 50,0 97,-64 106,-118l18 -98zm-253 -446l310 0 -154 -102 -156 102zm865 552l121 -103 -121 -80 0 183zm-1550 -103l121 100 0 -179 -121 79zm831 408c-143,0 -264,-104 -264,-272 0,-179 124,-334 318,-334 152,0 253,106 253,252 0,131 -73,207 -155,207 -35,0 -67,-24 -64,-77l-4 0c-30,51 -71,77 -123,77 -50,0 -94,-41 -94,-110 0,-108 85,-206 206,-206 37,0 70,8 93,18l-30 157c-13,66 -3,97 26,98 44,1 94,-58 94,-159 0,-126 -76,-217 -211,-217 -142,0 -261,112 -261,289 0,145 95,235 224,235 50,0 96,-10 132,-30l14 37c-48,25 -97,35 -155,35zm858 -351l-845 716 -1 -1 -366 -304 -496 -412 0 981 1708 0 0 -980 0 0z"/>
   <polygon class="fil1" points="1351,1940 1718,2244 1717,2244 "/>
  </g>
 </g>
</svg>
