<svg xmlns="http://www.w3.org/2000/svg" xmlns:xlink="http://www.w3.org/1999/xlink" version="1.1" x="0px" y="0px" viewBox="0 0 100 125" enable-background="new 0 0 100 100" xml:space="preserve"><path d="M53.21,9c-2.785-5.345-8.366-9-14.81-9S26.375,3.655,23.59,9H0v16h23.922c2.882,5.015,8.279,8.4,14.478,8.4  c6.199,0,11.597-3.385,14.478-8.4H100V9H53.21z M38.4,25.05c-4.612,0-8.35-3.737-8.35-8.35s3.738-8.35,8.35-8.35  s8.35,3.738,8.35,8.35S43.012,25.05,38.4,25.05z"/><path d="M92.189,42c-2.851-5.127-8.316-8.6-14.6-8.6s-11.749,3.473-14.6,8.6H0v16h62.877c2.817,5.238,8.347,8.8,14.713,8.8  c6.365,0,11.896-3.562,14.714-8.8H100V42H92.189z M77.59,58.45c-4.612,0-8.35-3.738-8.35-8.35c0-4.612,3.737-8.35,8.35-8.35  s8.351,3.738,8.351,8.35C85.94,54.712,82.202,58.45,77.59,58.45z"/><path d="M41.167,75c-2.909-4.903-8.241-8.2-14.357-8.2c-6.116,0-11.447,3.297-14.357,8.2H0v17h12.453  c2.91,4.903,8.241,8.2,14.357,8.2c6.116,0,11.448-3.297,14.357-8.2H100V75H41.167z M26.81,91.85c-4.612,0-8.35-3.737-8.35-8.35  s3.737-8.35,8.35-8.35s8.35,3.737,8.35,8.35S31.422,91.85,26.81,91.85z"/></svg>