<?xml version="1.0" encoding="UTF-8"?>
<!DOCTYPE svg PUBLIC "-//W3C//DTD SVG 1.1//EN" "http://www.w3.org/Graphics/SVG/1.1/DTD/svg11.dtd">
<!-- Creator: CorelDRAW X7 -->
<svg xmlns="http://www.w3.org/2000/svg" xml:space="preserve" width="40px" height="40px" version="1.1" style="shape-rendering:geometricPrecision; text-rendering:geometricPrecision; image-rendering:optimizeQuality; fill-rule:evenodd; clip-rule:evenodd"
viewBox="0 0 4214 4214"
 xmlns:xlink="http://www.w3.org/1999/xlink">
 <defs>
  <style type="text/css">
   <![CDATA[
    .fil0 {fill:none}
    .fil1 {fill:#5E0037}
   ]]>
  </style>
 </defs>
 <g id="Layer_x0020_1">
  <metadata id="CorelCorpID_0Corel-Layer"/>
  <g id="_1729583184">
   <rect class="fil0" width="4214" height="4214"/>
   <path class="fil1" d="M1321 1322l-184 0c-46,0 -84,37 -84,84 0,46 38,83 84,83l184 0c37,136 161,236 309,236l0 0c147,0 272,-100 308,-236l1139 0c46,0 84,-37 84,-83 0,-47 -38,-84 -84,-84l-1139 0c-36,-136 -161,-236 -308,-236 -148,0 -272,100 -309,236zm309 1806c-148,0 -272,-100 -309,-236l-184 0c-46,0 -84,-37 -84,-83 0,-47 38,-84 84,-84l184 0c37,-136 161,-236 309,-236 147,0 272,100 308,236l1139 0c46,0 84,37 84,84 0,46 -38,83 -84,83l-1139 0c-36,136 -161,236 -308,236l0 0zm0 -472c-84,0 -153,68 -153,153 0,84 69,152 153,152 84,0 153,-68 153,-152 0,-85 -69,-153 -153,-153l0 0zm894 -229c-147,0 -271,-101 -308,-237l-1079 0c-46,0 -84,-37 -84,-83 0,-46 38,-83 84,-83l1079 0c37,-136 161,-237 308,-237 148,0 272,101 309,237l244 0c46,0 84,37 84,83 0,46 -38,83 -84,83l-244 0c-37,136 -161,237 -309,237l0 0zm-894 -1174c-84,0 -153,68 -153,153 0,84 69,152 153,152 84,0 153,-68 153,-152 0,-85 -69,-153 -153,-153l0 0z"/>
  </g>
 </g>
</svg>
