<svg xmlns="http://www.w3.org/2000/svg" xmlns:xlink="http://www.w3.org/1999/xlink" version="1.1" x="0px" y="0px" viewBox="0 0 100 125" enable-background="new 0 0 100 100" xml:space="preserve"><g><path d="M53.601,31.086c-3.43-2.191-4.261-2.125-7.538,0C43.718,32.606,20.876,47.69,20.876,47.69s0,27.6,0,30.053   c0,4.427,1.53,7.422,6.731,7.422c0.7,0,5.926,0,12.607,0V60.703h19.568v24.462c6.979,0,12.547,0,13.378,0   c4.58,0,5.962-2.325,5.962-6.671c0-3.62,0-30.804,0-30.804S55.949,32.588,53.601,31.086z"/><path d="M51.712,23.322c1.985,1.286,31.336,19.811,32.63,20.623c0.615,0.388,1.299,0.571,1.979,0.571l0,0   c1.238,0,2.449-0.619,3.157-1.747c1.096-1.744,0.567-4.045-1.174-5.139c-8.777-5.509-31.818-20.155-33.445-21.074   c-4.009-2.263-5.728-2.326-9.721,0c-1.614,0.941-24.667,15.565-33.442,21.074c-1.744,1.094-2.27,3.396-1.174,5.139   c0.706,1.127,1.917,1.747,3.16,1.747l0,0c0.676,0,1.36-0.184,1.978-0.571c1.292-0.812,30.727-19.368,32.734-20.623   C49.375,22.708,50.667,22.646,51.712,23.322z"/></g></svg>