<?xml version="1.0" encoding="UTF-8"?>
<!DOCTYPE svg PUBLIC "-//W3C//DTD SVG 1.1//EN" "http://www.w3.org/Graphics/SVG/1.1/DTD/svg11.dtd">
<!-- Creator: CorelDRAW X7 -->
<svg xmlns="http://www.w3.org/2000/svg" xml:space="preserve" width="60px" height="60px" version="1.1" style="shape-rendering:geometricPrecision; text-rendering:geometricPrecision; image-rendering:optimizeQuality; fill-rule:evenodd; clip-rule:evenodd"
viewBox="0 0 20000 19999"
 xmlns:xlink="http://www.w3.org/1999/xlink">
 <defs>
  <style type="text/css">
   <![CDATA[
    .fil0 {fill:none}
    .fil1 {fill:#8A0044}
   ]]>
  </style>
 </defs>
 <g id="Layer_x0020_1">
  <metadata id="CorelCorpID_0Corel-Layer"/>
  <g id="_1871235424">
   <rect class="fil0" width="20000" height="20000"/>
   <path class="fil1" d="M13379 11056c0,-146 117,-277 277,-277l0 0c146,0 277,117 277,277l0 2724c0,466 -379,845 -845,845l-1559 0c-466,0 -845,-379 -845,-845l0 -1413c0,-102 -87,-189 -189,-189l-903 0c-102,0 -189,87 -189,189l0 1413c0,466 -379,845 -845,845l-1588 0c-466,0 -845,-379 -845,-845l0 -2724c0,-146 117,-277 277,-277l0 0c146,0 277,117 277,277l0 2549c0,262 204,466 466,466l1238 0c262,0 466,-204 466,-466l0 -1442c0,-291 233,-539 539,-539l1311 0c291,0 539,233 539,539l0 1442c0,262 204,466 466,466l1209 0c262,0 466,-204 466,-466l0 -2549zm-7924 -757l4283 -4254c73,-73 160,-102 262,-102l0 0c102,0 189,44 262,117l4268 4268c102,102 277,102 393,0l0 0c102,-102 102,-277 0,-394l-4268 -4282c-175,-175 -407,-277 -655,-277 0,0 0,0 0,0 -248,0 -481,102 -655,277l-4269 4253c-102,102 -102,277 0,394l0 0c102,102 277,102 379,0z"/>
  </g>
 </g>
</svg>
