<?xml version="1.0" encoding="UTF-8"?>
<!DOCTYPE svg PUBLIC "-//W3C//DTD SVG 1.1//EN" "http://www.w3.org/Graphics/SVG/1.1/DTD/svg11.dtd">
<!-- Creator: CorelDRAW X6 -->
<svg xmlns="http://www.w3.org/2000/svg" xml:space="preserve" width="138px" height="138px" version="1.1" style="shape-rendering:geometricPrecision; text-rendering:geometricPrecision; image-rendering:optimizeQuality; fill-rule:evenodd; clip-rule:evenodd"
viewBox="0 0 137979 137978"
 xmlns:xlink="http://www.w3.org/1999/xlink">
 <defs>
  <style type="text/css">
   <![CDATA[
    .fil0 {fill:none}
    .fil1 {fill:white;fill-rule:nonzero}
   ]]>
  </style>
 </defs>
 <g id="Layer_x0020_1">
  <metadata id="CorelCorpID_0Corel-Layer"/>
  <g id="_1509974760">
   <rect class="fil0" width="137979" height="137978"/>
   <g>
    <g>
     <g>
      <path class="fil1" d="M96936 53287l1213 0 0 0 -39 1497 -112 1477 -186 1458 -257 1433 -327 1409 -394 1382 -460 1354 -524 1323 -585 1292 -644 1257 -705 1221 -759 1183 -815 1143 -867 1102 -917 1058 -966 1014 -1014 966 -1058 917 -1102 867 -1143 815 -1183 759 -1221 705 -1257 644 -1292 585 -1323 524 -1354 460 -1382 394 -1409 327 -1433 257 -1458 186 -1477 112 -1497 39 0 -1213 1435 -37 1415 -108 1396 -179 1374 -247 1350 -313 1323 -377 1297 -441 1269 -500 1238 -562 1205 -618 1169 -674 1134 -728 1096 -781 1057 -831 1016 -880 972 -926 926 -972 880 -1016 831 -1057 781 -1096 728 -1134 674 -1169 618 -1205 562 -1238 500 -1269 441 -1297 377 -1323 313 -1350 247 -1374 179 -1396 108 -1415 37 -1435 0 0zm1213 0l-1213 0 1 -31 2 -31 4 -31 5 -30 7 -30 8 -28 9 -28 11 -28 13 -26 13 -26 14 -26 17 -25 17 -24 18 -22 19 -22 20 -21 21 -20 22 -19 22 -18 24 -17 25 -17 26 -14 26 -13 26 -13 28 -11 28 -9 28 -8 30 -7 30 -5 31 -4 31 -2 31 -1 31 1 31 2 31 4 30 5 30 7 28 8 28 9 28 11 26 13 26 13 26 14 25 17 24 17 22 18 22 19 21 20 20 21 19 22 18 22 17 24 17 25 14 26 13 26 13 26 11 28 9 28 8 28 7 30 5 30 4 31 2 31 1 31zm-29160 -27947l0 -1213 0 0 1497 39 1477 112 1458 186 1433 257 1409 327 1382 394 1354 460 1323 524 1292 585 1257 644 1221 705 1183 759 1143 815 1102 867 1058 917 1014 966 966 1014 917 1058 867 1102 815 1143 759 1183 705 1221 644 1257 585 1292 524 1323 460 1354 394 1382 327 1409 257 1433 186 1458 112 1477 39 1497 -1213 0 -37 -1435 -108 -1415 -179 -1396 -247 -1374 -313 -1350 -377 -1323 -441 -1297 -500 -1269 -562 -1238 -618 -1205 -674 -1169 -728 -1134 -781 -1096 -831 -1057 -880 -1016 -926 -972 -972 -926 -1016 -880 -1057 -831 -1096 -781 -1134 -728 -1169 -674 -1205 -618 -1238 -562 -1269 -500 -1297 -441 -1323 -377 -1350 -313 -1374 -247 -1396 -179 -1415 -108 -1435 -37 0 0zm0 -1213l0 1213 -31 -1 -31 -2 -31 -4 -30 -5 -30 -7 -28 -8 -28 -9 -28 -11 -26 -13 -26 -13 -26 -14 -25 -17 -24 -17 -22 -18 -22 -19 -21 -20 -20 -21 -19 -22 -18 -22 -17 -24 -17 -25 -14 -26 -13 -26 -13 -26 -11 -28 -9 -28 -8 -28 -7 -30 -5 -30 -4 -31 -2 -31 -1 -31 1 -31 2 -31 4 -31 5 -30 7 -30 8 -28 9 -28 11 -28 13 -26 13 -26 14 -26 17 -25 17 -24 18 -22 19 -22 20 -21 21 -20 22 -19 22 -18 24 -17 25 -17 26 -14 26 -13 26 -13 28 -11 28 -9 28 -8 30 -7 30 -5 31 -4 31 -2 31 -1zm-27946 29160l-1213 0 0 0 39 -1497 112 -1477 186 -1458 257 -1433 327 -1409 394 -1382 460 -1354 524 -1323 585 -1292 644 -1257 705 -1221 759 -1183 815 -1143 867 -1102 917 -1058 966 -1014 1014 -966 1058 -917 1101 -867 1146 -815 1182 -759 1221 -705 1257 -644 1291 -585 1323 -524 1354 -460 1383 -394 1408 -327 1434 -257 1457 -186 1477 -112 1497 -39 0 1213 -1435 37 -1415 108 -1395 179 -1375 247 -1349 313 -1324 377 -1297 441 -1269 500 -1237 562 -1205 618 -1169 674 -1135 728 -1096 781 -1056 831 -1016 880 -972 926 -926 972 -880 1016 -831 1057 -781 1096 -728 1134 -674 1169 -618 1205 -562 1238 -500 1269 -441 1297 -377 1323 -313 1350 -247 1374 -179 1396 -108 1415 -37 1435 0 0zm-1213 0l1213 0 -1 31 -2 31 -4 31 -5 30 -7 30 -8 28 -9 28 -11 28 -13 26 -13 26 -14 26 -17 25 -17 24 -18 22 -19 22 -20 21 -21 20 -22 19 -22 18 -24 17 -25 17 -26 14 -26 13 -26 13 -28 11 -28 9 -28 8 -30 7 -30 5 -31 4 -31 2 -31 1 -31 -1 -31 -2 -31 -4 -30 -5 -30 -7 -28 -8 -28 -9 -28 -11 -26 -13 -26 -13 -26 -14 -25 -17 -24 -17 -22 -18 -22 -19 -21 -20 -20 -21 -19 -22 -18 -22 -17 -24 -17 -25 -14 -26 -13 -26 -13 -26 -11 -28 -9 -28 -8 -28 -7 -30 -5 -30 -4 -31 -2 -31 -1 -31zm29159 27947l0 1213 0 0 -1497 -39 -1477 -112 -1457 -186 -1434 -257 -1408 -327 -1383 -394 -1354 -460 -1323 -524 -1291 -585 -1257 -644 -1221 -705 -1182 -759 -1146 -815 -1101 -867 -1058 -917 -1014 -966 -966 -1014 -917 -1058 -867 -1102 -815 -1143 -759 -1183 -705 -1221 -644 -1257 -585 -1292 -524 -1323 -460 -1354 -394 -1382 -327 -1409 -257 -1433 -186 -1458 -112 -1477 -39 -1497 1213 0 37 1435 108 1415 179 1396 247 1374 313 1350 377 1323 441 1297 500 1269 562 1238 618 1205 674 1169 728 1134 781 1096 831 1057 880 1016 926 972 972 926 1016 880 1056 831 1096 781 1135 728 1169 674 1205 618 1237 562 1269 500 1297 441 1324 377 1349 313 1375 247 1395 179 1415 108 1435 37 0 0zm0 1213l0 -1213 31 1 31 2 31 4 30 5 30 7 28 8 28 9 28 11 26 13 26 13 26 14 25 17 24 17 22 18 22 19 21 20 20 21 19 22 18 22 17 24 17 25 14 26 13 26 13 26 11 28 9 28 8 28 7 30 5 30 4 31 2 31 1 31 -1 31 -2 31 -4 31 -5 30 -7 30 -8 28 -9 28 -11 28 -13 26 -13 26 -14 26 -17 25 -17 24 -18 22 -19 22 -20 21 -21 20 -22 19 -22 18 -24 17 -25 17 -26 14 -26 13 -26 13 -28 11 -28 9 -28 8 -30 7 -30 5 -31 4 -31 2 -31 1z"/>
     </g>
     <g>
      <path class="fil1" d="M76496 34261l688 286 -8 18 -8 17 -9 17 -9 15 -11 15 -12 14 -12 13 -13 13 -13 13 -14 12 -14 11 -14 11 -15 9 -15 8 -17 8 -17 7 -17 6 -17 6 -18 5 -18 4 -18 4 -18 2 -18 1 -18 1 -19 0 -18 -1 -19 -2 -18 -4 -18 -4 -19 -5 -18 -6 -18 -7 -18 -8 -17 -8 -17 -9 -15 -9 -15 -11 -14 -12 -13 -12 -13 -13 -13 -13 -12 -14 -11 -14 -11 -14 -9 -15 -8 -15 -8 -17 -7 -17 -6 -17 -6 -17 -5 -18 -4 -18 -4 -18 -2 -18 -1 -18 -1 -18 0 -19 1 -18 2 -19 4 -18 4 -18 5 -19 6 -18 7 -18zm3801 -7203l-3113 7489 -688 -286 3113 -7489 688 286zm0 0l-688 -286 8 -18 8 -17 9 -17 9 -15 11 -15 12 -14 12 -13 13 -13 13 -13 14 -12 14 -11 14 -11 15 -9 15 -8 17 -8 17 -7 17 -6 17 -6 18 -5 18 -4 18 -4 18 -2 18 -1 18 -1 19 0 18 1 19 2 18 4 18 4 19 5 18 6 18 7 18 8 17 8 17 9 15 9 15 11 14 12 13 12 13 13 13 13 12 14 11 14 11 14 9 15 8 15 8 17 7 17 6 17 6 17 5 18 4 18 4 18 2 18 1 18 1 18 0 19 -1 18 -2 19 -4 18 -4 18 -5 19 -6 18 -7 18z"/>
     </g>
     <g>
      <path class="fil1" d="M87820 45168l284 690 -18 7 -18 6 -19 5 -18 4 -19 4 -18 1 -19 1 -18 1 -18 -1 -19 -1 -18 -2 -18 -4 -18 -4 -17 -6 -17 -5 -18 -7 -15 -7 -17 -8 -15 -8 -15 -9 -15 -11 -14 -11 -13 -12 -13 -13 -13 -13 -12 -14 -12 -14 -11 -15 -9 -15 -9 -17 -8 -17 -8 -18 -7 -18 -6 -18 -5 -19 -4 -18 -4 -19 -1 -18 -1 -19 -1 -18 1 -18 1 -19 2 -18 4 -18 4 -18 6 -17 5 -17 7 -18 7 -15 8 -17 8 -15 9 -15 11 -15 11 -14 12 -13 13 -13 13 -13 14 -12 14 -12 15 -11 15 -9 17 -9 17 -8 18 -8zm7781 -2402l-7497 3093 -284 -690 7497 -3093 284 690zm0 0l-284 -690 18 -7 18 -6 19 -5 18 -4 19 -4 18 -1 19 -1 18 -1 18 1 19 1 18 2 18 4 18 4 17 6 17 5 18 7 15 7 17 8 15 8 15 9 15 11 14 11 13 12 13 13 13 13 12 14 12 14 11 15 9 15 9 17 8 17 8 18 7 18 6 18 5 19 4 18 4 19 1 18 1 19 1 18 -1 18 -1 19 -2 18 -4 18 -4 18 -6 17 -5 17 -7 18 -7 15 -8 17 -8 15 -9 15 -11 15 -11 14 -12 13 -13 13 -13 13 -14 12 -14 12 -15 11 -15 9 -17 9 -17 8 -18 8z"/>
     </g>
     <g>
      <path class="fil1" d="M88113 60891l-286 688 -18 -8 -17 -8 -17 -9 -15 -9 -15 -11 -14 -12 -13 -12 -13 -13 -13 -13 -12 -14 -11 -14 -11 -14 -9 -15 -8 -15 -8 -17 -7 -17 -6 -17 -6 -17 -5 -18 -4 -18 -4 -18 -2 -18 -1 -18 -1 -18 0 -19 1 -18 2 -19 4 -18 4 -18 5 -19 6 -18 7 -18 8 -18 8 -17 9 -17 9 -15 11 -15 12 -14 12 -13 13 -13 13 -13 14 -12 14 -11 14 -11 15 -9 15 -8 17 -8 17 -7 17 -6 17 -6 18 -5 18 -4 18 -4 18 -2 18 -1 18 -1 19 0 18 1 19 2 18 4 18 4 19 5 18 6 18 7zm7203 3801l-7489 -3113 286 -688 7489 3113 -286 688zm0 0l286 -688 18 8 17 8 17 9 15 9 15 11 14 12 13 12 13 13 13 13 12 14 11 14 11 14 9 15 8 15 8 17 7 17 6 17 6 17 5 18 4 18 4 18 2 18 1 18 1 18 0 19 -1 18 -2 19 -4 18 -4 18 -5 19 -6 18 -7 18 -8 18 -8 17 -9 17 -9 15 -11 15 -12 14 -12 13 -13 13 -13 13 -14 12 -14 11 -14 11 -15 9 -15 8 -17 8 -17 7 -17 6 -17 6 -18 5 -18 4 -18 4 -18 2 -18 1 -18 1 -19 0 -18 -1 -19 -2 -18 -4 -18 -4 -19 -5 -18 -6 -18 -7z"/>
     </g>
     <g>
      <path class="fil1" d="M77204 72215l-690 284 -7 -18 -6 -18 -5 -19 -4 -18 -4 -19 -1 -18 -1 -19 -1 -18 1 -18 1 -19 2 -18 4 -18 4 -18 6 -17 5 -17 7 -18 7 -15 8 -17 8 -15 9 -15 11 -15 11 -14 12 -13 13 -13 13 -13 14 -12 14 -12 15 -11 15 -9 17 -9 17 -8 18 -8 18 -7 18 -6 19 -5 18 -4 19 -4 18 -1 19 -1 18 -1 18 1 19 1 18 2 18 4 18 4 17 6 17 5 18 7 15 7 17 8 15 8 15 9 15 11 14 11 13 12 13 13 13 13 12 14 12 14 11 15 9 15 9 17 8 17 8 18zm2404 7781l-3094 -7497 690 -284 3094 7497 -690 284zm0 0l690 -284 7 18 6 18 5 19 4 18 4 19 1 18 1 19 1 18 -1 18 -1 19 -2 18 -4 18 -4 18 -6 17 -5 17 -7 18 -7 15 -8 17 -8 15 -9 15 -11 15 -11 14 -12 13 -13 13 -13 13 -14 12 -14 12 -15 11 -15 9 -17 9 -17 8 -18 8 -18 7 -18 6 -19 5 -18 4 -19 4 -18 1 -19 1 -18 1 -18 -1 -19 -1 -18 -2 -18 -4 -18 -4 -17 -6 -17 -5 -18 -7 -15 -7 -17 -8 -15 -8 -15 -9 -15 -11 -14 -11 -13 -12 -13 -13 -13 -13 -12 -14 -12 -14 -11 -15 -9 -15 -9 -17 -8 -17 -8 -18z"/>
     </g>
     <g>
      <path class="fil1" d="M61482 72508l-688 -286 8 -18 8 -17 9 -17 9 -15 11 -15 12 -14 12 -13 13 -13 13 -13 14 -12 14 -11 14 -11 15 -9 15 -8 17 -8 17 -7 17 -6 17 -6 18 -5 18 -4 18 -4 18 -2 18 -1 18 -1 19 0 18 1 19 2 18 4 18 4 19 5 18 6 18 7 18 8 17 8 17 9 15 9 15 11 14 12 13 12 13 13 13 13 12 14 11 14 11 14 9 15 8 15 8 17 7 17 6 17 6 17 5 18 4 18 4 18 2 18 1 18 1 18 0 19 -1 18 -2 19 -4 18 -4 18 -5 19 -6 18 -7 18zm-3801 7203l3113 -7489 688 286 -3113 7489 -688 -286zm0 0l688 286 -8 18 -8 17 -9 17 -9 15 -11 15 -12 14 -12 13 -13 13 -13 13 -14 12 -14 11 -14 11 -15 9 -15 8 -17 8 -17 7 -17 6 -17 6 -18 5 -18 4 -18 4 -18 2 -18 1 -18 1 -19 0 -18 -1 -19 -2 -18 -4 -18 -4 -19 -5 -18 -6 -18 -7 -18 -8 -17 -8 -17 -9 -15 -9 -15 -11 -14 -12 -13 -12 -13 -13 -13 -13 -12 -14 -11 -14 -11 -14 -9 -15 -8 -15 -8 -17 -7 -17 -6 -17 -6 -17 -5 -18 -4 -18 -4 -18 -2 -18 -1 -18 -1 -18 0 -19 1 -18 2 -19 4 -18 4 -18 5 -19 6 -18 7 -18z"/>
     </g>
     <g>
      <path class="fil1" d="M50159 61599l-284 -690 18 -7 18 -6 19 -5 18 -4 19 -4 18 -1 19 -1 18 -1 18 1 19 1 18 2 18 4 18 4 17 6 17 5 18 7 15 7 17 8 15 8 15 9 15 11 14 11 13 12 13 13 13 13 12 14 12 14 11 15 9 15 9 17 8 17 8 18 7 18 6 18 5 19 4 18 4 19 1 18 1 19 1 18 -1 18 -1 19 -2 18 -4 18 -4 18 -6 17 -5 17 -7 18 -7 15 -8 17 -8 15 -9 15 -11 15 -11 14 -12 13 -13 13 -13 13 -14 12 -14 12 -15 11 -15 9 -17 9 -17 8 -18 8zm-7781 2404l7497 -3094 284 690 -7497 3094 -284 -690zm0 0l284 690 -18 7 -18 6 -19 5 -18 4 -19 4 -18 1 -19 1 -18 1 -18 -1 -19 -1 -18 -2 -18 -4 -18 -4 -17 -6 -17 -5 -18 -7 -15 -7 -17 -8 -15 -8 -15 -9 -15 -11 -14 -11 -13 -12 -13 -13 -13 -13 -12 -14 -12 -14 -11 -15 -9 -15 -9 -17 -8 -17 -8 -18 -7 -18 -6 -18 -5 -19 -4 -18 -4 -19 -1 -18 -1 -19 -1 -18 1 -18 1 -19 2 -18 4 -18 4 -18 6 -17 5 -17 7 -18 7 -15 8 -17 8 -15 9 -15 11 -15 11 -14 12 -13 13 -13 13 -13 14 -12 14 -12 15 -11 15 -9 17 -9 17 -8 18 -8z"/>
     </g>
     <g>
      <path class="fil1" d="M49866 45877l286 -688 18 8 17 8 17 9 15 9 15 11 14 12 13 12 13 13 13 13 12 14 11 14 11 14 9 15 8 15 8 17 7 17 6 17 6 17 5 18 4 18 4 18 2 18 1 18 1 18 0 19 -1 18 -2 19 -4 18 -4 18 -5 19 -6 18 -7 18 -8 18 -8 17 -9 17 -9 15 -11 15 -12 14 -12 13 -13 13 -13 13 -14 12 -14 11 -14 11 -15 9 -15 8 -17 8 -17 7 -17 6 -17 6 -18 5 -18 4 -18 4 -18 2 -18 1 -18 1 -19 0 -18 -1 -19 -2 -18 -4 -18 -4 -19 -5 -18 -6 -18 -7zm-7203 -3801l7489 3113 -286 688 -7489 -3113 286 -688zm0 0l-286 688 -18 -8 -17 -8 -17 -9 -15 -9 -15 -11 -14 -12 -13 -12 -13 -13 -13 -13 -12 -14 -11 -14 -11 -14 -9 -15 -8 -15 -8 -17 -7 -17 -6 -17 -6 -17 -5 -18 -4 -18 -4 -18 -2 -18 -1 -18 -1 -18 0 -19 1 -18 2 -19 4 -18 4 -18 5 -19 6 -18 7 -18 8 -18 8 -17 9 -17 9 -15 11 -15 12 -14 12 -13 13 -13 13 -13 14 -12 14 -11 14 -11 15 -9 15 -8 17 -8 17 -7 17 -6 17 -6 18 -5 18 -4 18 -4 18 -2 18 -1 18 -1 19 0 18 1 19 2 18 4 18 4 19 5 18 6 18 7z"/>
     </g>
     <g>
      <path class="fil1" d="M60775 34553l690 -284 7 18 6 18 5 19 4 18 4 19 1 18 1 19 1 18 -1 18 -1 19 -2 18 -4 18 -4 18 -6 17 -5 17 -7 18 -7 15 -8 17 -8 15 -9 15 -11 15 -11 14 -12 13 -13 13 -13 13 -14 12 -14 12 -15 11 -15 9 -17 9 -17 8 -18 8 -18 7 -18 6 -19 5 -18 4 -19 4 -18 1 -19 1 -18 1 -18 -1 -19 -1 -18 -2 -18 -4 -18 -4 -17 -6 -17 -5 -18 -7 -15 -7 -17 -8 -15 -8 -15 -9 -15 -11 -14 -11 -13 -12 -13 -13 -13 -13 -12 -14 -12 -14 -11 -15 -9 -15 -9 -17 -8 -17 -8 -18zm-2404 -7780l3094 7496 -690 284 -3094 -7496 690 -284zm0 0l-690 284 -7 -18 -6 -18 -5 -19 -4 -18 -4 -19 -1 -18 -1 -19 -1 -18 1 -18 1 -19 2 -18 4 -18 4 -18 6 -17 5 -17 7 -18 7 -15 8 -17 8 -15 9 -15 11 -15 11 -14 12 -13 13 -13 13 -13 14 -12 14 -12 15 -11 15 -9 17 -9 17 -8 18 -8 18 -7 18 -6 19 -5 18 -4 19 -4 18 -1 19 -1 18 -1 18 1 19 1 18 2 18 4 18 4 17 6 17 5 18 7 15 7 17 8 15 8 15 9 15 11 14 11 13 12 13 13 13 13 12 14 12 14 11 15 9 15 9 17 8 17 8 18z"/>
     </g>
     <g>
      <path class="fil1" d="M60830 34175l579 471 -12 14 -13 14 -14 13 -14 12 -14 12 -15 11 -15 9 -15 8 -17 8 -17 7 -17 7 -18 6 -17 5 -18 4 -18 4 -18 1 -18 2 -19 0 -18 0 -18 -1 -18 -2 -18 -2 -18 -4 -18 -5 -18 -6 -17 -6 -18 -7 -17 -8 -15 -9 -17 -9 -15 -11 -15 -12 -14 -12 -14 -13 -13 -14 -12 -14 -12 -14 -11 -15 -9 -15 -8 -15 -8 -17 -7 -17 -7 -17 -6 -18 -5 -17 -4 -18 -4 -18 -1 -18 -2 -18 0 -19 0 -18 1 -18 2 -18 2 -18 4 -18 5 -18 6 -18 6 -17 7 -18 8 -17 9 -15 9 -17 11 -15 12 -15zm8449 -9205l-7869 9676 -579 -471 7869 -9676 579 0 0 471zm0 0l-579 -471 12 -14 13 -14 14 -13 14 -12 14 -12 15 -11 15 -9 15 -8 17 -8 17 -7 17 -7 18 -6 17 -5 18 -4 18 -4 18 -2 18 -1 19 0 18 0 18 1 18 2 18 2 18 4 18 5 18 6 17 6 18 7 17 8 15 9 17 9 15 11 15 12 14 12 14 13 13 14 12 14 12 14 11 15 9 15 8 15 8 17 7 17 7 17 6 18 5 17 4 18 4 18 2 18 1 18 0 19 0 18 -1 18 -2 18 -2 18 -4 18 -5 18 -6 18 -6 17 -7 18 -8 17 -9 15 -9 17 -11 15 -12 15zm7271 9669l-7850 -9669 579 -471 7850 9669 -579 471zm0 0l579 -471 12 15 11 15 9 17 9 15 8 17 7 18 6 17 6 18 5 18 4 18 2 18 2 18 1 18 0 18 0 19 -1 18 -2 18 -4 18 -4 18 -5 17 -6 18 -7 17 -7 17 -8 17 -8 15 -9 15 -11 15 -12 14 -12 14 -13 14 -14 13 -14 12 -15 12 -15 11 -17 9 -15 9 -17 8 -18 7 -17 6 -18 6 -18 5 -18 4 -18 2 -18 2 -18 1 -18 0 -19 0 -18 -2 -18 -1 -18 -4 -18 -4 -17 -5 -18 -6 -17 -7 -17 -7 -17 -8 -15 -8 -15 -9 -15 -11 -14 -12 -14 -12 -14 -13 -13 -14 -12 -14z"/>
     </g>
     <g>
      <path class="fil1" d="M49866 45189l286 688 -18 7 -18 6 -19 5 -18 4 -18 4 -19 2 -18 1 -19 0 -18 -1 -18 -1 -18 -2 -18 -4 -18 -4 -18 -5 -17 -6 -17 -6 -17 -7 -17 -8 -15 -8 -15 -9 -14 -11 -14 -11 -14 -12 -13 -13 -13 -13 -12 -13 -12 -14 -11 -15 -9 -15 -9 -17 -8 -17 -8 -18 -7 -18 -6 -18 -5 -19 -4 -18 -4 -18 -2 -19 -1 -18 0 -19 1 -18 1 -18 2 -18 4 -18 4 -18 5 -18 6 -17 6 -17 7 -17 8 -17 8 -15 9 -15 11 -14 11 -14 12 -14 13 -13 13 -13 13 -12 14 -12 15 -11 15 -9 17 -9 17 -8 18 -8zm27095 -10452l-26809 11140 -286 -688 26809 -11140 286 688zm0 0l-286 -688 18 -7 18 -6 19 -5 18 -4 18 -4 19 -2 18 -1 19 0 18 1 18 1 18 2 18 4 18 4 18 5 17 6 17 6 17 7 17 8 15 8 15 9 14 11 14 11 14 12 13 13 13 13 12 13 12 14 11 15 9 15 9 17 8 17 8 18 7 18 6 18 5 19 4 18 4 18 2 19 1 18 0 19 -1 18 -1 18 -2 18 -4 18 -4 18 -5 18 -6 17 -6 17 -7 17 -8 17 -8 15 -9 15 -11 14 -11 14 -12 14 -13 13 -13 13 -13 12 -14 12 -15 11 -15 9 -17 9 -17 8 -18 8z"/>
     </g>
     <g>
      <path class="fil1" d="M76780 34022l76 742 -19 1 -19 1 -19 -1 -19 -1 -18 -2 -19 -4 -18 -4 -18 -6 -17 -5 -17 -7 -17 -7 -17 -8 -15 -9 -15 -9 -15 -9 -13 -12 -14 -12 -13 -12 -13 -13 -12 -13 -11 -14 -11 -15 -9 -14 -9 -17 -8 -15 -8 -17 -6 -18 -6 -18 -6 -18 -4 -18 -4 -19 -2 -19 -1 -19 -1 -19 1 -19 1 -19 2 -18 4 -19 4 -18 6 -18 5 -17 7 -17 7 -17 8 -17 9 -15 9 -15 9 -15 12 -14 12 -13 12 -13 13 -13 13 -12 14 -11 15 -11 14 -9 17 -9 15 -8 17 -8 18 -6 18 -6 18 -6 18 -4 19 -4 19 -2zm12486 -505l-12411 1247 -76 -742 12411 -1247 409 410 -333 332zm0 0l-76 -742 19 -1 19 -1 19 1 19 1 18 2 19 4 18 4 18 6 17 5 17 7 17 7 17 8 15 9 15 9 15 9 14 12 13 12 13 12 13 13 12 13 11 14 11 15 9 14 9 17 8 15 8 17 6 18 6 18 6 18 4 18 4 19 2 19 1 19 1 19 -1 19 -1 19 -2 18 -4 19 -4 18 -6 18 -5 17 -7 17 -7 17 -8 17 -9 15 -9 15 -9 15 -12 13 -12 14 -12 13 -13 13 -13 12 -14 11 -15 11 -14 9 -17 9 -15 8 -17 8 -18 6 -18 6 -18 6 -18 4 -19 4 -19 2zm-1725 11974l1316 -12385 742 78 -1316 12385 -742 -78zm0 0l742 78 -2 19 -4 19 -5 18 -5 18 -6 18 -7 18 -7 17 -8 15 -9 17 -11 14 -11 15 -11 14 -12 13 -13 13 -13 12 -13 12 -14 11 -15 11 -15 9 -15 9 -17 7 -15 8 -18 6 -17 6 -18 5 -18 5 -19 2 -18 2 -19 1 -19 1 -19 -1 -19 -1 -19 -2 -19 -4 -18 -5 -18 -5 -18 -6 -18 -7 -17 -7 -15 -8 -17 -9 -14 -11 -15 -11 -14 -11 -13 -12 -13 -13 -12 -13 -12 -13 -11 -14 -11 -15 -9 -15 -9 -15 -7 -17 -8 -15 -6 -18 -6 -17 -5 -18 -5 -18 -2 -19 -2 -18 -1 -19 -1 -19 1 -19 1 -19z"/>
     </g>
     <g>
      <path class="fil1" d="M88140 45219l-473 577 -14 -13 -14 -13 -13 -13 -12 -14 -11 -15 -11 -14 -9 -15 -9 -17 -8 -17 -7 -17 -6 -17 -6 -17 -5 -18 -4 -18 -4 -18 -1 -18 -2 -18 0 -18 0 -18 1 -19 2 -18 2 -18 5 -18 5 -18 5 -17 7 -18 7 -17 8 -17 8 -17 11 -15 11 -15 12 -15 13 -14 13 -14 13 -13 14 -12 15 -11 14 -11 15 -9 17 -9 17 -8 17 -7 17 -6 17 -6 18 -5 18 -4 18 -4 18 -2 18 -1 18 0 18 0 19 1 18 2 18 2 18 5 18 5 17 5 18 7 17 7 17 8 17 8 15 11 15 11 15 12zm9165 8492l-9638 -7915 473 -577 9638 7915 -2 579 -471 -2zm0 0l473 -577 14 13 14 13 13 13 12 14 11 15 11 14 9 15 9 17 8 17 7 17 6 17 6 17 5 18 4 18 4 18 2 18 1 18 0 18 0 18 -1 19 -2 18 -2 18 -5 18 -5 18 -5 17 -7 18 -7 17 -8 17 -8 17 -11 15 -11 15 -12 15 -13 14 -13 14 -13 13 -14 12 -15 11 -14 11 -15 9 -17 9 -17 8 -17 7 -17 6 -17 6 -18 5 -18 4 -18 4 -18 1 -18 2 -18 0 -18 0 -19 -1 -18 -2 -18 -2 -18 -5 -18 -5 -17 -5 -18 -7 -17 -7 -17 -8 -17 -8 -15 -11 -15 -11 -15 -12zm-9703 7225l9705 -7804 468 582 -9705 7804 -468 -582zm0 0l468 582 -15 12 -15 11 -17 9 -15 9 -17 8 -18 7 -17 6 -18 5 -18 5 -18 4 -18 4 -18 1 -18 1 -18 0 -19 0 -18 -2 -18 -1 -18 -4 -18 -5 -17 -5 -18 -6 -17 -6 -17 -7 -17 -8 -15 -9 -15 -9 -15 -11 -14 -12 -14 -12 -14 -13 -13 -14 -12 -14 -12 -15 -11 -15 -9 -17 -9 -15 -8 -17 -7 -18 -6 -17 -5 -18 -5 -18 -4 -18 -4 -18 -1 -18 -1 -18 0 -18 0 -19 2 -18 1 -18 4 -18 5 -18 5 -17 6 -18 6 -17 7 -17 8 -17 9 -15 9 -15 11 -15 12 -14 12 -14 13 -14 14 -13 14 -12z"/>
     </g>
     <g>
      <path class="fil1" d="M88217 61170l-742 71 -1 -19 0 -19 0 -19 2 -19 2 -18 2 -19 5 -18 5 -17 6 -18 7 -17 7 -17 8 -17 9 -15 9 -15 11 -14 11 -14 12 -13 12 -13 13 -13 14 -12 14 -11 14 -11 15 -9 15 -9 17 -8 17 -7 18 -7 17 -6 19 -5 18 -4 19 -4 19 -2 19 -1 19 0 19 0 19 2 18 2 19 2 18 5 17 5 18 6 17 7 17 7 17 8 15 9 15 9 14 11 14 11 13 12 13 12 13 13 12 14 11 14 11 14 9 15 9 15 8 17 7 17 7 18 6 17 5 19 4 18 4 19 2 19zm447 12486l-1189 -12415 742 -71 1189 12415 -413 407 -330 -336zm0 0l742 -71 1 19 0 19 0 19 -2 19 -2 18 -2 19 -5 18 -5 17 -6 18 -7 17 -7 17 -8 17 -9 15 -9 15 -11 14 -11 14 -12 13 -12 13 -13 13 -14 12 -14 11 -14 11 -15 9 -15 9 -17 8 -17 7 -18 7 -17 6 -19 5 -18 4 -19 4 -19 2 -19 1 -19 0 -19 0 -19 -2 -18 -2 -19 -2 -18 -5 -17 -5 -18 -6 -17 -7 -17 -7 -17 -8 -15 -9 -15 -9 -14 -11 -14 -11 -13 -12 -13 -12 -13 -13 -12 -14 -11 -14 -11 -14 -9 -15 -9 -15 -8 -17 -7 -17 -7 -18 -6 -17 -5 -19 -4 -18 -4 -19 -2 -19zm-11967 -1781l12380 1374 -83 742 -12380 -1374 83 -742zm0 0l-83 742 -19 -2 -19 -4 -18 -5 -18 -5 -18 -7 -18 -6 -17 -8 -15 -8 -15 -9 -15 -11 -14 -11 -14 -11 -14 -12 -12 -13 -13 -13 -11 -14 -12 -14 -9 -14 -9 -15 -9 -17 -7 -15 -8 -17 -6 -18 -6 -17 -5 -18 -4 -18 -4 -19 -2 -18 -1 -19 0 -19 1 -19 1 -19 2 -19 4 -19 5 -18 5 -18 7 -18 6 -18 8 -17 8 -15 9 -15 11 -15 11 -14 11 -14 12 -14 13 -12 13 -13 14 -12 14 -11 14 -9 15 -9 17 -9 15 -7 17 -8 18 -6 17 -6 18 -5 18 -4 19 -4 18 -2 19 -1 19 0 19 1 19 1z"/>
     </g>
     <g>
      <path class="fil1" d="M76966 72476l-575 -475 13 -14 13 -14 13 -13 14 -12 15 -11 15 -11 15 -9 15 -9 17 -7 17 -7 17 -7 18 -5 18 -5 17 -5 18 -2 18 -2 18 -1 19 0 18 0 18 1 18 2 18 4 18 4 18 5 17 6 18 6 17 7 17 8 17 9 15 11 15 11 15 12 14 13 14 13 13 13 12 14 11 15 11 15 9 15 9 15 7 17 7 17 7 17 5 18 5 18 5 17 2 18 2 18 1 18 0 19 0 18 -1 18 -2 18 -4 18 -4 18 -5 18 -6 17 -6 18 -7 17 -8 17 -9 17 -11 15 -11 15 -12 15zm-8536 9125l7962 -9600 575 475 -7962 9600 -579 -5 5 -471zm0 0l575 475 -13 14 -13 14 -13 13 -14 12 -15 11 -15 11 -15 9 -15 9 -17 7 -17 7 -17 7 -18 5 -18 5 -17 5 -18 2 -18 2 -18 1 -19 0 -18 0 -18 -1 -18 -2 -18 -4 -18 -4 -18 -5 -17 -6 -18 -6 -17 -7 -17 -8 -17 -9 -15 -11 -15 -11 -15 -12 -14 -13 -14 -13 -13 -13 -12 -14 -11 -15 -11 -15 -9 -15 -9 -15 -7 -17 -7 -17 -7 -17 -5 -18 -5 -18 -5 -17 -2 -18 -2 -18 -1 -18 0 -19 0 -18 1 -18 2 -18 4 -18 4 -18 5 -18 6 -17 6 -18 7 -17 8 -17 9 -17 11 -15 11 -15 12 -15zm-7179 -9739l7758 9743 -584 466 -7758 -9743 584 -466zm0 0l-584 466 -12 -15 -11 -15 -9 -17 -8 -17 -8 -17 -7 -17 -6 -18 -6 -18 -5 -17 -4 -18 -2 -19 -1 -18 -1 -18 0 -18 0 -18 2 -19 2 -18 2 -17 5 -18 5 -18 6 -17 6 -18 8 -17 8 -15 8 -17 11 -15 11 -14 11 -14 13 -14 13 -14 14 -13 14 -12 15 -12 15 -11 17 -9 17 -8 17 -8 17 -7 18 -6 18 -6 17 -5 18 -4 19 -2 18 -2 18 0 18 0 18 0 19 1 18 4 17 2 18 5 18 5 17 6 18 6 17 8 15 8 17 8 15 11 14 11 14 11 14 13 14 13 13 14 12 14z"/>
     </g>
     <g>
      <path class="fil1" d="M61016 72477l-69 -742 19 -1 19 0 19 0 19 2 18 2 19 4 18 4 17 5 18 6 17 7 17 8 15 8 15 8 15 9 15 11 13 12 14 12 13 12 12 13 12 14 11 14 11 14 9 15 9 15 8 17 7 17 7 18 6 17 5 19 4 18 4 19 2 19 1 19 0 19 0 19 -2 19 -2 18 -4 19 -4 18 -5 17 -6 18 -7 17 -8 17 -8 15 -8 15 -9 15 -11 15 -12 13 -12 14 -12 13 -13 12 -14 12 -14 11 -14 11 -15 9 -15 9 -17 8 -17 7 -18 7 -17 6 -19 5 -18 4 -19 4 -19 2zm-12490 387l12421 -1129 69 742 -12421 1129 -406 -414 337 -329zm0 0l69 742 -19 1 -19 0 -19 0 -19 -2 -18 -2 -19 -4 -18 -4 -17 -5 -18 -6 -17 -7 -17 -8 -15 -8 -15 -8 -15 -9 -15 -11 -13 -12 -14 -12 -13 -12 -12 -13 -12 -14 -11 -14 -11 -14 -9 -15 -9 -15 -8 -17 -7 -17 -7 -18 -6 -17 -5 -19 -4 -18 -4 -19 -2 -19 -1 -19 0 -19 0 -19 2 -19 2 -18 4 -19 4 -18 5 -17 6 -18 7 -17 8 -17 8 -15 8 -15 9 -15 11 -15 12 -13 12 -14 12 -13 13 -12 14 -12 14 -11 14 -11 15 -9 15 -9 17 -8 17 -7 18 -7 17 -6 19 -5 18 -4 19 -4 19 -2zm1838 -11959l-1433 12373 -742 -85 1433 -12373 742 85zm0 0l-742 -85 2 -19 4 -19 5 -18 5 -18 7 -18 7 -18 7 -17 8 -15 9 -15 11 -15 11 -14 11 -14 13 -13 12 -13 14 -12 13 -12 14 -11 15 -11 15 -9 15 -8 17 -8 17 -7 17 -6 18 -6 18 -5 18 -4 18 -4 19 -2 19 -1 19 0 19 1 19 1 19 2 19 4 18 5 18 5 18 7 18 7 17 7 15 8 15 9 15 11 14 11 14 11 13 13 13 12 12 14 12 13 11 14 11 15 9 15 8 15 8 17 7 17 6 17 6 18 5 18 4 18 4 18 2 19 1 19 0 19 -1 19 -1 19z"/>
     </g>
     <g>
      <path class="fil1" d="M49763 61172l480 -572 14 13 14 13 12 14 12 14 12 14 11 15 9 17 8 15 8 17 7 17 6 17 5 18 5 18 4 18 4 18 1 18 1 18 1 18 -1 18 -1 18 -2 18 -4 18 -4 18 -5 18 -6 18 -7 17 -7 17 -8 17 -9 17 -11 15 -11 15 -12 15 -13 14 -13 14 -14 12 -14 12 -14 12 -15 11 -17 9 -15 8 -17 8 -17 7 -17 6 -18 5 -18 5 -18 4 -18 4 -18 1 -18 1 -18 1 -18 -1 -18 -1 -18 -2 -18 -4 -18 -4 -18 -5 -18 -6 -17 -7 -17 -7 -17 -8 -17 -9 -15 -11 -15 -11 -15 -12zm-9084 -8580l9564 8008 -480 572 -9564 -8008 9 -579 471 7zm0 0l-480 572 -14 -13 -14 -13 -12 -14 -12 -14 -12 -14 -11 -15 -9 -17 -8 -15 -8 -17 -7 -17 -6 -17 -5 -18 -5 -18 -4 -18 -4 -18 -1 -18 -1 -18 -1 -18 1 -18 1 -18 2 -18 4 -18 4 -18 5 -18 6 -18 7 -17 7 -17 8 -17 9 -17 11 -15 11 -15 12 -15 13 -14 13 -14 14 -12 14 -12 14 -12 15 -11 17 -9 15 -8 17 -8 17 -7 17 -6 18 -5 18 -5 18 -4 18 -4 18 -1 18 -1 18 -1 18 1 18 1 18 2 18 4 18 4 18 5 18 6 17 7 17 7 17 8 17 9 15 11 15 11 15 12zm9772 -7132l-9781 7711 -461 -586 9781 -7711 461 586zm0 0l-461 -586 15 -12 15 -11 17 -9 17 -8 17 -8 17 -6 18 -7 18 -5 17 -5 18 -4 19 -2 18 -1 18 -1 18 0 18 1 18 1 18 4 18 2 18 5 18 5 17 6 17 7 17 7 17 8 15 9 15 9 15 12 14 11 14 13 13 13 13 14 12 14 12 15 11 15 9 17 8 17 8 17 6 17 7 18 5 18 5 17 4 18 2 19 1 18 1 18 0 18 -1 18 -1 18 -4 18 -2 18 -5 18 -5 18 -6 17 -7 17 -7 17 -8 17 -9 15 -9 15 -12 15 -11 14 -13 14 -13 13 -14 13 -14 12z"/>
     </g>
     <g>
      <path class="fil1" d="M49839 45222l742 -64 1 19 0 19 -1 19 -1 19 -2 18 -4 19 -5 18 -6 17 -6 18 -7 17 -7 17 -8 15 -9 15 -9 15 -11 14 -11 14 -12 13 -13 13 -13 13 -13 12 -14 11 -15 11 -15 9 -15 8 -17 8 -17 7 -18 7 -17 5 -19 5 -18 5 -19 2 -19 2 -19 1 -19 0 -19 -1 -19 -1 -18 -2 -19 -4 -18 -5 -17 -6 -18 -6 -17 -7 -17 -7 -15 -8 -15 -9 -15 -9 -14 -11 -14 -11 -13 -12 -13 -13 -13 -13 -12 -13 -11 -14 -11 -15 -9 -15 -8 -15 -8 -17 -7 -17 -7 -18 -5 -17 -5 -19 -5 -18 -2 -19 -2 -19zm-327 -12491l1070 12427 -742 64 -1070 -12427 416 -402 326 338zm0 0l-742 64 -1 -19 0 -19 1 -19 1 -19 2 -18 4 -19 5 -18 6 -17 6 -18 7 -17 7 -17 8 -15 9 -15 9 -15 11 -14 11 -14 12 -13 13 -13 13 -13 13 -12 14 -11 15 -11 15 -9 15 -8 17 -8 17 -7 18 -7 17 -5 19 -5 18 -5 19 -2 19 -2 19 -1 19 0 19 1 19 1 18 2 19 4 18 5 17 6 18 6 17 7 17 7 15 8 15 9 15 9 14 11 14 11 13 12 13 13 13 13 12 13 11 14 11 15 9 15 8 15 8 17 7 17 7 18 5 17 5 19 5 18 2 19 2 19zm11948 1895l-12364 -1493 90 -740 12364 1493 -90 740zm0 0l90 -740 19 2 19 4 18 5 18 6 18 6 17 7 17 8 15 8 15 9 15 11 14 11 14 11 13 13 13 13 12 13 12 13 11 15 9 14 9 15 8 17 8 15 7 17 6 18 6 17 5 18 4 18 2 19 2 18 1 19 0 19 -1 19 -1 19 -2 19 -4 19 -5 18 -6 18 -6 18 -7 17 -8 17 -8 15 -9 15 -11 15 -11 14 -11 14 -13 13 -13 13 -13 12 -13 11 -15 12 -14 9 -15 9 -17 8 -15 8 -17 7 -18 6 -17 6 -18 5 -18 4 -19 2 -18 2 -19 1 -19 0 -19 -1 -19 -1z"/>
     </g>
     <g>
      <path class="fil1" d="M61267 34009l-288 688 -18 -8 -17 -8 -17 -9 -15 -9 -15 -12 -14 -11 -13 -13 -13 -12 -13 -14 -12 -13 -11 -14 -9 -15 -9 -15 -9 -15 -8 -17 -7 -17 -6 -17 -6 -17 -5 -18 -4 -18 -4 -18 -2 -18 -1 -18 0 -18 0 -19 1 -18 2 -19 2 -18 5 -18 5 -19 6 -18 7 -18 8 -18 8 -17 9 -17 9 -15 12 -15 11 -14 13 -13 12 -13 14 -13 13 -12 14 -11 15 -9 15 -9 15 -9 17 -8 17 -7 17 -6 17 -6 18 -5 18 -4 18 -4 18 -2 18 -1 18 0 19 0 18 1 19 2 18 2 18 5 19 5 18 6 18 7zm26504 11869l-26792 -11181 288 -688 26792 11181 -288 688zm0 0l288 -688 18 8 17 8 17 9 15 9 15 12 14 11 13 13 13 12 13 14 12 13 11 14 9 15 9 15 9 15 8 17 7 17 6 17 6 17 5 18 4 18 4 18 2 18 1 18 0 18 0 19 -1 18 -2 19 -2 18 -5 18 -5 19 -6 18 -7 18 -8 18 -8 17 -9 17 -9 15 -12 15 -11 14 -13 13 -12 13 -14 13 -13 12 -14 11 -15 9 -15 9 -15 9 -17 8 -17 7 -17 6 -17 6 -18 5 -18 4 -18 4 -18 2 -18 1 -18 0 -19 0 -18 -1 -19 -2 -18 -2 -18 -5 -19 -5 -18 -6 -18 -7z"/>
     </g>
     <g>
      <path class="fil1" d="M77232 34225l-690 281 -7 -18 -6 -18 -5 -19 -4 -18 -2 -19 -2 -18 -1 -19 0 -18 1 -18 1 -19 2 -18 4 -18 4 -17 5 -18 6 -17 7 -18 7 -15 8 -17 8 -15 9 -15 11 -14 11 -14 12 -14 13 -13 13 -13 14 -12 14 -11 15 -11 15 -11 17 -8 17 -9 18 -7 18 -7 18 -6 19 -5 18 -4 19 -2 18 -2 19 -1 18 0 18 1 19 1 18 2 18 4 17 4 18 5 17 6 18 7 15 7 17 8 15 8 15 9 14 11 14 11 14 12 13 13 13 13 12 14 11 14 11 15 11 15 8 17 9 17 7 18zm10247 27174l-10937 -26893 690 -281 10937 26893 -690 281zm0 0l690 -281 7 18 6 18 5 19 4 18 2 19 2 18 1 19 0 18 -1 18 -1 19 -2 18 -4 18 -4 17 -5 18 -6 17 -7 17 -7 17 -8 17 -8 15 -9 15 -11 14 -11 14 -12 14 -13 13 -13 13 -14 12 -14 11 -15 11 -15 11 -17 8 -17 9 -18 7 -18 7 -18 6 -19 5 -18 4 -19 2 -18 2 -19 1 -18 0 -18 -1 -19 -1 -18 -2 -18 -4 -17 -4 -18 -5 -17 -6 -17 -7 -17 -7 -17 -8 -15 -8 -15 -9 -14 -11 -14 -11 -14 -12 -13 -13 -13 -13 -12 -14 -11 -14 -11 -15 -11 -15 -8 -17 -9 -17 -7 -18z"/>
     </g>
     <g>
      <path class="fil1" d="M88326 45710l-686 -293 8 -18 8 -17 9 -17 11 -15 11 -14 12 -15 12 -13 13 -13 13 -12 14 -12 14 -11 15 -11 15 -9 15 -8 17 -8 17 -7 17 -6 17 -5 18 -5 18 -5 18 -2 18 -2 18 -1 18 0 19 0 18 1 19 2 18 4 18 5 19 5 18 6 18 7 18 8 17 8 17 9 15 11 14 11 15 12 13 12 13 13 12 13 12 14 11 14 11 15 9 15 8 15 8 17 7 15 6 18 5 17 5 18 5 18 2 18 2 18 1 18 0 18 0 19 -1 18 -2 19 -4 18 -5 18 -5 19 -6 18 -7 18zm-12069 26414l11383 -26707 686 293 -11383 26707 -686 -293zm0 0l686 293 -8 18 -8 17 -9 17 -11 15 -11 14 -12 15 -12 13 -13 13 -13 12 -14 12 -14 11 -15 11 -15 9 -15 8 -17 8 -15 6 -18 7 -17 5 -18 5 -18 5 -18 2 -18 2 -18 1 -18 0 -19 0 -18 -1 -19 -2 -18 -4 -18 -5 -19 -5 -18 -6 -18 -7 -18 -8 -17 -8 -17 -9 -15 -11 -14 -11 -15 -12 -13 -12 -13 -13 -12 -13 -12 -14 -11 -14 -11 -15 -9 -15 -8 -15 -8 -17 -6 -17 -7 -17 -5 -17 -5 -18 -5 -18 -2 -18 -2 -18 -1 -18 0 -18 0 -19 1 -18 2 -19 4 -18 5 -18 5 -19 6 -18 7 -18z"/>
     </g>
     <g>
      <path class="fil1" d="M87990 61674l-277 -693 18 -7 18 -5 19 -5 18 -4 19 -4 18 -1 19 -1 18 0 18 1 19 1 18 2 18 4 17 5 18 5 17 6 17 7 17 7 17 8 15 8 15 11 14 11 14 11 14 12 13 13 12 13 12 13 12 15 11 15 9 15 9 17 8 17 7 18 7 18 5 18 5 19 4 18 4 19 1 18 1 19 0 18 -1 18 -1 19 -2 18 -4 18 -5 17 -5 18 -6 17 -7 17 -7 17 -8 17 -8 15 -11 15 -11 14 -11 14 -12 14 -13 13 -13 12 -13 12 -15 12 -15 11 -15 9 -17 9 -17 8 -18 7zm-27251 10040l26974 -10733 277 693 -26974 10733 -277 -693zm0 0l277 693 -18 7 -18 5 -19 5 -18 4 -19 4 -18 1 -19 1 -18 0 -18 -1 -19 -1 -18 -2 -18 -4 -17 -5 -18 -5 -17 -6 -17 -7 -17 -7 -17 -8 -15 -8 -15 -11 -14 -11 -14 -11 -14 -12 -13 -13 -12 -13 -12 -13 -12 -15 -11 -15 -9 -15 -9 -17 -8 -17 -7 -18 -7 -18 -5 -18 -5 -19 -4 -18 -4 -19 -1 -18 -1 -19 0 -18 1 -18 1 -19 2 -18 4 -18 5 -17 5 -18 6 -17 7 -17 7 -17 8 -17 8 -15 11 -15 11 -14 11 -14 12 -14 13 -13 13 -12 13 -12 15 -12 15 -11 15 -9 17 -9 17 -8 18 -7z"/>
     </g>
     <g>
      <path class="fil1" d="M76420 72680l298 -683 18 8 17 8 15 9 15 11 15 11 14 12 13 13 13 13 13 13 11 14 11 14 11 15 8 15 9 15 7 17 7 17 6 17 6 17 5 18 4 18 2 18 2 18 1 18 0 19 -1 18 -1 19 -2 18 -4 18 -4 19 -6 18 -6 18 -7 18 -8 18 -8 17 -9 15 -11 15 -11 15 -12 14 -13 13 -13 13 -13 13 -14 11 -14 11 -15 11 -15 8 -15 9 -17 7 -17 7 -17 6 -17 6 -18 5 -18 4 -18 2 -18 2 -18 1 -19 0 -18 -1 -19 -1 -18 -2 -18 -4 -19 -4 -18 -6 -18 -6 -18 -7zm-26321 -12268l26619 11584 -298 683 -26619 -11584 298 -683zm0 0l-298 683 -18 -8 -17 -8 -15 -9 -15 -11 -15 -11 -14 -12 -13 -13 -13 -13 -13 -13 -11 -14 -11 -14 -11 -15 -8 -15 -9 -15 -7 -17 -7 -17 -6 -17 -6 -17 -5 -18 -4 -18 -2 -18 -2 -18 -1 -18 0 -19 1 -18 1 -19 2 -18 4 -18 4 -19 6 -18 6 -18 7 -18 8 -18 8 -17 9 -15 11 -15 11 -15 12 -14 13 -13 13 -13 13 -13 14 -11 14 -11 15 -11 15 -8 15 -9 17 -7 17 -7 17 -6 17 -6 18 -5 18 -4 18 -2 18 -2 18 -1 19 0 18 1 19 1 18 2 18 4 19 4 18 6 18 6 18 7z"/>
     </g>
     <g>
      <path class="fil1" d="M60459 72223l695 -270 6 18 6 19 5 18 4 18 2 19 1 18 1 19 0 18 -1 19 -2 18 -2 18 -4 18 -5 18 -5 17 -6 17 -7 17 -7 17 -8 17 -9 15 -11 14 -9 15 -12 14 -12 13 -13 13 -13 12 -14 12 -14 12 -15 9 -17 9 -17 9 -17 8 -18 7 -18 6 -19 6 -18 5 -18 4 -19 2 -18 1 -19 1 -18 0 -19 -1 -18 -2 -18 -2 -18 -4 -18 -5 -17 -5 -17 -6 -17 -7 -17 -7 -17 -8 -15 -9 -14 -11 -15 -9 -14 -12 -13 -12 -13 -13 -12 -13 -12 -14 -12 -14 -9 -15 -9 -17 -9 -17 -8 -17 -7 -18zm-9834 -27324l10530 27054 -695 270 -10530 -27054 695 -270zm0 0l-695 270 -6 -18 -6 -19 -5 -18 -4 -19 -2 -18 -1 -18 -1 -19 0 -18 1 -19 2 -18 2 -18 4 -18 5 -18 5 -17 6 -17 7 -18 7 -15 8 -17 9 -15 11 -14 9 -15 12 -14 12 -13 13 -13 13 -12 14 -12 14 -12 15 -9 17 -9 17 -9 17 -8 18 -7 18 -6 19 -6 18 -5 19 -4 18 -2 18 -1 19 -1 18 0 19 1 18 2 18 2 18 4 18 5 17 5 17 6 18 7 15 7 17 8 15 9 14 11 15 9 14 12 13 12 13 13 12 13 12 14 12 14 9 15 9 17 9 17 8 17 7 18z"/>
     </g>
     <g>
      <path class="fil1" d="M49542 60571l681 303 -8 18 -8 17 -11 15 -9 15 -12 15 -12 14 -12 13 -13 13 -14 12 -13 12 -15 11 -14 9 -17 9 -15 8 -17 7 -17 7 -17 6 -17 5 -18 5 -18 4 -18 2 -18 2 -18 1 -19 0 -18 -1 -19 -1 -18 -2 -18 -4 -19 -5 -18 -6 -18 -6 -18 -7 -18 -8 -17 -8 -15 -11 -15 -9 -15 -12 -14 -12 -13 -12 -13 -13 -12 -14 -12 -13 -11 -15 -9 -14 -9 -17 -8 -15 -7 -17 -7 -17 -6 -17 -5 -17 -5 -18 -4 -18 -2 -18 -2 -18 -1 -18 0 -19 1 -18 1 -19 2 -18 4 -18 5 -19 6 -18 6 -18 7 -18zm12465 -26228l-11784 26531 -681 -303 11784 -26531 681 303zm0 0l-681 -303 8 -18 8 -17 11 -15 9 -15 12 -15 12 -14 12 -13 13 -13 14 -12 13 -12 15 -11 14 -9 17 -9 15 -8 17 -7 17 -7 17 -6 17 -5 18 -5 18 -4 18 -2 18 -2 18 -1 19 0 18 1 19 1 18 2 18 4 19 5 18 6 18 6 18 7 18 8 17 8 15 11 15 9 15 12 14 12 13 12 13 13 12 14 12 13 11 15 9 14 9 17 8 15 7 17 7 17 6 17 5 17 5 18 4 18 2 18 2 18 1 18 0 19 -1 18 -1 19 -2 18 -4 18 -5 19 -6 18 -6 18 -7 18z"/>
     </g>
    </g>
    <path class="fil1" d="M31469 107713c0,1698 -623,3044 -1874,4038 -1251,994 -2911,1493 -4980,1493 -2491,0 -4398,-275 -5731,-823l0 -1421c1470,623 3339,932 5617,932 1674,0 2996,-385 3981,-1150 979,-766 1470,-1770 1470,-3016 0,-770 -162,-1407 -491,-1912 -323,-508 -856,-969 -1588,-1388 -733,-419 -1812,-870 -3234,-1351 -2078,-718 -3515,-1489 -4309,-2321 -795,-831 -1193,-1940 -1193,-3323 0,-1522 598,-2768 1792,-3729 1194,-960 2725,-1441 4604,-1441 1912,0 3709,362 5392,1089l-518 1227c-1688,-708 -3306,-1061 -4846,-1061 -1507,0 -2706,348 -3595,1046 -894,694 -1336,1641 -1336,2840 0,751 132,1369 409,1854 275,481 722,919 1345,1304 623,384 1688,847 3205,1383 1589,552 2782,1084 3581,1598 799,513 1380,1098 1745,1755 371,656 552,1446 552,2378z"/>
    <path id="1" class="fil1" d="M46545 105369c0,2473 -599,4404 -1797,5792 -1199,1389 -2849,2083 -4961,2083 -1327,0 -2497,-318 -3509,-960 -1013,-642 -1789,-1561 -2326,-2763 -543,-1199 -809,-2582 -809,-4152 0,-2473 599,-4399 1797,-5778 1199,-1380 2840,-2069 4933,-2069 2078,0 3714,699 4898,2097 1183,1399 1773,3315 1773,5750zm-11955 0c0,2083 461,3705 1374,4870 914,1166 2207,1750 3881,1750 1673,0 2968,-584 3880,-1750 913,-1165 1374,-2787 1374,-4870 0,-2088 -466,-3709 -1388,-4865 -923,-1150 -2222,-1726 -3896,-1726 -1668,0 -2958,576 -3866,1721 -903,1146 -1360,2772 -1360,4870z"/>
    <polygon id="2" class="fil1" points="50711,112959 49331,112959 49331,91272 50711,91272 "/>
    <path id="3" class="fil1" d="M55752 112959l-1380 0 0 -15152 1380 0 0 15152zm-1575 -19357c0,-889 294,-1331 880,-1331 286,0 510,115 675,348 162,233 244,560 244,984 0,419 -82,747 -244,990 -166,242 -389,362 -675,362 -585,0 -880,-452 -880,-1351z"/>
    <path id="4" class="fil1" d="M63414 112046c875,0 1636,-77 2288,-223l0 1094c-670,219 -1441,327 -2316,327 -1337,0 -2321,-356 -2958,-1075 -637,-713 -956,-1840 -956,-3372l0 -9792 -2244 0 0 -809 2244 -628 695 -3414 713 0 0 3652 4447 0 0 1199 -4447 0 0 9616c0,1166 205,2026 614,2588 409,556 1051,837 1921,837z"/>
    <path id="5" class="fil1" d="M76768 112959l-348 -2397 -115 0c-760,979 -1545,1669 -2349,2073 -804,404 -1755,609 -2848,609 -1489,0 -2645,-380 -3472,-1141 -828,-766 -1241,-1817 -1241,-3167 0,-1479 618,-2625 1850,-3443 1232,-818 3010,-1251 5346,-1293l2881 -86 0 -1004c0,-1440 -290,-2525 -875,-3262 -585,-732 -1531,-1098 -2829,-1098 -1403,0 -2859,390 -4366,1169l-513 -1198c1663,-780 3305,-1170 4931,-1170 1665,0 2906,433 3728,1293 823,865 1237,2212 1237,4042l0 10073 -1017 0zm-5579 -971c1617,0 2897,-461 3828,-1388 933,-923 1403,-2207 1403,-3852l0 -1493 -2650 109c-2130,105 -3647,437 -4551,999 -908,560 -1361,1441 -1361,2629 0,947 291,1684 871,2207 579,527 1402,789 2458,789z"/>
    <path id="6" class="fil1" d="M82656 112959l-1380 0 0 -15152 1380 0 0 15152zm-1575 -19357c0,-889 294,-1331 880,-1331 286,0 510,115 675,348 162,233 244,560 244,984 0,419 -82,747 -244,990 -166,242 -389,362 -675,362 -585,0 -880,-452 -880,-1351z"/>
    <path id="7" class="fil1" d="M92276 97522c642,0 1331,66 2064,195l-266 1327c-633,-157 -1284,-238 -1965,-238 -1289,0 -2349,547 -3172,1646 -828,1094 -1240,2478 -1240,4151l0 8356 -1380 0 0 -15152 1170 0 137 2739 100 0c623,-1117 1284,-1898 1992,-2349 703,-452 1559,-675 2558,-675z"/>
    <path id="8" class="fil1" d="M101564 113244c-2201,0 -3919,-680 -5150,-2035 -1232,-1356 -1846,-3258 -1846,-5702 0,-2417 595,-4352 1783,-5803 1189,-1455 2791,-2183 4808,-2183 1783,0 3191,618 4223,1860 1032,1237 1545,2920 1545,5051l0 1108 -10914 0c19,2093 504,3690 1460,4794 951,1103 2316,1654 4090,1654 865,0 1622,-61 2278,-180 656,-119 1484,-381 2486,-780l0 1256c-856,371 -1645,623 -2368,755 -722,138 -1522,205 -2397,205zm-404 -14523c-1460,0 -2629,480 -3515,1445 -880,966 -1397,2360 -1545,4176l9364 0c0,-1764 -380,-3139 -1141,-4132 -761,-994 -1817,-1489 -3163,-1489z"/>
    <path id="9" class="fil1" d="M119093 109021c0,1356 -518,2402 -1550,3130 -1027,728 -2492,1094 -4390,1094 -2025,0 -3633,-313 -4821,-936l0 -1489c1526,760 3133,1141 4821,1141 1498,0 2635,-247 3410,-746 776,-495 1166,-1156 1166,-1984 0,-760 -309,-1402 -927,-1926 -618,-518 -1636,-1027 -3049,-1531 -1512,-547 -2577,-1018 -3191,-1413 -614,-400 -1075,-842 -1383,-1341 -314,-494 -472,-1103 -472,-1817 0,-1136 476,-2030 1432,-2691 952,-661 2283,-990 3990,-990 1636,0 3191,309 4656,922l-513 1251c-1489,-614 -2868,-917 -4143,-917 -1237,0 -2217,205 -2939,614 -727,409 -1089,974 -1089,1698 0,790 280,1422 847,1898 562,475 1660,1004 3296,1588 1364,495 2359,938 2982,1332 623,394 1089,842 1402,1345 310,499 466,1089 466,1769z"/>
   </g>
  </g>
 </g>
</svg>
