<?xml version="1.0" encoding="UTF-8"?>
<!DOCTYPE svg PUBLIC "-//W3C//DTD SVG 1.1//EN" "http://www.w3.org/Graphics/SVG/1.1/DTD/svg11.dtd">
<!-- Creator: CorelDRAW X7 -->
<svg xmlns="http://www.w3.org/2000/svg" xml:space="preserve" width="142px" height="170px" version="1.1" style="shape-rendering:geometricPrecision; text-rendering:geometricPrecision; image-rendering:optimizeQuality; fill-rule:evenodd; clip-rule:evenodd"
viewBox="0 0 146267 174822"
 xmlns:xlink="http://www.w3.org/1999/xlink">
 <defs>
  <style type="text/css">
   <![CDATA[
    .fil3 {fill:none}
    .fil0 {fill:#8A0044}
    .fil1 {fill:white}
    .fil2 {fill:#333333;fill-rule:nonzero}
   ]]>
  </style>
 </defs>
 <g id="Layer_x0020_1">
  <metadata id="CorelCorpID_0Corel-Layer"/>
  <g id="_1871236512">
   <g>
    <rect class="fil0" x="28207" y="25708" width="90113" height="90114" rx="3274" ry="3283"/>
    <path class="fil1" d="M95399 68697l0 28083 -2859 0 0 -26368 -1 0 0 -25662 2859 0 0 23947 1 0zm-44272 4136l0 -28083 2859 0 0 26368 1 0 0 25662 -2859 0 0 -23947 -1 0zm22968 -7192c23,96 48,186 75,270 230,724 606,1236 1136,1535 412,230 1054,395 1912,490 860,99 2637,145 5324,145 1459,0 2589,-93 3395,-281 806,-194 1399,-500 1794,-924 218,-229 377,-618 482,-1170 101,-554 153,-1300 153,-2241 0,-1907 -194,-3101 -575,-3590 -383,-488 -1142,-782 -2278,-870l-6911 -545 0 2059c0,1916 -384,3252 -1158,4008 -683,666 -1787,1039 -3349,1114zm4380 -9929l7074 586c2112,183 3589,766 4441,1748 848,982 1271,2624 1271,4923 0,1677 -112,2942 -329,3790 -218,840 -577,1547 -1082,2111 -625,700 -1459,1189 -2507,1472 -1053,281 -2965,422 -5748,422l-1277 0c-2364,0 -4034,-122 -5017,-364 -983,-242 -1801,-658 -2460,-1258 -641,-554 -1117,-1301 -1418,-2243 -127,-391 -227,-828 -302,-1309 -681,-79 -1263,-220 -1749,-426 -700,331 -1740,497 -3122,497 -1493,0 -2533,-339 -3116,-1011 -579,-672 -871,-1890 -871,-3649l0 -2520 -3540 0 0 11931 -2824 0 0 -25662 19330 0 159 -35c931,-189 2578,-283 4930,-283l919 0c2629,0 4483,130 5559,382 1076,253 1970,689 2700,1307 494,417 859,1005 1094,1770 236,765 354,1719 354,2859 0,330 -6,589 -12,765 -6,176 -12,335 -23,478l-2860 0 0 -643c0,-941 -53,-1659 -165,-2158 -105,-501 -282,-871 -523,-1113 -360,-358 -995,-606 -1906,-747 -918,-147 -2648,-217 -5207,-217 -2641,0 -4306,300 -4984,894 -675,600 -1017,1795 -1017,3583 0,248 7,483 19,705 1464,106 2522,477 3169,1111 513,509 865,1277 1040,2304zm-7141 -3400c-10,-245 -17,-499 -17,-762 0,-1494 148,-2695 448,-3600 55,-166 116,-326 182,-482l-13224 0 0 8400 3540 0 0 -1775 -1598 0 0 -1650 1598 0 0 -2943 1928 0 0 2943 6224 0c284,-57 591,-101 919,-131zm-3474 1781l-3669 0 0 1775 3123 0c115,-707 289,-1302 546,-1775zm-3669 4388l0 2791c0,1023 169,1721 503,2088 334,368 973,550 1912,550 489,0 895,-48 1218,-147 -407,-778 -612,-1860 -612,-3244l0 -2038 -3021 0zm12407 1602l0 -2228c0,-1644 -206,-2689 -625,-3137 -418,-453 -1294,-676 -2630,-676l-905 0c-1332,0 -2200,223 -2609,668 -410,448 -613,1497 -613,3145l0 2228c0,1658 207,2711 618,3159 413,445 1280,668 2604,668l905 0c1328,0 2203,-228 2625,-680 419,-453 630,-1501 630,-3147zm-4167 15806c-23,-96 -49,-186 -75,-270 -230,-724 -607,-1236 -1136,-1535 -412,-230 -1054,-395 -1912,-490 -860,-99 -2636,-147 -5325,-147 -1459,0 -2588,95 -3395,283 -805,194 -1399,500 -1794,924 -217,229 -376,618 -482,1170 -101,553 -153,1300 -153,2241 0,1907 194,3101 577,3590 381,488 1141,782 2276,870l6911 545 0 -2059c0,-1916 384,-3252 1159,-4008 683,-666 1787,-1039 3349,-1114zm-4380 9929l-7074 -586c-2112,-183 -3589,-766 -4442,-1748 -846,-982 -1270,-2624 -1270,-4923 0,-1677 111,-2942 329,-3790 217,-840 577,-1547 1082,-2112 624,-699 1459,-1188 2507,-1471 1053,-282 2965,-424 5748,-424l1276 0c2365,0 4035,124 5018,366 984,240 1801,658 2459,1258 642,554 1119,1301 1419,2242 126,392 227,829 302,1310 681,78 1262,220 1748,426 701,-331 1741,-497 3123,-497 1493,0 2532,338 3115,1011 581,672 873,1890 873,3649l0 2520 3539 0 0 -11931 2824 0 0 25662 -19331 0 -159 35c-929,189 -2577,283 -4930,283l-917 0c-2631,0 -4484,-130 -5560,-382 -1077,-253 -1970,-689 -2700,-1307 -495,-417 -859,-1006 -1095,-1770 -234,-765 -353,-1719 -353,-2860 0,-329 6,-588 12,-764 6,-178 12,-336 23,-478l2860 0 0 643c0,941 53,1659 164,2158 106,501 282,871 524,1112 359,359 995,606 1907,748 917,147 2646,217 5206,217 2641,0 4307,-300 4983,-894 677,-601 1018,-1795 1018,-3583 0,-248 -7,-483 -19,-705 -1464,-106 -2521,-477 -3169,-1111 -513,-509 -865,-1277 -1040,-2304zm7141 3400c9,245 17,499 17,761 0,1494 -147,2694 -449,3601 -54,165 -115,326 -182,482l13225 0 0 -8400 -3539 0 0 1775 1597 0 0 1649 -1597 0 0 2944 -1929 0 0 -2944 -6223 0c-285,58 -592,102 -920,132zm3475 -1781l3668 0 0 -1775 -3123 0c-115,706 -289,1302 -545,1775zm3668 -4388l0 -2791c0,-1023 -169,-1721 -503,-2088 -334,-368 -972,-550 -1912,-550 -489,0 -895,48 -1218,147 407,778 612,1860 612,3244l0 2038 3021 0zm-12408 -1602l0 2227c0,1645 207,2690 626,3138 419,453 1294,676 2630,676l905 0c1332,0 2199,-223 2609,-668 410,-448 613,-1497 613,-3146l0 -2227c0,-1658 -208,-2711 -618,-3159 -413,-445 -1281,-668 -2604,-668l-905 0c-1328,0 -2202,228 -2625,680 -419,453 -631,1501 -631,3147z"/>
    <path class="fil2" d="M27942 120429l6329 0 0 28115 -6329 0 0 -28115zm9705 28115l0 -28115 18825 0 0 5315 -12496 0 0 5882 11116 0 0 5315 -11116 0 0 11603 -6329 0zm61520 -4828c893,0 1630,-74 2212,-223 580,-148 1047,-351 1399,-609 351,-256 595,-561 730,-912 135,-352 203,-743 203,-1177 0,-919 -433,-1683 -1299,-2292 -865,-608 -2352,-1264 -4462,-1968 -920,-324 -1839,-695 -2759,-1116 -919,-419 -1745,-946 -2475,-1581 -730,-637 -1325,-1407 -1784,-2313 -461,-906 -690,-2009 -690,-3306 0,-1298 243,-2468 730,-3510 487,-1041 1177,-1927 2068,-2658 893,-730 1975,-1291 3247,-1683 1270,-393 2704,-588 4300,-588 1893,0 3529,203 4909,608 1380,406 2516,852 3408,1339l-1825 4991c-785,-406 -1657,-764 -2618,-1075 -959,-312 -2116,-468 -3469,-468 -1514,0 -2603,210 -3266,629 -662,419 -993,1062 -993,1928 0,514 121,946 365,1298 243,351 588,670 1034,954 447,283 961,540 1543,770 580,231 1223,466 1926,710 1461,541 2732,1075 3814,1603 1082,527 1981,1142 2697,1846 717,703 1251,1528 1604,2474 351,947 527,2096 527,3449 0,2624 -920,4658 -2759,6106 -1840,1447 -4611,2171 -8317,2171 -1244,0 -2366,-76 -3367,-224 -1001,-149 -1886,-331 -2658,-548 -771,-216 -1433,-445 -1988,-689 -554,-243 -1020,-474 -1399,-690l1785 -5031c838,460 1873,873 3104,1237 1230,366 2737,548 4523,548zm12829 -23287l6329 0 0 28115 -6329 0 0 -28115zm-50647 7019l7992 0 0 3164 -7992 0 0 9737c0,1055 81,1927 244,2617 161,690 406,1230 730,1622 324,393 730,670 1217,832 487,163 1054,243 1704,243 1136,0 2049,-127 2738,-385 690,-256 1169,-439 1440,-548l730 3124c-378,190 -1041,427 -1987,711 -947,284 -2028,425 -3245,425 -1435,0 -2618,-182 -3551,-548 -932,-364 -1683,-912 -2252,-1642 -568,-731 -966,-1630 -1196,-2699 -231,-1067 -345,-2305 -345,-3712l0 -18824 3773 -649 0 6532zm27835 10547c0,1678 -244,3192 -731,4546 -486,1351 -1170,2514 -2048,3488 -879,974 -1928,1725 -3145,2252 -1217,527 -2542,790 -3975,790 -1435,0 -2760,-263 -3977,-790 -1217,-527 -2265,-1278 -3143,-2252 -880,-974 -1562,-2137 -2049,-3488 -487,-1354 -730,-2868 -730,-4546 0,-1649 243,-3156 730,-4523 487,-1365 1169,-2535 2049,-3509 878,-974 1926,-1725 3143,-2252 1217,-527 2542,-790 3977,-790 1433,0 2758,263 3975,790 1217,527 2266,1278 3145,2252 878,974 1562,2144 2048,3509 487,1367 731,2874 731,4523zm-3935 0c0,-2379 -535,-4265 -1604,-5658 -1067,-1394 -2521,-2090 -4360,-2090 -1840,0 -3294,696 -4362,2090 -1069,1393 -1603,3279 -1603,5658 0,2381 534,4267 1603,5661 1068,1393 2522,2089 4362,2089 1839,0 3293,-696 4360,-2089 1069,-1394 1604,-3280 1604,-5661z"/>
   </g>
   <rect class="fil3" width="146267" height="174822"/>
  </g>
 </g>
</svg>
