<svg xmlns="http://www.w3.org/2000/svg" xmlns:xlink="http://www.w3.org/1999/xlink" xmlns:a="http://ns.adobe.com/AdobeSVGViewerExtensions/3.0/" version="1.1" x="0px" y="0px" viewBox="-5.576 -5.575 100 125" enable-background="new -5.576 -5.575 100 100" xml:space="preserve" style="
    fill: #fff;
"><path fill="#000000" d="M44.423,88.363c-24.227,0-43.937-19.712-43.937-43.941c0-24.227,19.709-43.936,43.937-43.936  c24.229,0,43.938,19.709,43.938,43.936C88.361,68.651,68.651,88.363,44.423,88.363z M44.423,2.558  c-23.084,0-41.865,18.78-41.865,41.864c0,23.088,18.78,41.87,41.865,41.87c23.086,0,41.867-18.782,41.867-41.87  C86.29,21.337,67.509,2.558,44.423,2.558z M44.423,85.273c-22.525,0-40.85-18.325-40.85-40.852c0-22.525,18.325-40.85,40.85-40.85  c22.524,0,40.848,18.324,40.848,40.85C85.271,66.948,66.947,85.273,44.423,85.273z M44.423,5.644  c-21.383,0-38.779,17.395-38.779,38.778s17.396,38.78,38.779,38.78c21.382,0,38.776-17.397,38.776-38.78S65.805,5.644,44.423,5.644z  " style="
    fill: #fff;
"/><path d="M44.423,88.85C19.928,88.85,0,68.919,0,44.422C0,19.928,19.928,0,44.423,0c24.496,0,44.425,19.928,44.425,44.422  C88.848,68.919,68.919,88.85,44.423,88.85z M44.423,0.973c-23.958,0-43.45,19.491-43.45,43.449c0,23.962,19.492,43.455,43.45,43.455  c23.96,0,43.452-19.493,43.452-43.455C87.875,20.464,68.383,0.973,44.423,0.973z M44.423,86.778  c-23.353,0-42.351-19.001-42.351-42.356c0-23.352,18.999-42.351,42.351-42.351c23.354,0,42.354,18.999,42.354,42.351  C86.776,67.777,67.776,86.778,44.423,86.778z M44.423,3.044c-22.816,0-41.378,18.562-41.378,41.378  c0,22.819,18.562,41.384,41.378,41.384c22.817,0,41.381-18.564,41.381-41.384C85.804,21.606,67.24,3.044,44.423,3.044z   M44.423,85.76c-22.792,0-41.336-18.544-41.336-41.338c0-22.792,18.544-41.336,41.336-41.336c22.791,0,41.334,18.543,41.334,41.336  C85.757,67.216,67.214,85.76,44.423,85.76z M44.423,4.059c-22.256,0-40.364,18.107-40.364,40.363  c0,22.258,18.107,40.365,40.364,40.365c22.256,0,40.361-18.107,40.361-40.365C84.784,22.166,66.679,4.059,44.423,4.059z   M44.423,83.688c-21.651,0-39.265-17.615-39.265-39.267c0-21.65,17.614-39.264,39.265-39.264c21.649,0,39.263,17.614,39.263,39.264  C83.686,66.073,66.072,83.688,44.423,83.688z M44.423,6.13C23.308,6.13,6.13,23.308,6.13,44.422  c0,21.115,17.178,38.294,38.292,38.294c21.113,0,38.29-17.179,38.29-38.294C82.713,23.308,65.536,6.13,44.423,6.13z" style="
    fill: #fff;
"/><path fill="#000000" d="M48.488,20.717c-1.437,0.202-2.948,0.959-3.44,1.752c-0.585,0.921-0.868,2.452-1.889,10.143  c-0.512,3.946-1.323,10.013-1.776,13.461c-0.454,3.449-0.756,6.345-0.663,6.438c0.267,0.295,2.118,0.35,2.476,0.073  c0.19-0.13,1.551-3.265,3.063-6.972c1.492-3.707,3.968-9.811,5.499-13.554c1.531-3.763,2.911-7.23,3.062-7.746  c0.548-1.789,0-2.987-1.605-3.394C52.136,20.644,49.811,20.532,48.488,20.717z" style="
    fill: #fff;
"/><path fill="#000000" d="M37.868,56.899c-1.437,0.553-3.006,2.102-3.591,3.559c-0.359,0.867-0.453,1.457-0.453,2.767  c-0.021,1.825,0.282,2.637,1.322,3.67c1.946,1.919,5.782,1.733,7.956-0.388c2.702-2.637,2.493-7.615-0.379-9.35  C41.477,56.419,39.398,56.291,37.868,56.899z" style="
    fill: #fff;
"/></svg>