<svg xmlns="http://www.w3.org/2000/svg" xmlns:xlink="http://www.w3.org/1999/xlink" version="1.1" x="0px" y="0px" viewBox="0 0 100 125" enable-background="new 0 0 100 100" xml:space="preserve">
<path d="M78.006,44.807L26.697,44.75L46.33,21.198c1.76-2.118,1.471-5.274-0.643-7.036C44.791,13.413,43.654,13,42.488,13   c-1.49,0-2.891,0.657-3.842,1.799l-26.49,31.775C11.41,47.471,11,48.608,11,49.774c0,1.17,0.412,2.308,1.158,3.201l26.486,31.771   C39.6,85.892,41,86.548,42.49,86.548c1.166,0,2.303-0.41,3.197-1.156c2.117-1.768,2.406-4.926,0.641-7.043l-19.67-23.597   l51.338,0.056c2.754,0,4.998-2.239,5.004-4.994C83.004,47.059,80.766,44.812,78.006,44.807z"/></svg>