<?xml version="1.0" encoding="UTF-8"?>
<!DOCTYPE svg PUBLIC "-//W3C//DTD SVG 1.1//EN" "http://www.w3.org/Graphics/SVG/1.1/DTD/svg11.dtd">
<!-- Creator: CorelDRAW X6 -->
<svg xmlns="http://www.w3.org/2000/svg" xml:space="preserve" width="50px" height="50px" version="1.1" style="shape-rendering:geometricPrecision; text-rendering:geometricPrecision; image-rendering:optimizeQuality; fill-rule:evenodd; clip-rule:evenodd"
viewBox="0 0 49999 49999"
 xmlns:xlink="http://www.w3.org/1999/xlink">
 <defs>
  <style type="text/css">
   <![CDATA[
    .fil1 {fill:none}
    .fil0 {fill:#666}
   ]]>
  </style>
 </defs>
 <g id="Layer_x0020_1">
  <metadata id="CorelCorpID_0Corel-Layer"/>
  <g id="_1057869552">
   <path class="fil0" d="M25000 39999c-197,0 -394,-66 -557,-197 -6236,-5009 -9084,-9687 -10376,-12733 -350,-759 -620,-1557 -804,-2370 -52,-220 -76,-354 -83,-400 -142,-744 -215,-1506 -215,-2264 0,-6635 5400,-12034 12035,-12034 6635,0 12035,5399 12035,12034 0,757 -72,1518 -214,2262 -7,41 -31,178 -83,403 -184,814 -455,1611 -804,2370 -1292,3046 -4140,7724 -10376,12733 -163,131 -360,197 -559,197zm-10060 -15977c5,27 22,119 58,268 0,4 1,7 2,11 157,697 389,1381 691,2031 4,9 8,18 12,27 1170,2767 3730,6991 9297,11598 5568,-4607 8128,-8831 9297,-11598 4,-9 8,-18 12,-27 302,-651 534,-1335 691,-2033 1,-2 2,-7 2,-9 34,-143 52,-235 58,-267 2,-14 5,-28 7,-43 123,-640 185,-1296 185,-1948 0,-5654 -4599,-10253 -10253,-10253 -5654,0 -10253,4600 -10253,10253 0,653 63,1307 187,1948 1,14 4,28 6,41zm10205 5165c-4044,0 -7333,-3290 -7333,-7333 0,-4043 3289,-7332 7333,-7332 1469,0 2887,433 4100,1253 407,275 515,829 240,1237 -275,409 -829,515 -1237,240 -918,-620 -1991,-947 -3103,-947 -3061,0 -5551,2490 -5551,5550 0,3061 2490,5551 5551,5551 3060,0 5550,-2490 5550,-5551 0,-755 -148,-1487 -442,-2174 -193,-452 18,-977 470,-1169 452,-193 976,18 1169,470 387,911 585,1877 585,2874 0,4043 -3289,7333 -7332,7333z"/>
   <rect class="fil1" width="49999" height="49999"/>
  </g>
 </g>
</svg>
