<svg xmlns="http://www.w3.org/2000/svg" xmlns:xlink="http://www.w3.org/1999/xlink" version="1.1" x="0px" y="0px" viewBox="0 0 100 125" enable-background="new 0 0 100 100" xml:space="preserve"><path d="M67.525,49.957h-3.813V39.274h-0.004c-0.053-7.525-6.168-13.609-13.707-13.609S36.348,31.75,36.295,39.274h-0.004v10.683  h-3.813c-0.836,0-1.523,0.686-1.523,1.524v21.33c0,0.838,0.688,1.523,1.523,1.523h35.047c0.836,0,1.52-0.685,1.52-1.523v-21.33  C69.045,50.643,68.361,49.957,67.525,49.957z M41.621,39.274c0,0.012,0.006,0.027,0.006,0.036c0.031-4.583,3.795-8.313,8.375-8.313  c4.588,0,8.344,3.731,8.375,8.313c0-0.009,0.006-0.024,0.006-0.036v10.683H41.621V39.274z M52.867,66.002h-5.73l1.842-5.367  c-1.174-0.421-2.02-1.53-2.02-2.852c0-1.677,1.363-3.038,3.043-3.038s3.041,1.361,3.041,3.038c0,1.322-0.844,2.431-2.018,2.852  L52.867,66.002z"/></svg>