<?xml version="1.0" encoding="utf-8"?>
<!-- Generator: Adobe Illustrator 18.0.0, SVG Export Plug-In . SVG Version: 6.00 Build 0)  -->
<!DOCTYPE svg PUBLIC "-//W3C//DTD SVG 1.1//EN" "http://www.w3.org/Graphics/SVG/1.1/DTD/svg11.dtd">
<svg version="1.1" id="Layer_1" xmlns="http://www.w3.org/2000/svg" xmlns:xlink="http://www.w3.org/1999/xlink" x="0px" y="0px"
	 width="40px" height="40px" viewBox="0 0 40 40" enable-background="new 0 0 40 40" xml:space="preserve">
<g id="Layer_x0020_1">
	<rect x="-0.0005608" fill="none" width="40.0016823" height="40.0016823"/>
	<g id="_1037484432">
		<path id="Shape" fill="#8A0044" d="M30.796896,31.931879H18.2969666c-0.9400291,0-1.7058353-0.7641239-1.7058353-1.704155
			v-6.8188553c0-0.3142776,0.255455-0.5680523,0.5697327-0.5680523c0.3125954,0,0.5680504,0.2537746,0.5680504,0.5680523v6.8188553
			c0,0.3142776,0.2548962,0.5680523,0.5680523,0.5680523H30.796896c0.3131561,0,0.5680523-0.2537746,0.5680523-0.5680523V9.7728357
			c0-0.3142767-0.2548962-0.5680513-0.5680523-0.5680513H18.2969666c-0.3131561,0-0.5680523,0.2537746-0.5680523,0.5680513
			v6.8171759c0,0.3142776-0.255455,0.5697327-0.5680504,0.5697327c-0.3142776,0-0.5697327-0.255455-0.5697327-0.5697327V9.7728357
			c0-0.9405899,0.7658062-1.7047148,1.7058353-1.7047148H30.796896c0.9400311,0,1.7041531,0.7641249,1.7041531,1.7047148v20.4548874
			C32.501049,31.1677551,31.736927,31.931879,30.796896,31.931879L30.796896,31.931879z"/>
		<path id="Shape_0" fill="#8A0044" d="M26.2495441,19.4319496c0.3137169,0,0.5691719,0.2537727,0.5691719,0.5680504
			s-0.255455,0.5680523-0.5691719,0.5680523H9.4393711l3.5752506,3.5752487c0.2224026,0.2235241,0.2224026,0.5826168,0,0.8044605
			c-0.1109219,0.1098003-0.2560158,0.1669407-0.4016695,0.1669407c-0.1450939,0-0.2901878-0.0571404-0.4016695-0.1669407
			l-4.544971-4.546093c-0.0532198-0.0520992-0.0941148-0.1142807-0.123806-0.1843071
			c-0.056581-0.139492-0.056581-0.2952309,0-0.4347229c0.0296912-0.0694656,0.0705862-0.1322079,0.123806-0.1854286
			l4.544971-4.5449705c0.2224026-0.2218428,0.5814962-0.2218428,0.803339,0c0.2224026,0.2224026,0.2224026,0.5814962,0,0.803339
			l-3.5752506,3.5763712H26.2495441L26.2495441,19.4319496z"/>
	</g>
</g>
</svg>
