<?xml version="1.0" encoding="UTF-8"?>
<!DOCTYPE svg PUBLIC "-//W3C//DTD SVG 1.1//EN" "http://www.w3.org/Graphics/SVG/1.1/DTD/svg11.dtd">
<!-- Creator: CorelDRAW X6 -->
<svg xmlns="http://www.w3.org/2000/svg" xml:space="preserve" width="50px" height="59px" version="1.1" style="shape-rendering:geometricPrecision; text-rendering:geometricPrecision; image-rendering:optimizeQuality; fill-rule:evenodd; clip-rule:evenodd"
viewBox="0 0 49999 59479"
 xmlns:xlink="http://www.w3.org/1999/xlink">
 <defs>
  <style type="text/css">
   <![CDATA[
    .fil0 {fill:white}
   ]]>
  </style>
 </defs>
 <g id="Layer_x0020_1">
  <metadata id="CorelCorpID_0Corel-Layer"/>
  <path class="fil0" d="M49999 27404l0 31715 -3230 0 0 -29779 -1 0 0 -28981 3230 0 0 27045 1 0zm-49999 4672l0 -31716 3229 0 0 29779 1 0 0 28981 -3230 0 0 -27043 0 0zm25939 -8123c26,108 55,210 85,305 259,816 685,1395 1283,1734 465,259 1189,445 2158,552 971,113 2977,166 6014,166 1647,0 2923,-106 3833,-319 911,-218 1582,-564 2027,-1043 246,-259 425,-698 545,-1322 114,-625 173,-1468 173,-2531 0,-2153 -220,-3502 -651,-4054 -432,-552 -1289,-883 -2571,-984l-7804 -613 0 2325c0,2163 -434,3673 -1309,4527 -770,751 -2017,1172 -3782,1258zm4947 -11214l7988 662c2385,205 4052,864 5016,1973 956,1110 1435,2963 1435,5561 0,1894 -126,3323 -371,4279 -246,950 -651,1748 -1222,2385 -705,791 -1648,1342 -2831,1661 -1189,319 -3347,478 -6491,478l-1442 0c-2671,0 -4557,-139 -5667,-412 -1110,-273 -2033,-744 -2777,-1422 -724,-625 -1263,-1469 -1602,-2531 -144,-443 -257,-936 -342,-1480 -768,-88 -1425,-248 -1973,-482 -793,375 -1966,561 -3527,561 -1686,0 -2861,-382 -3520,-1140 -655,-759 -984,-2135 -984,-4121l0 -2847 -3998 0 0 13474 -3190 0 0 -28981 21831 0 180 -39c1050,-214 2911,-320 5568,-320l1036 0c2971,0 5063,147 6280,432 1215,286 2225,778 3050,1476 558,471 969,1136 1235,1999 266,864 399,1940 399,3229 0,373 -6,665 -13,864 -7,199 -13,379 -26,539l-3230 0 0 -725c0,-1063 -59,-1874 -185,-2437 -120,-566 -319,-985 -592,-1257 -405,-405 -1123,-685 -2153,-844 -1036,-166 -2989,-246 -5880,-246 -2983,0 -4864,339 -5628,1010 -763,678 -1149,2027 -1149,4046 0,280 7,546 21,796 1653,120 2847,538 3579,1254 578,576 977,1443 1175,2602zm-8064 -3840c-12,-276 -19,-564 -19,-860 0,-1686 166,-3043 504,-4065 63,-187 132,-369 206,-545l-14935 0 0 9487 3998 0 0 -2005 -1805 0 0 -1862 1805 0 0 -3325 2177 0 0 3325 7028 0c322,-66 669,-115 1039,-150zm-3924 2011l-4144 0 0 2005 3527 0c129,-799 326,-1471 617,-2005zm-4144 4955l0 3153c0,1155 191,1944 568,2358 377,417 1098,621 2158,621 554,0 1011,-55 1376,-165 -460,-880 -692,-2102 -692,-3664l0 -2302 -3412 0zm14013 1810l0 -2516c0,-1857 -235,-3037 -707,-3543 -472,-511 -1461,-763 -2970,-763l-1022 0c-1505,0 -2484,252 -2946,754 -463,507 -692,1691 -692,3553l0 2516c0,1873 234,3062 697,3568 468,501 1447,754 2942,754l1022 0c1499,0 2488,-257 2965,-768 472,-511 712,-1696 712,-3554zm-4707 17851c-26,-108 -55,-210 -85,-305 -259,-818 -685,-1397 -1283,-1735 -464,-259 -1189,-445 -2158,-552 -971,-113 -2977,-165 -6014,-165 -1647,0 -2923,106 -3833,318 -910,220 -1582,565 -2027,1043 -246,260 -425,698 -545,1322 -114,625 -173,1469 -173,2532 0,2153 220,3501 651,4052 432,552 1289,884 2571,984l7804 615 0 -2326c0,-2163 434,-3671 1309,-4527 770,-751 2017,-1171 3782,-1257zm-4947 11214l-7988 -663c-2385,-205 -4052,-863 -5016,-1973 -956,-1108 -1435,-2963 -1435,-5561 0,-1893 126,-3321 371,-4278 246,-950 651,-1748 1222,-2386 705,-790 1648,-1342 2831,-1660 1189,-319 3347,-479 6491,-479l1442 0c2671,0 4557,140 5667,412 1110,273 2033,744 2777,1423 725,624 1263,1468 1602,2531 144,443 257,936 342,1480 768,88 1426,247 1973,481 793,-375 1966,-561 3527,-561 1686,0 2861,382 3520,1140 655,761 984,2136 984,4122l0 2846 3998 0 0 -13474 3190 0 0 28981 -21831 0 -180 40c-1050,212 -2911,319 -5568,319l-1036 0c-2971,0 -5063,-147 -6280,-432 -1215,-286 -2225,-778 -3050,-1475 -558,-472 -969,-1136 -1235,-1999 -266,-865 -399,-1940 -399,-3230 0,-371 6,-665 13,-864 7,-199 13,-379 26,-538l3230 0 0 725c0,1062 59,1873 185,2437 120,565 319,984 592,1255 405,406 1123,685 2153,845 1036,165 2990,246 5880,246 2983,0 4864,-339 5628,-1010 763,-679 1149,-2027 1149,-4046 0,-280 -7,-546 -21,-797 -1653,-119 -2847,-538 -3579,-1253 -578,-576 -977,-1444 -1175,-2602zm8064 3839c12,276 20,564 20,860 0,1687 -167,3044 -506,4065 -63,187 -131,369 -206,545l14935 0 0 -9487 -3998 0 0 2007 1805 0 0 1862 -1805 0 0 3324 -2177 0 0 -3324 -7028 0c-322,65 -669,114 -1039,148zm3924 -2010l4144 0 0 -2007 -3527 0c-129,800 -326,1471 -617,2007zm4144 -4957l0 -3152c0,-1156 -191,-1944 -568,-2359 -377,-415 -1098,-621 -2158,-621 -553,0 -1011,55 -1376,166 460,879 692,2102 692,3663l0 2302 3412 0zm-14012 -1810l0 2516c0,1857 234,3038 706,3543 472,511 1462,764 2970,764l1022 0c1505,0 2484,-253 2946,-754 463,-508 692,-1691 692,-3554l0 -2516c0,-1871 -234,-3062 -697,-3568 -468,-501 -1447,-754 -2942,-754l-1022 0c-1499,0 -2488,257 -2965,769 -472,510 -711,1695 -711,3553z"/>
 </g>
</svg>
