<?xml version="1.0" encoding="UTF-8"?>
<!DOCTYPE svg PUBLIC "-//W3C//DTD SVG 1.1//EN" "http://www.w3.org/Graphics/SVG/1.1/DTD/svg11.dtd">
<!-- Creator: CorelDRAW X6 -->
<svg xmlns="http://www.w3.org/2000/svg" xml:space="preserve" width="60px" height="60px" version="1.1" style="shape-rendering:geometricPrecision; text-rendering:geometricPrecision; image-rendering:optimizeQuality; fill-rule:evenodd; clip-rule:evenodd"
viewBox="0 0 2813 2813"
 xmlns:xlink="http://www.w3.org/1999/xlink">
 <defs>
  <style type="text/css">
   <![CDATA[
    .fil0 {fill:none}
    .fil1 {fill:#171334}
    .fil2 {fill:#380B34}
    .fil3 {fill:#8A0044}
   ]]>
  </style>
 </defs>
 <g id="Layer_x0020_1">
  <metadata id="CorelCorpID_0Corel-Layer"/>
  <g id="_1315729872">
   <path class="fil0" d="M102 0l2608 0c56,0 102,46 102,102l0 2608c0,56 -46,102 -102,102l-2608 0c-56,0 -102,-46 -102,-102l0 -2608c0,-56 46,-102 102,-102z"/>
   <path class="fil1" d="M781 1016l1250 0c43,0 78,-35 78,-78l0 0c0,-43 -35,-78 -78,-78l-1250 0c-43,0 -78,35 -78,78l0 0c0,43 35,78 78,78z"/>
   <path class="fil2" d="M781 1484l781 0c43,0 78,-35 78,-78l0 0c0,-43 -35,-78 -78,-78l-781 0c-43,0 -78,35 -78,78l0 0c0,43 35,78 78,78z"/>
   <path class="fil3" d="M781 1953l1016 0c43,0 78,-35 78,-78l0 0c0,-43 -35,-78 -78,-78l-1016 0c-43,0 -78,35 -78,78l0 0c0,43 35,78 78,78z"/>
  </g>
 </g>
</svg>
