<?xml version="1.0" encoding="UTF-8"?>
<!DOCTYPE svg PUBLIC "-//W3C//DTD SVG 1.1//EN" "http://www.w3.org/Graphics/SVG/1.1/DTD/svg11.dtd">
<!-- Creator: CorelDRAW X6 -->
<svg xmlns="http://www.w3.org/2000/svg" xml:space="preserve" width="188px" height="188px" version="1.1" style="shape-rendering:geometricPrecision; text-rendering:geometricPrecision; image-rendering:optimizeQuality; fill-rule:evenodd; clip-rule:evenodd"
viewBox="0 0 65358 65358"
 xmlns:xlink="http://www.w3.org/1999/xlink">
 <defs>
  <style type="text/css">
   <![CDATA[
    .fil0 {fill:none}
    .fil1 {fill:#2A0E34;fill-rule:nonzero}
   ]]>
  </style>
 </defs>
 <g id="Layer_x0020_1">
  <metadata id="CorelCorpID_0Corel-Layer"/>
  <g id="_703333760">
   <polygon class="fil0" points="0,0 65358,0 65358,65358 0,65358 "/>
   <path class="fil1" d="M47945 28796l-662 1259 -32 -16 -32 -16 -32 -24 -32 -24 -24 -24 -24 -24 -24 -24 -24 -24 -24 -24 -16 -32 -16 -32 -16 -32 -16 -32 -16 -32 -16 -32 -8 -32 -8 -32 -8 -32 -8 -32 -8 -32 0 -32 0 -32 0 -32 0 -32 0 -32 8 -32 8 -32 8 -32 8 -32 8 -32 16 -32 16 -32 16 -32 16 -32 24 -32 24 -32 24 -24 24 -24 24 -24 24 -24 24 -24 32 -16 32 -16 32 -16 32 -16 32 -16 32 -16 32 -8 32 -8 32 -8 32 -8 32 -8 32 0 32 0 32 0 32 0 32 0 32 8 32 8 32 8 32 8 32 8 32 16 32 16 35 -5zm1784 2931l-1421 0 0 0 0 -65 0 -65 -8 -65 -8 -65 -8 -65 -16 -56 -16 -65 -16 -56 -24 -65 -24 -65 -24 -56 -24 -56 -24 -56 -32 -56 -32 -56 -32 -56 -32 -56 -32 -49 -40 -56 -40 -49 -40 -49 -40 -49 -40 -49 -49 -49 -49 -40 -49 -40 -49 -40 -49 -32 -56 -40 -56 -40 -56 -32 -56 -32 662 -1259 97 56 97 56 89 56 89 56 89 65 89 65 89 72 81 72 72 72 81 81 72 81 72 89 65 89 65 89 65 89 56 97 56 97 56 97 49 105 49 97 40 105 40 105 32 105 32 105 32 113 24 105 24 113 16 113 16 113 8 113 8 121 0 121 0 0 33 16zm-1421 0l1421 0 0 32 0 32 0 32 -8 32 -8 32 -8 32 -8 32 -16 32 -16 32 -16 32 -16 32 -16 32 -16 32 -24 24 -24 24 -24 24 -24 24 -24 24 -24 24 -32 16 -32 16 -32 16 -32 16 -32 16 -32 16 -32 8 -32 8 -32 8 -32 8 -32 0 -32 0 -32 0 -32 0 -32 0 -32 0 -32 -8 -32 -8 -32 -8 -32 -8 -32 -16 -32 -16 -32 -16 -32 -16 -32 -16 -32 -16 -24 -24 -24 -24 -24 -24 -24 -24 -24 -24 -24 -24 -24 -32 -16 -32 -16 -32 -16 -32 -16 -32 -8 -32 -8 -32 -8 -32 -8 -32 -8 -32 0 -32 0 -32 0 -32 -35 0zm0 14685l0 -14685 1421 0 0 14685 0 0 -1421 0zm0 0l1421 0 0 32 0 32 0 32 -8 32 -8 32 -8 32 -8 32 -16 32 -16 32 -16 32 -16 32 -16 32 -16 32 -24 24 -24 24 -24 24 -24 24 -24 24 -24 24 -32 16 -32 16 -32 16 -32 16 -32 16 -32 16 -32 8 -32 8 -32 8 -32 8 -32 0 -32 0 -32 0 -32 0 -32 0 -32 0 -32 -8 -32 -8 -32 -8 -32 -8 -32 -16 -32 -16 -32 -16 -32 -16 -32 -16 -32 -16 -24 -24 -24 -24 -24 -24 -24 -24 -24 -24 -24 -24 -24 -32 -16 -32 -16 -32 -16 -32 -16 -32 -8 -32 -8 -32 -8 -32 -8 -32 -8 -32 0 -32 0 -32 0 -32 -35 0zm-1921 3318l0 -1421 0 0 97 0 105 -8 97 -8 89 -16 97 -24 89 -24 89 -32 89 -32 89 -40 81 -40 81 -49 72 -49 81 -56 72 -56 65 -56 65 -65 65 -65 56 -65 56 -72 56 -72 49 -72 49 -81 40 -81 32 -81 32 -89 32 -89 24 -89 24 -97 16 -89 16 -97 8 -97 0 -97 1421 0 -8 170 -16 170 -24 170 -32 161 -40 161 -49 161 -56 154 -56 145 -72 154 -72 145 -81 137 -89 137 -97 129 -97 121 -105 121 -113 113 -113 105 -121 105 -129 97 -129 89 -137 89 -137 81 -145 72 -145 65 -154 56 -161 56 -161 40 -161 40 -170 32 -170 24 -161 8 -170 8 0 0 41 -9zm0 -1421l0 1421 -32 0 -32 0 -32 0 -32 -8 -32 -8 -32 -8 -32 -8 -32 -16 -32 -16 -32 -16 -32 -16 -32 -16 -32 -16 -24 -24 -24 -24 -24 -24 -24 -24 -24 -24 -24 -24 -24 -32 -16 -32 -16 -32 -16 -32 -16 -32 -8 -32 -8 -32 -8 -32 -8 -32 -8 -32 0 -32 0 -32 0 -32 0 -32 0 -32 0 -32 8 -32 8 -32 8 -32 8 -32 8 -32 16 -32 16 -32 16 -32 16 -32 24 -32 24 -24 24 -24 24 -24 24 -24 24 -24 24 -24 32 -24 32 -16 32 -16 32 -16 32 -16 32 -8 32 -8 32 -8 32 -8 32 -8 32 0 32 0 32 0 0 -35zm-27415 0l27415 0 0 1421 -27415 0 0 0 0 -1421zm0 0l0 1421 -32 0 -32 0 -32 0 -32 -8 -32 -8 -32 -8 -32 -8 -32 -16 -32 -16 -32 -16 -32 -16 -32 -16 -32 -16 -24 -24 -24 -24 -24 -24 -24 -24 -24 -24 -24 -24 -24 -32 -16 -32 -16 -32 -16 -32 -16 -32 -8 -32 -8 -32 -8 -32 -8 -32 -8 -32 0 -32 0 -32 0 -32 0 -32 0 -32 0 -32 8 -32 8 -32 8 -32 8 -32 8 -32 16 -32 16 -32 16 -32 16 -32 24 -32 24 -24 24 -24 24 -24 24 -24 24 -24 24 -24 32 -24 32 -16 32 -16 32 -16 32 -16 32 -8 32 -8 32 -8 32 -8 32 -8 32 0 32 0 32 0 0 -35zm-3342 -1897l1421 0 0 0 0 97 8 97 16 97 16 89 24 97 24 89 32 89 32 89 40 81 40 89 40 81 49 81 56 72 56 72 56 72 65 65 65 65 72 56 72 56 72 56 81 49 81 49 81 40 89 40 89 32 89 32 89 24 97 24 89 16 97 8 105 8 97 0 0 1421 -170 -8 -161 -8 -170 -24 -170 -32 -161 -40 -161 -40 -161 -56 -154 -56 -145 -65 -145 -72 -137 -81 -137 -89 -129 -97 -121 -97 -121 -105 -113 -113 -113 -113 -105 -121 -97 -121 -97 -129 -89 -137 -81 -145 -72 -137 -72 -145 -56 -154 -56 -154 -49 -161 -40 -161 -32 -161 -24 -170 -16 -170 -8 -170 0 0 25 1zm1421 0l-1421 0 0 -32 0 -32 0 -32 8 -32 8 -32 8 -32 8 -32 8 -32 16 -32 16 -32 16 -32 16 -32 24 -32 24 -24 24 -24 24 -24 24 -24 24 -24 24 -24 32 -24 32 -16 32 -16 32 -16 32 -16 32 -8 32 -8 32 -8 32 -8 32 -8 32 0 32 0 32 0 32 0 32 0 32 0 32 8 32 8 32 8 32 8 32 8 32 16 32 16 32 16 32 16 32 24 24 24 24 24 24 24 24 24 24 24 24 24 16 32 16 32 16 32 16 32 16 32 16 32 8 32 8 32 8 32 8 32 0 32 0 32 0 32 35 0zm0 -14685l0 14685 -1421 0 0 -14685 0 0 1421 0zm0 0l-1421 0 0 -32 0 -32 0 -32 8 -32 8 -32 8 -32 8 -32 8 -32 16 -32 16 -32 16 -32 16 -32 24 -32 24 -24 24 -24 24 -24 24 -24 24 -24 24 -24 32 -24 32 -16 32 -16 32 -16 32 -16 32 -8 32 -8 32 -8 32 -8 32 -8 32 0 32 0 32 0 32 0 32 0 32 0 32 8 32 8 32 8 32 8 32 8 32 16 32 16 32 16 32 16 32 24 24 24 24 24 24 24 24 24 24 24 24 24 16 32 16 32 16 32 16 32 16 32 16 32 8 32 8 32 8 32 8 32 0 32 0 32 0 32 35 0zm275 -2882l694 1235 -56 32 -56 32 -49 32 -49 32 -56 40 -49 40 -40 40 -49 49 -40 40 -40 49 -40 49 -32 40 -40 56 -40 56 -32 49 -32 49 -32 56 -32 56 -32 56 -24 56 -24 56 -24 56 -16 56 -16 65 -16 56 -16 65 -8 65 -8 56 -8 65 -8 65 0 65 0 65 -1421 0 0 -113 8 -113 8 -113 16 -113 16 -113 24 -105 24 -105 32 -113 32 -105 32 -105 40 -105 40 -97 40 -97 49 -97 49 -89 56 -97 56 -97 65 -97 65 -81 65 -81 72 -89 72 -81 72 -81 81 -72 72 -72 81 -72 81 -65 81 -65 89 -65 97 -65 89 -56 89 -56 0 -7zm694 1235l-694 -1235 32 -16 32 -16 32 -16 32 -8 32 -8 32 -8 32 -8 32 0 32 0 32 0 32 0 32 0 32 0 32 8 32 8 32 8 32 8 32 8 32 16 32 16 32 16 32 16 32 16 32 16 24 24 24 24 24 24 24 24 24 24 24 32 16 32 16 32 16 32 16 32 16 32 8 32 8 32 8 32 8 32 0 32 0 32 0 32 0 32 0 32 0 32 -8 32 -8 32 -8 32 -8 32 -8 32 -16 32 -16 32 -16 32 -16 32 -16 32 -16 32 -24 24 -24 24 -24 24 -24 24 -24 24 -32 24 -32 16 -32 16 20 12z"/>
   <path class="fil1" d="M21102 27359l-928 -1074 32 -24 32 -24 32 -16 32 -16 32 -16 32 -16 32 -16 32 -8 32 -8 32 -8 32 -8 32 -8 32 0 32 0 32 0 32 0 32 0 32 8 32 8 32 8 32 8 32 8 32 16 32 16 32 16 32 16 32 16 32 24 24 24 24 24 24 24 24 24 24 32 24 32 16 32 16 32 16 32 16 32 16 32 8 32 8 32 8 32 8 32 8 32 0 32 0 32 0 32 0 32 0 32 -8 32 -8 32 -8 32 -8 32 -8 32 -16 32 -16 32 -16 32 -16 32 -16 32 -24 32 -24 24 -24 24 -24 24 -24 24 5 5zm-4383 1929l3455 -3003 928 1074 -3455 3003 -928 -1074zm0 0l928 1074 -32 24 -32 24 -32 16 -32 16 -32 16 -32 16 -32 16 -32 8 -32 8 -32 8 -32 8 -32 8 -32 0 -32 0 -32 0 -32 0 -32 0 -32 -8 -32 -8 -32 -8 -32 -8 -32 -8 -32 -16 -32 -16 -32 -16 -32 -16 -32 -16 -32 -24 -24 -24 -24 -24 -24 -24 -24 -24 -24 -32 -24 -32 -16 -32 -16 -32 -16 -32 -16 -32 -16 -32 -8 -32 -8 -32 -8 -32 -8 -32 -8 -32 0 -32 0 -32 0 -32 0 -32 0 -32 8 -32 8 -32 8 -32 8 -32 8 -32 16 -32 16 -32 16 -32 16 -32 16 -32 24 -32 24 -24 24 -24 24 -24 24 -24 -5 -5z"/>
   <path class="fil1" d="M35779 19980l937 -1074 24 24 24 24 24 24 24 32 24 32 16 32 16 32 16 32 16 32 16 32 8 32 8 32 8 32 8 32 8 32 0 32 0 32 0 32 0 32 0 32 -8 32 -8 32 -8 32 -8 32 -8 32 -16 32 -16 32 -16 32 -16 32 -16 32 -24 32 -24 32 -24 24 -24 24 -24 24 -32 24 -32 24 -32 16 -32 16 -32 16 -32 16 -32 16 -32 8 -32 8 -32 8 -32 8 -32 8 -32 0 -32 0 -32 0 -32 0 -32 0 -32 -8 -32 -8 -32 -8 -32 -8 -32 -8 -32 -16 -32 -16 -32 -16 -32 -16 -32 -16 -32 -24 -32 -24 -5 -3zm-2632 -4174l3568 3100 -937 1074 -3568 -3100 0 -1074 937 0zm0 0l-937 1074 -24 -24 -24 -24 -24 -24 -24 -32 -24 -32 -16 -32 -16 -32 -16 -32 -16 -32 -16 -32 -8 -32 -8 -32 -8 -32 -8 -32 -8 -32 0 -32 0 -32 0 -32 0 -32 0 -32 8 -32 8 -32 8 -32 8 -32 8 -32 16 -32 16 -32 16 -32 16 -32 16 -32 24 -32 24 -32 24 -24 24 -24 24 -24 32 -24 32 -24 32 -16 32 -16 32 -16 32 -16 32 -16 32 -8 32 -8 32 -8 32 -8 32 -8 32 0 32 0 32 0 32 0 32 0 32 8 32 8 32 8 32 8 32 8 32 16 32 16 32 16 32 16 32 16 32 24 32 24 5 3zm-4294 2931l3367 -2931 928 1074 -3367 2931 -928 -1074zm0 0l928 1074 -32 24 -32 24 -32 16 -32 16 -32 16 -32 16 -32 16 -32 8 -32 8 -32 8 -32 8 -32 8 -32 0 -32 0 -32 0 -32 0 -32 0 -32 -8 -32 -8 -32 -8 -32 -8 -32 -8 -32 -16 -32 -16 -32 -16 -32 -16 -32 -16 -32 -24 -24 -24 -24 -24 -24 -24 -24 -24 -24 -32 -24 -32 -16 -32 -16 -32 -16 -32 -16 -32 -16 -32 -8 -32 -8 -32 -8 -32 -8 -32 -8 -32 0 -32 0 -32 0 -32 0 -32 0 -32 8 -32 8 -32 8 -32 8 -32 8 -32 16 -32 16 -32 16 -32 16 -32 16 -32 24 -32 24 -24 24 -24 24 -24 24 -24 -5 -5z"/>
   <path class="fil1" d="M47711 30362l928 -1074 24 24 24 24 24 24 24 24 24 32 16 32 16 32 16 32 16 32 16 32 8 32 8 32 8 32 8 32 8 32 0 32 0 32 0 32 0 32 0 32 -8 32 -8 32 -8 32 -8 32 -8 32 -16 32 -16 32 -16 32 -16 32 -16 32 -24 32 -24 32 -24 24 -24 24 -24 24 -24 24 -32 24 -32 16 -32 16 -32 16 -32 16 -32 16 -32 8 -32 8 -32 8 -32 8 -32 8 -32 0 -32 0 -32 0 -32 0 -32 0 -32 -8 -32 -8 -32 -8 -32 -8 -32 -8 -32 -16 -32 -16 -32 -16 -32 -16 -32 -16 -32 -24 -32 -24 -5 5zm-2616 -4157l3544 3084 -928 1074 -3544 -3084 928 -1074zm0 0l-928 1074 -24 -24 -24 -24 -24 -24 -24 -24 -24 -32 -16 -32 -16 -32 -16 -32 -16 -32 -16 -32 -8 -32 -8 -32 -8 -32 -8 -32 -8 -32 0 -32 0 -32 0 -32 0 -32 0 -32 8 -32 8 -32 8 -32 8 -32 8 -32 16 -32 16 -32 16 -32 16 -32 16 -32 24 -32 24 -32 24 -24 24 -24 24 -24 24 -24 32 -24 32 -16 32 -16 32 -16 32 -16 32 -16 32 -8 32 -8 32 -8 32 -8 32 -8 32 0 32 0 32 0 32 0 32 0 32 8 32 8 32 8 32 8 32 8 32 16 32 16 32 16 32 16 32 16 32 24 32 24 5 -5z"/>
   <path class="fil1" d="M16654 47380l1058 944 -24 24 -24 24 -24 24 -24 24 -32 24 -32 16 -32 16 -32 16 -32 16 -32 16 -32 8 -32 8 -32 8 -32 8 -32 0 -32 0 -32 0 -32 0 -32 0 -32 0 -32 -8 -32 -8 -32 -8 -32 -8 -32 -16 -32 -16 -32 -16 -32 -16 -32 -16 -32 -24 -32 -24 -32 -24 -24 -24 -24 -24 -24 -24 -24 -24 -24 -32 -16 -32 -16 -32 -16 -32 -16 -32 -16 -32 -8 -32 -8 -32 -8 -32 -8 -32 0 -32 0 -32 0 -32 0 -32 0 -32 0 -32 8 -32 8 -32 8 -32 8 -32 16 -32 16 -32 16 -32 16 -32 16 -32 24 -32 24 -32 24 -32 -13 3zm9340 -8323l-8283 9267 -1058 -944 8283 -9267 533 -234 533 1187 -8 -8zm0 0l-1058 -944 24 -24 24 -24 24 -24 24 -24 32 -24 32 -16 32 -16 32 -16 32 -16 32 -16 32 -8 32 -8 32 -8 32 -8 32 0 32 0 32 0 32 0 32 0 32 0 32 8 32 8 32 8 32 8 32 16 32 16 32 16 32 16 32 16 32 24 32 24 32 24 24 24 24 24 24 24 24 24 24 32 16 32 16 32 16 32 16 32 16 32 8 32 8 32 8 32 8 32 0 32 0 32 0 32 0 32 0 32 0 32 -8 32 -8 32 -8 32 -8 32 -16 32 -16 32 -16 32 -16 32 -16 32 -24 32 -24 32 -24 32 13 -3zm13910 234l-14434 0 0 -1421 14434 0 533 234 -533 1187zm0 0l0 -1421 32 0 32 0 32 0 32 8 32 8 32 8 32 8 32 8 32 16 32 16 32 16 32 16 32 24 24 24 24 24 24 24 24 24 24 24 24 24 16 32 16 32 16 32 16 32 16 32 16 32 8 32 8 32 8 32 8 32 0 32 0 32 0 32 0 32 0 32 0 32 -8 32 -8 32 -8 32 -8 32 -16 32 -16 32 -16 32 -16 32 -16 32 -16 32 -24 24 -24 24 -24 24 -24 24 -24 24 -24 24 -32 16 -32 16 -32 16 -32 16 -32 16 -32 16 -32 8 -32 8 -32 8 -32 8 -32 0 -32 0 -32 0 0 35zm7750 9034l-8275 -9267 1058 -944 8275 9267 -1058 944zm0 0l1058 -944 24 32 24 32 24 32 16 32 16 32 16 32 16 32 16 32 8 32 8 32 8 32 8 32 0 32 0 32 0 32 0 32 0 32 0 32 -8 32 -8 32 -8 32 -8 32 -16 32 -16 32 -16 32 -16 32 -16 32 -24 32 -24 24 -24 24 -24 24 -24 24 -32 24 -32 24 -32 24 -32 16 -32 16 -32 16 -32 16 -32 16 -32 8 -32 8 -32 8 -32 8 -32 0 -32 0 -32 0 -32 0 -32 0 -32 0 -32 -8 -32 -8 -32 -8 -32 -8 -32 -16 -32 -16 -32 -16 -32 -16 -32 -16 -32 -24 -24 -24 -24 -24 -24 -24 -24 -24 -13 -3z"/>
   <path class="fil1" d="M17090 30047l-944 1058 -24 -24 -24 -24 -24 -24 -24 -32 -24 -32 -16 -32 -16 -32 -16 -32 -16 -32 -16 -32 -8 -32 -8 -32 -8 -32 -8 -32 0 -32 0 -32 0 -32 0 -32 0 -32 0 -32 8 -32 8 -32 8 -32 8 -32 8 -32 16 -32 16 -32 16 -32 16 -32 24 -32 24 -32 24 -32 24 -24 24 -24 24 -24 32 -24 32 -24 32 -16 32 -16 32 -16 32 -16 32 -16 32 -8 32 -8 32 -8 32 -8 32 0 32 0 32 0 32 0 32 0 32 0 32 8 32 8 32 8 32 8 32 8 32 16 32 16 32 16 32 16 32 24 32 24 32 24 -3 3zm7718 8767l-8662 -7710 944 -1058 8662 7710 -944 1058zm0 0l944 -1058 24 24 24 24 24 24 24 32 24 32 16 32 16 32 16 32 16 32 16 32 8 32 8 32 8 32 8 32 0 32 0 32 0 32 0 32 0 32 0 32 -8 32 -8 32 -8 32 -8 32 -8 32 -16 32 -16 32 -16 32 -16 32 -24 32 -24 32 -24 32 -24 24 -24 24 -24 24 -32 24 -32 24 -32 16 -32 16 -32 16 -32 16 -32 16 -32 8 -32 8 -32 8 -32 8 -32 0 -32 0 -32 0 -32 0 -32 0 -32 0 -32 -8 -32 -8 -32 -8 -32 -8 -32 -8 -32 -16 -32 -16 -32 -16 -32 -16 -32 -24 -32 -24 -32 -24 3 -3z"/>
   <path class="fil1" d="M49075 31113l-944 -1058 32 -24 32 -24 32 -24 32 -16 32 -16 32 -16 32 -16 32 -8 32 -8 32 -8 32 -8 32 -8 32 0 32 0 32 0 32 0 32 0 32 0 32 8 32 8 32 8 32 8 32 16 32 16 32 16 32 16 32 16 32 24 32 24 24 24 24 24 24 24 24 32 24 32 24 32 16 32 16 32 16 32 16 32 8 32 8 32 8 32 8 32 8 32 0 32 0 32 0 32 0 32 0 32 0 32 -8 32 -8 32 -8 32 -8 32 -16 32 -16 32 -16 32 -16 32 -16 32 -24 32 -24 32 -24 24 -24 24 -24 24 -3 -3zm-9607 6652l8662 -7710 944 1058 -8662 7710 -944 -1058zm0 0l944 1058 -32 24 -32 24 -32 24 -32 16 -32 16 -32 16 -32 16 -32 8 -32 8 -32 8 -32 8 -32 8 -32 0 -32 0 -32 0 -32 0 -32 0 -32 0 -32 -8 -32 -8 -32 -8 -32 -8 -32 -16 -32 -16 -32 -16 -32 -16 -32 -16 -32 -24 -32 -24 -24 -24 -24 -24 -24 -24 -24 -32 -24 -32 -24 -32 -16 -32 -16 -32 -16 -32 -16 -32 -8 -32 -8 -32 -8 -32 -8 -32 -8 -32 0 -32 0 -32 0 -32 0 -32 0 -32 0 -32 8 -32 8 -32 8 -32 8 -32 16 -32 16 -32 16 -32 16 -32 16 -32 24 -32 24 -32 24 -24 24 -24 24 -24 3 3z"/>
   <path class="fil1" d="M20303 33680l1421 0 0 32 0 32 0 32 -8 32 -8 32 -8 32 -8 32 -16 32 -16 32 -16 32 -16 32 -16 32 -16 32 -24 24 -24 24 -24 24 -24 24 -24 24 -24 24 -32 16 -32 16 -32 16 -32 16 -32 16 -32 16 -32 8 -32 8 -32 8 -32 8 -32 0 -32 0 -32 0 -32 0 -32 0 -32 0 -32 -8 -32 -8 -32 -8 -32 -8 -32 -16 -32 -16 -32 -16 -32 -16 -32 -16 -32 -16 -24 -24 -24 -24 -24 -24 -24 -24 -24 -24 -24 -24 -24 -32 -16 -32 -16 -32 -16 -32 -16 -32 -8 -32 -8 -32 -8 -32 -8 -32 -8 -32 0 -32 0 -32 0 -32 -35 0zm1421 -14232l0 14233 -1421 0 0 -14233 711 -711 711 711 0 0zm0 0l-1421 0 0 -32 0 -32 0 -32 8 -32 8 -32 8 -32 8 -32 8 -32 16 -32 16 -32 16 -32 16 -32 24 -32 24 -24 24 -24 24 -24 24 -24 24 -24 24 -24 32 -24 32 -16 32 -16 32 -16 32 -16 32 -8 32 -8 32 -8 32 -8 32 -8 32 0 32 0 32 0 32 0 32 0 32 0 32 8 32 8 32 8 32 8 32 8 32 16 32 16 32 16 32 16 32 24 24 24 24 24 24 24 24 24 24 24 24 24 16 32 16 32 16 32 16 32 16 32 16 32 8 32 8 32 8 32 8 32 0 32 0 32 0 32 35 0zm22620 710l-23330 0 0 -1421 23330 0 711 711 -711 711 0 0zm0 0l0 -1421 32 0 32 0 32 0 32 8 32 8 32 8 32 8 32 8 32 16 32 16 32 16 32 16 32 24 24 24 24 24 24 24 24 24 24 24 24 24 16 32 16 32 16 32 16 32 16 32 16 32 8 32 8 32 8 32 8 32 0 32 0 32 0 32 0 32 0 32 0 32 -8 32 -8 32 -8 32 -8 32 -16 32 -16 32 -16 32 -16 32 -16 32 -16 32 -24 24 -24 24 -24 24 -24 24 -24 24 -24 24 -32 16 -32 16 -32 16 -32 16 -32 16 -32 16 -32 8 -32 8 -32 8 -32 8 -32 0 -32 0 -32 0 0 35zm-710 14039l0 -14749 1421 0 0 14749 -1421 0zm0 0l1421 0 0 32 0 32 0 32 -8 32 -8 32 -8 32 -8 32 -16 32 -16 32 -16 32 -16 32 -16 32 -16 32 -24 24 -24 24 -24 24 -24 24 -24 24 -24 24 -32 16 -32 16 -32 16 -32 16 -32 16 -32 16 -32 8 -32 8 -32 8 -32 8 -32 0 -32 0 -32 0 -32 0 -32 0 -32 0 -32 -8 -32 -8 -32 -8 -32 -8 -32 -16 -32 -16 -32 -16 -32 -16 -32 -16 -32 -16 -24 -24 -24 -24 -24 -24 -24 -24 -24 -24 -24 -24 -24 -32 -16 -32 -16 -32 -16 -32 -16 -32 -8 -32 -8 -32 -8 -32 -8 -32 -8 -32 0 -32 0 -32 0 -32 -35 0z"/>
   <path class="fil1" d="M25349 23347l0 1421 -32 0 -32 0 -32 0 -32 -8 -32 -8 -32 -8 -32 -8 -32 -16 -32 -16 -32 -16 -32 -16 -32 -16 -32 -16 -24 -24 -24 -24 -24 -24 -24 -24 -24 -24 -24 -24 -24 -32 -16 -32 -16 -32 -16 -32 -16 -32 -8 -32 -8 -32 -8 -32 -8 -32 -8 -32 0 -32 0 -32 0 -32 0 -32 0 -32 0 -32 8 -32 8 -32 8 -32 8 -32 8 -32 16 -32 16 -32 16 -32 16 -32 24 -32 24 -24 24 -24 24 -24 24 -24 24 -24 24 -24 32 -24 32 -16 32 -16 32 -16 32 -16 32 -8 32 -8 32 -8 32 -8 32 -8 32 0 32 0 32 0 0 -35zm14668 1421l-14669 0 0 -1421 14669 0 0 1421zm0 0l0 -1421 32 0 32 0 32 0 32 8 32 8 32 8 32 8 32 8 32 16 32 16 32 16 32 16 32 24 24 24 24 24 24 24 24 24 24 24 24 24 16 32 16 32 16 32 16 32 16 32 16 32 8 32 8 32 8 32 8 32 0 32 0 32 0 32 0 32 0 32 0 32 -8 32 -8 32 -8 32 -8 32 -16 32 -16 32 -16 32 -16 32 -16 32 -16 32 -24 24 -24 24 -24 24 -24 24 -24 24 -24 24 -32 16 -32 16 -32 16 -32 16 -32 16 -32 16 -32 8 -32 8 -32 8 -32 8 -32 0 -32 0 -32 0 0 35z"/>
   <path class="fil1" d="M25349 27965l0 1421 -32 0 -32 0 -32 0 -32 -8 -32 -8 -32 -8 -32 -8 -32 -16 -32 -16 -32 -16 -32 -16 -32 -16 -32 -16 -24 -24 -24 -24 -24 -24 -24 -24 -24 -24 -24 -24 -24 -32 -16 -32 -16 -32 -16 -32 -16 -32 -8 -32 -8 -32 -8 -32 -8 -32 -8 -32 0 -32 0 -32 0 -32 0 -32 0 -32 0 -32 8 -32 8 -32 8 -32 8 -32 8 -32 16 -32 16 -32 16 -32 16 -32 24 -32 24 -24 24 -24 24 -24 24 -24 24 -24 24 -24 32 -24 32 -16 32 -16 32 -16 32 -16 32 -8 32 -8 32 -8 32 -8 32 -8 32 0 32 0 32 0 0 -35zm14668 1421l-14669 0 0 -1421 14669 0 0 1421zm0 0l0 -1421 32 0 32 0 32 0 32 8 32 8 32 8 32 8 32 8 32 16 32 16 32 16 32 16 32 24 24 24 24 24 24 24 24 24 24 24 24 24 16 32 16 32 16 32 16 32 16 32 16 32 8 32 8 32 8 32 8 32 0 32 0 32 0 32 0 32 0 32 0 32 -8 32 -8 32 -8 32 -8 32 -16 32 -16 32 -16 32 -16 32 -16 32 -16 32 -24 24 -24 24 -24 24 -24 24 -24 24 -24 24 -32 16 -32 16 -32 16 -32 16 -32 16 -32 16 -32 8 -32 8 -32 8 -32 8 -32 0 -32 0 -32 0 0 35z"/>
   <path class="fil1" d="M25349 32582l0 1421 -32 0 -32 0 -32 0 -32 -8 -32 -8 -32 -8 -32 -8 -32 -16 -32 -16 -32 -16 -32 -16 -32 -16 -32 -16 -24 -24 -24 -24 -24 -24 -24 -24 -24 -24 -24 -24 -24 -32 -16 -32 -16 -32 -16 -32 -16 -32 -8 -32 -8 -32 -8 -32 -8 -32 -8 -32 0 -32 0 -32 0 -32 0 -32 0 -32 0 -32 8 -32 8 -32 8 -32 8 -32 8 -32 16 -32 16 -32 16 -32 16 -32 24 -32 24 -24 24 -24 24 -24 24 -24 24 -24 24 -24 32 -24 32 -16 32 -16 32 -16 32 -16 32 -8 32 -8 32 -8 32 -8 32 -8 32 0 32 0 32 0 0 -35zm14668 1421l-14669 0 0 -1421 14669 0 0 1421zm0 0l0 -1421 32 0 32 0 32 0 32 8 32 8 32 8 32 8 32 8 32 16 32 16 32 16 32 16 32 24 24 24 24 24 24 24 24 24 24 24 24 24 16 32 16 32 16 32 16 32 16 32 16 32 8 32 8 32 8 32 8 32 0 32 0 32 0 32 0 32 0 32 0 32 -8 32 -8 32 -8 32 -8 32 -16 32 -16 32 -16 32 -16 32 -16 32 -16 32 -24 24 -24 24 -24 24 -24 24 -24 24 -24 24 -32 16 -32 16 -32 16 -32 16 -32 16 -32 16 -32 8 -32 8 -32 8 -32 8 -32 0 -32 0 -32 0 0 35z"/>
  </g>
 </g>
</svg>
