<?xml version="1.0" encoding="UTF-8"?>
<!DOCTYPE svg PUBLIC "-//W3C//DTD SVG 1.1//EN" "http://www.w3.org/Graphics/SVG/1.1/DTD/svg11.dtd">
<!-- Creator: CorelDRAW X6 -->
<svg xmlns="http://www.w3.org/2000/svg" xml:space="preserve" width="40px" height="40px" version="1.1" style="shape-rendering:geometricPrecision; text-rendering:geometricPrecision; image-rendering:optimizeQuality; fill-rule:evenodd; clip-rule:evenodd"
viewBox="0 0 3419 3419"
 xmlns:xlink="http://www.w3.org/1999/xlink">
 <defs>
  <style type="text/css">
   <![CDATA[
    .fil0 {fill:none}
    .fil1 {fill:#A8B7CE}
   ]]>
  </style>
 </defs>
 <g id="Layer_x0020_1">
  <metadata id="CorelCorpID_0Corel-Layer"/>
  <polygon class="fil0" points="3419,0 0,0 0,3419 3419,3419 "/>
  <path class="fil1" d="M2530 2330c-75,-197 -201,-243 -303,-262 -85,-15 -191,-47 -229,-68 -1,-17 -2,-52 2,-109 2,-2 4,-4 6,-7l-1 -1c50,-67 74,-131 85,-174 32,-23 67,-68 87,-154 12,-50 20,-113 -16,-158 -1,-1 -2,-2 -3,-3 32,-317 -171,-477 -290,-519l-2 -1 -2 -1c-45,-14 -88,-20 -129,-20 -9,0 -18,1 -27,1 -9,-1 -18,-1 -27,-1 -40,0 -84,7 -129,20l-2 1 -2 1c-119,42 -323,202 -290,519 -1,1 -2,2 -3,3 -36,45 -27,108 -16,158 20,86 54,131 87,154 11,42 35,105 84,172l0 0c0,0 1,1 1,1 3,4 5,7 8,11 3,54 3,88 1,106 -38,20 -144,52 -228,67 -102,18 -229,64 -303,262 -13,34 -8,70 12,100 77,111 482,135 808,135 326,0 731,-23 808,-135 21,-30 25,-66 12,-100zm-1033 -289c5,-14 7,-39 7,-68 49,37 114,71 192,74 4,0 9,0 13,0 71,0 140,-26 206,-77 0,29 2,56 7,70 8,21 54,43 110,62 -80,79 -195,128 -323,128 -128,0 -242,-50 -323,-128 55,-19 102,-40 110,-62zm-99 -389c-10,0 -52,-7 -77,-114 -19,-83 1,-97 16,-97 7,0 13,3 13,3 -74,-386 227,-491 227,-491 41,-13 76,-17 105,-17 10,0 19,1 27,1 8,-1 17,-1 27,-1 29,0 63,4 105,17 0,0 301,105 227,491 0,0 6,-3 13,-3 15,0 35,13 16,97 -25,107 -67,114 -77,114 -1,0 -2,0 -2,0 0,0 -5,101 -98,209 0,1 0,2 0,3 -72,73 -145,109 -219,106 -91,-4 -164,-66 -200,-104 0,-1 0,-1 0,-2 -94,-109 -100,-211 -100,-211 0,0 -1,0 -2,0z"/>
 </g>
</svg>
