<svg xmlns:dc="http://purl.org/dc/elements/1.1/" xmlns:cc="http://creativecommons.org/ns#" xmlns:rdf="http://www.w3.org/1999/02/22-rdf-syntax-ns#" xmlns:svg="http://www.w3.org/2000/svg" xmlns="http://www.w3.org/2000/svg" xmlns:sodipodi="http://sodipodi.sourceforge.net/DTD/sodipodi-0.dtd" xmlns:inkscape="http://www.inkscape.org/namespaces/inkscape" viewBox="0 0 100 125" version="1.1" x="0px" y="0px"><g transform="translate(0,-952.36216)"><path d="m 10.692323,961.87544 c -3.1511023,0 -5.6923224,2.5412 -5.6923224,5.6923 0,3.15111 2.5412201,5.69241 5.6923224,5.69241 0.874186,0 1.728043,-0.20333 2.520909,-0.58963 -1.829692,0.9962 -2.968141,2.90715 -2.968141,5.00116 0,3.13074 2.541213,5.69231 5.692323,5.69231 1.260455,0 2.500553,-0.42693 3.517049,-1.21979 -0.975836,1.03682 -1.524744,2.41923 -1.524744,3.86262 0,3.13074 2.541239,5.69231 5.69235,5.69231 1.849995,0 3.598367,-0.91485 4.655523,-2.43959 -0.325279,0.73188 -0.487918,1.52474 -0.487918,2.31761 0,3.13084 2.541213,5.69241 5.692269,5.69241 2.459919,0 4.635221,-1.58573 5.407758,-3.92371 -0.162639,0.52864 -0.243959,1.07755 -0.243959,1.6061 0,3.1511 2.541239,5.69245 5.692377,5.69245 3.151137,0 5.692376,-2.54135 5.692376,-5.69245 0,-3.13084 -2.541239,-5.69241 -5.692376,-5.69241 -2.45992,0.0202 -4.635221,1.58573 -5.407759,3.92371 0.16264,-0.52855 0.243959,-1.05719 0.243959,-1.6061 0,-3.15101 -2.561569,-5.69231 -5.692376,-5.69231 -1.870271,0 -3.598315,0.89458 -4.65547,2.41932 0.325278,-0.73188 0.487918,-1.50448 0.487918,-2.29734 0,-3.15111 -2.541212,-5.69232 -5.692322,-5.69232 -1.280785,0 -2.520883,0.42693 -3.517049,1.2198 0.975836,-1.05709 1.504387,-2.43959 1.504387,-3.86262 0,-3.15111 -2.541213,-5.69231 -5.692323,-5.69231 -0.853857,0 -1.728043,0.20323 -2.500552,0.58953 1.829665,-0.9962 2.968141,-2.92751 2.968141,-5.00116 0,-3.1511 -2.541213,-5.6923 -5.69235,-5.6923 z m 78.6153,0 c -3.151137,0 -5.692376,2.5412 -5.692376,5.6923 0,1.97204 1.016496,3.822 2.703878,4.83855 -0.691216,-0.28468 -1.423093,-0.42692 -2.1753,-0.42692 -3.151137,0 -5.692377,2.5412 -5.692377,5.69231 0,1.42303 0.528578,2.80553 1.524743,3.86262 -1.016495,-0.79287 -2.25662,-1.2198 -3.537405,-1.2198 -3.130807,0 -5.692376,2.54121 -5.692376,5.69232 0,0.85385 0.203298,1.68744 0.569237,2.45995 -1.036826,-1.6061 -2.846188,-2.58193 -4.757201,-2.58193 -3.151136,0 -5.692376,2.5413 -5.692376,5.69231 0,3.13084 2.54124,5.69241 5.692376,5.69241 3.130808,0 5.692377,-2.56157 5.692377,-5.69241 0,-0.85386 -0.203299,-1.70771 -0.569238,-2.48022 1.036826,1.62636 2.846189,2.6022 4.757201,2.6022 3.151138,0 5.692377,-2.56157 5.692377,-5.69231 0,-1.44339 -0.548908,-2.8258 -1.524744,-3.88298 1.016496,0.79286 2.256621,1.24015 3.537406,1.24015 3.130807,0 5.692377,-2.56157 5.692377,-5.69231 -0.02033,-1.9923 -1.036826,-3.82199 -2.72421,-4.85882 0.691218,0.30495 1.443425,0.44729 2.195631,0.44729 3.130808,0 5.692377,-2.5413 5.692377,-5.69241 0,-3.1511 -2.561569,-5.6923 -5.692377,-5.6923 z m -33.584751,27.50608 c -3.151137,0 -5.692377,2.5413 -5.692377,5.69241 0,3.1511 2.54124,5.69237 5.692377,5.69237 3.151137,0 5.692106,-2.54127 5.692106,-5.69237 0,-3.15111 -2.540969,-5.69241 -5.692106,-5.69241 z" style="" fill="#000000" fill-opacity="1" fill-rule="nonzero" stroke="none"/><path d="m 49.989835,1004.1004 c -2.39893,0 -4.452251,1.7281 -4.87918,4.066 l -3.029157,0 c -3.151138,3.1917 -6.403924,6.4242 -9.107803,9.1481 l 17.01614,25.5344 17.0362,-25.5344 c -2.988498,-3.1102 -6.180295,-6.0174 -9.127862,-9.1481 l -3.008827,0 c -0.447259,-2.3379 -2.480251,-4.066 -4.899511,-4.066 z m 0,1.8907 c 1.382434,0 2.56157,0.8945 2.947839,2.1753 l -5.875347,0 c 0.386269,-1.2808 1.565404,-2.1753 2.927508,-2.1753 z m -6.017655,4.0659 12.055641,0 -6.037986,6.038 -6.017655,-6.038 z m -1.890682,0.8132 5.631386,5.611 -11.242443,0 5.611057,-5.611 z m 15.816675,0 5.610786,5.611 -11.221843,0 5.611057,-5.611 z m -21.93598,7.5015 13.092466,0 0,19.6387 -13.092466,-19.6387 z m 14.983148,0 13.092196,0 -13.092196,19.6387 0,-19.6387 z" style="" fill="#000000" fill-opacity="1" fill-rule="evenodd" stroke="none"/></g></svg>