<?xml version="1.0" encoding="UTF-8"?>
<!DOCTYPE svg PUBLIC "-//W3C//DTD SVG 1.1//EN" "http://www.w3.org/Graphics/SVG/1.1/DTD/svg11.dtd">
<!-- Creator: CorelDRAW X7 -->
<svg xmlns="http://www.w3.org/2000/svg" xml:space="preserve" width="40px" height="40px" version="1.1" style="shape-rendering:geometricPrecision; text-rendering:geometricPrecision; image-rendering:optimizeQuality; fill-rule:evenodd; clip-rule:evenodd"
viewBox="0 0 4000057 4000057"
 xmlns:xlink="http://www.w3.org/1999/xlink">
 <defs>
  <style type="text/css">
   <![CDATA[
    .fil0 {fill:none}
    .fil1 {fill:#E6E6E6;fill-rule:nonzero}
   ]]>
  </style>
 </defs>
 <g id="Layer_x0020_1">
  <metadata id="CorelCorpID_0Corel-Layer"/>
  <rect class="fil0" x="1" y="-10" width="4000056" height="4000060"/>
  <g id="_1471161536">
   <g>
    <path class="fil1" d="M2060946 1704368l954106 0 0 132665 -954106 0 -53916 -27327 53916 -105338zm0 132665c-36794,0 -66644,-29708 -66644,-66333 0,-36624 29850,-66332 66644,-66332l0 132665zm-48190 -245231l102106 139893 -107832 78011 -102106 -139893 -1276 -1814 109108 -76197zm-107832 78011c-21629,-29623 -15024,-71151 14740,-92666 29765,-21516 71463,-14968 93092,14655l-107832 78011zm-175894 -139014l0 -132664 0 0 12161 255 12019 822 11764 1332 11679 1900 11509 2409 11254 2920 11027 3401 10800 3884 10517 4280 10177 4706 10006 5102 9780 5528 9525 5868 9156 6151 8901 6407 8702 6718 8476 7002 8277 7257 7966 7398 7880 7682 7682 7909 7427 7966 7314 8192 7172 8362 7086 8533 6974 8731 6831 8816 6719 8929 6690 9099 6576 9213 6492 9298 6463 9411 -110384 74383 -5783 -8447 -5811 -8278 -5726 -8022 -5669 -7739 -5698 -7568 -5641 -7286 -5613 -7030 -5556 -6718 -5584 -6491 -5556 -6208 -5556 -5982 -5415 -5584 -5385 -5244 -5471 -5074 -5273 -4649 -5301 -4337 -5301 -4111 -5272 -3798 -5188 -3487 -5102 -3146 -5074 -2864 -5131 -2607 -5188 -2382 -5131 -2126 -5130 -1842 -5188 -1588 -5301 -1389 -5329 -1105 -5499 -879 -5755 -652 -5896 -425 -6095 -142 0 0zm0 0c-36794,0 -66644,-29708 -66644,-66332 0,-36624 29850,-66332 66644,-66332l0 132664zm-744026 -132579l744026 -85 0 132664 -744026 85 0 0 0 -132664zm0 132664c-36794,0 -66644,-29708 -66644,-66332 0,-36624 29850,-66332 66644,-66332l0 132664zm-112027 100009l-133288 0 0 0 312 -12161 1020 -12048 1616 -11792 2239 -11594 2863 -11537 3487 -11226 3940 -10857 4564 -10800 5131 -10488 5556 -10035 6010 -9667 6463 -9439 7058 -9213 7370 -8674 7711 -8334 8334 -8136 8561 -7569 8787 -7086 9270 -6804 9638 -6406 9921 -5925 10205 -5499 10517 -5046 10772 -4535 10998 -4054 11283 -3572 11509 -3061 11650 -2523 11849 -1984 12161 -1474 12246 -851 12274 -283 0 132664 -6038 170 -5839 397 -5698 680 -5669 964 -5641 1219 -5386 1417 -5329 1701 -5160 1900 -5045 2154 -4904 2324 -4763 2552 -4592 2749 -4365 2892 -4224 3118 -4196 3402 -3911 3430 -3515 3430 -3516 3798 -3288 3855 -2920 3884 -2834 4053 -2608 4281 -2381 4252 -2070 4252 -1842 4280 -1673 4621 -1389 4479 -1105 4564 -936 4734 -652 4762 -397 4791 -141 4904 0 0zm0 0c0,36624 -29850,66332 -66644,66332 -36795,0 -66644,-29708 -66644,-66332l133288 0zm-133288 306148l0 -306148 133288 0 0 306148 0 0 -133288 0zm133288 0c0,36625 -29850,66332 -66644,66332 -36795,0 -66644,-29707 -66644,-66332l133288 0zm-133288 78805l0 -78805 133288 0 0 78805 0 0 -133288 0zm133288 0c0,36624 -29850,66332 -66644,66332 -36795,0 -66644,-29708 -66644,-66332l133288 0zm-133288 1118066l0 -1118066 133288 0 0 1118066 0 0 -133288 0zm133288 0c0,36624 -29850,66332 -66644,66332 -36795,0 -66644,-29708 -66644,-66332l133288 0zm112027 99923l0 132664 0 0 -12274 -283 -12246 -850 -12161 -1475 -11735 -1955 -11764 -2523 -11509 -3090 -11283 -3544 -11083 -4110 -10687 -4507 -10432 -4989 -10205 -5471 -10006 -5981 -9638 -6407 -9185 -6746 -8872 -7116 -8618 -7653 -8221 -8022 -7767 -8363 -7370 -8702 -7002 -9128 -6491 -9440 -6038 -9694 -5584 -10092 -5103 -10460 -4564 -10744 -3940 -10885 -3487 -11254 -2834 -11480 -2268 -11623 -1616 -11820 -1020 -11991 -312 -12189 133288 0 141 4875 397 4791 652 4791 907 4705 1134 4564 1389 4507 1673 4536 1842 4337 2098 4280 2353 4252 2579 4196 2807 4053 2976 3912 3288 3884 3459 3713 3628 3544 3855 3401 4111 3317 4309 3175 4365 2891 4507 2693 4762 2523 4990 2381 5130 2183 5075 1899 5329 1673 5386 1445 5527 1163 5783 992 5698 680 5839 397 6038 170 0 0zm0 0c36795,0 66644,29708 66644,66332 0,36625 -29849,66332 -66644,66332l0 -132664zm2030048 132664l-2030048 0 0 -132664 2030048 0 0 0 0 132664zm0 -132664c36795,0 66644,29708 66644,66332 0,36625 -29849,66332 -66644,66332l0 -132664zm112056 -99923l133288 0 0 0 -312 12189 -1020 11991 -1616 11820 -2268 11623 -2834 11480 -3487 11254 -3940 10885 -4564 10744 -5103 10460 -5584 10092 -6038 9694 -6548 9497 -6973 9071 -7342 8702 -7852 8419 -8108 7909 -8589 7654 -8929 7172 -9241 6803 -9667 6406 -9950 5925 -10176 5442 -10404 4990 -10743 4535 -11112 4110 -11254 3544 -11509 3090 -11764 2523 -11736 1955 -12160 1475 -12246 850 -12275 283 0 -132664 6038 -170 5840 -397 5697 -680 5783 -992 5528 -1163 5386 -1445 5358 -1673 5102 -1899 5074 -2154 4961 -2382 4791 -2551 4563 -2749 4394 -2892 4252 -3118 4054 -3260 3827 -3402 3742 -3656 3430 -3657 3259 -3884 3062 -3968 2750 -3997 2579 -4196 2353 -4252 2098 -4280 1842 -4337 1673 -4536 1389 -4507 1134 -4564 907 -4705 652 -4791 397 -4791 141 -4875 0 0zm0 0c0,-36625 29850,-66333 66644,-66333 36795,0 66644,29708 66644,66333l-133288 0zm133288 -1196871l0 1196871 -133288 0 0 -1196871 0 0 133288 0zm-133288 0c0,-36624 29850,-66332 66644,-66332 36795,0 66644,29708 66644,66332l-133288 0zm-112056 -100008l0 -132665 0 0 12275 284 12246 850 12160 1474 11736 1956 11764 2523 11509 3090 11254 3543 11112 4111 10743 4535 10404 4989 10176 5443 9950 5924 9667 6407 9326 6860 8844 7143 8533 7569 8164 7965 7852 8420 7342 8702 6973 9071 6576 9553 6038 9723 5556 10035 5103 10460 4564 10744 3940 10885 3487 11282 2863 11509 2239 11594 1616 11849 1020 12019 312 12161 -133288 0 -141 -4904 -397 -4819 -652 -4762 -936 -4734 -1105 -4592 -1389 -4479 -1673 -4536 -1842 -4337 -2098 -4280 -2381 -4309 -2580 -4224 -2721 -3940 -3062 -3969 -3259 -3883 -3430 -3657 -3686 -3600 -3883 -3430 -4139 -3345 -4167 -3061 -4394 -2892 -4563 -2750 -4791 -2551 -4961 -2381 -5074 -2154 -5102 -1900 -5358 -1672 -5386 -1446 -5528 -1162 -5783 -992 -5697 -680 -5840 -397 -6038 -170 0 0zm0 0c-36794,0 -66644,-29708 -66644,-66333 0,-36624 29850,-66332 66644,-66332l0 132665z"/>
   </g>
   <g>
    <path class="fil1" d="M1209485 1487513c-12671,34527 -50996,52272 -85523,39601 -34527,-12671 -52272,-50996 -39601,-85523l125124 45922zm280636 -764691l-280636 764691 -125124 -45922 280636 -764691 84729 -39884 40395 85806zm-125124 -45922c12671,-34527 50996,-52272 85523,-39601 34527,12671 52272,50996 39601,85523l-125124 -45922zm1718740 677467l-1678345 -591660 44334 -125691 1678346 591660 40395 85807 -84730 39884zm44335 -125691c34697,12218 52896,50316 40678,85013 -12217,34697 -50316,52895 -85013,40678l44335 -125691zm-247527 483544l162798 -443660 125124 45923 -162798 443660 -125124 -45923zm125124 45923c-12671,34526 -50996,52272 -85523,39601 -34526,-12672 -52272,-50997 -39601,-85524l125124 45923z"/>
   </g>
   <g>
    <path class="fil1" d="M1623012 1164668c-34668,-12302 -52782,-50429 -40479,-85098 12302,-34668 50429,-52782 85097,-40479l-44618 125577zm1020467 362673l-1020467 -362673 44618 -125577 1020467 362672 -44618 125578zm44618 -125578c34669,12303 52782,50430 40480,85098 -12303,34669 -50430,52782 -85098,40480l44618 -125578z"/>
   </g>
   <g>
    <polygon class="fil1" points="2734246,2981603 2684242,3044136 2614792,2991581 2546248,2945885 2478697,2906568 2412223,2873317 2346912,2845792 2282819,2823596 2220002,2806418 2158545,2793888 2098563,2785639 2040054,2781387 1983105,2780792 1927772,2783542 1874224,2789296 1822491,2797772 1772628,2808629 1724778,2821527 1679026,2836182 1635542,2852255 1594325,2869433 1555546,2887377 1519290,2905774 1485671,2924285 1454772,2942540 1426765,2960286 1401678,2977152 1379681,2992771 1360858,3006832 1345324,3019021 1333163,3028999 1324432,3036454 1319216,3041075 1318054,3042124 1263458,2983615 1266094,2981206 1272160,2975848 1281968,2967486 1295433,2956431 1312385,2943164 1332681,2927970 1356323,2911160 1383168,2893160 1413102,2874167 1446098,2854665 1481985,2834907 1520736,2815262 1562236,2796071 1606344,2777702 1653060,2760439 1702214,2744706 1753749,2730788 1807580,2719080 1863565,2709924 1921592,2703716 1981574,2700740 2043399,2701392 2106897,2705984 2172038,2714913 2238597,2728520 2306460,2747116 2375542,2771012 2445673,2800578 2516739,2836097 2588599,2877909 2661111,2926326 "/>
   </g>
   <g>
    <g>
     <g>
      <polygon class="fil1" points="1716416,2361595 1532783,2171188 1590611,2115798 1774244,2306205 "/>
     </g>
     <g>
      <polygon class="fil1" points="1590611,2361595 1532783,2306205 1716416,2115798 1774244,2171188 "/>
     </g>
    </g>
    <g>
     <g>
      <polygon class="fil1" points="2409417,2361595 2225785,2171188 2283613,2115798 2467245,2306205 "/>
     </g>
     <g>
      <polygon class="fil1" points="2283613,2361595 2225785,2306205 2409417,2115798 2467245,2171188 "/>
     </g>
    </g>
   </g>
  </g>
 </g>
</svg>
