<?xml version="1.0" encoding="UTF-8"?>
<!DOCTYPE svg PUBLIC "-//W3C//DTD SVG 1.1//EN" "http://www.w3.org/Graphics/SVG/1.1/DTD/svg11.dtd">
<!-- Creator: CorelDRAW X7 -->
<svg xmlns="http://www.w3.org/2000/svg" xml:space="preserve" width="176px" height="255px" version="1.1" style="shape-rendering:geometricPrecision; text-rendering:geometricPrecision; image-rendering:optimizeQuality; fill-rule:evenodd; clip-rule:evenodd"
viewBox="0 0 1760000 2547616"
 xmlns:xlink="http://www.w3.org/1999/xlink">
 <defs>
  <style type="text/css">
   <![CDATA[
    .fil0 {fill:black;fill-opacity:0.149020}
   ]]>
  </style>
 </defs>
 <g id="Layer_x0020_1">
  <metadata id="CorelCorpID_0Corel-Layer"/>
  <path class="fil0" d="M1139179 207326l370044 205956 6677 423445 -363463 217441 -369950 -205955 -6676 -423445 363368 -217442zm-723404 1991161l-2706 -172856 -151042 -84113 -148325 88792 2706 172810 151043 84112 148324 -88745zm-159952 -651935l-255823 153111 0 145702 258044 -154411 370009 206039 6665 423338 -363380 217430 -271338 -150996 0 143102 31858 17749 466659 0 262369 -157022 -8862 -567823 -496201 -276219zm873500 4810l-794233 -470287 0 -983232 163486 -97843 -466777 0 178186 99202 0 954352 -209985 124325 0 145335 249253 -147616 826328 489253 0 882765 125104 0 0 -893259 559315 -331143 0 -145371 -630677 373519zm408071 854582l222606 123923 0 -143137 -98682 -54925 -6594 -423421 105276 -63019 0 -145666 -231397 138505 8791 567740zm-388774 -1602316l148302 -88768 -2730 -172833 -151031 -84077 -148313 88756 2718 172857 151054 84065zm6027 394930l487421 -291639 -8922 -567847 -432461 -240661 0 -98411 -125104 0 0 99616 -425927 254960 8898 567764 496095 276218z"/>
 </g>
</svg>
