<svg xmlns="http://www.w3.org/2000/svg" xmlns:xlink="http://www.w3.org/1999/xlink" version="1.1" x="0px" y="0px" viewBox="0 0 100 125" enable-background="new 0 0 100 100" xml:space="preserve"><g><circle display="none" fill="none" stroke="#000000" stroke-width="4" stroke-miterlimit="10" cx="50" cy="62.068" r="18.049"/></g><g><path d="M84.922,11.893l-1.533-1.285C83.195,10.838,63.866,33.69,50,33.69S16.805,10.838,16.611,10.607l-1.533,1.285   c0.797,0.95,19.27,22.776,33.922,23.751v7.76c-2.978-2.699-6.737-4.219-10.635-4.219c-7.497,0-15.086,5.561-15.086,16.189   c0,14.553,23.962,30.392,24.981,31.059L50,87.57l1.74-1.138c1.02-0.668,24.98-16.521,24.98-31.059   c0-10.628-7.589-16.189-15.085-16.189c-3.902,0-7.661,1.518-10.636,4.214v-7.755C65.652,34.669,84.125,12.843,84.922,11.893z    M61.636,41.185c6.502,0,13.085,4.874,13.085,14.189c0,13.469-23.093,28.742-24.075,29.385L50,85.18l-0.645-0.422   c-0.982-0.643-24.076-15.901-24.076-29.385c0-9.315,6.583-14.189,13.086-14.189c4.116,0,8.074,1.943,10.86,5.332l0.773,0.94   l0.771-0.94C53.553,43.128,57.513,41.185,61.636,41.185z M37.574,56.92v10.293l7.279,7.279h10.293l7.279-7.279V56.92l-7.279-7.279   H44.854L37.574,56.92z M52.134,56.375l0.383,0.159l3.017,3.017l0.159,0.383v4.268l-0.159,0.383l-3.014,3.014l-0.382,0.162h-4.273   l-0.383-0.159l-3.017-3.017l-0.159-0.383v-4.268l0.159-0.383l3.017-3.017l0.383-0.159H52.134z M43.073,58.116l-2.733-1.132   l4.577-4.577l1.132,2.733L43.073,58.116z M42.308,59.963v4.208l-2.733,1.132v-6.472L42.308,59.963z M43.073,66.019l2.975,2.976   l-1.132,2.733l-4.577-4.577L43.073,66.019z M47.896,69.76h4.224l1.159,2.733h-6.515L47.896,69.76z M53.964,68.983l2.964-2.964   l2.733,1.132l-4.546,4.546L53.964,68.983z M57.692,64.171v-4.208l2.733-1.132v6.472L57.692,64.171z M56.927,58.116l-2.975-2.976   l1.132-2.733l4.577,4.577L56.927,58.116z M52.104,54.375h-4.208l-1.132-2.733h6.472L52.104,54.375z"/></g><g display="none"><polygon display="inline" fill="none" stroke="#000000" stroke-width="2" stroke-linejoin="round" stroke-miterlimit="10" points="   65.158,59.517 55.053,59.517 44.947,59.517 34.842,59.517 39.894,54.464 50,54.464 60.106,54.464  "/><polyline display="inline" fill="none" stroke="#000000" stroke-width="2" stroke-linejoin="round" stroke-miterlimit="10" points="   39.894,54.464 43.684,59.517 50,54.464 56.316,59.517 60.106,54.464  "/><polyline display="inline" fill="none" stroke="#000000" stroke-width="2" stroke-linejoin="round" stroke-miterlimit="10" points="   34.842,59.517 50,74.675 65.158,59.517  "/><polyline display="inline" fill="none" stroke="#000000" stroke-width="2" stroke-linejoin="round" stroke-miterlimit="10" points="   56.316,59.517 50,74.675 43.684,59.517  "/></g><g display="none"><path display="inline" fill="none" stroke="#000000" stroke-width="5" stroke-miterlimit="10" d="M106.291-29.702   c0,24.853-20.147,45-45,45s-45-20.147-45-45"/></g></svg>