<?xml version="1.0" encoding="UTF-8"?>
<!DOCTYPE svg PUBLIC "-//W3C//DTD SVG 1.1//EN" "http://www.w3.org/Graphics/SVG/1.1/DTD/svg11.dtd">
<!-- Creator: CorelDRAW X7 -->
<svg xmlns="http://www.w3.org/2000/svg" xml:space="preserve" width="60px" height="60px" version="1.1" style="shape-rendering:geometricPrecision; text-rendering:geometricPrecision; image-rendering:optimizeQuality; fill-rule:evenodd; clip-rule:evenodd"
viewBox="0 0 59999 59998"
 xmlns:xlink="http://www.w3.org/1999/xlink">
 <defs>
  <style type="text/css">
   <![CDATA[
    .fil0 {fill:none}
    .fil1 {fill:#171334}
   ]]>
  </style>
 </defs>
 <g id="Layer_x0020_1">
  <metadata id="CorelCorpID_0Corel-Layer"/>
  <g id="_1870837632">
   <rect class="fil0" x="1" width="59999" height="59999"/>
   <path class="fil1" d="M20913 33188c-67,-208 -49,-409 53,-603 103,-193 257,-324 466,-389 208,-66 409,-49 603,53 193,103 324,258 389,466 357,1128 994,2137 1909,3025l12 6c1531,1532 3375,2298 5537,2298 2183,0 4039,-765 5571,-2298l6 0c506,-497 925,-1033 1258,-1606l-1630 437c-211,58 -412,32 -604,-77 -187,-109 -309,-269 -366,-478 -58,-212 -32,-413 77,-604 110,-188 269,-309 478,-366l3192 -856c7,-3 15,-5 23,-6 102,-31 207,-39 313,-24 41,6 82,17 124,30 51,15 98,35 142,59 7,3 15,8 24,12 104,60 189,137 254,230 46,65 81,140 106,224 2,7 5,16 6,24 2,6 3,12 6,18l1098 3597c64,209 45,410 -59,604 -103,192 -258,320 -466,384 -208,63 -410,43 -603,-59 -192,-104 -321,-259 -384,-467l-503 -1655c-375,604 -832,1171 -1370,1702l-6 6c-1839,1836 -4069,2753 -6688,2753 -2599,0 -4818,-919 -6659,-2759l11 6c-1116,-1082 -1889,-2310 -2320,-3687zm637 -10003l508 1667c377,-606 832,-1179 1364,-1720l0 -6c1841,-1839 4076,-2758 6707,-2759 2596,0 4813,918 6653,2753l6 6c1121,1097 1890,2328 2310,3693 64,208 44,409 -59,603 -102,193 -254,324 -461,389 -209,64 -409,45 -603,-59 -194,-100 -324,-255 -390,-460 -351,-1122 -990,-2135 -1915,-3037l-5 -6c-1530,-1532 -3376,-2298 -5536,-2298 -2188,0 -4047,764 -5577,2292l-6 6c-495,503 -909,1041 -1242,1612l1626 -437c211,-55 413,-27 602,83 189,112 311,274 366,484 56,213 28,414 -83,604 -111,188 -272,311 -484,366l-3225 862c-213,56 -414,29 -604,-82 -188,-111 -311,-273 -366,-485 -4,-14 -7,-28 -12,-41l-1087 -3569c-63,-208 -44,-409 59,-603 103,-192 259,-320 467,-384 208,-63 410,-43 602,60 194,103 322,258 385,466z"/>
  </g>
 </g>
</svg>
