<svg xmlns="http://www.w3.org/2000/svg" xmlns:xlink="http://www.w3.org/1999/xlink" version="1.1" x="0px" fill="rgba(255,255,255,0.5)" y="0px" viewBox="0 0 256 320" enable-background="new 0 0 256 256" xml:space="preserve"><g><path d="M109.872,96.235c2.484-2.482,6.523-2.482,9.006,0c2.495,2.496,2.495,6.521,0,9.025c-2.482,2.48-6.521,2.48-9.006,0   C107.376,102.757,107.383,98.731,109.872,96.235L109.872,96.235z"/><path d="M123.495,109.876c2.488-2.498,6.527-2.498,9.017,0c2.483,2.482,2.483,6.521,0,9.01c-2.489,2.482-6.528,2.482-9.017,0   C121.006,116.397,121.006,112.358,123.495,109.876L123.495,109.876z"/><path d="M137.123,123.495c2.489-2.488,6.525-2.488,9.016,0c2.481,2.49,2.481,6.529,0,9.012c-2.49,2.488-6.526,2.488-9.016,0   C134.634,130.024,134.634,125.985,137.123,123.495L137.123,123.495z"/><path d="M109.872,123.495c2.484-2.488,6.523-2.488,9.006,0c2.495,2.49,2.495,6.529,0,9.012c-2.482,2.488-6.521,2.488-9.006,0   C107.376,130.024,107.376,125.985,109.872,123.495L109.872,123.495z"/><path d="M123.495,137.124c2.488-2.488,6.527-2.488,9.017,0c2.483,2.488,2.483,6.527,0,9.016c-2.489,2.488-6.528,2.488-9.017,0   C121.006,143.651,121.006,139.612,123.495,137.124L123.495,137.124z"/><path d="M109.872,150.755c2.484-2.49,6.523-2.49,9.006,0c2.495,2.484,2.495,6.523,0,9.006c-2.482,2.488-6.521,2.488-9.006,0   C107.376,157.278,107.376,153.239,109.872,150.755L109.872,150.755z"/></g></svg>