<svg xmlns="http://www.w3.org/2000/svg" xmlns:xlink="http://www.w3.org/1999/xlink" version="1.1" x="0px" y="0px" viewBox="0 0 100 125" enable-background="new 0 0 100 100" xml:space="preserve"><path d="M53.339,21.376l9.993-10.56L57.239,3H37.938l-6.667,8.619l11.287,10.085c-17.4,2.996-30.642,18.119-30.642,36.374  c0,20.407,16.545,36.937,36.953,36.937c20.406,0,36.951-16.552,36.951-36.958C85.82,39.163,71.636,23.584,53.339,21.376z   M48.727,87.459c-16.165,0-29.27-13.104-29.27-29.27c0-16.164,13.105-29.269,29.27-29.269c16.164,0,29.269,13.105,29.269,29.269  C77.996,74.354,64.891,87.459,48.727,87.459z"/></svg>