<?xml version="1.0" encoding="UTF-8"?>
<!DOCTYPE svg PUBLIC "-//W3C//DTD SVG 1.1//EN" "http://www.w3.org/Graphics/SVG/1.1/DTD/svg11.dtd">
<!-- Creator: CorelDRAW X6 -->
<svg xmlns="http://www.w3.org/2000/svg" xml:space="preserve" width="40px" height="40px" version="1.1" style="shape-rendering:geometricPrecision; text-rendering:geometricPrecision; image-rendering:optimizeQuality; fill-rule:evenodd; clip-rule:evenodd"
viewBox="0 0 2920 2920"
 xmlns:xlink="http://www.w3.org/1999/xlink">
 <defs>
  <style type="text/css">
   <![CDATA[
    .fil0 {fill:none}
    .fil1 {fill:#183765}
    .fil2 {fill:#F49712}
    .fil3 {fill:white}
   ]]>
  </style>
 </defs>
 <g id="Layer_x0020_1">
  <metadata id="CorelCorpID_0Corel-Layer"/>
  <rect class="fil0" width="2920" height="2920"/>
  <path class="fil1" d="M2335 2122c-80,-211 -215,-260 -324,-279 -91,-16 -204,-50 -244,-72 -1,-18 -2,-55 2,-116 2,-3 4,-5 7,-7l-1 -1c54,-72 79,-140 91,-185 35,-24 71,-72 93,-164 12,-53 22,-121 -17,-169 -1,-1 -2,-2 -3,-3 34,-338 -183,-509 -310,-554l-2 -1 -2 -1c-48,-14 -94,-22 -137,-22 -10,0 -20,0 -29,1 -9,-1 -19,-1 -29,-1 -43,0 -89,7 -137,22l-2 1 -2 1c-128,44 -344,216 -310,554 -1,1 -2,2 -3,3 -38,48 -29,116 -17,169 21,92 58,140 93,164 11,45 37,112 90,184l0 0c0,0 1,1 1,1 3,4 5,8 8,12 3,58 3,94 1,113 -40,22 -153,56 -244,72 -109,19 -244,69 -324,279 -14,36 -9,75 13,106 82,119 514,144 862,144 348,0 780,-25 862,-144 22,-32 27,-71 13,-106z"/>
  <path class="fil2" d="M1233 1814c6,-15 8,-42 8,-72 52,39 121,76 205,79 5,0 9,0 14,0 75,0 149,-28 220,-82 0,31 2,59 8,74 8,23 58,46 117,66 -86,84 -208,137 -344,137 -136,0 -259,-53 -344,-137 59,-20 109,-43 117,-66z"/>
  <path class="fil3" d="M1127 1399c-11,0 -56,-7 -82,-121 -21,-89 1,-103 17,-103 7,0 13,3 13,3 -79,-412 243,-524 243,-524 44,-13 81,-18 112,-18 10,0 20,1 29,2 9,-1 19,-2 29,-2 31,0 68,5 112,18 0,0 322,112 243,524 0,0 6,-3 14,-3 16,0 38,14 17,103 -27,114 -72,121 -83,121 -1,0 -2,0 -2,0 0,0 -6,107 -104,223 0,1 0,2 0,3 -77,78 -155,116 -234,113 -98,-4 -175,-71 -213,-111 0,-1 0,-2 0,-2 -101,-117 -107,-226 -107,-226 0,0 -1,0 -2,0z"/>
 </g>
</svg>
