<svg xmlns="http://www.w3.org/2000/svg" xmlns:xlink="http://www.w3.org/1999/xlink" version="1.0" x="0px" y="0px" viewBox="0 0 100 125" enable-background="new 0 0 100 100" xml:space="preserve"><path d="M38.7661934,78.3066635c-4.5134506,0-8.1877613,3.7283554-8.1877613,8.314003  c0,4.5117416,3.6743107,8.1879578,8.1877613,8.1879578c4.6595421,0,8.3129501-3.5993652,8.3129501-8.1879578  C47.0791435,81.9566956,43.4278336,78.3066635,38.7661934,78.3066635z"/><path d="M77.3880844,78.3066635c-4.5826874,0-8.3032379,3.7283554-8.3032379,8.314003  c0,4.5117416,3.7205505,8.1879578,8.3032379,8.1879578c4.5235901,0,8.1989441-3.6762161,8.1989441-8.1879578  C85.5870285,81.9566956,81.9868164,78.3066635,77.3880844,78.3066635z"/><path d="M91.2683258,31.8953686c-0.8494949-1.0618629-2.1178207-1.6276302-3.4807281-1.6276302  c-3.8341064,0.0912037-4.596199,4.3042412-4.596199,4.3042412l-5.5829239,25.0564194L39.0921402,64.112709L26.3658066,30.2677383  l-2.9757481-8.0659485c-0.6440868-1.740797-2.3230152-2.9373341-4.1792698-2.9373341h-5.9690294  c-2.4566526,0-4.4566622,2.0118332-4.4566622,4.4699554s2.0000095,4.4699802,4.4566622,4.4699802h2.8663874l15.8452301,42.7589417  c0.6459694,1.73909,2.3255463,2.8913116,4.1784286,2.8913116c0.1665611,0,0.3371201-0.0194321,0.5326042-0.0373764  l45.1408653-5.4214172c1.8750381-0.224823,3.4131775-1.6168671,3.8273621-3.4644699l6.5164261-29.3087158  C92.4412384,34.2956429,92.1190796,32.947937,91.2683258,31.8953686z"/><path d="M57.9082565,47.0870018v-2.9519043c3.4731178-0.6065178,5.3836327-2.8359947,5.3836327-5.5265465  c0-2.6327019-1.331234-4.2803955-4.9770355-5.4672279c-2.4304733-0.8676529-3.4137993-1.4186325-3.4137993-2.1423149  c0-0.6358509,0.5199394-1.2434254,2.2269478-1.2434254c2.2001648,0,4.0732994,0.8186893,4.8552399,1.1378689l-2.5668335-4.8113155  c-0.4182091-0.0555363-0.8706169-0.096262-1.3614349-0.117794v-2.4304733h-3.2995987v2.6622543  c-3.2978897,0.6658344-5.1207886,2.7483997-5.1207886,5.380888c0,2.9248848,2.2282219,4.398838,5.3513145,5.410656  c2.1716499,0.6658325,3.0110283,1.2166214,3.0110283,2.1125488c0,0.9269714-1.0131149,1.332489-2.4881058,1.3310204  c-1.9683609,0-3.7610817-0.6358528-5.0646477-1.2729797l-0.9537773,4.021595  c1.1275139,0.5805321,3.0958748,1.1292,5.1207886,1.2163811v2.6907692H57.9082565z"/><path d="M62.7130432,25.9757347c-0.2271538,0.3890686-0.2301178,0.869751-0.0067673,1.2626228l9.769783,17.1348763  c0.0164719,0.0301781,0.0348434,0.0591011,0.0538483,0.0871811c0.2330551,0.3405151,0.6189423,0.5471764,1.0354691,0.5499229  c0.4502869,0.0021172,0.8680573-0.2360191,1.0969009-0.6244392l9.9568329-17.0267868  c0.2271576-0.3890686,0.2300949-0.8710251,0.0063324-1.2626228c-0.2193451-0.3886566-0.6375351-0.6345959-1.0886612-0.6364994  l-3.9272156-0.0219402V5.4078627H67.8669891V25.373024l-4.056633-0.0217476  C63.3590088,25.3481197,62.9410172,25.586235,62.7130432,25.9757347z"/><path d="M56.4972305,56.732872c6.3091125-0.002121,11.9783783-2.7283401,15.8975677-7.0663681l-4.0785751-6.5550728  c-2.5355988,3.8311653-6.8782768,6.3610611-11.818367,6.3699226c-7.8250885-0.0153923-14.1555138-6.3479576-14.170929-14.170929  c0.0154152-7.8259106,6.346489-14.1567707,14.1703033-14.170929c3.0884819,0.0054893,5.942009,0.9981117,8.2686081,2.6755695  v-8.2707291c-2.5440483-1.0656672-5.3374138-1.6554947-8.2692566-1.6563377  C44.6647072,13.8905277,35.079216,23.47855,35.0766869,35.3116989C35.079216,47.1422997,44.6647072,56.73032,56.4972305,56.732872z"/></svg>