<?xml version="1.0" encoding="utf-8"?>
<!-- Generator: Adobe Illustrator 19.1.1, SVG Export Plug-In . SVG Version: 6.00 Build 0)  -->
<svg version="1.1" id="Layer_1" xmlns="http://www.w3.org/2000/svg" xmlns:xlink="http://www.w3.org/1999/xlink" x="0px" y="0px"
	 viewBox="0 0 40 40" style="enable-background:new 0 0 40 40;" xml:space="preserve">
<style type="text/css">
	.st0{fill:#FFFFFF;}
</style>
<path class="st0" d="M15.6,26.6c-1.8,0-3.3,1.5-3.3,3.3c0,1.8,1.5,3.3,3.3,3.3c1.8,0,3.3-1.5,3.3-3.3C19,28.1,17.5,26.6,15.6,26.6z"
	/>
<path class="st0" d="M32.8,26.6c-1.8,0-3.3,1.5-3.3,3.3c0,1.8,1.5,3.3,3.3,3.3c1.8,0,3.3-1.5,3.3-3.3C36.1,28.1,34.7,26.6,32.8,26.6
	z"/>
<path class="st0" d="M13.4,25c-0.7,0-1.3-0.4-1.6-1L7.2,13.6l-2.7-3.4H2.2c-1,0-1.7-0.8-1.7-1.7s0.8-1.7,1.7-1.7h3.2
	c0.5,0,1,0.2,1.4,0.7l3.3,4.2l27.7-1.1c0.6,0,1.1,0.2,1.5,0.7c0.3,0.5,0.4,1.1,0.3,1.6L36.1,23c-0.2,0.7-0.9,1.2-1.6,1.2L13.4,25
	C13.4,25,13.4,25,13.4,25z M11.6,15l2.9,6.5l18.7-0.7l2.2-6.8L11.6,15z"/>
</svg>
