<?xml version="1.0" encoding="UTF-8"?>
<!DOCTYPE svg PUBLIC "-//W3C//DTD SVG 1.1//EN" "http://www.w3.org/Graphics/SVG/1.1/DTD/svg11.dtd">
<!-- Creator: CorelDRAW X7 -->
<svg xmlns="http://www.w3.org/2000/svg" xml:space="preserve" width="40px" height="40px" version="1.1" style="shape-rendering:geometricPrecision; text-rendering:geometricPrecision; image-rendering:optimizeQuality; fill-rule:evenodd; clip-rule:evenodd"
viewBox="0 0 5339 5339"
 xmlns:xlink="http://www.w3.org/1999/xlink">
 <defs>
  <style type="text/css">
   <![CDATA[
    .fil0 {fill:none}
    .fil1 {fill:#5E0037;fill-rule:nonzero}
   ]]>
  </style>
 </defs>
 <g id="Layer_x0020_1">
  <metadata id="CorelCorpID_0Corel-Layer"/>
  <g id="_1729576560">
   <rect class="fil0" width="5339" height="5339"/>
   <path class="fil1" d="M2516 2020l1332 0c67,0 120,-54 120,-120 0,-66 -53,-120 -120,-120l-1332 0c-67,0 -120,54 -120,120 0,66 53,120 120,120zm52 1195c-58,-58 -153,-58 -211,0l-216 216 0 -1946c0,-83 -67,-150 -150,-150 -82,0 -149,67 -149,150l0 1946 -216 -216c-58,-58 -153,-58 -211,0 -59,59 -59,154 0,212l576 577 107 -106 470 -471c59,-58 59,-153 0,-212zm-52 -389l313 0c66,0 120,-54 120,-120 0,-66 -54,-120 -120,-120l-313 0c-67,0 -120,54 -120,120 0,66 53,120 120,120zm0 -394l733 0c66,0 120,-53 120,-120 0,-66 -54,-120 -120,-120l-733 0c-67,0 -120,54 -120,120 0,67 53,120 120,120z"/>
  </g>
 </g>
</svg>
