<?xml version="1.0" encoding="utf-8"?>
<!-- Generator: Adobe Illustrator 18.0.0, SVG Export Plug-In . SVG Version: 6.00 Build 0)  -->
<!DOCTYPE svg PUBLIC "-//W3C//DTD SVG 1.1//EN" "http://www.w3.org/Graphics/SVG/1.1/DTD/svg11.dtd">
<svg version="1.1" id="Layer_1" xmlns="http://www.w3.org/2000/svg" xmlns:xlink="http://www.w3.org/1999/xlink" x="0px" y="0px"
	 viewBox="0 0 40 40" enable-background="new 0 0 40 40" xml:space="preserve">
<path fill="#FFFFFF" d="M24.4,6.3c-6-2-12.6,0.4-16.2,5.5C4.5,16.8,4.8,24,8.6,28.9c3.8,4.9,10.6,6.8,16.4,4.6
	c5.6-2.1,9.3-7.5,9.3-13.5C34.4,13.8,30.3,8.3,24.4,6.3z M22.1,32.2c-5.8,1.1-11.8-2.5-13.8-8c-2.1-5.7,0.4-12.1,5.6-15
	c5.3-3,12-1.5,15.8,3.1c1.8,2.2,2.7,5,2.7,7.7C32.3,26,28,31.1,22.1,32.2z M27.3,16.6c-0.4,0.4-0.9,0.9-1.3,1.3c-2,2-4,4-6,6
	c-0.5,0.5-1,1-1.5,1.5c-0.1,0.1-0.3,0.2-0.4,0.3c-0.9,0.4-1.7-0.7-2.3-1.3c-1-1-1.9-1.9-2.9-2.9c-0.4-0.4-0.9-0.9-0.6-1.5
	c0.4-0.9,1.4-1.1,2-0.4c0.9,0.9,1.8,1.8,2.7,2.7c0.2,0.2,0.4,0.4,0.7,0.7c1.6-1.6,3.2-3.2,4.8-4.8c0.9-0.9,1.8-1.8,2.7-2.7
	c0.6-0.6,1.4-1.6,2.3-0.9c0,0,0.1,0.1,0.1,0.1c0,0,0.1,0.1,0.1,0.1C28.2,15.5,27.8,16.1,27.3,16.6z"/>
</svg>
