<?xml version="1.0" encoding="UTF-8"?>
<!DOCTYPE svg PUBLIC "-//W3C//DTD SVG 1.1//EN" "http://www.w3.org/Graphics/SVG/1.1/DTD/svg11.dtd">
<!-- Creator: CorelDRAW X7 -->
<svg xmlns="http://www.w3.org/2000/svg" xml:space="preserve" width="40px" height="40px" version="1.1" style="shape-rendering:geometricPrecision; text-rendering:geometricPrecision; image-rendering:optimizeQuality; fill-rule:evenodd; clip-rule:evenodd"
viewBox="0 0 82818 82818"
 xmlns:xlink="http://www.w3.org/1999/xlink">
 <defs>
  <style type="text/css">
   <![CDATA[
    .fil0 {fill:none}
    .fil1 {fill:#8A0044}
   ]]>
  </style>
 </defs>
 <g id="Layer_x0020_1">
  <metadata id="CorelCorpID_0Corel-Layer"/>
  <polygon class="fil0" points="82818,0 0,0 0,82818 82818,82818 "/>
  <path class="fil1" d="M38655 62114c-288,0 -574,-112 -807,-344l-18920 -18747c-805,-746 -1438,-1609 -2015,-2534 -3106,-5116 -2301,-11674 2015,-15929 2472,-2475 5808,-3854 9317,-3854 2360,0 4717,633 6727,1841 922,518 1788,1211 2588,2013 406,403 750,807 1095,1208 345,-404 687,-810 1093,-1208 807,-749 1668,-1438 2588,-2013 2015,-1208 4370,-1841 6729,-1841 3507,0 6843,1379 9315,3854 2138,2135 3419,4851 3774,7673l0 0c3362,1893 5631,5495 5631,9628 0,6099 -4944,11044 -11043,11044 -2353,0 -4534,-736 -6324,-1993l-10958 10855c-230,232 -519,345 -805,345l0 2 0 0zm18087 -24476l0 0c379,0 692,308 692,690l0 2844 2841 0c382,0 690,308 690,689l0 0c0,379 -308,692 -690,692l-2841 0 0 2844c0,384 -311,692 -692,692l0 0c-379,0 -692,-308 -692,-692l0 -2844 -2844 0c-382,0 -692,-310 -692,-692l0 0c0,-379 310,-689 692,-689l2844 0 0 -2844c0,-382 310,-690 692,-690zm2927 -6427c-460,-1866 -1431,-3619 -2898,-5040 -2069,-2012 -4832,-3159 -7703,-3159 -1956,0 -3913,518 -5581,1494 -745,460 -1496,978 -2130,1670 -689,690 -1264,1440 -1724,2186 -232,345 -577,577 -978,577l0 0c-403,0 -807,-232 -980,-577 -460,-804 -1032,-1555 -1724,-2186 -634,-633 -1380,-1210 -2128,-1611 -1670,-1032 -3622,-1551 -5581,-1551 -2934,0 -5636,1152 -7705,3162 -3507,3512 -4199,8914 -1670,13115 464,751 1037,1497 1670,2130l18118 17945 10034 -9939c-1854,-1978 -2993,-4631 -2993,-7558 0,-6099 4944,-11044 11043,-11044 1013,0 1991,142 2925,394l5 -8 0 0zm-2927 1680c4954,0 8972,4018 8972,8973 0,4957 -4015,8974 -8972,8974 -4955,0 -8973,-4017 -8973,-8974 0,-4955 4018,-8973 8973,-8973z"/>
 </g>
</svg>
