<?xml version="1.0" encoding="UTF-8"?>
<!DOCTYPE svg PUBLIC "-//W3C//DTD SVG 1.1//EN" "http://www.w3.org/Graphics/SVG/1.1/DTD/svg11.dtd">
<!-- Creator: CorelDRAW X7 -->
<svg xmlns="http://www.w3.org/2000/svg" xml:space="preserve" width="188px" height="188px" version="1.1" style="shape-rendering:geometricPrecision; text-rendering:geometricPrecision; image-rendering:optimizeQuality; fill-rule:evenodd; clip-rule:evenodd"
viewBox="0 0 188000 188000"
 xmlns:xlink="http://www.w3.org/1999/xlink">
 <defs>
  <style type="text/css">
   <![CDATA[
    .fil0 {fill:none}
    .fil1 {fill:#8A0044}
   ]]>
  </style>
 </defs>
 <g id="Layer_x0020_1">
  <metadata id="CorelCorpID_0Corel-Layer"/>
  <g id="_1871231424">
   <g id="_1397355920">
    <polygon class="fil0" points="188000,0 0,0 0,188000 188000,188000 "/>
    <path class="fil1" d="M94025 141004c-660,0 -1310,-258 -1836,-784l-42949 -42556c-1827,-1693 -3263,-3655 -4572,-5749 -7051,-11616 -5224,-26503 4572,-36165 5616,-5616 13184,-8745 21153,-8745 5358,0 10706,1436 15270,4181 2095,1177 4055,2745 5874,4564 918,918 1702,1835 2487,2745 784,-918 1561,-1836 2478,-2745 1836,-1694 3789,-3263 5874,-4564 4573,-2745 9922,-4181 15279,-4181 7961,0 15530,3129 21145,8745 4849,4848 7761,11015 8561,17423l0 0c7635,4297 12784,12474 12784,21854 0,13844 -11223,25067 -25067,25067 -5341,0 -10289,-1669 -14352,-4523l-24875 24641c-526,526 -1177,784 -1827,784l1 8zm41054 -55565l0 0c860,0 1569,701 1569,1569l0 6451 6451 0c868,0 1569,701 1569,1569l0 0c0,860 -701,1569 -1569,1569l-6451 0 0 6459c0,868 -701,1569 -1569,1569l0 0c-859,0 -1569,-701 -1569,-1569l0 -6459 -6459 0c-868,0 -1569,-701 -1569,-1569l0 0c0,-860 701,-1569 1569,-1569l6459 0 0 -6451c0,-868 701,-1569 1569,-1569zm6643 -14586c-1044,-4239 -3246,-8219 -6575,-11440 -4698,-4573 -10973,-7177 -17490,-7177 -4440,0 -8879,1177 -12667,3397 -1694,1043 -3397,2219 -4832,3788 -1569,1569 -2871,3271 -3914,4964 -526,784 -1310,1310 -2219,1310l0 0c-918,0 -1836,-526 -2228,-1310 -1043,-1827 -2345,-3530 -3914,-4964 -1435,-1435 -3128,-2745 -4831,-3655 -3789,-2344 -8219,-3520 -12667,-3520 -6659,0 -12792,2611 -17490,7176 -7961,7969 -9530,20236 -3789,29773 1052,1702 2353,3397 3789,4832l41130 40737 22772 -22563c-4205,-4490 -6793,-10514 -6793,-17156 0,-13844 11223,-25068 25067,-25068 2303,0 4523,318 6643,893l8 -17zm-6643 3813c11248,0 20369,9120 20369,20369 0,11248 -9119,20369 -20369,20369 -11248,0 -20369,-9120 -20369,-20369 0,-11248 9120,-20369 20369,-20369z"/>
   </g>
  </g>
 </g>
</svg>
