<svg xmlns="http://www.w3.org/2000/svg" xmlns:xlink="http://www.w3.org/1999/xlink" version="1.1" x="0px" y="0px" viewBox="0 0 100 125" enable-background="new 0 0 100 100" xml:space="preserve"><g><g><path d="M79.476,16.984c-10.459-4.913-24.138,0.431-28.975,11.028c-4.841-10.598-18.516-15.95-28.974-11.028    c-11.138,5.25-16.465,18.655-7.669,34.47c6.247,11.252,17.321,19.731,36.643,34.934C69.818,71.186,80.897,62.702,87.14,51.454    C95.94,35.639,90.609,22.234,79.476,16.984z M83.282,51.336c-5.584,9.893-15.498,17.325-32.781,30.7    c-17.288-13.375-27.197-20.803-32.786-30.7c-7.871-13.911-3.106-25.704,6.863-30.321c9.357-4.33,21.593,1.997,25.923,11.32    c4.33-9.323,16.566-15.646,25.923-11.32C86.389,25.632,91.154,37.425,83.282,51.336z"/></g></g></svg>