<?xml version="1.0" encoding="UTF-8"?>
<!DOCTYPE svg PUBLIC "-//W3C//DTD SVG 1.1//EN" "http://www.w3.org/Graphics/SVG/1.1/DTD/svg11.dtd">
<!-- Creator: CorelDRAW X6 -->
<svg xmlns="http://www.w3.org/2000/svg" xml:space="preserve" width="188px" height="188px" version="1.1" style="shape-rendering:geometricPrecision; text-rendering:geometricPrecision; image-rendering:optimizeQuality; fill-rule:evenodd; clip-rule:evenodd"
viewBox="0 0 32755 32755"
 xmlns:xlink="http://www.w3.org/1999/xlink">
 <defs>
  <style type="text/css">
   <![CDATA[
    .fil0 {fill:none}
    .fil1 {fill:#380B34}
   ]]>
  </style>
 </defs>
 <g id="Layer_x0020_1">
  <metadata id="CorelCorpID_0Corel-Layer"/>
  <g id="_703330712">
   <polygon class="fil0" points="32755,0 0,0 0,32755 32755,32755 "/>
   <path class="fil1" d="M16382 24567c-115,0 -228,-45 -320,-137l-7483 -7414c-318,-295 -568,-637 -797,-1002 -1228,-2024 -910,-4617 797,-6301 978,-978 2297,-1524 3685,-1524 933,0 1865,250 2660,728 365,205 706,478 1023,795 160,160 296,320 433,478 137,-160 272,-320 432,-478 320,-295 660,-568 1023,-795 797,-478 1729,-728 2662,-728 1387,0 2706,545 3684,1524 845,845 1352,1919 1492,3036l0 0c1330,749 2227,2173 2227,3808 0,2412 -1955,4367 -4367,4367 -931,0 -1793,-291 -2501,-788l-4334 4293c-92,92 -205,137 -318,137l0 1zm7153 -9681l0 0c150,0 273,122 273,273l0 1124 1124 0c151,0 273,122 273,273l0 0c0,150 -122,273 -273,273l-1124 0 0 1125c0,151 -122,273 -273,273l0 0c-150,0 -273,-122 -273,-273l0 -1125 -1125 0c-151,0 -273,-122 -273,-273l0 0c0,-150 122,-273 273,-273l1125 0 0 -1124c0,-151 122,-273 273,-273zm1157 -2541c-182,-738 -566,-1432 -1146,-1993 -819,-797 -1912,-1250 -3047,-1250 -774,0 -1547,205 -2207,592 -295,182 -592,387 -842,660 -273,273 -500,570 -682,865 -92,137 -228,228 -387,228l0 0c-160,0 -320,-92 -388,-228 -182,-318 -409,-615 -682,-865 -250,-250 -545,-478 -842,-637 -660,-409 -1432,-613 -2207,-613 -1160,0 -2229,455 -3047,1250 -1387,1388 -1660,3526 -660,5187 183,296 410,592 660,842l7166 7098 3968 -3931c-733,-782 -1184,-1832 -1184,-2989 0,-2412 1955,-4367 4367,-4367 401,0 788,55 1157,156l1 -3zm-1157 664c1960,0 3549,1589 3549,3549 0,1960 -1589,3549 -3549,3549 -1960,0 -3549,-1589 -3549,-3549 0,-1960 1589,-3549 3549,-3549z"/>
  </g>
 </g>
</svg>
