<?xml version="1.0" encoding="UTF-8" standalone="no"?>
<svg width="50px" height="50px" viewBox="0 0 50 50" version="1.1" xmlns="http://www.w3.org/2000/svg" xmlns:xlink="http://www.w3.org/1999/xlink">
    <!-- Generator: Sketch 3.7.1 (28215) - http://www.bohemiancoding.com/sketch -->
    <title>Group 2</title>
    <desc>Created with Sketch.</desc>
    <defs></defs>
    <g id="Page-1" stroke="none" stroke-width="1" fill="none" fill-rule="evenodd">
        <g id="Artboard-4" transform="translate(-425.000000, -225.000000)">
            <rect id="Rectangle-6" x="425" y="225" width="50" height="50"></rect>
            <path d="M451.361111,249.027778 L449.638889,249.027778 C449,249.027778 448.5,249.555556 448.5,250.166667 L448.5,257.472222 C448.5,258.111111 449,258.611111 449.638889,258.611111 L451.361111,258.611111 C452,258.611111 452.5,258.083333 452.5,257.472222 L452.5,250.166667 C452.472222,249.527778 451.972222,249.027778 451.361111,249.027778 L451.361111,249.027778 L451.361111,249.027778 Z M450.472222,243.416667 C449.166667,243.416667 448.138889,244.472222 448.138889,245.777778 C448.138889,247.083333 449.194444,248.138889 450.472222,248.138889 C451.777778,248.138889 452.833333,247.083333 452.833333,245.777778 C452.861111,244.472222 451.805556,243.416667 450.472222,243.416667 L450.472222,243.416667 L450.472222,243.416667 Z M450.5,238 C443.611111,238 438,243.611111 438,250.5 C438,257.388889 443.611111,263 450.5,263 C457.388889,263 463,257.388889 463,250.5 C463,243.611111 457.388889,238 450.5,238 L450.5,238 L450.5,238 Z M450.5,261.138889 C444.638889,261.138889 439.861111,256.361111 439.861111,250.5 C439.861111,244.666667 444.638889,239.888889 450.5,239.888889 C456.333333,239.888889 461.111111,244.666667 461.111111,250.5 C461.111111,256.361111 456.333333,261.138889 450.5,261.138889 L450.5,261.138889 Z" id="Shape" fill="#000000"></path>
        </g>
    </g>
</svg>