<?xml version="1.0" encoding="UTF-8" standalone="no"?>
<svg width="50px" height="50px" viewBox="0 0 50 50" version="1.1" xmlns="http://www.w3.org/2000/svg" xmlns:xlink="http://www.w3.org/1999/xlink">
    <!-- Generator: Sketch 3.7.1 (28215) - http://www.bohemiancoding.com/sketch -->
    <title>Group 2</title>
    <desc>Created with Sketch.</desc>
    <defs></defs>
    <g id="Page-1" stroke="none" stroke-width="1" fill="none" fill-rule="evenodd">
        <g id="Artboard-4" transform="translate(-525.000000, -225.000000)">
            <rect id="Rectangle-6" x="525" y="225" width="50" height="50"></rect>
            <path d="M562.398563,256.112702 C562.287118,255.998161 562.178768,255.886716 562.070419,255.772176 L561.445089,255.134463 C558.928288,252.657906 557.940762,251.645614 557.835508,251.574413 C557.720967,251.466064 557.609522,251.357714 557.494982,251.246269 C556.256703,250.082288 555.3961,251.010997 554.272363,252.707438 C554.170205,252.865318 554.074238,253.010816 553.984463,253.150122 C553.981368,253.156313 553.978272,253.159409 553.975176,253.162505 C553.944219,253.215132 553.913262,253.258471 553.882305,253.304907 C552.616166,255.267577 552.72142,255.310917 552.281831,255.205664 C552.263257,255.202568 552.247778,255.196376 552.229204,255.193281 C550.792802,254.744405 550.959969,254.657726 548.173843,251.822069 C545.338187,249.035943 545.251507,249.200015 544.802631,247.766708 C544.79644,247.748134 544.793344,247.732655 544.790249,247.714081 C544.684995,247.271397 544.728335,247.376651 546.691006,246.113607 L546.691006,246.113607 C546.740537,246.08265 546.786972,246.051693 546.833407,246.020736 C546.839599,246.01764 546.842695,246.014545 546.848886,246.011449 C546.988192,245.921674 547.13369,245.825707 547.29157,245.723549 C548.988011,244.599812 549.91672,243.739209 548.752738,242.500931 C548.641293,242.38639 548.532944,242.274945 548.424595,242.160404 C548.353394,242.055151 547.341101,241.067624 544.864545,238.550824 L544.226832,237.925493 C544.112291,237.817144 544.000846,237.708795 543.886306,237.59735 C542.508721,236.300253 541.233295,237.228962 539.911433,239.290695 C538.601954,241.330758 538.171652,242.569036 538.168557,242.578323 C537.577279,244.451219 538.694825,246.738937 539.165371,247.525244 C540.790611,250.264934 541.425228,251.413437 545.034809,254.964199 C548.588667,258.57378 549.73717,259.208397 552.473764,260.836733 C553.260071,261.307279 555.550885,262.424825 557.420685,261.830451 C557.429972,261.827355 558.671346,261.397054 560.708313,260.087575 C562.770046,258.762617 563.698755,257.487191 562.404754,256.112702 L562.398563,256.112702 Z" id="Shape" fill="#666"></path>
        </g>
    </g>
</svg>