<?xml version="1.0" encoding="UTF-8"?>
<!DOCTYPE svg PUBLIC "-//W3C//DTD SVG 1.1//EN" "http://www.w3.org/Graphics/SVG/1.1/DTD/svg11.dtd">
<!-- Creator: CorelDRAW X6 -->
<svg xmlns="http://www.w3.org/2000/svg" xml:space="preserve" width="40px" height="40px" version="1.1" style="shape-rendering:geometricPrecision; text-rendering:geometricPrecision; image-rendering:optimizeQuality; fill-rule:evenodd; clip-rule:evenodd"
viewBox="0 0 1379 1379"
 xmlns:xlink="http://www.w3.org/1999/xlink">
 <defs>
  <style type="text/css">
   <![CDATA[
    .fil0 {fill:none}
    .fil1 {fill:#666666}
   ]]>
  </style>
 </defs>
 <g id="Layer_x0020_1">
  <metadata id="CorelCorpID_0Corel-Layer"/>
  <rect class="fil0" width="1379" height="1379"/>
  <path class="fil1" d="M834 645l-405 0 172 -172c17,-17 17,-46 0,-63 -17,-17 -46,-17 -63,0l-249 249c-2,2 -4,4 -6,7 -1,1 -1,2 -2,3 -1,2 -2,3 -2,5 -1,1 -1,3 -1,4 0,1 -1,3 -1,4 0,2 -1,5 -1,7 0,1 0,1 0,2 0,1 0,1 0,2 0,2 0,4 1,7 0,2 1,3 1,5 0,1 1,3 1,4 1,2 2,3 3,5 1,1 1,2 2,3 2,3 4,5 6,7l249 249c9,9 20,13 32,13 11,0 23,-4 32,-13 17,-17 17,-46 0,-63l-172 -172 405 0c99,0 179,80 179,179 0,25 20,45 45,45 25,0 45,-20 45,-45 0,-148 -120,-269 -269,-269z"/>
 </g>
</svg>
