<?xml version="1.0" encoding="utf-8"?>
<!-- Generator: Adobe Illustrator 19.1.1, SVG Export Plug-In . SVG Version: 6.00 Build 0)  -->
<svg version="1.1" id="Layer_1" xmlns="http://www.w3.org/2000/svg" xmlns:xlink="http://www.w3.org/1999/xlink" x="0px" y="0px"
	 viewBox="-564 725.5 50 50" style="enable-background:new -564 725.5 50 50;" xml:space="preserve">
<style type="text/css">
	.st0{fill:#666666;}
</style>
<g transform="translate(0.000000,1221.000000) scale(0.100000,-0.100000)">
	<path class="st0" d="M-5305.4,4867.9c-0.6-0.1-1.8-0.5-2.5-0.8c-0.8-0.3-15.1-8.5-31.7-18.3c-16.7-9.7-30.4-17.7-30.5-17.8
		c-0.2-0.1-44.3,21.8-51.2,25.5c-7.7,4.1-10.2,4.8-16,4.8c-5.5,0-5.6,0-18.6-7.3c-14.3-8-25.9-14.3-33.4-18.2
		c-3.1-1.6-6.7-3.7-8-4.5c-4.6-3-8.6-6.6-10.7-9.6c-2.4-3.5-21.1-40-22-43c-1.7-5.4-0.7-10.2,2.8-13.6c0.8-0.8,5-3.4,11.4-7.2
		c5.5-3.2,10-6,10-6.1c0-0.1-26-15.3-57.7-33.9c-31.7-18.5-58.7-34.3-60-35.1c-3.2-2-6.2-5.1-7.6-7.8l-1-2.1l-4-26.9
		c-4.5-30.6-4.5-30-2.7-33.6c0.5-1.1,1.5-2.6,2.1-3.3c0.6-0.7,9.6-11.9,20.1-25c26.7-33.3,29.4-36.6,31.3-38.1
		c1.9-1.6,4.7-3,6.8-3.6c3.3-1,8.4-0.8,11.8,0.3c0.8,0.3,15.9,9.4,33.7,20.2c39.9,24.4,131.6,80.6,154.4,94.6
		c9.3,5.7,17.2,10.5,17.5,10.6c0.5,0.2,10.2-5.4,60.3-35.3c32.9-19.6,60.3-35.8,60.8-36.1c1.3-0.7,4.8-1.6,7.4-2
		c6.1-0.8,12.5,0.4,17.1,3.5c1,0.7,7.4,5.1,14.2,10c6.8,4.8,22.3,15.7,34.4,24.1c12.1,8.4,22.6,15.9,23.3,16.6
		c1.6,1.6,2.7,3.6,3.2,6.2c1,4.8,0.1,9.9-3.2,17.3c-3,7-17.8,38.8-20.1,43.5c-2.4,4.8-8.2,9.9-16.5,14.6c-3.6,2-32.8,15.9-45.2,21.5
		l-1.7,0.8l0.8,1.4c1.3,2,2,4.5,2,7.3c0,2-0.3,3.1-1.7,8.2c-5.1,17.8-10.6,34.8-13.9,43.2c-2.1,5.2-4.1,9.5-5.5,11.4
		c-1,1.4-6.9,6.5-27.1,23.5c-8,6.7-16,13.5-17.8,15c-3.6,3.1-6.1,4.5-8.8,5.2C-5301,4868.2-5303.6,4868.3-5305.4,4867.9z
		 M-5300.3,4857.2c0.7-0.4,13.4-11,41.1-34.5c1.1-1,1.4-1.4,1.2-1.6c-0.2-0.2-16.8-10.3-36.9-22.5c-20.1-12.2-64.7-39.4-99.2-60.4
		c-113.3-69-174.5-106.2-178.3-108.3c-3.7-2.1-8.1-2.9-10.1-1.8c-0.5,0.3-8.6,9.5-19.5,22.3l-18.6,21.9l0.8,0.8
		c0.4,0.4,16.1,9.7,34.9,20.7c214,125,280.3,163.6,281.1,163.9C-5302.8,4858-5301.6,4857.9-5300.3,4857.2z M-5432.4,4850.5
		c0.9-0.3,3.6-1.6,5.9-2.9c2.3-1.2,13.5-6.9,24.7-12.5c11.3-5.6,20.5-10.3,20.5-10.4c0-0.3-59-34.6-59.4-34.5
		c-0.5,0.1-52.6,31.5-52.6,31.7c0,0.3,5.4,3.4,8.7,5.1c4.4,2.2,16.1,8.5,30.6,16.6c7.1,3.9,13.3,7.3,13.8,7.4
		C-5438.5,4851.4-5434.2,4851.1-5432.4,4850.5z M-5447.4,4786.1c0-0.1-10.8-6.5-24-14.2l-24-14l-12.2,7.2c-6.7,4-12.4,7.4-12.6,7.6
		c-1,1-0.5,2.4,4.5,12.4c5.8,11.6,15.4,29.8,16.3,31.1l0.7,0.9l25.6-15.4C-5459,4793.2-5447.5,4786.2-5447.4,4786.1z
		 M-5251.4,4813.4c2.5-5.7,6.2-16.3,9.7-27.3c2.7-8.6,7.2-24.2,7.2-24.8c0-1-1-2.7-2.5-4c-0.8-0.7-4.2-3-7.7-5.2
		c-29.1-18.2-145.1-89.3-308.8-189.4c-14.3-8.8-16.9-10.3-18.3-10.5c-2.5-0.5-5.4,0.3-7.3,2c-1.7,1.5-50.5,62.1-50.8,63.1
		c-0.1,0.4,6.4,46,6.7,46.9c0,0.1,7.8-8.9,17.3-20c9.5-11.1,17.6-20.5,18.2-21c3.1-2.7,8.4-3.4,13.6-1.6c3.6,1.2,2.7,0.7,53,31.3
		c31.8,19.3,162.6,98.9,228,138.8c22.2,13.5,40.4,24.5,40.4,24.5C-5252.6,4816.1-5252,4814.9-5251.4,4813.4z M-5222.5,4739.3
		c22.1-10.2,36.8-17.3,37.9-18.1c0.4-0.3,1.6,0.5-17.2-12.3c-7.5-5.1-17.2-11.8-21.6-14.8c-10.4-7.2-13.9-9-17.8-9
		c-1.5,0-1.9,0.2-24.7,13.5c-12.8,7.5-23.2,13.7-23.3,13.8c0,0.1,7.9,5.1,17.6,11.1c9.7,6,21.7,13.4,26.6,16.4
		c5.3,3.3,9.1,5.5,9.4,5.4C-5235.3,4745.2-5229.4,4742.5-5222.5,4739.3z M-5175.5,4714.5c1.9-1.9,2.4-2.6,3.5-4.9
		c20.6-44.1,21.6-46.5,21.7-50.6c0-1.1-0.1-2.2-0.2-2.5c-0.2-0.3-7.5-5.5-16.4-11.7c-21.7-15.1-46.1-32.2-50.5-35.4
		c-2-1.4-4.4-3-5.3-3.4c-3.2-1.5-7.6-1.6-11.7-0.3c-1,0.3-22.7,13.1-58.9,34.6c-31.5,18.8-57.3,34.2-57.3,34.3
		c0,0.1,1.7,1.2,3.8,2.4c2,1.3,14.3,8.8,27.2,16.7c12.9,8,23.7,14.4,23.8,14.3c0.2-0.1,11.2-6.5,24.6-14.3
		c13.3-7.8,24.7-14.4,25.3-14.7c3-1.6,8-1.2,13.1,1c3.2,1.4,5.3,2.7,13.8,8.5c4.2,2.9,14.2,9.7,22.1,15.2c8,5.4,15.5,10.6,16.6,11.4
		c1.2,0.8,2.2,1.5,2.3,1.5C-5177.9,4716.7-5176.8,4715.7-5175.5,4714.5z"/>
</g>
</svg>
