<?xml version="1.0" encoding="UTF-8"?>
<!DOCTYPE svg PUBLIC "-//W3C//DTD SVG 1.1//EN" "http://www.w3.org/Graphics/SVG/1.1/DTD/svg11.dtd">
<!-- Creator: CorelDRAW X6 -->
<svg xmlns="http://www.w3.org/2000/svg" xml:space="preserve" width="50px" height="50px" version="1.1" style="shape-rendering:geometricPrecision; text-rendering:geometricPrecision; image-rendering:optimizeQuality; fill-rule:evenodd; clip-rule:evenodd"
viewBox="0 0 2841 2841"
 xmlns:xlink="http://www.w3.org/1999/xlink">
 <defs>
  <style type="text/css">
   <![CDATA[
    .fil0 {fill:none}
    .fil1 {fill:#4D4D4D}
   ]]>
  </style>
 </defs>
 <g id="Layer_x0020_1">
  <metadata id="CorelCorpID_0Corel-Layer"/>
  <rect class="fil0" width="2841" height="2841"/>
  <path class="fil1" d="M1951 1108c-215,-129 -516,-266 -713,-266 -85,0 -144,26 -175,78l-65 109c-27,45 -40,117 18,225 -317,15 -732,88 -732,291l0 2 0 124c0,217 432,330 859,330 253,0 508,-40 673,-118 170,75 327,118 446,118l0 0c128,0 185,-49 209,-91l64 -108c120,-199 -312,-530 -586,-693zm-490 471c-14,-10 -27,-19 -40,-29l60 -106c13,9 26,19 40,28l-60 106zm76 -95c13,9 27,18 41,27l-60 106c-14,-9 -27,-18 -41,-27l60 -106zm-132 54c-13,-10 -26,-20 -39,-30l59 -105c13,10 26,20 39,29l-59 105zm-54 -43c-13,-11 -26,-21 -38,-32l58 -103c13,10 25,21 39,31l-59 105zm-53 -45c-13,-11 -25,-23 -37,-34l57 -101c12,11 25,22 38,32l-58 103zm-52 -48c-12,-12 -24,-24 -36,-36l56 -99c12,11 24,23 37,34l-57 101zm-50 -51c-12,-13 -23,-26 -34,-39l54 -96c11,12 23,24 35,37l-55 98zm-47 -56c-12,-15 -22,-29 -31,-43l51 -91c10,13 21,26 34,40l-53 94zm-43 -62c-11,-18 -20,-36 -27,-52l47 -83c9,15 19,30 30,46l-50 89zm-33 -160l24 -40c4,14 10,29 18,45l-44 79c-10,-34 -9,-62 3,-83zm-667 663c-22,-22 -33,-44 -34,-67l0 -47c10,9 21,18 34,26l0 87zm68 50c-19,-10 -35,-21 -49,-32l0 -92c15,9 31,17 49,24l0 100zm68 32c-17,-7 -34,-14 -49,-22l0 -102c15,6 32,12 49,17l0 107zm68 24c-17,-5 -33,-11 -49,-16l0 -108c16,5 32,9 49,13l0 111zm68 19c-18,-4 -36,-9 -52,-14l4 0 0 -111c16,4 32,7 49,11l0 115 0 0zm68 15c-17,-3 -33,-7 -49,-10l0 -115c16,3 32,6 49,8l0 117zm68 12c-17,-3 -33,-5 -49,-8l0 -118c16,2 32,5 49,7l0 119zm68 9c-17,-2 -33,-4 -49,-6l0 -120c16,2 32,4 49,5l0 121zm68 7c-17,-1 -33,-3 -49,-4l0 -121c16,1 32,3 49,4l0 122zm68 4c-17,-1 -33,-2 -49,-3l0 -122c16,1 32,2 49,3l0 122zm68 2c-17,0 -33,-1 -49,-2l0 -122c16,1 32,1 49,1l0 122zm68 1c-5,0 -10,0 -15,0 -11,0 -22,0 -33,0l0 -122c11,0 22,0 33,0 5,0 10,0 15,0l0 122zm68 -1c-16,1 -32,1 -49,1l0 -122c16,0 32,-1 49,-1l0 122zm68 -3c-16,1 -32,2 -49,3l0 -122c16,-1 32,-1 49,-2l0 122zm68 -5c-16,2 -32,3 -49,4l0 -122c16,-1 33,-2 49,-4l0 121zm68 -8c-16,2 -32,4 -49,6l0 -121c16,-1 33,-3 49,-5l0 120zm68 -10c-16,3 -32,5 -49,8l0 -120c17,-2 33,-4 49,-6l0 119zm-357 -133c-454,0 -770,-109 -770,-206 0,-92 284,-194 699,-205 9,12 19,24 30,37 97,116 244,238 416,346 -109,17 -235,27 -375,27zm426 120c-16,3 -32,7 -49,10l0 -118c17,-2 33,-5 49,-8l0 116zm-44 -249l11 6 60 -106c14,9 27,17 41,26l-60 107c-18,-11 -35,-22 -51,-33zm128 -63c7,4 14,9 22,13 7,4 14,8 20,12l-60 107c-8,-4 -15,-9 -23,-14 -6,-4 -12,-8 -19,-11l60 -107zm-15 296c-16,4 -32,8 -49,12l0 -101c16,9 32,19 49,28l0 61zm74 -261c14,8 28,16 42,24l-60 106c-14,-8 -28,-16 -43,-24l60 -107zm-55 255l0 -45c18,10 35,19 53,28 -17,6 -34,12 -53,17zm54 -116l60 -106c14,8 29,15 43,23l-60 106c-14,-7 -29,-15 -43,-23zm105 53c-14,-7 -29,-14 -44,-21l59 -106c14,7 29,15 44,22l-59 105zm18 8l59 -105c15,7 30,14 44,21l-59 104c-15,-6 -30,-13 -45,-20zm63 28l58 -104c15,7 30,13 45,19l-58 103c-15,-6 -30,-12 -46,-18zm64 25l57 -102c15,6 31,12 46,18l-57 100c-15,-5 -31,-10 -47,-16zm66 22l56 -100c16,6 31,11 47,16l-55 98c-16,-4 -32,-9 -48,-14zm68 19l54 -97c17,5 32,10 48,14l-53 94c-16,-3 -33,-7 -50,-11zm70 15l52 -93c17,4 34,8 50,11l-50 89c-16,-1 -34,-4 -52,-7zm74 9l49 -87c18,3 36,5 53,6l-46 81c-17,2 -36,2 -56,1zm158 -48c-13,22 -40,37 -78,44l43 -77c21,0 41,-2 58,-6l-23 39zm65 -108c-50,84 -377,14 -767,-219 -390,-233 -605,-489 -555,-572 50,-84 377,-14 767,219 390,233 605,489 555,572z"/>
 </g>
</svg>
