<?xml version="1.0" encoding="UTF-8"?>
<!DOCTYPE svg PUBLIC "-//W3C//DTD SVG 1.1//EN" "http://www.w3.org/Graphics/SVG/1.1/DTD/svg11.dtd">
<!-- Creator: CorelDRAW X6 -->
<svg xmlns="http://www.w3.org/2000/svg" xml:space="preserve" width="102px" height="100px" version="1.1" style="shape-rendering:geometricPrecision; text-rendering:geometricPrecision; image-rendering:optimizeQuality; fill-rule:evenodd; clip-rule:evenodd"
viewBox="0 0 46831 45975"
 xmlns:xlink="http://www.w3.org/1999/xlink">
 <defs>
  <style type="text/css">
   <![CDATA[
    .fil0 {fill:none}
    .fil2 {fill:#4D4D4D}
    .fil1 {fill:#05AFDF;fill-rule:nonzero}
   ]]>
  </style>
 </defs>
 <g id="Layer_x0020_1">
  <metadata id="CorelCorpID_0Corel-Layer"/>
  <rect class="fil0" width="46831" height="45974"/>
  <path class="fil1" d="M11320 41844c-142,0 -296,-3 -462,-10 -166,-7 -332,-17 -497,-30 -166,-14 -330,-30 -493,-50 -162,-20 -312,-47 -447,-81l0 -6823c135,-34 285,-61 447,-81 162,-20 326,-37 493,-51 166,-13 330,-23 493,-30 162,-7 314,-10 457,-10 406,0 787,30 1142,91 355,61 663,164 924,310 261,146 465,337 615,574 149,237 223,528 223,873 0,386 -91,702 -274,949 -182,247 -426,432 -731,553 413,122 741,315 985,579 243,264 365,636 365,1117 0,704 -259,1234 -777,1589 -517,356 -1339,533 -2462,533zm-924 -3341l0 2478c74,7 162,14 264,20 88,7 192,12 310,15 118,3 255,5 411,5 291,0 567,-19 828,-56 261,-37 489,-103 685,-198 197,-94 354,-227 472,-396 118,-169 178,-382 178,-640 0,-230 -44,-425 -132,-584 -88,-159 -215,-286 -381,-381 -166,-94 -364,-162 -594,-203 -230,-40 -488,-61 -772,-61l-1270 0zm0 -792l1036 0c243,0 473,-17 690,-51 217,-34 405,-94 564,-182 159,-88 284,-203 376,-345 91,-142 137,-321 137,-538 0,-203 -47,-374 -142,-513 -94,-139 -225,-251 -391,-336 -166,-84 -360,-147 -584,-187 -223,-41 -460,-61 -711,-61 -250,0 -446,4 -589,10 -142,7 -271,17 -386,30l0 2173z"/>
  <path id="1" class="fil1" d="M19646 41632c-217,54 -502,111 -858,172 -355,61 -767,92 -1234,92 -406,0 -748,-59 -1025,-178 -277,-118 -501,-286 -670,-502 -169,-217 -291,-472 -366,-767 -74,-294 -111,-621 -111,-980l0 -2965 944 0 0 2762c0,643 102,1103 305,1381 203,277 545,416 1025,416 102,0 207,-3 315,-10 108,-7 210,-15 305,-26 94,-10 181,-20 259,-30 78,-10 134,-22 167,-36l0 -4457 944 0 0 5128z"/>
  <path id="2" class="fil1" d="M22409 41885c-582,-14 -995,-139 -1239,-376 -244,-237 -365,-606 -365,-1107l0 -6336 944 -162 0 6346c0,156 13,285 40,386 27,102 71,183 132,244 61,61 142,106 244,137 102,30 227,56 376,76l-132 792z"/>
  <path id="3" class="fil1" d="M24735 41885c-582,-14 -995,-139 -1239,-376 -244,-237 -365,-606 -365,-1107l0 -6336 944 -162 0 6346c0,156 13,285 40,386 27,102 71,183 132,244 61,61 142,106 244,137 102,30 227,56 376,76l-132 792z"/>
  <path id="4" class="fil1" d="M26422 41784l-944 0 0 -5280 944 0 0 5280zm-477 -6234c-169,0 -313,-56 -432,-168 -118,-111 -178,-262 -178,-452 0,-190 59,-340 178,-452 119,-112 262,-167 432,-167 169,0 313,55 432,167 118,112 178,262 178,452 0,190 -59,340 -178,452 -118,112 -262,168 -432,168z"/>
  <path id="5" class="fil1" d="M32261 39144c0,420 -61,799 -183,1138 -122,338 -293,629 -513,873 -220,243 -482,431 -787,563 -305,132 -636,198 -995,198 -358,0 -690,-66 -995,-198 -305,-132 -567,-320 -787,-563 -220,-244 -391,-535 -513,-873 -122,-339 -182,-718 -182,-1138 0,-413 61,-790 182,-1132 122,-342 293,-634 513,-878 220,-244 482,-432 787,-564 305,-132 636,-198 995,-198 359,0 691,66 995,198 305,132 567,320 787,564 220,244 391,536 513,878 122,342 183,719 183,1132zm-985 0c0,-596 -134,-1068 -401,-1416 -267,-349 -631,-523 -1091,-523 -460,0 -824,174 -1091,523 -267,349 -401,820 -401,1416 0,596 134,1068 401,1417 267,349 632,523 1091,523 460,0 824,-174 1091,-523 268,-349 401,-821 401,-1417z"/>
  <path id="6" class="fil1" d="M33145 36656c217,-54 504,-112 863,-173 359,-61 772,-91 1239,-91 420,0 768,59 1046,178 277,118 499,285 665,497 166,213 283,469 351,767 67,298 101,626 101,985l0 2965 -944 0 0 -2762c0,-325 -22,-603 -66,-832 -44,-230 -117,-416 -218,-559 -102,-142 -237,-245 -406,-310 -169,-65 -379,-97 -629,-97 -102,0 -207,3 -315,10 -109,7 -212,15 -310,26 -98,10 -186,22 -264,35 -78,14 -134,24 -167,30l0 4458 -944 0 0 -5128z"/>
  <path class="fil2" d="M33500 8623c-4096,-2449 -9806,-5067 -13552,-5067 -1614,0 -2733,496 -3326,1476l-1235 2065c-508,849 -755,2220 338,4277 -6031,282 -13916,1666 -13916,5540l0 34 0 2358c0,4122 8214,6278 16328,6278 4812,0 9657,-757 12804,-2235 3225,1430 6218,2234 8488,2235l0 0c2439,0 3512,-936 3981,-1722l1227 -2051c2271,-3791 -5931,-10073 -11135,-13187zm-9310 8953c-260,-182 -512,-364 -757,-546l1132 -2011c251,181 503,360 761,539l-1135 2018zm1443 -1807c255,175 513,346 773,517l-1140 2024c-262,-172 -519,-345 -770,-519l1137 -2022zm-2502 1036c-254,-191 -500,-383 -740,-573l1121 -1993c245,187 495,374 749,560l-1130 2006zm-1036 -810c-250,-204 -489,-407 -723,-608l1107 -1966c239,195 484,392 734,585l-1118 1988zm-1010 -857c-244,-216 -476,-429 -702,-642l1087 -1930c232,204 473,409 718,614l-1103 1958zm-981 -908c-236,-231 -464,-459 -678,-684l1059 -1883c224,216 457,433 698,648l-1080 1919zm-945 -972c-230,-252 -445,-500 -646,-742l1024 -1818c212,230 437,461 673,695l-1051 1866zm-897 -1057c-221,-283 -421,-559 -598,-826l972 -1728c195,250 408,503 637,759l-1011 1795zm-825 -1183c-210,-346 -379,-677 -507,-987l888 -1579c165,283 355,573 573,871l-954 1695zm-620 -3041l456 -762c74,272 188,557 333,850l-844 1500c-190,-643 -178,-1185 55,-1588zm-12691 12616c-411,-416 -632,-844 -639,-1267l0 -888c182,175 398,342 639,502l0 1653zm1300 942c-356,-198 -665,-402 -927,-609l0 -1754c281,162 591,314 927,459l0 1904zm1299 609c-332,-133 -642,-271 -926,-413l0 -1946c293,115 602,225 926,329l0 2030zm1300 457c-325,-100 -634,-205 -927,-313l0 -2059c298,91 608,175 927,255l0 2117zm1299 356c-345,-84 -677,-172 -995,-266l69 1 0 -2117c301,71 610,140 926,203l0 2179 -1 0zm1300 286c-317,-62 -627,-127 -927,-195l0 -2197c303,58 613,111 927,161l0 2231zm1300 223c-317,-48 -625,-98 -927,-153l0 -2242c305,45 614,88 927,129l0 2265zm1300 172c-315,-37 -624,-77 -927,-117l0 -2275c306,36 615,69 927,100l0 2293zm1300 125c-314,-24 -623,-53 -927,-85l0 -2299c307,28 616,52 927,74l0 2310zm1300 86c-313,-16 -623,-35 -927,-57l0 -2313c307,19 617,37 927,50l0 2320zm1300 45c-314,-5 -623,-15 -926,-29l0 -2320c308,11 617,21 926,26l0 2324zm1300 10c-98,1 -193,3 -292,3 -214,0 -425,-3 -635,-4l0 -2326c212,3 424,4 635,4 97,0 194,-2 292,-2l0 2325zm1300 -25c-305,11 -614,16 -926,22l0 -2327c308,-4 617,-11 926,-20l0 2325zm1300 -64c-305,19 -613,35 -927,48l0 -2320c310,-12 618,-27 927,-45l0 2316zm1300 -104c-304,30 -612,56 -927,79l0 -2314c310,-20 619,-40 927,-67l0 2302zm1300 -146c-302,40 -611,76 -927,110l0 -2300c312,-28 621,-60 927,-93l0 2283zm1300 -193c-300,50 -611,99 -927,142l0 -2276c313,-37 622,-78 927,-121l0 2254zm-6791 -2537c-8632,0 -14649,-2066 -14649,-3919 0,-1754 5396,-3699 13299,-3900 173,230 360,466 564,710 1853,2210 4641,4525 7920,6589 -2064,325 -4474,521 -7134,521zm8092 2287c-300,65 -610,126 -929,184l0 -2239c315,-47 624,-98 929,-153l0 2208zm-844 -4731l202 113 1133 -2012c259,168 521,332 783,496l-1142 2029c-333,-209 -657,-418 -976,-626zm2436 -1206c137,83 273,166 410,248 128,76 258,151 387,228l-1140 2024c-146,-85 -292,-169 -440,-258 -119,-72 -238,-144 -356,-216l1139 -2025zm-292 5621c-299,82 -607,159 -927,232l0 -1920c310,181 617,359 927,529l0 1159zm1411 -4958c268,154 537,307 806,457l-1137 2021c-267,-146 -538,-296 -809,-451l1139 -2026zm-1039 4854l0 -852c337,182 672,361 1006,531 -317,112 -653,220 -1006,321zm1037 -2200l1137 -2019c270,147 544,292 818,434l-1134 2016c-270,-137 -546,-282 -821,-431zm1991 1003c-276,-129 -554,-265 -835,-405l1131 -2010c276,140 553,277 830,413l-1127 2001zm339 157l1123 -1997c282,135 562,267 844,394l-1115 1978c-282,-118 -564,-244 -853,-375zm1198 522l1109 -1972c287,128 572,250 856,368l-1098 1950c-284,-109 -573,-224 -868,-346zm1222 478l1092 -1941c293,119 584,233 873,341l-1076 1910c-289,-96 -586,-198 -889,-311zm1252 428l1068 -1897c301,109 596,212 889,306l-1046 1860c-297,-81 -602,-172 -912,-269zm1286 365l1035 -1841c313,97 617,185 916,264l-1008 1791c-304,-61 -618,-131 -943,-214zm1330 286l994 -1766c327,79 644,148 950,203l-954 1697c-312,-29 -643,-74 -990,-134zm1400 165l935 -1662c350,53 686,89 1003,108l-869 1542c-325,28 -681,33 -1070,11zm3013 -906c-254,421 -761,702 -1480,835l827 -1473c403,-1 772,-37 1100,-111l-447 749zm1229 -2053c-952,1591 -7175,275 -14583,-4157 -7408,-4432 -11510,-9292 -10559,-10883 951,-1591 7174,-275 14582,4156 7407,4432 11511,9293 10560,10883z"/>
 </g>
</svg>
