<svg xmlns="http://www.w3.org/2000/svg" xmlns:xlink="http://www.w3.org/1999/xlink" version="1.1" x="0px" y="0px" viewBox="0 0 100 125" enable-background="new 0 0 100 100" xml:space="preserve"><g><path fill="none" d="M75.456,24.544C68.656,17.744,59.616,14,50.001,14c-9.616,0-18.657,3.744-25.456,10.544   C17.745,31.344,14,40.384,14,50c0,9.616,3.745,18.656,10.545,25.456C31.344,82.255,40.385,86,50,86   c9.616,0,18.656-3.745,25.456-10.544C82.255,68.656,86,59.616,86,50C86,40.384,82.255,31.344,75.456,24.544z M62.229,56.862   c1.758,1.757,1.758,4.606,0,6.363c-0.878,0.879-2.03,1.318-3.182,1.318s-2.304-0.439-3.182-1.318l-6.364-6.364l-6.364,6.364   c-0.878,0.879-2.03,1.318-3.182,1.318s-2.304-0.439-3.182-1.318c-1.757-1.757-1.757-4.606,0-6.363l6.365-6.364l-6.365-6.364   c-1.757-1.757-1.757-4.606,0-6.363c1.756-1.758,4.607-1.758,6.364,0l6.364,6.364l6.364-6.364c1.756-1.758,4.607-1.758,6.363,0   c1.758,1.757,1.758,4.606,0,6.363l-6.364,6.364L62.229,56.862z"/><path d="M81.82,18.18C73.321,9.68,62.021,5,50.001,5c-12.02,0-23.32,4.68-31.82,13.18C9.681,26.68,5,37.98,5,50   c0,12.021,4.681,23.32,13.181,31.819C26.68,90.319,37.98,95,50,95c12.02,0,23.32-4.681,31.819-13.181C90.319,73.32,95,62.021,95,50   C95,37.98,90.319,26.68,81.82,18.18z M75.456,75.456C68.656,82.255,59.616,86,50,86c-9.615,0-18.656-3.745-25.455-10.544   C17.745,68.656,14,59.616,14,50c0-9.616,3.745-18.656,10.545-25.456C31.344,17.744,40.385,14,50.001,14   c9.615,0,18.655,3.744,25.455,10.544C82.255,31.344,86,40.384,86,50C86,59.616,82.255,68.656,75.456,75.456z"/><path d="M62.229,37.771c-1.756-1.758-4.607-1.758-6.363,0l-6.364,6.364l-6.364-6.364c-1.756-1.758-4.607-1.758-6.364,0   c-1.757,1.757-1.757,4.606,0,6.363l6.365,6.364l-6.365,6.364c-1.757,1.757-1.757,4.606,0,6.363   c0.878,0.879,2.031,1.318,3.182,1.318s2.304-0.439,3.182-1.318l6.364-6.364l6.364,6.364c0.878,0.879,2.03,1.318,3.182,1.318   s2.304-0.439,3.182-1.318c1.758-1.757,1.758-4.606,0-6.363l-6.364-6.364l6.364-6.364C63.986,42.377,63.986,39.528,62.229,37.771z"/></g></svg>