<?xml version="1.0" encoding="utf-8"?>
<!-- Generator: Adobe Illustrator 19.1.1, SVG Export Plug-In . SVG Version: 6.00 Build 0)  -->
<svg version="1.1" id="Layer_1" xmlns="http://www.w3.org/2000/svg" xmlns:xlink="http://www.w3.org/1999/xlink" x="0px" y="0px"
	 viewBox="-614 726 50 50" style="enable-background:new -614 726 50 50;" xml:space="preserve">
<style type="text/css">
	.st0{fill:#666666;}
	.st1{fill:#FFFFFF;}
	.st2{fill:none;}
	.st3{fill:#4D4D4D;}
</style>
<g>
	<g id="Layer_x0020_1_1_">
		<path class="st0" d="M-583.8,745.1c-3.8-2.3-9.1-4.7-12.5-4.7c-1.5,0-2.5,0.5-3.1,1.4l-1.1,1.9c-0.5,0.8-0.7,2.1,0.3,4
			c-5.6,0.3-12.9,1.5-12.9,5.1v0v2.2c0,3.8,7.6,5.8,15.1,5.8c4.5,0,8.9-0.7,11.8-2.1c3,1.3,5.8,2.1,7.8,2.1l0,0
			c2.3,0,3.3-0.9,3.7-1.6l1.1-1.9C-571.4,753.8-579,747.9-583.8,745.1L-583.8,745.1z M-592.4,753.3c-0.2-0.2-0.5-0.3-0.7-0.5
			l1.1-1.9c0.2,0.2,0.5,0.3,0.7,0.5L-592.4,753.3L-592.4,753.3z M-591.1,751.7c0.2,0.2,0.5,0.3,0.7,0.5l-1.1,1.9
			c-0.2-0.2-0.5-0.3-0.7-0.5L-591.1,751.7z M-593.4,752.6c-0.2-0.2-0.5-0.4-0.7-0.5l1-1.8c0.2,0.2,0.5,0.4,0.7,0.5L-593.4,752.6
			L-593.4,752.6z M-594.3,751.9c-0.2-0.2-0.5-0.4-0.7-0.6l1-1.8c0.2,0.2,0.4,0.4,0.7,0.5L-594.3,751.9L-594.3,751.9z M-595.3,751.1
			c-0.2-0.2-0.4-0.4-0.7-0.6l1-1.8c0.2,0.2,0.4,0.4,0.7,0.6L-595.3,751.1z M-596.2,750.2c-0.2-0.2-0.4-0.4-0.6-0.6l1-1.7
			c0.2,0.2,0.4,0.4,0.7,0.6L-596.2,750.2z M-597.1,749.3c-0.2-0.2-0.4-0.5-0.6-0.7l1-1.7c0.2,0.2,0.4,0.4,0.6,0.7L-597.1,749.3z
			 M-597.9,748.3c-0.2-0.3-0.4-0.5-0.5-0.8l0.9-1.6c0.2,0.2,0.4,0.5,0.6,0.7L-597.9,748.3L-597.9,748.3z M-598.6,747.3
			c-0.2-0.3-0.4-0.6-0.5-0.9l0.8-1.5c0.2,0.3,0.3,0.5,0.5,0.8L-598.6,747.3z M-599.2,744.4l0.4-0.7c0.1,0.2,0.2,0.5,0.3,0.8
			l-0.8,1.4C-599.4,745.3-599.4,744.8-599.2,744.4L-599.2,744.4z M-611,756.1c-0.4-0.4-0.6-0.8-0.6-1.2v-0.8
			c0.2,0.2,0.4,0.3,0.6,0.5V756.1L-611,756.1z M-609.8,757c-0.3-0.2-0.6-0.4-0.9-0.6v-1.6c0.3,0.2,0.5,0.3,0.9,0.4V757z
			 M-608.6,757.6c-0.3-0.1-0.6-0.2-0.9-0.4v-1.8c0.3,0.1,0.6,0.2,0.9,0.3V757.6z M-607.4,758c-0.3-0.1-0.6-0.2-0.9-0.3v-1.9
			c0.3,0.1,0.6,0.2,0.9,0.2V758z M-606.2,758.3c-0.3-0.1-0.6-0.2-0.9-0.2h0.1v-2c0.3,0.1,0.6,0.1,0.9,0.2L-606.2,758.3L-606.2,758.3
			L-606.2,758.3z M-605,758.6c-0.3-0.1-0.6-0.1-0.9-0.2v-2c0.3,0.1,0.6,0.1,0.9,0.1V758.6z M-603.8,758.8c-0.3-0.1-0.6-0.1-0.9-0.1
			v-2.1c0.3,0,0.6,0.1,0.9,0.1V758.8z M-602.6,758.9c-0.3,0-0.6-0.1-0.9-0.1v-2.1c0.3,0,0.6,0.1,0.9,0.1V758.9z M-601.4,759.1
			c-0.3,0-0.6-0.1-0.9-0.1v-2.1c0.3,0,0.6,0.1,0.9,0.1V759.1L-601.4,759.1z M-600.2,759.1c-0.3,0-0.6,0-0.9-0.1v-2.1
			c0.3,0,0.6,0,0.9,0.1V759.1z M-599,759.2c-0.3,0-0.6,0-0.9,0V757c0.3,0,0.6,0,0.9,0V759.2L-599,759.2z M-597.8,759.2
			c-0.1,0-0.2,0-0.3,0c-0.2,0-0.4,0-0.6,0V757c0.2,0,0.4,0,0.6,0c0.1,0,0.2,0,0.3,0V759.2z M-596.6,759.2c-0.3,0-0.6,0-0.9,0V757
			c0.3,0,0.6,0,0.9,0V759.2z M-595.4,759.1c-0.3,0-0.6,0-0.9,0.1V757c0.3,0,0.6,0,0.9,0V759.1L-595.4,759.1z M-594.2,759
			c-0.3,0-0.6,0.1-0.9,0.1V757c0.3,0,0.6,0,0.9-0.1V759L-594.2,759z M-593,758.9c-0.3,0-0.6,0.1-0.9,0.1v-2.1c0.3,0,0.6-0.1,0.9-0.1
			V758.9z M-591.8,758.7c-0.3,0.1-0.6,0.1-0.9,0.1v-2.1c0.3,0,0.6-0.1,0.9-0.1V758.7L-591.8,758.7z M-598.1,756.4
			c-8,0-13.6-1.9-13.6-3.6c0-1.6,5-3.4,12.3-3.6c0.2,0.2,0.3,0.4,0.5,0.7c1.7,2,4.3,4.2,7.3,6.1
			C-593.4,756.2-595.6,756.4-598.1,756.4L-598.1,756.4z M-590.6,758.5c-0.3,0.1-0.6,0.1-0.9,0.2v-2.1c0.3,0,0.6-0.1,0.9-0.1V758.5z
			 M-591.4,754.1l0.2,0.1l1.1-1.9c0.2,0.2,0.5,0.3,0.7,0.5l-1.1,1.9C-590.8,754.5-591.1,754.3-591.4,754.1L-591.4,754.1z
			 M-589.1,753c0.1,0.1,0.2,0.2,0.4,0.2c0.1,0.1,0.2,0.1,0.4,0.2l-1.1,1.9c-0.1-0.1-0.3-0.2-0.4-0.2c-0.1-0.1-0.2-0.1-0.3-0.2
			L-589.1,753z M-589.4,758.2c-0.3,0.1-0.6,0.1-0.9,0.2v-1.8c0.3,0.2,0.6,0.3,0.9,0.5V758.2z M-588.1,753.6c0.2,0.1,0.5,0.3,0.7,0.4
			l-1.1,1.9c-0.2-0.1-0.5-0.3-0.8-0.4L-588.1,753.6L-588.1,753.6z M-589,758.1v-0.8c0.3,0.2,0.6,0.3,0.9,0.5
			C-588.4,757.9-588.7,758-589,758.1z M-588.1,756.1l1.1-1.9c0.2,0.1,0.5,0.3,0.8,0.4l-1.1,1.9
			C-587.6,756.3-587.8,756.2-588.1,756.1z M-586.2,757c-0.2-0.1-0.5-0.2-0.8-0.4l1-1.9c0.2,0.1,0.5,0.3,0.8,0.4L-586.2,757z
			 M-585.9,757.1l1-1.8c0.3,0.1,0.5,0.2,0.8,0.4l-1,1.8C-585.4,757.4-585.7,757.3-585.9,757.1L-585.9,757.1z M-584.8,757.6l1-1.8
			c0.3,0.1,0.5,0.2,0.8,0.3l-1,1.8C-584.3,757.8-584.6,757.7-584.8,757.6L-584.8,757.6z M-583.7,758.1l1-1.8
			c0.3,0.1,0.5,0.2,0.8,0.3l-1,1.8C-583.1,758.3-583.4,758.2-583.7,758.1L-583.7,758.1z M-582.5,758.4l1-1.8
			c0.3,0.1,0.5,0.2,0.8,0.3l-1,1.7C-582,758.6-582.3,758.5-582.5,758.4z M-581.3,758.8l1-1.7c0.3,0.1,0.6,0.2,0.8,0.2l-0.9,1.7
			C-580.8,758.9-581.1,758.9-581.3,758.8L-581.3,758.8z M-580.1,759l0.9-1.6c0.3,0.1,0.6,0.1,0.9,0.2l-0.9,1.6
			C-579.5,759.2-579.8,759.1-580.1,759z M-578.8,759.2l0.9-1.5c0.3,0.1,0.6,0.1,0.9,0.1l-0.8,1.4
			C-578.1,759.2-578.5,759.2-578.8,759.2L-578.8,759.2z M-576,758.4c-0.2,0.4-0.7,0.7-1.4,0.8l0.8-1.4c0.4,0,0.7,0,1-0.1L-576,758.4
			z M-574.9,756.5c-0.9,1.5-6.6,0.2-13.5-3.9c-6.9-4.1-10.6-8.6-9.8-10.1c0.9-1.5,6.6-0.2,13.5,3.9S-574,755-574.9,756.5z"/>
	</g>
	<path class="st1" d="M-585.5,742.2c0,0-4.6-1.4-6.3,2.4c0.3,3.4,1.4,7.9,11.7,13.1c5.3,2.6,10.3,3.9,12.8,2.4
		c0.8-1.2,4-4.1-1.8-8.7C-576.7,745.8-580.6,743.3-585.5,742.2z"/>
	<g>
		<path class="st2" d="M-587.6,748.7l-1,1.7c0.2,0.2,0.4,0.4,0.6,0.6l1-1.8C-587.2,749.1-587.4,748.9-587.6,748.7z"/>
		<path class="st2" d="M-589.3,746.8l-0.9,1.6c0.2,0.2,0.3,0.5,0.5,0.8h0l0.9-1.7C-588.9,747.3-589.1,747.1-589.3,746.8z"/>
		<path class="st2" d="M-588.5,747.8l-1,1.7c0.2,0.2,0.4,0.5,0.6,0.7l1-1.7C-588.1,748.2-588.3,748-588.5,747.8z"/>
		<path class="st2" d="M-590.1,745.7l-0.8,1.5c0.1,0.3,0.3,0.6,0.5,0.9l0.9-1.6C-589.7,746.3-589.9,746-590.1,745.7z"/>
		<path class="st2" d="M-590.6,744.6l-0.4,0.7l0,0c-0.2,0.4-0.2,0.9-0.1,1.5l0.8-1.4C-590.4,745.1-590.5,744.8-590.6,744.6z"/>
		<path class="st2" d="M-576.7,756.1l-1,1.8h0c0.3,0.1,0.5,0.2,0.8,0.4l1-1.8C-576.1,756.4-576.4,756.3-576.7,756.1z"/>
		<path class="st2" d="M-577.8,755.6l-1,1.9c0.3,0.1,0.5,0.2,0.8,0.4l1-1.8C-577.2,755.9-577.5,755.7-577.8,755.6z"/>
		<path class="st2" d="M-580.5,754.1c-0.1-0.1-0.3-0.2-0.4-0.2l-1.1,1.9c0.1,0.1,0.2,0.1,0.3,0.2c0.1,0.1,0.3,0.2,0.4,0.2l1.1-1.9
			C-580.3,754.2-580.4,754.1-580.5,754.1z"/>
		<path class="st2" d="M-578.8,755l-1.1,1.9c0.2,0.1,0.5,0.3,0.8,0.4l1.1-1.9C-578.3,755.3-578.6,755.2-578.8,755z"/>
		<path class="st2" d="M-579.8,754.5L-579.8,754.5l-1.1,1.9c0.3,0.1,0.5,0.3,0.8,0.4l1.1-1.9C-579.4,754.7-579.6,754.6-579.8,754.5z
			"/>
		<path class="st2" d="M-574.5,757.1l-1,1.8h0c0.3,0.1,0.6,0.2,0.8,0.3l1-1.8C-573.9,757.3-574.2,757.2-574.5,757.1z"/>
		<path class="st2" d="M-575.6,756.6l-1,1.8h0c0.3,0.1,0.5,0.2,0.8,0.3l1-1.8C-575,756.9-575.3,756.8-575.6,756.6z"/>
		<path class="st2" d="M-569.2,760c0.7-0.1,1.1-0.4,1.4-0.8l0.4-0.7c-0.3,0.1-0.7,0.1-1,0.1L-569.2,760z"/>
		<path class="st2" d="M-569.7,758.5l-0.9,1.5v0c0.4,0,0.7,0,1,0l0.8-1.4C-569.1,758.6-569.4,758.6-569.7,758.5z"/>
		<path class="st2" d="M-576.4,747.2c-6.9-4.1-12.6-5.3-13.5-3.9c-0.9,1.5,2.9,6,9.8,10.1s12.6,5.3,13.5,3.9
			C-565.8,755.9-569.6,751.3-576.4,747.2z"/>
		<path class="st2" d="M-571,758.3l-0.9,1.6c0.3,0.1,0.6,0.1,0.9,0.1l0.9-1.6C-570.4,758.4-570.7,758.3-571,758.3z"/>
		<path class="st2" d="M-573.3,757.5l-1,1.8c0.3,0.1,0.6,0.2,0.8,0.2l1-1.7C-572.8,757.7-573,757.6-573.3,757.5z"/>
		<path class="st2" d="M-572.2,757.9l-1,1.7h0c0.3,0.1,0.6,0.1,0.9,0.2l0.9-1.7C-571.6,758.1-571.9,758-572.2,757.9z"/>
		<path class="st2" d="M-584.8,751.1l-1,1.8c0.2,0.2,0.5,0.4,0.7,0.5v0l1-1.8C-584.3,751.5-584.6,751.3-584.8,751.1z"/>
		<path class="st2" d="M-581.2,753.7c-0.2-0.2-0.5-0.3-0.7-0.5l-1.1,1.9l-0.1,0c0.3,0.2,0.5,0.3,0.8,0.5L-581.2,753.7z"/>
		<path class="st2" d="M-585.1,750.9c-0.2-0.2-0.5-0.4-0.7-0.5l-1,1.8c0.2,0.2,0.4,0.4,0.7,0.6v0L-585.1,750.9z"/>
		<path class="st2" d="M-583.8,751.8l-1.1,1.9c0.2,0.2,0.5,0.3,0.7,0.5v0l1.1-1.9C-583.4,752.2-583.6,752-583.8,751.8z"/>
		<path class="st2" d="M-586.7,749.6l-1,1.8c0.2,0.2,0.4,0.4,0.7,0.6l1-1.8C-586.2,749.9-586.5,749.7-586.7,749.6z"/>
		<path class="st2" d="M-582.8,752.5l-1.1,1.9c0.2,0.2,0.5,0.3,0.7,0.5l1.1-1.9C-582.3,752.8-582.6,752.7-582.8,752.5z"/>
		<path class="st3" d="M-583.1,755l0.1,0.1C-583.1,755-583.1,755-583.1,755L-583.1,755z"/>
		<path class="st0" d="M-575.6,745.9L-575.6,745.9c-3.7-2.3-9-4.7-12.5-4.7c-1.5,0-2.5,0.5-3.1,1.4l-1.1,1.9c-0.4,0.7-0.6,1.7,0,3.2
			c0.2,0.5,1,2.1,2.5,3.7c1.6,1.7,3.7,3.4,6.2,5c0.9,0.6,3.2,2,5.8,3.1c0,0,0,0,0,0c3,1.3,5.8,2.1,7.8,2.1c2.3,0,3.3-0.9,3.7-1.6
			l1.1-1.9C-563.1,754.6-570.7,748.8-575.6,745.9z M-591,745.3L-591,745.3l0.4-0.7c0.1,0.2,0.2,0.5,0.3,0.8l-0.8,1.4
			C-591.2,746.2-591.2,745.7-591,745.3z M-590.9,747.2l0.8-1.5c0.2,0.3,0.3,0.5,0.5,0.8l-0.9,1.6
			C-590.6,747.8-590.8,747.5-590.9,747.2z M-589.7,749.2c-0.2-0.3-0.4-0.5-0.5-0.8l0.9-1.6c0.2,0.2,0.4,0.5,0.6,0.7L-589.7,749.2
			L-589.7,749.2z M-589.4,749.5l1-1.7c0.2,0.2,0.4,0.4,0.6,0.7l-1,1.7C-589,750-589.2,749.7-589.4,749.5z M-588.6,750.5l1-1.7
			c0.2,0.2,0.4,0.4,0.7,0.6l-1,1.8C-588.2,750.9-588.4,750.7-588.6,750.5z M-587.7,751.3l1-1.8c0.2,0.2,0.4,0.4,0.7,0.6l-1,1.8
			C-587.3,751.7-587.5,751.5-587.7,751.3z M-586.8,752.2l1-1.8c0.2,0.2,0.4,0.4,0.7,0.5l-1,1.8v0
			C-586.3,752.5-586.6,752.4-586.8,752.2z M-585.1,753.5c-0.2-0.2-0.5-0.4-0.7-0.5l1-1.8c0.2,0.2,0.5,0.4,0.7,0.5L-585.1,753.5
			L-585.1,753.5z M-584.2,754.2c-0.2-0.2-0.5-0.3-0.7-0.5l1.1-1.9c0.2,0.2,0.5,0.3,0.7,0.5L-584.2,754.2L-584.2,754.2z
			 M-583.9,754.4l1.1-1.9c0.2,0.2,0.5,0.3,0.7,0.5l-1.1,1.9C-583.4,754.7-583.6,754.6-583.9,754.4z M-583.1,755L-583.1,755
			c0,0,0.1,0,0.1,0.1l0.1,0l1.1-1.9c0.2,0.2,0.5,0.3,0.7,0.5l-1.1,1.9c-0.3-0.2-0.5-0.3-0.8-0.5L-583.1,755z M-581.6,755.9
			c-0.1-0.1-0.2-0.1-0.3-0.2l1.1-1.9c0.1,0.1,0.2,0.2,0.4,0.2c0.1,0.1,0.2,0.1,0.4,0.2l-1.1,1.9C-581.3,756.1-581.5,756-581.6,755.9
			z M-580.9,756.3l1.1-1.9l0,0c0.2,0.1,0.5,0.3,0.7,0.4l-1.1,1.9C-580.4,756.6-580.7,756.5-580.9,756.3z M-579.9,756.9l1.1-1.9
			c0.2,0.1,0.5,0.3,0.8,0.4l-1.1,1.9C-579.4,757.2-579.6,757-579.9,756.9z M-578,757.8c-0.2-0.1-0.5-0.2-0.8-0.4l1-1.9
			c0.2,0.1,0.5,0.3,0.8,0.4L-578,757.8z M-577.7,758L-577.7,758l1.1-1.8c0.3,0.1,0.5,0.2,0.8,0.4l-1,1.8
			C-577.2,758.2-577.5,758.1-577.7,758z M-576.6,758.5L-576.6,758.5l1-1.8c0.3,0.1,0.5,0.2,0.8,0.3l-1,1.8
			C-576.1,758.7-576.3,758.6-576.6,758.5z M-575.5,758.9L-575.5,758.9l1-1.8c0.3,0.1,0.5,0.2,0.8,0.3l-1,1.8
			C-574.9,759.1-575.2,759-575.5,758.9z M-574.3,759.3l1-1.8c0.3,0.1,0.5,0.2,0.8,0.3l-1,1.7C-573.7,759.5-574,759.4-574.3,759.3z
			 M-573.1,759.6L-573.1,759.6l1-1.7c0.3,0.1,0.6,0.2,0.8,0.2l-0.9,1.7C-572.5,759.8-572.8,759.7-573.1,759.6z M-571.9,759.9
			l0.9-1.6c0.3,0.1,0.6,0.1,0.9,0.2l-0.9,1.6C-571.2,760-571.6,760-571.9,759.9z M-570.6,760.1L-570.6,760.1l0.9-1.5
			c0.3,0.1,0.6,0.1,0.9,0.1l-0.8,1.4C-569.9,760.1-570.2,760.1-570.6,760.1z M-567.8,759.2c-0.2,0.4-0.7,0.7-1.4,0.8l0.8-1.4
			c0.4,0,0.7,0,1-0.1L-567.8,759.2z M-566.6,757.3c-0.9,1.5-6.6,0.2-13.5-3.9s-10.6-8.6-9.8-10.1c0.9-1.5,6.6-0.2,13.5,3.9
			C-569.6,751.3-565.8,755.9-566.6,757.3z"/>
	</g>
</g>
</svg>
