<?xml version="1.0" encoding="UTF-8"?>
<!DOCTYPE svg PUBLIC "-//W3C//DTD SVG 1.1//EN" "http://www.w3.org/Graphics/SVG/1.1/DTD/svg11.dtd">
<!-- Creator: CorelDRAW X6 -->
<svg xmlns="http://www.w3.org/2000/svg" xml:space="preserve" width="102px" height="100px" version="1.1" style="shape-rendering:geometricPrecision; text-rendering:geometricPrecision; image-rendering:optimizeQuality; fill-rule:evenodd; clip-rule:evenodd"
viewBox="0 0 24413 23967"
 xmlns:xlink="http://www.w3.org/1999/xlink">
 <defs>
  <style type="text/css">
   <![CDATA[
    .fil1 {fill:none}
    .fil2 {fill:#4D4D4D}
    .fil0 {fill:#05AFDF;fill-rule:nonzero}
   ]]>
  </style>
 </defs>
 <g id="Layer_x0020_1">
  <metadata id="CorelCorpID_0Corel-Layer"/>
  <path class="fil0" d="M4326 19945c0,318 -50,594 -148,829 -99,235 -238,429 -418,582 -180,153 -395,268 -646,344 -251,76 -526,114 -826,114 -148,0 -311,-6 -490,-18 -178,-12 -340,-36 -484,-72l0 -3557c145,-35 306,-59 484,-72 178,-12 341,-18 490,-18 300,0 575,38 826,114 251,76 466,191 646,344 180,153 319,348 418,582 99,235 148,511 148,828zm-1996 1419c487,0 851,-125 1090,-373 240,-249 360,-597 360,-1045 0,-448 -120,-797 -360,-1045 -240,-249 -603,-373 -1090,-373 -145,0 -257,2 -336,5 -80,3 -135,7 -167,10l0 2806c32,3 87,7 167,10 79,4 191,5 336,5z"/>
  <path id="1" class="fil0" d="M5316 21782l-492 0 0 -2752 492 0 0 2752zm-249 -3250c-88,0 -163,-29 -225,-87 -62,-58 -93,-137 -93,-236 0,-99 31,-177 93,-236 62,-58 137,-87 225,-87 88,0 163,29 225,87 62,58 93,137 93,236 0,99 -31,177 -93,236 -62,58 -137,87 -225,87z"/>
  <path id="2" class="fil0" d="M6863 21427c116,0 220,-3 310,-8 90,-5 165,-15 225,-29l0 -820c-35,-18 -93,-33 -172,-45 -80,-12 -176,-18 -288,-18 -74,0 -153,5 -236,16 -83,10 -159,33 -228,66 -69,34 -126,80 -172,138 -46,58 -69,135 -69,230 0,176 56,299 169,368 113,69 266,103 461,103zm-42 -2467c198,0 364,26 500,77 136,51 245,123 328,217 83,94 142,205 177,333 35,129 53,271 53,426l0 1720c-42,7 -101,17 -177,29 -76,12 -162,24 -257,34 -95,10 -198,20 -310,29 -111,9 -221,13 -331,13 -155,0 -298,-16 -429,-48 -131,-32 -244,-82 -339,-151 -95,-69 -169,-160 -222,-273 -53,-113 -80,-249 -80,-407 0,-152 31,-283 93,-392 62,-110 146,-198 251,-265 106,-67 230,-116 371,-148 141,-32 290,-48 445,-48 50,0 100,3 153,8 53,5 103,12 151,21 48,9 89,17 125,24 35,7 60,12 74,16l0 -138c0,-81 -9,-161 -27,-241 -18,-79 -49,-150 -95,-212 -46,-62 -108,-111 -188,-148 -80,-37 -183,-56 -310,-56 -162,0 -304,12 -426,35 -122,23 -213,47 -273,71l-58 -407c63,-28 169,-56 318,-82 148,-27 309,-40 482,-40z"/>
  <path id="3" class="fil0" d="M8462 19109c113,-28 262,-58 447,-90 185,-32 400,-48 643,-48 176,0 325,24 445,71 120,48 221,117 301,209 25,-18 64,-42 117,-74 53,-32 118,-63 196,-93 78,-30 164,-57 259,-80 95,-23 198,-34 307,-34 211,0 384,31 519,93 134,62 239,149 315,262 76,113 127,247 153,402 26,155 40,325 40,508l0 1546 -492 0 0 -1440c0,-162 -8,-302 -24,-418 -16,-117 -46,-214 -90,-291 -44,-78 -104,-135 -180,-172 -76,-37 -174,-55 -294,-55 -166,0 -303,22 -410,66 -108,44 -181,84 -220,119 28,92 50,192 64,301 14,110 21,224 21,344l0 1546 -492 0 0 -1440c0,-162 -9,-302 -27,-418 -18,-117 -48,-214 -93,-291 -44,-78 -104,-135 -180,-172 -76,-37 -172,-55 -288,-55 -50,0 -102,2 -159,5 -57,3 -110,8 -161,13 -51,5 -98,11 -140,18 -42,7 -70,12 -85,16l0 2324 -492 0 0 -2673z"/>
  <path id="4" class="fil0" d="M15216 20406c0,219 -32,416 -95,593 -63,176 -153,328 -267,455 -115,127 -251,225 -410,294 -159,69 -332,103 -519,103 -187,0 -360,-34 -519,-103 -159,-69 -296,-167 -410,-294 -115,-127 -204,-279 -268,-455 -63,-177 -95,-374 -95,-593 0,-215 32,-412 95,-590 64,-178 153,-331 268,-458 115,-127 251,-225 410,-294 159,-69 332,-103 519,-103 187,0 360,35 519,103 159,69 296,167 410,294 115,127 204,280 267,458 64,178 95,375 95,590zm-513 0c0,-311 -70,-557 -209,-738 -139,-182 -329,-273 -569,-273 -240,0 -430,91 -569,273 -139,182 -209,428 -209,738 0,311 70,557 209,739 139,182 329,273 569,273 240,0 430,-91 569,-273 140,-182 209,-428 209,-739z"/>
  <path id="5" class="fil0" d="M15677 19109c113,-28 263,-58 450,-90 187,-32 402,-48 646,-48 219,0 401,31 545,93 145,62 260,148 346,259 87,111 147,245 183,400 35,155 53,326 53,513l0 1546 -492 0 0 -1440c0,-169 -11,-314 -34,-434 -23,-120 -61,-217 -114,-291 -53,-74 -123,-128 -212,-161 -88,-34 -198,-50 -328,-50 -53,0 -108,2 -164,5 -57,3 -110,8 -161,13 -51,5 -97,11 -138,18 -40,7 -70,12 -87,16l0 2324 -492 0 0 -2673z"/>
  <path id="6" class="fil0" d="M20261 19612c-60,-49 -147,-97 -259,-143 -113,-46 -237,-69 -371,-69 -141,0 -262,26 -363,77 -101,51 -183,122 -246,212 -63,90 -109,197 -138,320 -28,123 -42,256 -42,397 0,321 80,569 238,744 159,175 371,262 635,262 134,0 246,-6 336,-18 90,-12 160,-26 209,-40l0 -1741zm0 -1852l492 -85 0 4028c-113,32 -258,63 -434,95 -176,32 -379,48 -609,48 -212,0 -402,-33 -572,-100 -170,-67 -314,-162 -434,-286 -120,-123 -213,-274 -278,-452 -65,-178 -98,-378 -98,-601 0,-212 27,-406 82,-582 55,-176 135,-328 241,-455 106,-127 236,-226 389,-296 153,-70 329,-106 527,-106 159,0 299,21 421,64 122,42 213,83 273,122l0 -1392z"/>
  <path id="7" class="fil0" d="M22009 21427c201,0 350,-26 448,-79 97,-53 145,-138 145,-254 0,-120 -48,-215 -143,-286 -95,-70 -252,-150 -471,-238 -106,-42 -207,-85 -304,-130 -97,-44 -181,-96 -252,-156 -70,-60 -127,-132 -169,-217 -42,-85 -63,-189 -63,-313 0,-243 90,-436 270,-579 180,-143 425,-215 736,-215 78,0 155,5 233,13 78,9 150,20 217,32 67,12 126,26 177,40 51,14 91,26 119,37l-90 423c-53,-28 -136,-57 -249,-87 -113,-30 -249,-45 -408,-45 -138,0 -258,27 -360,82 -102,55 -153,140 -153,257 0,60 11,113 34,159 23,46 58,87 106,124 48,37 107,72 177,103 71,32 155,65 254,100 130,50 247,98 349,145 102,48 190,103 262,167 72,64 128,140 167,230 39,90 58,200 58,331 0,254 -94,446 -283,577 -189,130 -458,196 -807,196 -243,0 -434,-20 -572,-61 -138,-40 -231,-71 -281,-93l90 -423c56,21 146,53 270,95 124,42 288,63 492,63z"/>
  <rect class="fil1" width="24413" height="23967"/>
  <path class="fil2" d="M21759 3972c4,-7 7,-14 10,-22 2,-4 3,-7 4,-10 4,-9 6,-18 8,-28 1,-2 2,-4 3,-6 2,-12 5,-23 6,-35 0,-3 1,-6 1,-10 1,-8 1,-17 1,-25 0,-5 0,-9 0,-13 0,-8 -1,-15 -2,-23 -1,-4 -1,-9 -2,-13 0,-3 0,-5 -1,-7 -1,-5 -3,-11 -4,-16 -1,-4 -2,-8 -3,-12 -3,-11 -7,-22 -12,-33 0,-1 0,-1 0,-1 -1,-2 -2,-3 -3,-5 -4,-9 -8,-18 -13,-26 -2,-3 -4,-7 -6,-10 -4,-7 -8,-13 -13,-20 -3,-3 -5,-7 -8,-10 -5,-6 -11,-12 -16,-18 -3,-3 -5,-5 -7,-8 -16,-16 -34,-29 -52,-42l-3472 -2141c-26,-16 -54,-28 -85,-35l-3472 -868c-11,-3 -22,-5 -33,-6 -2,0 -4,0 -5,-1 -10,-1 -20,-2 -31,-2 -1,0 -2,0 -3,0l-3878 0c-47,0 -94,11 -136,33l-2952 1505c-1,1 -3,2 -4,3 -13,7 -27,15 -39,24l-1 1c0,0 0,0 0,0l-2719 2025c0,0 0,0 0,0 -15,11 -29,24 -41,37 -1,1 -1,1 -2,2 -12,14 -23,29 -33,44 -1,1 -1,1 -1,2l-2083 3472c-4,6 -7,12 -10,18 -1,3 -3,6 -4,9 -5,11 -10,22 -14,34 -1,2 -1,5 -2,7 -3,10 -5,19 -7,29 -1,4 -1,8 -2,12 -1,8 -3,17 -3,26 0,2 -1,5 -1,7 0,2 0,4 0,5 0,10 0,20 1,29 0,2 0,5 0,8 1,12 3,25 6,36 1,3 2,6 2,9 2,7 3,14 6,21 1,2 2,4 2,6 2,4 3,8 5,12 3,8 6,15 10,22 2,4 4,8 6,12 4,7 8,14 13,21 3,3 5,6 7,10 7,10 15,19 23,27 2,2 3,3 5,5 7,7 14,14 22,21 3,3 7,5 10,8 7,5 13,10 20,14 2,1 4,3 6,5l10764 6540c1,0 1,0 3,1l0 0c1,1 1,1 2,2 0,0 1,0 1,0 10,6 20,11 30,15 1,0 2,1 3,1 2,1 4,1 5,2 2,1 3,1 4,2 3,0 4,1 7,2 5,2 10,3 15,5 2,1 4,2 6,3 2,0 3,0 4,1 6,2 12,3 18,4 3,1 6,1 8,2 0,0 0,0 1,0 3,1 5,1 8,2 10,1 21,3 31,3 2,0 4,0 5,0 1,0 1,0 1,0 0,0 1,0 1,0 5,0 9,0 14,-1 2,-1 4,-1 5,-1 4,0 8,0 12,0 1,0 1,0 1,-1 3,0 5,-1 8,-1 5,-1 9,-1 13,-2 1,-1 2,-1 3,-1 1,0 3,-1 4,-1 2,-1 3,-1 4,-1 3,-1 5,-1 8,-2 6,-2 12,-3 17,-5 2,-1 3,-1 5,-1 1,0 2,-1 3,-1 3,-1 5,-2 7,-2 4,-3 9,-4 13,-6 3,-1 6,-3 10,-4 2,-1 4,-1 5,-2 1,-1 2,-1 3,-1 3,-2 6,-3 10,-5 4,-2 7,-4 12,-7 2,-2 4,-3 7,-4 1,-1 2,-2 4,-3 1,-1 3,-3 4,-3 4,-3 7,-5 10,-8 3,-2 5,-3 7,-5 3,-2 4,-4 7,-6 1,-1 1,-1 2,-2 1,-1 3,-2 4,-3 2,-1 3,-3 4,-4 3,-3 5,-5 7,-7 3,-3 5,-5 8,-8l0 0c2,-2 4,-4 5,-5 0,0 1,-1 1,-1 1,-1 1,-1 2,-2 1,-1 2,-2 2,-3 2,-2 4,-4 5,-6 1,-2 3,-3 4,-5l7813 -10533c2,-2 3,-5 4,-7 5,-7 10,-14 14,-21 2,-5 4,-8 6,-12zm-5764 -1980l1577 946 -1921 -315 344 -631zm-7140 2772l1414 2074 -2486 1949 -1607 -2269 2679 -1753zm1834 2503l2230 1445 -2087 204 -2246 0 2104 -1649zm1924 -2897l2415 1642 -1339 2487 -2606 -1690 1531 -2440zm794 8902l-2144 -3797 2229 -218 -85 4015zm-7578 -6211l1213 1712 -1747 -356 535 -1355zm4785 2454c7,27 16,54 31,80l1933 3423 -4054 -3503 2090 0zm3479 -384l1916 -758 -1995 4510 80 -3751zm2359 -1576l-2003 793 1128 -2094 2429 486 -1554 816zm-753 -1886l-185 -2463 3239 532 -140 2514 -2913 -582zm3646 -1841l1599 228 -481 619 -1231 1191 113 -2039zm-4424 -545l154 2039 -1923 -1308 1769 -731zm-4257 3073l-1200 -1760 2480 -280 -1280 2040zm-4313 -665l977 -1759 998 466 -1976 1293zm-1146 -1093l1345 -496 -1056 1901c-42,76 -47,163 -22,240l-1777 871 1510 -2516zm-1559 3205l1548 -758 -474 1201 -1075 -442zm3940 1689l3198 2763 -5231 -3178 2033 415zm9222 -1450l1956 -1027 -3722 5018 1766 -3991zm3311 -4707l-952 -136 -2610 -1566 1349 337 2213 1365zm-9374 -2212l3728 0 1006 569 -503 922 -2526 1043 -3463 391 -1398 -652 364 -850 2791 -1423z"/>
 </g>
</svg>
