<?xml version="1.0" encoding="UTF-8"?>
<!DOCTYPE svg PUBLIC "-//W3C//DTD SVG 1.1//EN" "http://www.w3.org/Graphics/SVG/1.1/DTD/svg11.dtd">
<!-- Creator: CorelDRAW X6 -->
<svg xmlns="http://www.w3.org/2000/svg" xml:space="preserve" width="50px" height="50px" version="1.1" style="shape-rendering:geometricPrecision; text-rendering:geometricPrecision; image-rendering:optimizeQuality; fill-rule:evenodd; clip-rule:evenodd"
viewBox="0 0 2841 2841"
 xmlns:xlink="http://www.w3.org/1999/xlink">
 <defs>
  <style type="text/css">
   <![CDATA[
    .fil1 {fill:none}
    .fil0 {fill:#4D4D4D}
   ]]>
  </style>
 </defs>
 <g id="Layer_x0020_1">
  <metadata id="CorelCorpID_0Corel-Layer"/>
  <path class="fil0" d="M2553 991c0,-1 1,-2 1,-3 0,0 0,-1 0,-1 0,-1 1,-2 1,-3 0,0 0,0 0,-1 0,-1 1,-3 1,-4 0,0 0,-1 0,-1 0,-1 0,-2 0,-3 0,-1 0,-1 0,-2 0,-1 0,-2 0,-3 0,-1 0,-1 0,-2 0,0 0,-1 0,-1 0,-1 0,-1 0,-2 0,0 0,-1 0,-1 0,-1 -1,-3 -1,-4 0,0 0,0 0,0 0,0 0,0 0,-1 0,-1 -1,-2 -2,-3 0,0 0,-1 -1,-1 0,-1 -1,-2 -1,-2 0,0 -1,-1 -1,-1 -1,-1 -1,-1 -2,-2 0,0 -1,-1 -1,-1 -2,-2 -4,-3 -6,-5l-412 -254c-3,-2 -6,-3 -10,-4l-412 -103c-1,0 -3,-1 -4,-1 0,0 -1,0 -1,0 -1,0 -2,0 -4,0 0,0 0,0 0,0l-460 0c-6,0 -11,1 -16,4l-350 178c0,0 0,0 0,0 -2,1 -3,2 -5,3l0 0c0,0 0,0 0,0l-322 240c0,0 0,0 0,0 -2,1 -3,3 -5,4 0,0 0,0 0,0 -1,2 -3,3 -4,5 0,0 0,0 0,0l-247 412c0,1 -1,1 -1,2 0,0 0,1 -1,1 -1,1 -1,3 -2,4 0,0 0,1 0,1 0,1 -1,2 -1,3 0,0 0,1 0,1 0,1 0,2 0,3 0,0 0,1 0,1 0,0 0,0 0,1 0,1 0,2 0,3 0,0 0,1 0,1 0,1 0,3 1,4 0,0 0,1 0,1 0,1 0,2 1,2 0,0 0,0 0,1 0,0 0,1 1,1 0,1 1,2 1,3 0,0 1,1 1,1 0,1 1,2 1,2 0,0 1,1 1,1 1,1 2,2 3,3 0,0 0,0 1,1 1,1 2,2 3,2 0,0 1,1 1,1 1,1 2,1 2,2 0,0 0,0 1,1l1276 775c0,0 0,0 0,0l0 0c0,0 0,0 0,0 0,0 0,0 0,0 1,1 2,1 4,2 0,0 0,0 0,0 0,0 0,0 1,0 0,0 0,0 0,0 0,0 0,0 1,0 1,0 1,0 2,1 0,0 0,0 1,0 0,0 0,0 0,0 1,0 1,0 2,0 0,0 1,0 1,0 0,0 0,0 0,0 0,0 1,0 1,0 1,0 3,0 4,0 0,0 0,0 1,0 0,0 0,0 0,0 0,0 0,0 0,0 1,0 1,0 2,0 0,0 0,0 1,0 0,0 1,0 1,0 0,0 0,0 0,0 0,0 1,0 1,0 0,0 1,0 2,0 0,0 0,0 0,0 0,0 0,0 0,0 0,0 0,0 1,0 0,0 1,0 1,0 1,0 1,0 2,-1 0,0 0,0 1,0 0,0 0,0 0,0 0,0 1,0 1,0 1,0 1,0 2,-1 0,0 1,0 1,-1 0,0 0,0 1,0 0,0 0,0 0,0 0,0 1,0 1,-1 0,0 1,-1 1,-1 0,0 0,0 1,0 0,0 0,0 0,0 0,0 0,0 0,0 1,0 1,-1 1,-1 0,0 1,0 1,-1 0,0 1,0 1,-1 0,0 0,0 0,0 0,0 0,0 0,0 0,0 0,0 1,0 0,0 1,-1 1,-1 0,0 1,-1 1,-1l0 0c0,0 0,0 1,-1 0,0 0,0 0,0 0,0 0,0 0,0 0,0 0,0 0,0 0,0 0,0 1,-1 0,0 0,0 1,-1l926 -1248c0,0 0,-1 0,-1 1,-1 1,-2 2,-3 0,-1 0,-1 1,-1zm-683 -235l187 112 -228 -37 41 -75zm-846 329l168 246 -295 231 -190 -269 317 -208zm217 297l264 171 -247 24 -266 0 249 -196zm228 -343l286 195 -159 295 -309 -200 181 -289zm94 1055l-254 -450 264 -26 -10 476zm-898 -736l144 203 -207 -42 63 -161zm567 291c1,3 2,6 4,9l229 406 -481 -415 248 0zm412 -45l227 -90 -236 535 9 -445zm280 -187l-237 94 134 -248 288 58 -184 97zm-89 -224l-22 -292 384 63 -17 298 -345 -69zm432 -218l190 27 -57 73 -146 141 13 -242zm-524 -65l18 242 -228 -155 210 -87zm-505 364l-142 -209 294 -33 -152 242zm-511 -79l116 -208 118 55 -234 153zm-136 -130l160 -59 -125 225c-5,9 -6,19 -3,29l-211 103 179 -298zm-185 380l184 -90 -56 142 -127 -52zm467 200l379 328 -620 -377 241 49zm1093 -172l232 -122 -441 595 209 -473zm392 -558l-113 -16 -309 -186 160 40 262 162zm-1111 -262l442 0 119 67 -60 109 -299 124 -410 46 -166 -77 43 -101 331 -169z"/>
  <rect class="fil1" width="2841" height="2841"/>
 </g>
</svg>
