<?xml version="1.0" encoding="UTF-8"?>
<!DOCTYPE svg PUBLIC "-//W3C//DTD SVG 1.1//EN" "http://www.w3.org/Graphics/SVG/1.1/DTD/svg11.dtd">
<!-- Creator: CorelDRAW X6 -->
<svg xmlns="http://www.w3.org/2000/svg" xml:space="preserve" width="35px" height="35px" version="1.1" style="shape-rendering:geometricPrecision; text-rendering:geometricPrecision; image-rendering:optimizeQuality; fill-rule:evenodd; clip-rule:evenodd"
viewBox="0 0 5185 5185"
 xmlns:xlink="http://www.w3.org/1999/xlink"
 enable-background="new 0 0 96 96">
 <defs>
  <style type="text/css">
   <![CDATA[
    .fil0 {fill:none}
    .fil1 {fill:white}
   ]]>
  </style>
 </defs>
 <g id="Layer_x0020_1">
  <metadata id="CorelCorpID_0Corel-Layer"/>
  <rect class="fil0" width="5185" height="5185"/>
  <g id="_544226872">
   <path class="fil1" d="M4314 1192c-12,-29 -41,-48 -72,-48l-3300 0c-32,0 -60,19 -72,48 -12,29 -5,63 17,85l1315 1297 0 1390c0,28 15,54 39,68 12,7 26,10 39,10 13,0 27,-3 39,-10l624 -356c24,-14 39,-40 39,-68l0 -1034 1315 -1297c22,-22 29,-56 17,-85z"/>
  </g>
 </g>
</svg>
