<?xml version="1.0" encoding="UTF-8"?>
<!DOCTYPE svg PUBLIC "-//W3C//DTD SVG 1.1//EN" "http://www.w3.org/Graphics/SVG/1.1/DTD/svg11.dtd">
<!-- Creator: CorelDRAW X7 -->
<svg xmlns="http://www.w3.org/2000/svg" xml:space="preserve" width="40px" height="40px" version="1.1" style="shape-rendering:geometricPrecision; text-rendering:geometricPrecision; image-rendering:optimizeQuality; fill-rule:evenodd; clip-rule:evenodd"
viewBox="0 0 5505 5506"
 xmlns:xlink="http://www.w3.org/1999/xlink"
 enable-background="new 0 0 100 100">
 <defs>
  <style type="text/css">
   <![CDATA[
    .fil0 {fill:none}
    .fil1 {fill:#666666}
   ]]>
  </style>
 </defs>
 <g id="Layer_x0020_1">
  <metadata id="CorelCorpID_0Corel-Layer"/>
  <polygon class="fil0" points="0,5506 5505,5506 5505,0 0,0 "/>
 </g>
 <g id="Layer_x0020_1_0">
  <metadata id="CorelCorpID_1Corel-Layer"/>
  <g id="_888641776064">
   <path class="fil1" d="M3329 1070l-29 0c0,-1 0,-1 0,-2l0 -6c0,-4 -4,-8 -8,-8l-246 0c-4,0 -8,4 -8,8l0 6c0,1 0,1 0,2l-840 0c-126,0 -230,102 -230,229l0 226 -13 0c-5,0 -9,4 -9,9l0 137c0,4 4,8 9,8l13 0 0 174c0,-1 -1,-1 -2,-1l-14 0c-3,0 -6,3 -6,6l0 97c0,4 3,6 6,6l14 0c1,0 2,0 2,0l0 172c0,0 -1,0 -2,0l-14 0c-3,0 -6,3 -6,6l0 97c0,3 3,6 6,6l14 0c1,0 2,0 2,-1l0 1981c0,127 104,230 230,230l1131 0c127,0 230,-103 230,-230l0 -2923c0,-127 -103,-229 -230,-229zm-586 133c13,-11 33,-10 44,3 12,13 10,33 -2,44 -13,11 -33,10 -44,-3 -12,-13 -11,-32 2,-44zm-101 134l228 0c15,0 27,12 27,27 0,16 -12,28 -27,28l-228 0c-16,0 -28,-12 -28,-28 0,-15 13,-27 28,-27zm-112 1c14,0 25,11 25,24 0,14 -11,25 -25,25 -13,0 -24,-11 -24,-25 0,-14 11,-24 24,-24zm333 2952c-22,33 -59,53 -99,53 -23,0 -45,-6 -65,-19 -26,-17 -44,-44 -51,-75 -6,-31 0,-62 17,-88 22,-34 59,-54 99,-54 23,0 45,7 65,20 26,17 44,43 50,74 7,31 1,63 -16,89zm589 -297l-1377 0 0 -2451 1377 0 0 2451z"/>
  </g>
 </g>
</svg>
