<?xml version="1.0" encoding="UTF-8"?>
<!DOCTYPE svg PUBLIC "-//W3C//DTD SVG 1.1//EN" "http://www.w3.org/Graphics/SVG/1.1/DTD/svg11.dtd">
<!-- Creator: CorelDRAW X6 -->
<svg xmlns="http://www.w3.org/2000/svg" xml:space="preserve" width="102px" height="100px" version="1.1" style="shape-rendering:geometricPrecision; text-rendering:geometricPrecision; image-rendering:optimizeQuality; fill-rule:evenodd; clip-rule:evenodd"
viewBox="0 0 102000 100135"
 xmlns:xlink="http://www.w3.org/1999/xlink">
 <defs>
  <style type="text/css">
   <![CDATA[
    .fil1 {fill:none}
    .fil2 {fill:#4D4D4D}
    .fil0 {fill:#05AFDF;fill-rule:nonzero}
   ]]>
  </style>
 </defs>
 <g id="Layer_x0020_1">
  <metadata id="CorelCorpID_0Corel-Layer"/>
  <g id="_1182608168">
   <path class="fil0" d="M15563 86075c0,737 -78,1423 -232,2057 -155,634 -428,1191 -818,1670 -391,479 -914,855 -1571,1128 -656,272 -1478,408 -2466,408 -501,0 -962,-40 -1383,-121 -420,-82 -799,-184 -1139,-310 -338,-125 -634,-258 -885,-399 -250,-140 -449,-276 -596,-409l840 -1702c310,221 712,453 1205,697 494,242 1109,364 1847,364 1061,0 1836,-268 2322,-807 486,-538 730,-1464 730,-2776l0 -10195 2145 0 0 10393z"/>
   <path id="1" class="fil0" d="M17511 85279c0,-1017 147,-1905 442,-2665 294,-759 685,-1390 1172,-1891 486,-501 1047,-878 1681,-1128 634,-251 1282,-376 1946,-376 1548,0 2736,484 3561,1449 826,966 1238,2436 1238,4413 0,88 0,202 0,343 0,140 -7,268 -22,387l-7873 0c89,1193 435,2100 1040,2720 604,619 1548,928 2831,928 723,0 1331,-63 1824,-188 494,-125 867,-247 1118,-364l287 1724c-251,132 -690,273 -1316,420 -627,148 -1338,221 -2134,221 -1003,0 -1869,-150 -2598,-453 -730,-302 -1331,-719 -1802,-1249 -472,-531 -822,-1161 -1051,-1891 -228,-730 -342,-1530 -342,-2400zm7894 -1128c15,-928 -218,-1691 -697,-2289 -479,-597 -1139,-895 -1979,-895 -472,0 -888,92 -1250,276 -361,184 -667,425 -918,719 -251,294 -446,634 -585,1017 -141,383 -233,775 -277,1172l5705 0z"/>
   <path id="2" class="fil0" d="M38942 91007c-413,-1062 -852,-2274 -1316,-3638 -464,-1364 -888,-2783 -1271,-4258 -383,1475 -803,2894 -1261,4258 -457,1364 -892,2576 -1305,3638l-1791 0c-679,-1519 -1342,-3251 -1990,-5197 -649,-1947 -1261,-4047 -1836,-6303l2210 0c148,692 325,1444 531,2255 207,810 425,1621 653,2433 228,810 468,1592 719,2344 251,752 486,1407 707,1968 251,-693 498,-1426 740,-2201 244,-773 475,-1555 697,-2344 221,-789 432,-1562 630,-2322 200,-759 373,-1471 520,-2134l1703 0c132,662 294,1374 486,2134 192,759 399,1533 620,2322 221,789 453,1571 697,2344 242,775 490,1508 740,2201 221,-561 453,-1216 697,-1968 244,-752 483,-1534 719,-2344 235,-811 457,-1623 663,-2433 206,-811 383,-1564 530,-2255l2124 0c-576,2255 -1187,4356 -1836,6303 -649,1946 -1313,3678 -1990,5197l-1792 0z"/>
   <path id="3" class="fil0" d="M45115 85279c0,-1017 147,-1905 442,-2665 294,-759 685,-1390 1172,-1891 486,-501 1047,-878 1681,-1128 634,-251 1282,-376 1946,-376 1548,0 2736,484 3561,1449 826,966 1238,2436 1238,4413 0,88 0,202 0,343 0,140 -7,268 -22,387l-7873 0c89,1193 435,2100 1040,2720 604,619 1548,928 2831,928 723,0 1331,-63 1824,-188 494,-125 867,-247 1118,-364l287 1724c-251,132 -690,273 -1316,420 -627,148 -1338,221 -2134,221 -1003,0 -1869,-150 -2598,-453 -730,-302 -1331,-719 -1802,-1249 -472,-531 -822,-1161 -1051,-1891 -228,-730 -342,-1530 -342,-2400zm7894 -1128c15,-928 -218,-1691 -697,-2289 -479,-597 -1139,-895 -1979,-895 -472,0 -888,92 -1250,276 -361,184 -667,425 -918,719 -251,294 -446,634 -585,1017 -141,383 -233,775 -277,1172l5705 0z"/>
   <path id="4" class="fil0" d="M60598 91228c-1268,-30 -2168,-303 -2698,-818 -531,-516 -796,-1320 -796,-2410l0 -13800 2057 -354 0 13821c0,339 28,620 88,841 59,221 155,399 287,531 134,132 310,232 531,298 221,66 494,122 818,166l-287 1726z"/>
   <path id="5" class="fil0" d="M65664 91228c-1268,-30 -2168,-303 -2698,-818 -531,-516 -796,-1320 -796,-2410l0 -13800 2057 -354 0 13821c0,339 28,620 88,841 59,221 155,399 287,531 134,132 310,232 531,298 221,66 494,122 818,166l-287 1726z"/>
   <path id="6" class="fil0" d="M66640 85279c0,-1017 147,-1905 442,-2665 294,-759 685,-1390 1172,-1891 486,-501 1047,-878 1681,-1128 634,-251 1282,-376 1946,-376 1548,0 2736,484 3561,1449 826,966 1238,2436 1238,4413 0,88 0,202 0,343 0,140 -7,268 -22,387l-7873 0c89,1193 435,2100 1040,2720 604,619 1548,928 2831,928 723,0 1331,-63 1824,-188 494,-125 867,-247 1118,-364l287 1724c-251,132 -690,273 -1316,420 -627,148 -1338,221 -2134,221 -1003,0 -1869,-150 -2598,-453 -730,-302 -1331,-719 -1802,-1249 -472,-531 -822,-1161 -1051,-1891 -228,-730 -342,-1530 -342,-2400zm7894 -1128c15,-928 -218,-1691 -697,-2289 -479,-597 -1139,-895 -1979,-895 -472,0 -888,92 -1250,276 -361,184 -667,425 -918,719 -251,294 -446,634 -585,1017 -141,383 -233,775 -277,1172l5705 0z"/>
   <path id="7" class="fil0" d="M82918 79264c177,0 380,11 608,33 229,22 454,52 675,89 221,37 423,73 608,110 184,37 321,70 409,99l-354 1792c-162,-59 -432,-129 -808,-211 -376,-80 -859,-122 -1449,-122 -383,0 -763,41 -1139,122 -376,82 -622,137 -740,167l0 9664 -2057 0 0 -11013c486,-177 1090,-343 1813,-498 723,-155 1534,-232 2433,-232z"/>
   <path id="8" class="fil0" d="M85352 93152c162,73 373,143 630,209 258,67 512,101 763,101 811,0 1445,-181 1902,-543 458,-361 870,-946 1239,-1757 -930,-1769 -1795,-3645 -2600,-5628 -803,-1983 -1470,-3992 -2001,-6026l2212 0c162,662 357,1378 587,2144 228,768 483,1555 763,2367 280,811 582,1621 906,2433 325,811 663,1592 1018,2344 559,-1548 1047,-3081 1459,-4599 413,-1519 803,-3082 1172,-4688l2123 0c-531,2167 -1121,4249 -1769,6247 -649,1998 -1349,3866 -2102,5606 -294,663 -600,1235 -918,1714 -317,480 -667,874 -1050,1184 -383,310 -814,538 -1294,685 -479,148 -1021,221 -1625,221 -162,0 -331,-11 -509,-33 -177,-21 -350,-51 -519,-88 -170,-38 -325,-78 -465,-122 -141,-45 -240,-82 -299,-111l376 -1658z"/>
   <rect class="fil1" width="102000" height="100135"/>
   <path class="fil2" d="M64719 27170c0,-986 801,-1787 1788,-1787l0 0c986,0 1786,801 1786,1787l0 0c0,986 -799,1788 -1786,1788l0 0c-988,-1 -1788,-802 -1788,-1788zm-31816 4404c1303,-1677 2271,-3655 2747,-5870 901,-4199 -109,-8362 -2439,-11592 -525,-729 -1112,-1414 -1767,-2039 -1170,-1114 -2530,-2046 -4050,-2731l840 -813 623 -600 -1099 -2733 -4989 -1073 -2304 1974 360 892 449 1115c-6692,39 -12690,4682 -14153,11495 -1690,7876 3328,15619 11202,17310 4715,1011 9379,-394 12734,-3367 671,-596 1288,-1255 1844,-1969zm-1850 -2111c-536,756 -1160,1431 -1845,2035 -2719,2394 -6491,3522 -10301,2704 -6389,-1370 -10456,-7660 -9083,-14049 1262,-5885 6703,-9797 12550,-9305 497,44 996,114 1498,221 493,106 972,245 1437,408 1607,562 3025,1458 4207,2579 676,639 1271,1353 1776,2129 1662,2548 2354,5727 1665,8935 -348,1612 -1009,3076 -1904,4343zm13047 3332c380,-893 900,-2283 1086,-3595l0 0c1323,-375 2686,-1100 4089,-2136 3061,-2264 6269,-5986 9542,-10771 1308,-1916 2575,-3924 3776,-5958 -620,-410 -1144,-953 -1528,-1591 -1268,2173 -2611,4317 -4002,6351 -3148,4607 -6221,8168 -9051,10261 -1015,751 -1977,1295 -2881,1629 -297,-1312 -1080,-1735 -2000,-1735 -918,0 -1701,423 -1996,1735 -904,-334 -1867,-878 -2882,-1629 -545,-403 -1098,-860 -1660,-1370 -72,794 -193,1592 -364,2390l-18 80c261,213 522,415 781,607 1397,1034 2756,1755 4073,2131 169,1410 680,2751 1068,3607 -1864,449 -3246,2129 -3246,4129 0,1788 1103,3316 2667,3944 -2959,3543 -9039,11525 -9039,17294 0,7624 4754,11679 10618,11679 5865,0 10621,-4055 10621,-11679 0,-5769 -6080,-13751 -9039,-17294 1564,-628 2667,-2156 2667,-3944 0,-2013 -1399,-3698 -3278,-4136zm-3093 4136c0,-1173 951,-2124 2123,-2124 1174,0 2125,951 2125,2124 0,1173 -951,2124 -2125,2124 -1172,0 -2123,-951 -2123,-2124zm44172 5284l-2110 -2883 1443 -3273 3554 -386 2111 2886 -1444 3271 -3554 384zm738 -9788c-3593,387 -6198,3627 -5811,7220 389,3593 3628,6200 7220,5809 3593,-387 6201,-3626 5811,-7219 -388,-3593 -3626,-6202 -7220,-5811zm4973 8403l-3765 2753 -4267 -1885 -505 -4637 3768 -2752 4267 1883 501 4639zm-5192 -10417c-4709,510 -8116,4743 -7606,9452 510,4712 4743,8117 9453,7607 4709,-510 8116,-4741 7606,-9452 -510,-4711 -4743,-8119 -9453,-7607zm1694 15638c-3925,425 -7451,-2414 -7878,-6339 -423,-3925 2414,-7452 6339,-7878 3924,-425 7453,2414 7877,6339 426,3925 -2414,7452 -6338,7878zm-4980 -46020c-2749,298 -4734,2766 -4436,5514 297,2750 2765,4735 5514,4436 2749,-297 4734,-2765 4435,-5514 -296,-2747 -2765,-4733 -5513,-4436zm2970 6048l-2145 1569 -2432 -1075 -286 -2641 2145 -1568 2432 1074 286 2641zm-3325 7295c-104,-983 603,-1864 1585,-1970l0 0c982,-105 1864,603 1970,1586l0 0c104,979 -604,1863 -1584,1969l0 0c-983,106 -1865,-606 -1972,-1585zm501 4618c-106,-982 604,-1862 1584,-1969l0 0c982,-105 1864,603 1970,1585l0 0c105,982 -604,1863 -1584,1970l0 0c-983,105 -1865,-603 -1970,-1586zm499 4622c-106,-982 604,-1864 1585,-1969l0 0c980,-106 1864,603 1968,1584l0 0c106,980 -602,1863 -1584,1970l0 0c-980,105 -1863,-604 -1969,-1585zm500 4620c-106,-982 602,-1863 1585,-1969l0 0c980,-105 1864,604 1968,1585l0 0c108,982 -603,1864 -1584,1969l0 0c-982,106 -1864,-603 -1969,-1585zm-18840 15005l-1787 -3095 1787 -3097 3574 0 1787 3097 -1788 3095 -3573 0zm1788 -9654c-3613,0 -6553,2940 -6553,6554 0,3614 2940,6556 6553,6556 3613,0 6552,-2941 6552,-6556 0,-3614 -2939,-6554 -6552,-6554zm4039 8890l-4039 2333 -4040 -2333 0 -4665 4040 -2333 4039 2333 0 4665zm-4039 -10914c-4739,0 -8580,3840 -8580,8578 0,4739 3841,8580 8580,8580 4735,0 8578,-3841 8578,-8580 0,-4738 -3843,-8578 -8578,-8578zm0 15727c-3949,0 -7151,-3199 -7151,-7149 0,-3947 3202,-7148 7151,-7148 3948,0 7147,3202 7147,7148 0,3950 -3199,7149 -7147,7149zm0 -46287c-2764,0 -5005,2240 -5005,5005 0,2764 2241,5004 5005,5004 2764,0 5003,-2240 5003,-5004 0,-2765 -2239,-5005 -5003,-5005zm2300 6333l-2300 1328 -2302 -1328 -1 -2656 2303 -1329 2300 1329 0 2656zm-4089 6894c0,-986 801,-1787 1788,-1787l0 0c986,0 1786,801 1786,1787l0 0c0,988 -799,1787 -1786,1787l0 0c-988,0 -1788,-799 -1788,-1787zm0 4648c0,-986 801,-1788 1788,-1788l0 0c986,0 1786,802 1786,1788l0 0c0,986 -799,1787 -1786,1787l0 0c-988,0 -1788,-801 -1788,-1787zm0 4646c0,-985 801,-1786 1788,-1786l0 0c986,0 1786,801 1786,1786l0 0c0,988 -799,1787 -1786,1787l0 0c-988,1 -1788,-799 -1788,-1787z"/>
  </g>
 </g>
</svg>
