<?xml version="1.0" encoding="UTF-8"?>
<!DOCTYPE svg PUBLIC "-//W3C//DTD SVG 1.1//EN" "http://www.w3.org/Graphics/SVG/1.1/DTD/svg11.dtd">
<!-- Creator: CorelDRAW X6 -->
<svg xmlns="http://www.w3.org/2000/svg" xml:space="preserve" width="50px" height="50px" version="1.1" style="shape-rendering:geometricPrecision; text-rendering:geometricPrecision; image-rendering:optimizeQuality; fill-rule:evenodd; clip-rule:evenodd"
viewBox="0 0 2841 2841"
 xmlns:xlink="http://www.w3.org/1999/xlink">
 <defs>
  <style type="text/css">
   <![CDATA[
    .fil0 {fill:none}
    .fil1 {fill:#4D4D4D}
   ]]>
  </style>
 </defs>
 <g id="Layer_x0020_1">
  <metadata id="CorelCorpID_0Corel-Layer"/>
  <rect class="fil0" width="2841" height="2841"/>
  <path class="fil1" d="M1782 1216c0,-26 21,-47 47,-47l0 0c26,0 47,21 47,47l0 0c0,26 -21,47 -47,47l0 0c-26,0 -47,-21 -47,-47zm-838 116c34,-44 60,-96 72,-155 24,-111 -3,-220 -64,-305 -14,-19 -29,-37 -47,-54 -31,-29 -67,-54 -107,-72l22 -21 16 -16 -29 -72 -131 -28 -61 52 10 23 12 29c-176,1 -334,123 -373,303 -44,207 88,411 295,456 124,27 247,-10 335,-89 18,-16 34,-33 49,-52zm-49 -56c-14,20 -31,38 -49,54 -72,63 -171,93 -271,71 -168,-36 -275,-202 -239,-370 33,-155 176,-258 330,-245 13,1 26,3 39,6 13,3 26,6 38,11 42,15 80,38 111,68 18,17 33,36 47,56 44,67 62,151 44,235 -9,42 -27,81 -50,114zm343 88c10,-23 24,-60 29,-95l0 0c35,-10 71,-29 108,-56 81,-60 165,-158 251,-284 34,-50 68,-103 99,-157 -16,-11 -30,-25 -40,-42 -33,57 -69,114 -105,167 -83,121 -164,215 -238,270 -27,20 -52,34 -76,43 -8,-35 -28,-46 -53,-46 -24,0 -45,11 -53,46 -24,-9 -49,-23 -76,-43 -14,-11 -29,-23 -44,-36 -2,21 -5,42 -10,63l0 2c7,6 14,11 21,16 37,27 73,46 107,56 4,37 18,72 28,95 -49,12 -85,56 -85,109 0,47 29,87 70,104 -78,93 -238,303 -238,455 0,201 125,307 280,307 154,0 280,-107 280,-307 0,-152 -160,-362 -238,-455 41,-17 70,-57 70,-104 0,-53 -37,-97 -86,-109zm-81 109c0,-31 25,-56 56,-56 31,0 56,25 56,56 0,31 -25,56 -56,56 -31,0 -56,-25 -56,-56zm1163 139l-56 -76 38 -86 94 -10 56 76 -38 86 -94 10zm19 -258c-95,10 -163,95 -153,190 10,95 95,163 190,153 95,-10 163,-95 153,-190 -10,-95 -95,-163 -190,-153zm131 221l-99 72 -112 -50 -13 -122 99 -72 112 50 13 122zm-137 -274c-124,13 -214,125 -200,249 13,124 125,214 249,200 124,-13 214,-125 200,-249 -13,-124 -125,-214 -249,-200zm45 412c-103,11 -196,-64 -207,-167 -11,-103 64,-196 167,-207 103,-11 196,64 207,167 11,103 -63,196 -167,207zm-131 -1212c-72,8 -125,73 -117,145 8,72 73,125 145,117 72,-8 125,-73 117,-145 -8,-72 -73,-125 -145,-117zm78 159l-57 41 -64 -28 -8 -70 57 -41 64 28 8 70zm-88 192c-3,-26 16,-49 42,-52l0 0c26,-3 49,16 52,42l0 0c3,26 -16,49 -42,52l0 0c-26,3 -49,-16 -52,-42zm13 122c-3,-26 16,-49 42,-52l0 0c26,-3 49,16 52,42l0 0c3,26 -16,49 -42,52l0 0c-26,3 -49,-16 -52,-42zm13 122c-3,-26 16,-49 42,-52l0 0c26,-3 49,16 52,42l0 0c3,26 -16,49 -42,52l0 0c-26,3 -49,-16 -52,-42zm13 122c-3,-26 16,-49 42,-52l0 0c26,-3 49,16 52,42l0 0c3,26 -16,49 -42,52l0 0c-26,3 -49,-16 -52,-42zm-496 395l-47 -81 47 -82 94 0 47 82 -47 81 -94 0zm47 -254c-95,0 -173,77 -173,173 0,95 77,173 173,173 95,0 172,-77 172,-173 0,-95 -77,-173 -172,-173zm106 234l-106 61 -106 -61 0 -123 106 -61 106 61 0 123zm-106 -287c-125,0 -226,101 -226,226 0,125 101,226 226,226 125,0 226,-101 226,-226 0,-125 -101,-226 -226,-226zm0 414c-104,0 -188,-84 -188,-188 0,-104 84,-188 188,-188 104,0 188,84 188,188 0,104 -84,188 -188,188zm0 -1219c-73,0 -132,59 -132,132 0,73 59,132 132,132 73,0 132,-59 132,-132 0,-73 -59,-132 -132,-132zm61 167l-61 35 -61 -35 0 -70 61 -35 61 35 0 70zm-108 182c0,-26 21,-47 47,-47l0 0c26,0 47,21 47,47l0 0c0,26 -21,47 -47,47l0 0c-26,0 -47,-21 -47,-47zm0 122c0,-26 21,-47 47,-47l0 0c26,0 47,21 47,47l0 0c0,26 -21,47 -47,47l0 0c-26,0 -47,-21 -47,-47zm0 122c0,-26 21,-47 47,-47l0 0c26,0 47,21 47,47l0 0c0,26 -21,47 -47,47l0 0c-26,0 -47,-21 -47,-47z"/>
 </g>
</svg>
