<?xml version="1.0" encoding="UTF-8"?>
<!DOCTYPE svg PUBLIC "-//W3C//DTD SVG 1.1//EN" "http://www.w3.org/Graphics/SVG/1.1/DTD/svg11.dtd">
<!-- Creator: CorelDRAW X6 -->
<svg xmlns="http://www.w3.org/2000/svg" xml:space="preserve" width="156px" height="44px" version="1.1" style="shape-rendering:geometricPrecision; text-rendering:geometricPrecision; image-rendering:optimizeQuality; fill-rule:evenodd; clip-rule:evenodd"
viewBox="0 0 155999 43521"
 xmlns:xlink="http://www.w3.org/1999/xlink">
 <defs>
  <style type="text/css">
   <![CDATA[
    .fil0 {fill:#18C0EF;fill-rule:nonzero}
    .fil2 {fill:#B3B3B3;fill-rule:nonzero}
    .fil1 {fill:white;fill-rule:nonzero}
   ]]>
  </style>
 </defs>
 <g id="Layer_x0020_1">
  <metadata id="CorelCorpID_0Corel-Layer"/>
  <g id="_834601712">
   <path class="fil0" d="M36586 20052l0 23207 -2363 0 0 -21790 0 0 0 -21207 2362 0 0 19789 1 0zm-36586 3418l0 -23207 2363 0 0 21790 1 0 0 21207 -2363 0 0 -19789 -1 0zm18980 -5943c20,79 40,154 63,223 190,598 501,1022 939,1269 340,190 870,326 1579,404 711,83 2179,122 4401,122 1206,0 2139,-78 2805,-234 666,-159 1156,-412 1482,-763 180,-189 311,-510 399,-967 83,-457 126,-1075 126,-1852 0,-1576 -161,-2562 -477,-2966 -315,-404 -943,-646 -1881,-719l-5711 -450 0 1702c0,1583 -318,2686 -958,3312 -563,550 -1476,857 -2767,920zm3620 -8205l5845 484c1746,151 2966,632 3671,1444 700,811 1050,2169 1050,4069 0,1385 -92,2431 -272,3131 -181,694 -477,1278 -895,1744 -516,579 -1206,983 -2072,1215 -869,234 -2450,351 -4749,351l-1055 0c-1955,0 -3335,-103 -4147,-301 -813,-200 -1488,-544 -2033,-1041 -529,-457 -924,-1075 -1172,-1852 -105,-324 -189,-685 -250,-1083 -562,-64 -1043,-181 -1444,-352 -579,274 -1439,411 -2580,411 -1234,0 -2094,-280 -2576,-835 -478,-556 -719,-1563 -719,-3015l0 -2083 -2926 0 0 9860 -2334 0 0 -21207 15974 0 131 -28c769,-156 2131,-234 4075,-234l758 0c2173,0 3705,107 4594,315 889,209 1628,569 2231,1080 409,346 710,831 905,1463 194,633 292,1420 292,2363 0,272 -5,485 -9,632 -6,145 -11,276 -20,393l-2363 0 0 -530c0,-777 -44,-1370 -136,-1783 -87,-413 -233,-719 -432,-919 -296,-296 -822,-501 -1576,-618 -758,-120 -2187,-180 -4303,-180 -2183,0 -3559,248 -4117,739 -559,496 -841,1482 -841,2960 0,206 5,399 15,583 1209,87 2083,393 2619,918 424,420 716,1056 860,1904zm-5901 -2810c-9,-202 -14,-412 -14,-630 0,-1234 122,-2226 370,-2974 46,-137 96,-270 151,-399l-10929 0 0 6943 2926 0 0 -1468 -1320 0 0 -1363 1320 0 0 -2432 1593 0 0 2432 5143 0c235,-47 489,-84 761,-109zm-2871 1472l-3032 0 0 1468 2581 0c94,-585 239,-1077 451,-1468zm-3032 3626l0 2307c0,846 139,1422 416,1726 275,305 803,455 1579,455 405,0 741,-40 1007,-122 -337,-644 -506,-1538 -506,-2680l0 -1685 -2497 0zm10253 1325l0 -1841c0,-1359 -171,-2223 -517,-2593 -346,-374 -1069,-559 -2173,-559l-748 0c-1101,0 -1818,184 -2156,552 -339,371 -507,1237 -507,2600l0 1841c0,1369 171,2239 510,2610 341,366 1058,552 2152,552l748 0c1097,0 1820,-189 2170,-562 346,-374 521,-1240 521,-2600zm-3444 13061c-19,-79 -40,-154 -63,-223 -189,-598 -501,-1022 -939,-1269 -340,-190 -870,-326 -1579,-404 -710,-83 -2178,-122 -4401,-122 -1205,0 -2138,78 -2804,234 -666,159 -1157,412 -1483,763 -180,189 -311,510 -399,967 -83,457 -126,1075 -126,1852 0,1576 161,2562 477,2966 315,404 944,646 1881,719l5711 450 0 -1702c0,-1583 318,-2686 958,-3312 563,-550 1476,-857 2767,-920zm-3620 8205l-5845 -484c-1746,-151 -2966,-632 -3671,-1444 -699,-811 -1049,-2169 -1049,-4069 0,-1385 92,-2431 272,-3131 180,-694 476,-1278 894,-1744 516,-579 1206,-983 2072,-1215 870,-234 2450,-351 4749,-351l1056 0c1954,0 3334,103 4146,301 813,200 1488,544 2033,1041 530,457 924,1075 1172,1852 105,324 189,685 250,1083 562,64 1043,181 1444,352 579,-274 1439,-411 2581,-411 1233,0 2093,280 2575,835 480,556 720,1563 720,3015l0 2083 2924 0 0 -9860 2334 0 0 21207 -15974 0 -131 28c-769,156 -2130,234 -4074,234l-759 0c-2173,0 -3704,-107 -4593,-315 -891,-209 -1629,-569 -2232,-1080 -409,-346 -710,-831 -904,-1463 -195,-633 -292,-1420 -292,-2363 0,-272 5,-485 9,-632 5,-145 9,-276 19,-393l2363 0 0 530c0,777 44,1370 136,1783 87,413 233,719 432,919 296,296 822,501 1576,618 758,120 2187,180 4303,180 2183,0 3559,-248 4117,-739 560,-496 842,-1482 842,-2960 0,-206 -6,-399 -17,-583 -1209,-87 -2083,-393 -2619,-918 -423,-420 -715,-1056 -860,-1904zm5901 2810c9,202 14,412 14,630 0,1234 -122,2226 -370,2974 -45,137 -96,270 -151,399l10929 0 0 -6943 -2924 0 0 1468 1320 0 0 1363 -1320 0 0 2432 -1594 0 0 -2432 -5143 0c-235,47 -489,84 -761,109zm2872 -1472l3031 0 0 -1468 -2580 0c-96,585 -240,1077 -451,1468zm3031 -3626l0 -2307c0,-846 -139,-1422 -416,-1726 -275,-305 -803,-455 -1579,-455 -405,0 -739,40 -1006,122 337,644 506,1538 506,2680l0 1685 2496 0zm-10253 -1325l0 1841c0,1359 171,2223 517,2593 346,374 1070,559 2173,559l748 0c1101,0 1818,-184 2156,-552 339,-371 507,-1237 507,-2600l0 -1841c0,-1369 -171,-2239 -510,-2610 -341,-366 -1058,-552 -2152,-552l-748 0c-1096,0 -1820,189 -2170,562 -346,374 -521,1240 -521,2600z"/>
   <g>
    <polygon class="fil1" points="47140,2699 54072,2699 54072,40825 47140,40825 "/>
    <polygon id="1" class="fil1" points="56282,40825 56282,2699 80379,2699 80379,8585 63214,8585 63214,18324 78454,18324 78454,24210 63214,24210 63214,40825 "/>
    <path class="fil2" d="M85974 11721l11333 0 0 3026 -11333 0 0 15129c0,1613 137,2924 412,3933 275,1009 670,1788 1183,2339 513,550 1136,917 1870,1100 733,184 1541,275 2421,275 1504,0 2714,-174 3631,-522 917,-348 1632,-670 2146,-963l880 2970c-514,330 -1413,706 -2696,1128 -1283,422 -2676,632 -4180,632 -1761,0 -3237,-229 -4429,-687 -1192,-458 -2146,-1155 -2861,-2091 -716,-935 -1220,-2100 -1513,-3494 -293,-1394 -441,-3044 -441,-4951l0 -26186 3576 -660 0 9022z"/>
    <path id="1" class="fil2" d="M122023 25970c0,2237 -321,4272 -964,6106 -641,1834 -1540,3392 -2695,4676 -1155,1284 -2522,2283 -4098,2999 -1577,715 -3319,1072 -5226,1072 -1907,0 -3648,-358 -5226,-1072 -1577,-716 -2943,-1715 -4098,-2999 -1155,-1284 -2054,-2842 -2695,-4676 -643,-1834 -963,-3869 -963,-6106 0,-2237 320,-4273 963,-6106 641,-1834 1540,-3402 2695,-4704 1155,-1302 2522,-2310 4098,-3025 1578,-716 3319,-1074 5226,-1074 1907,0 3650,358 5226,1074 1577,715 2943,1723 4098,3025 1155,1303 2054,2870 2695,4704 643,1833 964,3869 964,6106zm-3796 0c0,-3557 -826,-6391 -2476,-8499 -1651,-2109 -3888,-3164 -6712,-3164 -2824,0 -5061,1055 -6711,3164 -1651,2108 -2476,4942 -2476,8499 0,3557 824,6381 2476,8472 1650,2091 3887,3136 6711,3136 2824,0 5061,-1045 6712,-3136 1650,-2091 2476,-4915 2476,-8472z"/>
    <path class="fil1" d="M132960 35680c2493,0 4309,-422 5446,-1265 1137,-843 1706,-2035 1706,-3576 0,-917 -193,-1706 -578,-2366 -385,-659 -935,-1256 -1651,-1787 -715,-533 -1586,-1028 -2613,-1486 -1028,-458 -2200,-908 -3521,-1348 -1320,-477 -2595,-999 -3823,-1569 -1230,-568 -2311,-1274 -3247,-2118 -935,-843 -1687,-1852 -2255,-3026 -569,-1174 -853,-2585 -853,-4237 0,-3448 1192,-6152 3575,-8114 2385,-1963 5630,-2943 9738,-2943 2383,0 4502,266 6354,797 1852,531 3309,1110 4374,1733l-2146 5613c-1246,-697 -2613,-1230 -4098,-1596 -1486,-367 -3017,-550 -4593,-550 -1871,0 -3328,385 -4374,1155 -1045,770 -1569,1852 -1569,3246 0,844 175,1569 523,2173 348,606 843,1147 1485,1623 643,477 1394,918 2256,1320 862,404 1806,789 2833,1156 1798,659 3402,1329 4814,2008 1411,678 2603,1485 3575,2420 972,935 1715,2036 2229,3301 514,1265 770,2797 770,4593 0,3448 -1220,6117 -3659,8006 -2439,1889 -6006,2833 -10700,2833 -1578,0 -3018,-102 -4319,-302 -1302,-202 -2458,-450 -3465,-743 -1009,-294 -1880,-596 -2614,-908 -733,-312 -1320,-596 -1761,-853l2036 -5667c990,550 2329,1101 4016,1651 1688,550 3723,824 6107,824z"/>
    <polygon id="1" class="fil1" points="149067,2726 155999,2726 155999,40852 149067,40852 "/>
   </g>
  </g>
 </g>
</svg>
