<?xml version="1.0" encoding="UTF-8"?>
<!DOCTYPE svg PUBLIC "-//W3C//DTD SVG 1.1//EN" "http://www.w3.org/Graphics/SVG/1.1/DTD/svg11.dtd">
<!-- Creator: CorelDRAW X6 -->
<svg xmlns="http://www.w3.org/2000/svg" xml:space="preserve" width="180px" height="50px" version="1.1" style="shape-rendering:geometricPrecision; text-rendering:geometricPrecision; image-rendering:optimizeQuality; fill-rule:evenodd; clip-rule:evenodd"
viewBox="0 0 36735 10227"
 xmlns:xlink="http://www.w3.org/1999/xlink">
 <defs>
  <style type="text/css">
   <![CDATA[
    .fil0 {fill:none}
    .fil2 {fill:#4D4D4D}
    .fil1 {fill:#05AFDF;fill-rule:nonzero}
   ]]>
  </style>
 </defs>
 <g id="Layer_x0020_1">
  <metadata id="CorelCorpID_0Corel-Layer"/>
  <rect class="fil0" width="36735" height="10227"/>
  <rect class="fil0" width="10227" height="10227"/>
  <path class="fil1" d="M13012 8308c-116,0 -242,-3 -378,-8 -136,-6 -271,-14 -406,-25 -136,-11 -270,-25 -402,-42 -133,-17 -254,-39 -365,-66l0 -5575c111,-28 232,-50 365,-66 133,-17 267,-30 402,-42 135,-11 270,-19 402,-25 133,-6 257,-8 373,-8 332,0 643,25 933,75 290,50 542,134 755,253 213,119 380,275 502,469 122,194 182,431 182,713 0,315 -75,574 -224,776 -149,202 -348,353 -597,452 337,100 605,257 804,473 199,216 299,520 299,912 0,575 -212,1008 -635,1298 -423,290 -1094,436 -2012,436zm-755 -2729l0 2024c61,6 133,11 216,17 72,6 156,10 253,12 97,3 209,4 336,4 238,0 463,-15 676,-46 213,-30 400,-84 560,-162 160,-77 289,-185 386,-323 97,-138 145,-313 145,-523 0,-188 -36,-347 -108,-477 -72,-130 -175,-234 -311,-311 -136,-77 -297,-133 -485,-166 -188,-33 -398,-50 -631,-50l-1037 0zm0 -647l846 0c199,0 387,-14 564,-42 177,-28 330,-77 460,-149 130,-72 232,-166 307,-282 75,-116 112,-263 112,-440 0,-166 -39,-306 -116,-419 -78,-114 -184,-205 -320,-274 -135,-69 -294,-120 -477,-153 -182,-33 -376,-50 -581,-50 -205,0 -365,3 -481,8 -116,6 -221,14 -315,25l0 1775z"/>
  <path id="1" class="fil1" d="M19815 8134c-177,44 -410,91 -701,141 -290,50 -626,75 -1008,75 -332,0 -611,-49 -838,-145 -227,-97 -409,-234 -547,-411 -138,-177 -238,-386 -299,-626 -61,-240 -91,-507 -91,-800l0 -2422 772 0 0 2256c0,525 83,901 249,1128 166,227 445,340 838,340 83,0 169,-3 257,-8 88,-6 171,-13 249,-21 77,-8 148,-17 211,-25 64,-8 109,-18 137,-29l0 -3642 771 0 0 4189z"/>
  <path id="2" class="fil1" d="M22073 8341c-476,-11 -813,-113 -1012,-307 -199,-194 -299,-495 -299,-904l0 -5177 772 -133 0 5185c0,127 11,232 33,315 22,83 58,149 108,199 50,50 116,87 199,112 83,25 185,46 307,62l-108 647z"/>
  <path id="3" class="fil1" d="M23974 8341c-476,-11 -813,-113 -1012,-307 -199,-194 -299,-495 -299,-904l0 -5177 772 -133 0 5185c0,127 11,232 33,315 22,83 58,149 108,199 50,50 116,87 199,112 83,25 185,46 307,62l-108 647z"/>
  <path id="4" class="fil1" d="M25352 8258l-772 0 0 -4314 772 0 0 4314zm-390 -5094c-138,0 -256,-46 -353,-137 -97,-91 -145,-214 -145,-369 0,-155 49,-278 145,-369 97,-91 214,-137 353,-137 138,0 256,46 352,137 97,91 145,214 145,369 0,155 -48,278 -145,369 -97,91 -214,137 -352,137z"/>
  <path id="5" class="fil1" d="M30123 6101c0,343 -50,653 -149,929 -100,276 -239,514 -419,713 -180,199 -394,352 -643,460 -249,108 -520,162 -813,162 -293,0 -564,-54 -813,-162 -249,-108 -463,-261 -643,-460 -180,-199 -320,-437 -419,-713 -100,-277 -149,-586 -149,-929 0,-338 50,-646 149,-925 100,-279 239,-518 419,-718 180,-199 394,-353 643,-460 249,-108 520,-162 813,-162 293,0 564,54 813,162 249,108 463,261 643,460 180,199 320,438 419,718 100,279 149,588 149,925zm-805 0c0,-487 -109,-872 -328,-1157 -218,-285 -516,-427 -892,-427 -376,0 -673,143 -892,427 -219,285 -328,670 -328,1157 0,487 109,872 328,1157 218,285 516,427 892,427 376,0 673,-143 892,-427 219,-285 328,-671 328,-1157z"/>
  <path id="6" class="fil1" d="M30846 4069c177,-44 412,-91 705,-141 293,-50 631,-75 1012,-75 343,0 628,48 855,145 227,97 408,232 543,407 136,174 231,383 286,626 55,243 83,512 83,805l0 2422 -772 0 0 -2256c0,-266 -18,-492 -54,-680 -36,-188 -95,-340 -179,-456 -83,-116 -194,-201 -332,-253 -138,-52 -310,-79 -514,-79 -83,0 -169,3 -257,8 -88,6 -173,13 -253,21 -80,8 -152,18 -216,29 -64,11 -109,19 -137,25l0 3642 -772 0 0 -4189z"/>
  <path class="fil2" d="M7023 3988c-776,-464 -1857,-959 -2566,-959 -306,0 -517,94 -630,280l-234 391c-96,161 -143,420 64,810 -1142,53 -2635,316 -2635,1049l0 6 0 446c0,780 1555,1189 3091,1189 911,0 1828,-143 2424,-423 610,271 1177,423 1607,423l0 0c462,0 665,-177 754,-326l232 -388c430,-718 -1123,-1907 -2108,-2496zm-1763 1695c-49,-35 -97,-69 -143,-103l214 -381c48,34 95,68 144,102l-215 382zm273 -342c48,33 97,65 146,98l-216 383c-50,-33 -98,-65 -146,-98l215 -383zm-474 196c-48,-36 -95,-72 -140,-108l212 -377c46,36 94,71 142,106l-214 380zm-196 -153c-47,-38 -93,-77 -137,-115l210 -372c45,37 92,74 139,111l-212 376zm-191 -162c-46,-41 -90,-81 -133,-122l206 -365c44,39 90,78 136,116l-209 371zm-186 -172c-45,-44 -88,-87 -128,-129l201 -357c42,41 86,82 132,123l-204 363zm-179 -184c-43,-48 -84,-94 -122,-140l194 -344c40,43 83,87 128,131l-199 353zm-170 -200c-42,-53 -80,-106 -113,-156l184 -327c37,47 77,95 121,144l-192 340zm-156 -224c-40,-65 -72,-128 -96,-187l168 -299c31,54 67,108 108,165l-181 321zm-117 -576l86 -144c14,51 35,105 63,161l-160 284c-36,-122 -34,-224 10,-301zm-2403 2388c-78,-79 -120,-160 -121,-240l0 -168c35,33 75,65 121,95l0 313zm246 179c-67,-37 -126,-76 -176,-115l0 -332c53,31 112,59 176,87l0 360zm246 115c-63,-25 -122,-51 -175,-78l0 -368c55,22 114,43 175,62l0 384zm246 86c-61,-19 -120,-39 -175,-59l0 -390c57,17 115,33 175,48l0 401zm246 67c-65,-16 -128,-33 -188,-50l13 0 0 -401c57,14 115,27 175,38l0 413 0 0zm246 54c-60,-12 -119,-24 -175,-37l0 -416c57,11 116,21 175,30l0 422zm246 42c-60,-9 -118,-19 -175,-29l0 -424c58,8 116,17 175,24l0 429zm246 33c-60,-7 -118,-14 -176,-22l0 -431c58,7 116,13 176,19l0 434zm246 24c-59,-5 -118,-10 -175,-16l0 -435c58,5 117,10 175,14l0 438zm246 16c-59,-3 -118,-7 -175,-11l0 -438c58,4 117,7 175,10l0 439zm246 9c-59,-1 -118,-3 -175,-6l0 -439c58,2 117,4 175,5l0 440zm246 2c-19,0 -37,0 -55,0 -41,0 -80,0 -120,-1l0 -440c40,0 80,1 120,1 18,0 37,0 55,0l0 440zm246 -5c-58,2 -116,3 -175,4l0 -440c58,-1 117,-2 175,-4l0 440zm246 -12c-57,4 -116,7 -175,9l0 -439c58,-2 117,-5 175,-8l0 439zm246 -20c-57,6 -116,11 -176,15l0 -438c59,-4 117,-8 176,-13l0 436zm246 -28c-57,7 -116,14 -176,21l0 -435c59,-5 118,-11 176,-18l0 432zm246 -37c-57,9 -115,19 -176,27l0 -431c59,-7 118,-15 176,-23l0 427zm-1286 -481c-1634,0 -2773,-391 -2773,-742 0,-332 1021,-700 2518,-738 33,43 68,88 107,134 351,418 879,857 1499,1247 -391,62 -847,99 -1351,99zm1532 433c-57,12 -115,24 -176,35l0 -424c60,-9 118,-19 176,-29l0 418zm-160 -896l38 21 215 -381c49,32 99,63 148,94l-216 384c-63,-40 -124,-79 -185,-118zm461 -228c26,15 52,31 78,47 24,14 49,29 73,43l-216 383c-28,-16 -55,-32 -83,-49 -22,-14 -45,-27 -67,-41l215 -383zm-55 1064c-57,15 -115,30 -175,44l0 -363c58,34 117,68 175,100l0 219zm267 -939c51,29 102,58 153,86l-215 383c-50,-28 -102,-56 -153,-86l216 -384zm-197 919l0 -161c64,35 127,68 190,101 -60,21 -123,42 -190,61zm196 -417l215 -382c51,28 103,55 155,82l-215 382c-51,-26 -103,-53 -156,-82zm377 190c-52,-24 -105,-50 -158,-77l214 -381c52,27 105,53 157,78l-213 379zm64 30l213 -378c53,26 107,50 160,75l-211 374c-53,-22 -107,-46 -161,-71zm227 99l210 -373c54,24 108,48 162,70l-208 369c-54,-21 -108,-42 -164,-65zm231 91l207 -367c56,22 111,44 165,65l-204 362c-55,-18 -111,-37 -168,-59zm237 81l202 -359c57,21 113,40 168,58l-198 352c-56,-15 -114,-32 -172,-51zm243 69l196 -349c59,18 117,35 173,50l-191 339c-57,-11 -117,-25 -179,-40zm252 54l188 -334c62,15 122,28 180,38l-181 321c-59,-5 -122,-14 -187,-25zm265 31l177 -315c66,10 130,17 190,20l-165 292c-62,6 -129,7 -203,2zm570 -172c-48,80 -144,133 -280,158l157 -279c76,0 146,-7 208,-21l-85 142zm233 -389c-180,301 -1358,52 -2761,-787 -1402,-839 -2179,-1759 -1999,-2060 180,-301 1358,-52 2761,787 1402,839 2179,1759 1999,2061z"/>
 </g>
</svg>
