<?xml version="1.0" encoding="UTF-8"?>
<!DOCTYPE svg PUBLIC "-//W3C//DTD SVG 1.1//EN" "http://www.w3.org/Graphics/SVG/1.1/DTD/svg11.dtd">
<!-- Creator: CorelDRAW X6 -->
<svg xmlns="http://www.w3.org/2000/svg" xml:space="preserve" width="236px" height="50px" version="1.1" style="shape-rendering:geometricPrecision; text-rendering:geometricPrecision; image-rendering:optimizeQuality; fill-rule:evenodd; clip-rule:evenodd"
viewBox="0 0 63249 13409"
 xmlns:xlink="http://www.w3.org/1999/xlink">
 <defs>
  <style type="text/css">
   <![CDATA[
    .fil0 {fill:none}
    .fil2 {fill:#4D4D4D}
    .fil1 {fill:#05AFDF;fill-rule:nonzero}
   ]]>
  </style>
 </defs>
 <g id="Layer_x0020_1">
  <metadata id="CorelCorpID_0Corel-Layer"/>
  <g id="_431052400">
   <rect class="fil0" width="63249" height="13409"/>
   <path class="fil1" d="M21253 7083c0,657 -102,1228 -307,1713 -204,485 -493,887 -865,1204 -372,317 -817,554 -1335,711 -518,157 -1087,235 -1707,235 -306,0 -644,-13 -1012,-38 -368,-25 -702,-75 -1002,-148l0 -7355c299,-73 633,-122 1002,-148 368,-26 706,-38 1012,-38 620,0 1189,78 1707,235 518,157 963,394 1335,711 372,317 660,719 865,1204 204,485 307,1056 307,1713zm-4126 2933c1007,0 1759,-257 2255,-772 496,-514 744,-1235 744,-2162 0,-926 -248,-1647 -744,-2162 -496,-514 -1248,-771 -2255,-771 -299,0 -531,3 -695,11 -164,7 -279,15 -345,22l0 5801c66,7 181,15 345,22 164,7 396,11 695,11z"/>
   <path id="1" class="fil1" d="M23301 10880l-1018 0 0 -5691 1018 0 0 5691zm-514 -6720c-182,0 -338,-60 -465,-181 -128,-120 -192,-283 -192,-487 0,-204 64,-366 192,-487 128,-120 283,-181 465,-181 182,0 337,60 465,181 128,120 192,283 192,487 0,204 -64,367 -192,487 -128,120 -283,181 -465,181z"/>
   <path id="2" class="fil1" d="M26498 10147c241,0 454,-5 640,-16 186,-11 341,-31 465,-60l0 -1696c-73,-37 -192,-67 -356,-93 -164,-26 -363,-38 -596,-38 -153,0 -315,11 -487,33 -171,22 -328,67 -470,137 -142,69 -261,164 -356,284 -95,120 -142,279 -142,476 0,365 117,618 350,761 233,142 551,213 952,213zm-87 -5100c409,0 753,53 1034,159 281,106 507,255 678,449 172,194 294,423 367,690 73,266 109,560 109,881l0 3557c-87,15 -210,35 -366,60 -157,26 -334,49 -531,71 -197,22 -411,42 -640,60 -230,18 -458,27 -684,27 -321,0 -616,-33 -886,-99 -270,-66 -504,-169 -701,-312 -197,-142 -350,-330 -460,-563 -110,-233 -164,-514 -164,-843 0,-314 64,-583 191,-810 128,-226 301,-409 520,-547 219,-139 474,-241 766,-306 292,-66 598,-99 920,-99 102,0 208,5 317,16 109,11 213,26 312,44 99,18 184,35 257,49 73,15 124,26 153,33l0 -285c0,-168 -18,-334 -55,-498 -36,-164 -102,-310 -197,-438 -95,-128 -224,-230 -388,-306 -164,-77 -378,-115 -640,-115 -335,0 -629,24 -881,71 -252,47 -440,97 -563,148l-120 -843c131,-58 350,-115 657,-169 306,-55 638,-82 996,-82z"/>
   <path id="3" class="fil1" d="M29804 5353c233,-58 542,-120 925,-186 383,-66 826,-99 1330,-99 365,0 671,49 919,148 248,99 456,243 624,432 51,-36 131,-87 241,-153 109,-66 245,-129 405,-191 161,-62 339,-117 536,-164 197,-47 409,-71 635,-71 438,0 795,64 1073,192 277,128 494,308 651,542 157,233 263,511 317,832 55,321 82,671 82,1051l0 3196 -1018 0 0 -2977c0,-336 -16,-624 -49,-865 -33,-241 -95,-441 -186,-602 -91,-161 -215,-279 -372,-356 -157,-77 -359,-115 -607,-115 -343,0 -626,46 -848,137 -223,91 -374,173 -454,246 58,190 102,398 131,624 29,226 44,463 44,711l0 3196 -1018 0 0 -2977c0,-336 -18,-624 -55,-865 -36,-241 -100,-441 -192,-602 -91,-161 -215,-279 -372,-356 -157,-77 -356,-115 -596,-115 -102,0 -212,4 -328,11 -117,7 -228,16 -334,27 -106,11 -202,24 -290,38 -87,15 -146,26 -175,33l0 4804 -1018 0 0 -5527z"/>
   <path id="4" class="fil1" d="M43770 8035c0,453 -66,861 -197,1226 -131,365 -316,679 -553,941 -237,263 -520,465 -848,607 -328,143 -686,213 -1073,213 -387,0 -744,-71 -1073,-213 -328,-142 -611,-345 -848,-607 -237,-263 -421,-576 -553,-941 -131,-365 -197,-773 -197,-1226 0,-445 66,-852 197,-1220 131,-368 315,-684 553,-947 237,-263 520,-465 848,-607 328,-143 686,-213 1073,-213 387,0 744,71 1073,213 328,142 611,345 848,607 237,263 421,578 553,947 131,368 197,775 197,1220zm-1062 0c0,-642 -144,-1151 -432,-1527 -288,-376 -680,-563 -1176,-563 -496,0 -888,188 -1176,563 -288,376 -432,885 -432,1527 0,642 144,1151 432,1527 288,376 680,564 1176,564 496,0 888,-188 1176,-564 288,-376 432,-884 432,-1527z"/>
   <path id="5" class="fil1" d="M44723 5353c233,-58 544,-120 930,-186 387,-66 832,-99 1335,-99 453,0 828,64 1127,192 299,128 538,306 717,536 179,230 305,505 378,826 73,321 110,675 110,1062l0 3196 -1018 0 0 -2977c0,-350 -24,-649 -71,-897 -48,-248 -126,-449 -235,-602 -109,-153 -255,-264 -438,-334 -182,-69 -409,-104 -678,-104 -110,0 -223,4 -339,11 -117,7 -228,16 -334,27 -106,11 -201,24 -284,38 -84,15 -144,26 -181,33l0 4804 -1018 0 0 -5527z"/>
   <path id="6" class="fil1" d="M54202 6393c-124,-102 -303,-201 -536,-296 -234,-95 -489,-142 -766,-142 -292,0 -542,53 -750,159 -208,106 -378,251 -509,438 -131,186 -226,407 -284,662 -58,255 -87,529 -87,821 0,664 164,1177 493,1538 328,361 766,542 1313,542 277,0 509,-13 695,-38 186,-25 330,-53 432,-82l0 -3601zm0 -3831l1018 -175 0 8329c-233,66 -533,131 -897,197 -365,66 -785,99 -1259,99 -438,0 -832,-69 -1182,-208 -350,-139 -649,-335 -898,-591 -248,-255 -439,-567 -575,-936 -135,-368 -202,-782 -202,-1242 0,-438 57,-839 170,-1204 113,-365 279,-678 498,-941 219,-263 487,-467 804,-613 317,-146 680,-219 1089,-219 328,0 619,44 870,131 252,87 440,171 564,252l0 -2879z"/>
   <path id="7" class="fil1" d="M57815 10147c416,0 724,-55 925,-164 201,-110 301,-285 301,-525 0,-248 -99,-445 -296,-591 -197,-146 -522,-310 -974,-492 -219,-88 -429,-177 -629,-268 -201,-91 -374,-199 -520,-323 -146,-124 -263,-274 -350,-449 -87,-175 -131,-390 -131,-646 0,-504 186,-903 558,-1199 372,-296 879,-443 1521,-443 161,0 321,9 482,27 160,18 310,40 449,66 139,26 261,53 367,82 106,29 188,54 246,76l-186 876c-110,-59 -281,-119 -514,-181 -233,-62 -514,-93 -843,-93 -284,0 -532,56 -744,169 -212,113 -317,290 -317,531 0,124 24,233 71,328 48,95 120,181 219,257 99,77 221,148 367,213 146,66 321,135 525,208 270,102 511,202 723,301 212,99 392,213 542,345 150,131 264,290 345,476 80,186 120,414 120,684 0,525 -195,923 -586,1193 -390,270 -947,405 -1669,405 -503,0 -897,-42 -1182,-126 -284,-84 -478,-148 -580,-191l186 -876c117,44 303,110 558,197 255,88 595,131 1018,131z"/>
   <path class="fil2" d="M12049 4677c2,-4 4,-8 6,-12 1,-2 2,-4 2,-6 2,-5 3,-10 5,-16 1,-1 1,-2 2,-3 1,-6 3,-13 3,-19 0,-2 0,-3 1,-5 0,-4 1,-10 1,-14 0,-3 0,-5 0,-7 0,-4 -1,-9 -1,-13 0,-3 0,-5 -1,-8 0,-1 0,-3 0,-4 -1,-3 -2,-6 -2,-9 -1,-2 -1,-4 -2,-7 -2,-6 -4,-13 -6,-19 0,0 0,0 0,0 -1,-1 -1,-2 -2,-3 -2,-5 -4,-10 -7,-15 -1,-2 -2,-4 -3,-6 -2,-4 -5,-7 -7,-11 -2,-2 -3,-4 -4,-6 -3,-3 -6,-7 -9,-10 -2,-1 -3,-3 -4,-4 -9,-9 -19,-16 -29,-23l-1943 -1198c-15,-9 -30,-16 -48,-20l-1943 -486c-6,-2 -12,-3 -18,-3 -1,0 -3,0 -3,0 -6,-1 -11,-1 -17,-1 -1,0 -1,0 -2,0l-2169 0c-26,0 -52,6 -76,18l-1652 842c-1,0 -1,1 -2,1 -8,4 -15,8 -22,14l-1 0c0,0 0,0 0,0l-1521 1133c0,0 0,0 0,0 -9,6 -16,13 -23,21 0,0 -1,1 -1,1 -7,8 -13,16 -18,25 0,0 -1,1 -1,1l-1166 1943c-2,3 -3,7 -5,10 -1,2 -2,3 -3,5 -3,6 -5,12 -8,19 0,2 -1,3 -1,4 -2,5 -3,10 -4,16 -1,2 -1,4 -1,7 -1,5 -1,10 -2,15 0,1 0,3 0,4 0,1 0,2 0,3 0,5 0,11 0,16 0,1 0,3 0,4 0,7 2,14 3,20 0,2 1,3 2,5 1,4 2,8 3,11 1,1 1,2 2,3 1,2 2,4 3,7 2,4 3,9 5,12 1,2 3,4 4,7 2,4 4,8 7,12 1,2 3,4 4,5 4,5 8,11 13,16 1,1 2,2 3,3 4,4 8,8 12,11 2,2 4,3 6,4 4,3 8,5 11,8 1,1 2,2 3,3l6022 3658c0,0 1,0 1,1l0 0c0,0 1,1 1,1 0,0 0,0 0,0 6,3 11,6 17,9 0,0 1,1 2,1 1,1 2,1 3,1 1,0 2,1 2,1 1,0 2,1 4,1 3,1 5,2 9,3 1,0 2,1 3,1 1,0 2,0 2,0 3,1 7,2 10,2 2,1 3,1 5,1 0,0 0,0 0,0 2,0 3,1 5,1 6,1 12,1 18,1 1,0 2,0 3,0 0,0 1,0 1,0 0,0 1,0 1,0 3,0 5,0 8,0 1,0 2,-1 3,-1 2,0 4,0 7,0 0,0 0,0 1,0 2,0 3,0 4,-1 2,0 5,-1 7,-1 0,0 1,0 2,0 1,0 2,0 2,-1 1,0 2,-1 3,-1 2,0 3,-1 4,-1 3,-1 7,-2 10,-3 1,0 2,-1 3,-1 1,0 1,0 2,-1 2,-1 3,-1 4,-1 3,-1 5,-2 8,-3 2,-1 3,-2 5,-3 1,0 2,-1 3,-1 1,0 1,0 2,-1 2,-1 3,-2 5,-3 2,-1 4,-3 7,-4 1,-1 2,-2 3,-2 1,-1 1,-1 2,-2 1,-1 1,-1 2,-2 3,-1 4,-3 6,-4 1,-1 3,-2 4,-3 1,-1 3,-2 4,-3 0,0 1,-1 1,-1 1,-1 1,-1 2,-2 1,-1 2,-2 3,-2 2,-2 3,-3 4,-4 2,-1 3,-3 4,-4l0 0c1,-1 2,-2 3,-3 0,0 1,0 1,-1 0,0 1,-1 1,-1 0,-1 1,-1 1,-2 1,-1 2,-2 3,-3 1,-1 2,-2 3,-3l4371 -5893c1,-1 2,-3 2,-4 3,-4 5,-8 8,-12 1,-3 2,-4 3,-7zm-3225 -1108l882 529 -1075 -176 193 -353zm-3995 1551l791 1160 -1391 1091 -899 -1270 1499 -981zm1026 1400l1248 809 -1168 114 -1257 0 1177 -923zm1076 -1621l1351 919 -749 1391 -1458 -946 856 -1365zm444 4980l-1200 -2124 1247 -122 -48 2247zm-4240 -3475l678 958 -978 -199 299 -758zm2677 1373c4,16 9,30 17,45l1082 1915 -2269 -1960 1169 0zm1946 -214l1072 -424 -1116 2523 45 -2099zm1320 -882l-1121 443 631 -1172 1359 272 -869 456zm-421 -1055l-104 -1378 1812 297 -78 1406 -1630 -326zm2039 -1030l895 128 -269 347 -689 666 63 -1141zm-2475 -305l86 1141 -1076 -732 990 -409zm-2382 1719l-672 -985 1388 -157 -716 1142zm-2413 -372l547 -984 559 260 -1105 723zm-641 -611l753 -277 -591 1063c-24,43 -27,92 -12,135l-995 487 844 -1408zm-872 1793l867 -424 -265 672 -601 -247zm2205 945l1789 1546 -2926 -1778 1137 232zm5160 -811l1094 -575 -2083 2807 988 -2233zm1852 -2634l-532 -76 -1460 -876 755 188 1238 764zm-5244 -1238l2085 0 563 318 -281 516 -1413 583 -1937 219 -782 -365 204 -476 1562 -796z"/>
   <rect class="fil0" width="13409" height="13409"/>
  </g>
 </g>
</svg>
