<?xml version="1.0" encoding="UTF-8"?>
<!DOCTYPE svg PUBLIC "-//W3C//DTD SVG 1.1//EN" "http://www.w3.org/Graphics/SVG/1.1/DTD/svg11.dtd">
<!-- Creator: CorelDRAW X6 -->
<svg xmlns="http://www.w3.org/2000/svg" xml:space="preserve" width="236px" height="50px" version="1.1" style="shape-rendering:geometricPrecision; text-rendering:geometricPrecision; image-rendering:optimizeQuality; fill-rule:evenodd; clip-rule:evenodd"
viewBox="0 0 63249 13409"
 xmlns:xlink="http://www.w3.org/1999/xlink">
 <defs>
  <style type="text/css">
   <![CDATA[
    .fil0 {fill:none}
    .fil2 {fill:#4D4D4D}
    .fil1 {fill:#05AFDF;fill-rule:nonzero}
   ]]>
  </style>
 </defs>
 <g id="Layer_x0020_1">
  <metadata id="CorelCorpID_0Corel-Layer"/>
  <rect class="fil0" width="63249" height="13409"/>
  <path class="fil1" d="M18670 8440c0,365 -38,704 -115,1018 -76,314 -212,589 -405,826 -193,237 -452,423 -777,558 -325,135 -731,202 -1220,202 -248,0 -476,-20 -684,-60 -208,-40 -396,-91 -564,-153 -168,-62 -314,-128 -438,-197 -124,-69 -222,-137 -296,-203l416 -843c153,109 352,224 596,345 245,120 549,181 914,181 525,0 908,-133 1149,-399 241,-266 361,-724 361,-1373l0 -5046 1061 0 0 5144z"/>
  <path id="1" class="fil1" d="M19634 8046c0,-503 73,-943 219,-1319 146,-376 339,-688 580,-936 241,-248 518,-434 832,-558 314,-124 635,-186 963,-186 766,0 1353,239 1762,717 409,478 613,1206 613,2183 0,44 0,100 0,170 0,69 -4,133 -11,191l-3896 0c44,591 215,1040 514,1346 299,307 766,460 1401,460 358,0 659,-31 903,-93 244,-62 429,-122 553,-181l142 854c-124,66 -341,135 -651,208 -310,73 -662,110 -1056,110 -496,0 -925,-75 -1286,-225 -361,-150 -659,-356 -892,-618 -233,-263 -407,-575 -520,-936 -113,-361 -170,-757 -170,-1187zm3907 -558c7,-460 -108,-837 -345,-1133 -237,-296 -564,-443 -980,-443 -233,0 -439,46 -618,137 -179,91 -330,210 -454,356 -124,146 -220,314 -290,504 -69,190 -115,383 -137,580l2824 0z"/>
  <path id="2" class="fil1" d="M30241 10880c-204,-525 -421,-1125 -651,-1800 -230,-675 -440,-1377 -629,-2107 -190,729 -398,1432 -624,2107 -226,675 -442,1275 -646,1800l-887 0c-335,-752 -664,-1609 -985,-2572 -321,-963 -624,-2003 -908,-3119l1094 0c73,343 161,715 263,1116 102,401 210,803 323,1204 113,401 232,788 356,1160 124,372 241,697 350,974 124,-343 246,-706 367,-1089 120,-383 235,-770 345,-1160 110,-390 213,-773 312,-1149 99,-376 184,-728 257,-1056l843 0c66,328 146,680 241,1056 95,376 197,759 306,1149 109,391 224,777 345,1160 120,383 243,746 367,1089 109,-277 224,-602 345,-974 120,-372 239,-759 356,-1160 117,-401 226,-803 328,-1204 102,-401 190,-773 263,-1116l1051 0c-284,1116 -587,2156 -908,3119 -321,963 -649,1820 -985,2572l-886 0z"/>
  <path id="3" class="fil1" d="M33295 8046c0,-503 73,-943 219,-1319 146,-376 339,-688 580,-936 241,-248 518,-434 832,-558 314,-124 635,-186 963,-186 766,0 1353,239 1762,717 409,478 613,1206 613,2183 0,44 0,100 0,170 0,69 -4,133 -11,191l-3896 0c44,591 215,1040 514,1346 299,307 766,460 1401,460 358,0 659,-31 903,-93 244,-62 429,-122 553,-181l142 854c-124,66 -341,135 -651,208 -310,73 -662,110 -1056,110 -496,0 -925,-75 -1286,-225 -361,-150 -659,-356 -892,-618 -233,-263 -407,-575 -520,-936 -113,-361 -170,-757 -170,-1187zm3907 -558c7,-460 -108,-837 -345,-1133 -237,-296 -564,-443 -980,-443 -233,0 -439,46 -618,137 -179,91 -330,210 -454,356 -124,146 -220,314 -290,504 -69,190 -115,383 -137,580l2824 0z"/>
  <path id="4" class="fil1" d="M40957 10990c-627,-15 -1073,-150 -1335,-405 -263,-255 -394,-653 -394,-1193l0 -6829 1018 -175 0 6840c0,168 15,306 44,416 29,109 76,197 142,263 66,66 153,115 263,148 110,33 245,60 405,82l-142 854z"/>
  <path id="5" class="fil1" d="M43465 10990c-627,-15 -1073,-150 -1335,-405 -263,-255 -394,-653 -394,-1193l0 -6829 1018 -175 0 6840c0,168 15,306 44,416 29,109 76,197 142,263 66,66 153,115 263,148 110,33 245,60 405,82l-142 854z"/>
  <path id="6" class="fil1" d="M43948 8046c0,-503 73,-943 219,-1319 146,-376 339,-688 580,-936 241,-248 518,-434 832,-558 314,-124 635,-186 963,-186 766,0 1353,239 1762,717 409,478 613,1206 613,2183 0,44 0,100 0,170 0,69 -4,133 -11,191l-3896 0c44,591 215,1040 514,1346 299,307 766,460 1401,460 358,0 659,-31 903,-93 244,-62 429,-122 553,-181l142 854c-124,66 -341,135 -651,208 -310,73 -662,110 -1056,110 -496,0 -925,-75 -1286,-225 -361,-150 -659,-356 -892,-618 -233,-263 -407,-575 -520,-936 -113,-361 -170,-757 -170,-1187zm3907 -558c7,-460 -108,-837 -345,-1133 -237,-296 -564,-443 -980,-443 -233,0 -439,46 -618,137 -179,91 -330,210 -454,356 -124,146 -220,314 -290,504 -69,190 -115,383 -137,580l2824 0z"/>
  <path id="7" class="fil1" d="M52004 5069c88,0 188,5 301,16 113,11 225,25 334,44 110,18 210,36 301,55 91,18 159,35 203,49l-175 887c-80,-29 -213,-64 -399,-104 -186,-40 -425,-60 -717,-60 -189,0 -378,20 -563,60 -186,40 -308,67 -367,82l0 4783 -1018 0 0 -5450c241,-87 540,-169 897,-246 358,-77 759,-115 1204,-115z"/>
  <path id="8" class="fil1" d="M53209 11942c80,36 184,71 312,104 128,33 254,49 378,49 401,0 715,-89 941,-268 226,-179 430,-469 613,-870 -460,-875 -888,-1804 -1286,-2786 -398,-981 -728,-1975 -990,-2982l1094 0c80,328 177,682 290,1062 113,379 239,770 378,1171 138,401 288,802 449,1204 161,401 328,788 504,1160 277,-766 518,-1525 722,-2276 204,-752 398,-1525 580,-2320l1051 0c-263,1073 -554,2103 -875,3092 -321,989 -667,1913 -1040,2774 -146,328 -297,611 -454,848 -157,237 -330,432 -520,585 -190,153 -403,266 -640,339 -237,73 -505,110 -804,110 -80,0 -164,-5 -252,-16 -87,-11 -173,-26 -257,-44 -84,-18 -161,-38 -230,-60 -69,-22 -119,-40 -148,-55l186 -821z"/>
  <rect class="fil0" width="13409" height="13409"/>
  <path class="fil2" d="M8409 5741c0,-123 100,-222 222,-222l0 0c123,0 222,99 222,222l0 0c0,123 -99,222 -222,222l0 0c-123,0 -222,-99 -222,-222zm-3954 547c162,-208 282,-454 341,-729 112,-522 -13,-1039 -303,-1441 -66,-91 -138,-176 -220,-253 -145,-138 -314,-254 -503,-339l104 -101 78 -74 -137 -340 -620 -133 -287 245 45 111 56 138c-831,5 -1577,582 -1759,1429 -210,979 414,1941 1392,2151 586,126 1166,-49 1582,-418 83,-74 160,-156 229,-245zm-230 -262c-67,94 -144,178 -229,253 -338,297 -806,437 -1280,336 -794,-170 -1299,-952 -1129,-1746 157,-731 833,-1218 1560,-1156 62,5 124,14 186,28 61,13 121,30 178,51 200,70 376,181 523,321 84,80 158,168 220,264 207,316 293,712 207,1110 -43,201 -125,382 -237,540zm1621 414c48,-111 112,-283 135,-447l0 0c164,-47 334,-137 508,-265 380,-281 779,-744 1186,-1339 162,-238 320,-487 469,-740 -77,-51 -142,-118 -190,-198 -158,270 -324,536 -497,789 -391,573 -773,1015 -1125,1275 -126,93 -246,161 -358,202 -37,-163 -134,-216 -249,-216 -114,0 -211,53 -248,216 -112,-41 -232,-109 -358,-202 -68,-50 -136,-107 -206,-170 -9,99 -24,198 -45,297l-2 10c32,26 65,52 97,75 174,128 342,218 506,265 21,175 85,342 133,448 -232,56 -404,264 -404,513 0,222 137,412 332,490 -368,441 -1123,1432 -1123,2149 0,947 591,1451 1319,1451 729,0 1320,-504 1320,-1451 0,-717 -756,-1709 -1123,-2149 194,-78 331,-268 331,-490 0,-250 -174,-460 -408,-514zm-384 514c0,-146 118,-264 264,-264 146,0 264,118 264,264 0,146 -118,264 -264,264 -146,0 -264,-118 -264,-264zm5489 657l-262 -358 179 -407 442 -48 263 359 -180 406 -442 48zm92 -1216c-446,48 -770,451 -722,897 48,446 451,770 897,722 446,-48 770,-451 722,-897 -48,-447 -451,-771 -897,-722zm618 1044l-468 342 -530 -234 -63 -576 468 -342 530 234 62 576zm-645 -1295c-585,63 -1009,589 -945,1175 63,586 589,1009 1175,945 585,-63 1009,-589 945,-1175 -63,-585 -589,-1009 -1175,-945zm210 1943c-488,53 -926,-300 -979,-788 -53,-488 300,-926 788,-979 488,-53 926,300 979,788 53,488 -300,926 -787,979zm-619 -5719c-342,37 -589,344 -551,685 37,341 343,588 685,551 341,-37 588,-344 551,-685 -37,-341 -344,-588 -685,-551zm369 752l-267 195 -302 -133 -36 -328 267 -195 302 133 35 328zm-413 907c-13,-122 75,-232 197,-245l0 0c122,-13 232,75 245,197l0 0c13,122 -75,232 -197,245l0 0c-122,13 -232,-75 -245,-197zm62 574c-13,-122 75,-231 197,-245l0 0c122,-13 232,75 245,197l0 0c13,122 -75,232 -197,245l0 0c-122,13 -232,-75 -245,-197zm62 574c-13,-122 75,-232 197,-245l0 0c122,-13 232,75 245,197l0 0c13,122 -75,232 -197,245l0 0c-122,13 -232,-75 -245,-197zm62 574c-13,-122 75,-232 197,-245l0 0c122,-13 232,75 245,197l0 0c13,122 -75,232 -197,245l0 0c-122,13 -232,-75 -245,-197zm-2341 1864l-222 -385 222 -385 444 0 222 385 -222 385 -444 0zm222 -1200c-449,0 -814,365 -814,814 0,449 365,815 814,815 449,0 814,-366 814,-815 0,-449 -365,-814 -814,-814zm502 1105l-502 290 -502 -290 0 -580 502 -290 502 290 0 580zm-502 -1356c-589,0 -1066,477 -1066,1066 0,589 477,1066 1066,1066 589,0 1066,-478 1066,-1066 0,-589 -477,-1066 -1066,-1066zm0 1954c-491,0 -888,-398 -888,-888 0,-490 398,-888 888,-888 491,0 888,398 888,888 0,491 -398,888 -888,888zm0 -5752c-344,0 -622,278 -622,622 0,343 278,621 622,621 343,0 621,-278 621,-621 0,-344 -278,-622 -621,-622zm286 787l-286 165 -286 -165 0 -330 286 -165 286 165 0 330zm-508 857c0,-123 100,-222 222,-222l0 0c123,0 222,99 222,222l0 0c0,123 -99,222 -222,222l0 0c-123,0 -222,-99 -222,-222zm0 578c0,-123 100,-222 222,-222l0 0c123,0 222,100 222,222l0 0c0,123 -99,222 -222,222l0 0c-123,0 -222,-99 -222,-222zm0 577c0,-122 100,-222 222,-222l0 0c123,0 222,100 222,222l0 0c0,123 -99,222 -222,222l0 0c-123,0 -222,-99 -222,-222z"/>
 </g>
</svg>
