<?xml version="1.0" encoding="UTF-8"?>
<!DOCTYPE svg PUBLIC "-//W3C//DTD SVG 1.1//EN" "http://www.w3.org/Graphics/SVG/1.1/DTD/svg11.dtd">
<!-- Creator: CorelDRAW X7 -->
<svg xmlns="http://www.w3.org/2000/svg" xml:space="preserve" width="197px" height="136px" version="1.1" style="shape-rendering:geometricPrecision; text-rendering:geometricPrecision; image-rendering:optimizeQuality; fill-rule:evenodd; clip-rule:evenodd"
viewBox="0 0 183226 125994"
 xmlns:xlink="http://www.w3.org/1999/xlink">
 <defs>
  <style type="text/css">
   <![CDATA[
    .fil0 {fill:#B3B3B3}
   ]]>
  </style>
 </defs>
 <g id="Layer_x0020_1">
  <metadata id="CorelCorpID_0Corel-Layer"/>
  <path class="fil0" d="M72037 46456l-1782 0 -7348 -11283 -76 0c98,1325 148,2536 148,3640l0 7643 -1444 0 0 -13446 1764 0 7332 11240 72 0c-12,-166 -37,-697 -81,-1598 -45,-897 -60,-1537 -47,-1926l0 -7716 1462 0 0 13446zm-66581 -33374l8318 -582 0 -6852c0,-3107 2540,-5648 5648,-5648l158156 0c3108,0 5648,2541 5648,5648l0 101672c0,3108 -2540,5648 -5648,5648l-2749 0c-942,1005 -2247,1673 -3721,1776l-157771 11033c-3101,217 -5811,-2142 -6028,-5241l-7093 -101425c-216,-3099 2139,-5812 5240,-6029zm8318 2251l-5586 390c-2944,205 -5185,2783 -4979,5727l6737 96353c207,2944 2784,5184 5728,4979l140332 -9814 -136584 0c-3108,0 -5648,-2540 -5648,-5648l0 -91987zm36941 64604l-482 -3324 -157 0c-1056,1358 -2145,2314 -3260,2876 -1115,560 -2434,844 -3951,844 -2065,0 -3668,-528 -4816,-1583 -1148,-1063 -1721,-2520 -1721,-4394 0,-2051 857,-3641 2565,-4776 1710,-1134 4177,-1735 7415,-1794l3998 -119 0 -1392c0,-1999 -403,-3502 -1214,-4525 -811,-1016 -2124,-1524 -3925,-1524 -1946,0 -3965,542 -6055,1623l-713 -1662c2309,-1083 4585,-1623 6840,-1623 2309,0 4031,601 5172,1795 1141,1200 1716,3066 1716,5607l0 13971 -1412 0zm-28752 -77113l153074 0c2950,0 5366,2415 5366,5366l0 96588c0,2951 -2416,5366 -5366,5366l-153074 0c-2950,0 -5366,-2415 -5366,-5366l0 -96588c0,-2951 2416,-5366 5366,-5366zm131268 77509c-3054,0 -5435,-943 -7144,-2823 -1708,-1881 -2559,-4520 -2559,-7910 0,-3352 824,-6035 2473,-8047 1649,-2020 3873,-3029 6670,-3029 2473,0 4426,858 5858,2579 1430,1716 2143,4051 2143,7006l0 1537 -15139 0c26,2902 700,5119 2025,6650 1319,1530 3213,2296 5673,2296 1200,0 2250,-87 3160,-251 911,-165 2059,-528 3450,-1083l0 1743c-1187,514 -2283,864 -3285,1048 -1003,192 -2111,284 -3325,284zm-560 -20146c-2025,0 -3648,666 -4875,2005 -1220,1340 -1939,3271 -2144,5792l12988 0c0,-2447 -527,-4354 -1583,-5733 -1056,-1378 -2519,-2064 -4386,-2064zm-11877 19750l-1913 0 0 -30081 1913 0 0 30081zm-13519 -21413c2936,0 5152,924 6636,2778 1491,1847 2237,4551 2237,8106 0,3497 -785,6188 -2349,8082 -1570,1893 -3767,2843 -6597,2843 -1497,0 -2842,-311 -4043,-930 -1194,-614 -2145,-1491 -2836,-2626l-173 0 -540 3160 -1201 0 0 -29734c-678,-487 -1018,-1168 -1018,-2036 0,-612 198,-1143 591,-1591 391,-446 944,-750 1653,-908 -257,-118 -473,-297 -647,-543 -175,-247 -263,-532 -263,-856 0,-370 101,-691 295,-967 197,-276 506,-543 929,-800 -521,-216 -944,-581 -1274,-1096 -327,-515 -493,-1105 -493,-1767 0,-1102 333,-1952 995,-2548 662,-600 1601,-898 2815,-898 528,0 1001,63 1426,189l3483 0 0 967 -1864 219c169,214 324,495 458,841 135,345 201,734 201,1171 0,985 -335,1773 -1011,2360 -674,587 -1601,882 -2777,882 -302,0 -581,-25 -848,-73 -650,343 -973,776 -973,1296 0,277 113,481 340,613 229,132 617,198 1170,198l1782 0c1093,0 1931,229 2518,690 584,459 876,1127 876,2002 0,1114 -447,1965 -1341,2550 -897,586 -2203,878 -3920,878 -428,0 -824,-27 -1189,-78l0 6525c0,1134 -27,2177 -79,3133l-54 1642 133 0c798,-1266 1760,-2189 2889,-2783 1128,-593 2480,-891 4063,-891zm-40 1741c-2467,0 -4242,713 -5309,2132 -1069,1417 -1603,3766 -1603,7031l0 330c0,3180 553,5456 1668,6842 1115,1378 2850,2071 5211,2071 2290,0 4018,-805 5172,-2415 1161,-1603 1742,-3892 1742,-6867 0,-6082 -2296,-9124 -6881,-9124zm-13947 19672l-481 -3324 -158 0c-1056,1358 -2145,2314 -3260,2876 -1115,560 -2434,844 -3951,844 -2065,0 -3667,-528 -4815,-1583 -1148,-1063 -1722,-2520 -1722,-4394 0,-2051 858,-3641 2566,-4776 1709,-1134 4176,-1735 7415,-1794l3997 -119 0 -1392c0,-1999 -402,-3502 -1214,-4525 -811,-1016 -2123,-1524 -3925,-1524 -1946,0 -3964,542 -6055,1623l-713 -1662c2309,-1083 4585,-1623 6841,-1623 2309,0 4030,601 5171,1795 1142,1200 1716,3066 1716,5607l0 13971 -1412 0zm-7737 -1345c2242,0 4017,-641 5310,-1927 1292,-1279 1946,-3061 1946,-5344l0 -2071 -3674 152c-2956,146 -5060,607 -6313,1386 -1261,778 -1887,1998 -1887,3647 0,1313 402,2336 1207,3061 805,733 1946,1096 3411,1096zm-8974 1345l-1913 0 0 -30081 1913 0 0 30081zm-5860 0l-1914 0 0 -21017 1914 0 0 21017zm-2184 -26849c0,-1233 409,-1846 1220,-1846 396,0 706,158 937,481 224,324 336,779 336,1365 0,582 -112,1037 -336,1373 -231,336 -541,501 -937,501 -811,0 -1220,-627 -1220,-1874zm-4851 26849l-481 -3324 -158 0c-1056,1358 -2145,2314 -3260,2876 -1115,560 -2434,844 -3951,844 -2064,0 -3667,-528 -4815,-1583 -1148,-1063 -1722,-2520 -1722,-4394 0,-2051 858,-3641 2566,-4776 1709,-1134 4176,-1735 7415,-1794l3997 -119 0 -1392c0,-1999 -402,-3502 -1213,-4525 -812,-1016 -2124,-1524 -3926,-1524 -1946,0 -3964,542 -6055,1623l-713 -1662c2309,-1083 4586,-1623 6841,-1623 2309,0 4030,601 5172,1795 1141,1200 1715,3066 1715,5607l0 13971 -1412 0zm-7737 -1345c2242,0 4017,-641 5310,-1927 1292,-1279 1946,-3061 1946,-5344l0 -2071 -3674 152c-2956,146 -5060,607 -6313,1386 -1261,778 -1887,1998 -1887,3647 0,1313 402,2336 1207,3061 805,733 1946,1096 3411,1096zm-15512 1345l-8113 -21017 1972 0 5430 14288c719,1835 1266,3431 1622,4796l119 0c527,-1754 1069,-3364 1622,-4835l5430 -14249 1972 0 -8121 21017 -1933 0zm-17455 -1345c2242,0 4017,-641 5309,-1927 1293,-1279 1946,-3061 1946,-5344l0 -2071 -3674 152c-2955,146 -5059,607 -6313,1386 -1260,778 -1886,1998 -1886,3647 0,1313 402,2336 1207,3061 804,733 1946,1096 3411,1096zm88780 -31947c-1491,0 -2664,-455 -3525,-1363 -863,-907 -1293,-2169 -1293,-3781 0,-1626 398,-2917 1199,-3874 800,-957 1874,-1434 3223,-1434 1262,0 2263,414 2998,1247 734,831 1105,1926 1105,3286l0 965 -6942 0c30,1185 328,2081 893,2698 569,611 1366,918 2398,918 1083,0 2157,-225 3218,-680l0 1361c-541,236 -1052,403 -1532,506 -480,101 -1061,151 -1742,151zm-414 -9171c-811,0 -1453,264 -1933,790 -484,525 -767,1253 -851,2185l5266 0c0,-960 -213,-1698 -643,-2209 -431,-512 -1042,-766 -1839,-766zm-12481 10674c0,543 229,957 691,1240 458,280 1117,420 1977,420 1280,0 2232,-191 2847,-574 615,-380 926,-901 926,-1554 0,-546 -169,-922 -509,-1133 -336,-210 -969,-316 -1901,-316l-1830 0c-694,0 -1234,166 -1620,495 -387,330 -581,804 -581,1422zm829 -8543c0,706 198,1240 597,1601 398,360 953,542 1666,542 1490,0 2235,-724 2235,-2171 0,-1517 -754,-2273 -2263,-2273 -720,0 -1271,195 -1658,581 -386,386 -577,960 -577,1720zm-3849 6851l-305 -1434 -75 0c-502,631 -1002,1061 -1501,1286 -502,224 -1123,337 -1870,337 -1001,0 -1783,-258 -2351,-772 -564,-518 -850,-1250 -850,-2204 0,-2037 1629,-3104 4881,-3201l1710 -56 0 -625c0,-788 -170,-1372 -509,-1749 -342,-376 -884,-564 -1632,-564 -841,0 -1788,257 -2850,771l-467 -1167c496,-270 1038,-483 1628,-637 593,-154 1187,-229 1781,-229 1202,0 2090,267 2671,800 580,534 869,1388 869,2565l0 6879 -1130 0zm-3450 -1073c951,0 1699,-261 2238,-782 543,-520 816,-1249 816,-2187l0 -910 -1528 66c-1212,40 -2087,229 -2624,564 -536,334 -804,854 -804,1557 0,553 167,973 502,1259 334,288 801,433 1400,433zm-5955 1073l0 -6556c0,-800 -169,-1403 -514,-1805 -342,-402 -876,-603 -1598,-603 -951,0 -1651,273 -2106,819 -452,546 -681,1385 -681,2518l0 5627 -1526 0 0 -6556c0,-800 -172,-1403 -514,-1805 -342,-402 -879,-603 -1611,-603 -954,0 -1653,286 -2099,861 -442,571 -666,1512 -666,2818l0 5285 -1525 0 0 -10074 1240 0 248 1375 75 0c286,-491 693,-873 1217,-1150 526,-276 1112,-414 1761,-414 1574,0 2605,571 3089,1710l72 0c302,-527 738,-944 1306,-1252 571,-304 1221,-458 1949,-458 1140,0 1993,292 2562,879 564,584 849,1522 849,2809l0 6575 -1528 0zm-14612 0l-1525 0 0 -10074 1525 0 0 10074zm-1653 -12811c0,-349 84,-603 258,-766 172,-164 385,-245 642,-245 246,0 458,81 635,248 179,167 266,421 266,763 0,344 -87,602 -266,769 -177,170 -389,254 -635,254 -257,0 -470,-84 -642,-254 -174,-167 -258,-425 -258,-769zm-7441 7765c0,1644 -415,2928 -1240,3850 -829,923 -1972,1385 -3431,1385 -901,0 -1702,-211 -2401,-634 -697,-424 -1237,-1033 -1616,-1824 -384,-791 -571,-1717 -571,-2777 0,-1645 411,-2925 1233,-3842 819,-917 1962,-1375 3418,-1375 1412,0 2529,468 3361,1407 832,937 1247,2209 1247,3810zm-7677 0c0,1287 256,2269 772,2944 514,674 1270,1010 2271,1010 999,0 1758,-336 2276,-1007 518,-672 776,-1655 776,-2947 0,-1281 -258,-2254 -776,-2919 -518,-665 -1283,-999 -2294,-999 -1001,0 -1755,327 -2263,983 -509,656 -762,1635 -762,2935z"/>
 </g>
</svg>
