<?xml version="1.0" encoding="UTF-8"?>
<!DOCTYPE svg PUBLIC "-//W3C//DTD SVG 1.1//EN" "http://www.w3.org/Graphics/SVG/1.1/DTD/svg11.dtd">
<!-- Creator: CorelDRAW X7 -->
<svg xmlns="http://www.w3.org/2000/svg" xml:space="preserve" width="40px" height="40px" version="1.1" style="shape-rendering:geometricPrecision; text-rendering:geometricPrecision; image-rendering:optimizeQuality; fill-rule:evenodd; clip-rule:evenodd"
viewBox="0 0 283399 283449"
 xmlns:xlink="http://www.w3.org/1999/xlink">
 <defs>
  <style type="text/css">
   <![CDATA[
    .fil0 {fill:none}
    .fil1 {fill:#666666}
   ]]>
  </style>
 </defs>
 <g id="Layer_x0020_1">
  <metadata id="CorelCorpID_0Corel-Layer"/>
  <polygon class="fil0" points="0,283449 283399,283449 283399,0 0,0 "/>
  <path class="fil1" d="M212030 80615l-140661 0c-10050,0 -18225,8184 -18225,18233l0 85753c0,10050 8175,18225 18225,18225l140661 0c10050,0 18225,-8175 18225,-18225l0 -85753c0,-10049 -8175,-18233 -18225,-18233zm-68122 82079l38777 0c2200,0 3991,1791 3991,3991l0 0c0,2201 -1791,3992 -3991,3992l-38777 0c-2200,0 -3991,-1791 -3991,-3992l0 0c0,-2200 1791,-3991 3991,-3991zm0 -25664l57244 0c2201,0 3992,1791 3992,3992l0 0c0,2200 -1791,3991 -3992,3991l-57244 0c-2200,0 -3991,-1791 -3991,-3991l0 0c0,-2201 1791,-3992 3991,-3992zm0 -26710l57244 0c2201,0 3992,1791 3992,3992l0 0c0,2200 -1791,3991 -3992,3991l-57244 0c-2200,0 -3991,-1791 -3991,-3991l0 0c0,-2201 1791,-3992 3991,-3992zm-23521 0l-36408 0c-2879,0 -5213,2335 -5213,5213l0 52383c0,2878 2334,5213 5213,5213l36408 0c2878,0 5213,-2335 5213,-5213l0 -52383c-9,-2878 -2335,-5213 -5213,-5213zm-48123 -21722l138863 0c6627,0 12041,5414 12041,12041l0 82171c0,6627 -5414,12041 -12041,12041l-138863 0c-6627,0 -12041,-5414 -12041,-12041l0 -82171c0,-6627 5414,-12041 12041,-12041z"/>
 </g>
</svg>
