<?xml version="1.0" encoding="utf-8"?>
<!-- Generator: Adobe Illustrator 19.1.1, SVG Export Plug-In . SVG Version: 6.00 Build 0)  -->
<svg version="1.1" id="Layer_1" xmlns="http://www.w3.org/2000/svg" xmlns:xlink="http://www.w3.org/1999/xlink" x="0px" y="0px"
	 viewBox="-979 981 40 40" style="enable-background:new -979 981 40 40;" xml:space="preserve">
<style type="text/css">
	.st0{fill:#8A0044;}
	.st1{fill:#666666;}
</style>
<g id="Layer_x0020_1">
	<g>
		<path class="st0" d="M-954.1,1012.8l-1,1.2c2.8,0.1,4.8,1.8,4.8,2.6c-0.1,1-2.6,3.2-8.3,3.2c-6,0-9.1-2.2-9.2-3.3
			c0-0.5,1.2-2.1,4.8-2.4l-0.9-1.2c-2.1,0.4-5.5,1.4-5.3,3.8c0.2,2.6,4.7,4.4,10.7,4.4c5.5,0,9.5-1.8,9.7-4.3
			C-948.8,1015.8-949.1,1013.7-954.1,1012.8z"/>
		<path class="st0" d="M-959,1017l0.6-0.8c0.5-0.6,12.4-16,12.4-22.7c0-7-5.8-12.6-13-12.6c-7.2,0-13,5.6-13,12.6
			c0,6.7,11.9,22,12.4,22.7L-959,1017z M-964.7,993.6c0-3,2.5-5.5,5.7-5.5c3.1,0,5.7,2.5,5.7,5.5c0,3-2.5,5.5-5.7,5.5
			C-962.1,999.1-964.7,996.6-964.7,993.6z"/>
	</g>
</g>
</svg>
