<?xml version="1.0" encoding="UTF-8"?>
<!DOCTYPE svg PUBLIC "-//W3C//DTD SVG 1.1//EN" "http://www.w3.org/Graphics/SVG/1.1/DTD/svg11.dtd">
<!-- Creator: CorelDRAW X7 -->
<svg xmlns="http://www.w3.org/2000/svg" xml:space="preserve" width="40px" height="40px" version="1.1" style="shape-rendering:geometricPrecision; text-rendering:geometricPrecision; image-rendering:optimizeQuality; fill-rule:evenodd; clip-rule:evenodd"
viewBox="0 0 23640 23640"
 xmlns:xlink="http://www.w3.org/1999/xlink">
 <defs>
  <style type="text/css">
   <![CDATA[
    .fil1 {fill:none}
    .fil0 {fill:#171334}
   ]]>
  </style>
 </defs>
 <g id="Layer_x0020_1">
  <metadata id="CorelCorpID_0Corel-Layer"/>
  <g id="_1183295200">
   <g id="_9_18_">
    <g>
     <path class="fil0" d="M11820 4402l-7418 4173c0,1057 0,8808 0,8808 0,1025 830,1855 1854,1855l11127 0c1025,0 1855,-830 1855,-1855 0,0 0,-7794 0,-8808l-7418 -4173zm-6491 12981l0 -7243 4203 3353 -4159 4159c-26,-86 -44,-175 -44,-269zm721 903l4259 -4260 1511 1039 1510 -1039 4260 4260c-67,15 -11473,15 -11540,0zm12260 -903c0,94 -17,183 -44,269l-4159 -4159 4203 -3353 0 7243zm-6490 -3404l-6491 -4941 6482 -3556 6499 3556 -6490 4941z"/>
    </g>
   </g>
   <g>
   </g>
   <g>
   </g>
   <g>
   </g>
   <g>
   </g>
   <g>
   </g>
   <g>
   </g>
   <g>
   </g>
   <g>
   </g>
   <g>
   </g>
   <g>
   </g>
   <g>
   </g>
   <g>
   </g>
   <g>
   </g>
   <g>
   </g>
   <g>
   </g>
  </g>
  <rect class="fil1" width="23640" height="23640"/>
 </g>
</svg>
