<?xml version="1.0" encoding="UTF-8"?>
<!DOCTYPE svg PUBLIC "-//W3C//DTD SVG 1.1//EN" "http://www.w3.org/Graphics/SVG/1.1/DTD/svg11.dtd">
<!-- Creator: CorelDRAW X7 -->
<svg xmlns="http://www.w3.org/2000/svg" xml:space="preserve" width="40px" height="40px" version="1.1" style="shape-rendering:geometricPrecision; text-rendering:geometricPrecision; image-rendering:optimizeQuality; fill-rule:evenodd; clip-rule:evenodd"
viewBox="0 0 22222 22222"
 xmlns:xlink="http://www.w3.org/1999/xlink">
 <defs>
  <style type="text/css">
   <![CDATA[
    .fil1 {fill:none}
    .fil0 {fill:#8A0044}
   ]]>
  </style>
 </defs>
 <g id="Layer_x0020_1">
  <metadata id="CorelCorpID_0Corel-Layer"/>
  <g id="_1177442352">
   <g id="_9_18_">
    <g>
     <path class="fil0" d="M11111 4138l-6973 3922c0,994 0,8281 0,8281 0,963 780,1743 1743,1743l10460 0c963,0 1743,-780 1743,-1743 0,0 0,-7327 0,-8281l-6973 -3922zm-6101 12203l0 -6810 3951 3153 -3910 3909c-25,-81 -41,-164 -41,-252zm677 848l4004 -4004 1420 976 1420 -976 4004 4004c-63,14 -10785,14 -10848,0zm11525 -848c0,88 -16,171 -41,252l-3910 -3909 3951 -3153 0 6810zm-6101 -3201l-6101 -4644 6092 -3342 6110 3342 -6101 4644z"/>
    </g>
   </g>
   <g>
   </g>
   <g>
   </g>
   <g>
   </g>
   <g>
   </g>
   <g>
   </g>
   <g>
   </g>
   <g>
   </g>
   <g>
   </g>
   <g>
   </g>
   <g>
   </g>
   <g>
   </g>
   <g>
   </g>
   <g>
   </g>
   <g>
   </g>
   <g>
   </g>
  </g>
  <rect class="fil1" width="22222" height="22222"/>
 </g>
</svg>
