<?xml version="1.0" encoding="UTF-8"?>
<!DOCTYPE svg PUBLIC "-//W3C//DTD SVG 1.1//EN" "http://www.w3.org/Graphics/SVG/1.1/DTD/svg11.dtd">
<!-- Creator: CorelDRAW X7 -->
<svg xmlns="http://www.w3.org/2000/svg" xml:space="preserve" width="40px" height="40px" version="1.1" style="shape-rendering:geometricPrecision; text-rendering:geometricPrecision; image-rendering:optimizeQuality; fill-rule:evenodd; clip-rule:evenodd"
viewBox="0 0 4848 4848"
 xmlns:xlink="http://www.w3.org/1999/xlink">
 <defs>
  <style type="text/css">
   <![CDATA[
    .fil1 {fill:none}
    .fil0 {fill:#8A0044}
   ]]>
  </style>
 </defs>
 <g id="Layer_x0020_1">
  <metadata id="CorelCorpID_0Corel-Layer"/>
  <g id="_1185640288">
   <g id="_7_17_">
    <g>
     <path class="fil0" d="M2609 2458c121,-164 194,-374 194,-602 0,-523 -382,-947 -852,-947 -471,0 -852,424 -852,947 0,228 73,438 194,601 -223,78 -384,287 -384,535l0 379c0,314 255,568 568,568l947 0c314,0 568,-254 568,-568l0 -379c0,-248 -161,-457 -383,-534zm-1321 -602c0,-418 297,-758 663,-758 366,0 662,340 662,758 0,418 -296,758 -662,758 -366,0 -663,-340 -663,-758zm1515 1468c0,235 -208,426 -465,426l-775 0c-256,0 -464,-191 -464,-426l0 -284c0,-202 152,-369 357,-414 140,111 310,177 495,177 184,0 355,-66 494,-177 205,45 358,212 358,414l0 284zm284 -1657l758 0c52,0 94,-43 94,-95 0,-52 -42,-95 -94,-95l-758 0c-52,0 -95,43 -95,95 0,52 43,95 95,95zm758 379l-758 0c-52,0 -95,42 -95,94 0,52 43,95 95,95l758 0c52,0 94,-43 94,-95 0,-52 -42,-94 -94,-94zm0 568l-569 0c-52,0 -94,42 -94,94 0,52 42,95 94,95l569 0c52,0 94,-43 94,-95 0,-52 -42,-94 -94,-94zm0 568l-569 0c-52,0 -94,42 -94,94 0,53 42,95 94,95l569 0c52,0 94,-42 94,-95 0,-52 -42,-94 -94,-94z"/>
    </g>
   </g>
   <g>
   </g>
   <g>
   </g>
   <g>
   </g>
   <g>
   </g>
   <g>
   </g>
   <g>
   </g>
   <g>
   </g>
   <g>
   </g>
   <g>
   </g>
   <g>
   </g>
   <g>
   </g>
   <g>
   </g>
   <g>
   </g>
   <g>
   </g>
   <g>
   </g>
  </g>
  <rect class="fil1" width="4848" height="4848"/>
 </g>
</svg>
