<?xml version="1.0" encoding="UTF-8"?>
<!DOCTYPE svg PUBLIC "-//W3C//DTD SVG 1.1//EN" "http://www.w3.org/Graphics/SVG/1.1/DTD/svg11.dtd">
<!-- Creator: CorelDRAW X7 -->
<svg xmlns="http://www.w3.org/2000/svg" xml:space="preserve" width="40px" height="40px" version="1.1" style="shape-rendering:geometricPrecision; text-rendering:geometricPrecision; image-rendering:optimizeQuality; fill-rule:evenodd; clip-rule:evenodd"
viewBox="0 0 38094 38094"
 xmlns:xlink="http://www.w3.org/1999/xlink">
 <defs>
  <style type="text/css">
   <![CDATA[
    .fil1 {fill:none}
    .fil0 {fill:#8A0044}
   ]]>
  </style>
 </defs>
 <g id="Layer_x0020_1">
  <metadata id="CorelCorpID_0Corel-Layer"/>
  <g id="_1169960944">
   <g id="_9_14_">
    <g>
     <path class="fil0" d="M24628 7143l-11161 0c-1644,0 -2977,1332 -2977,2976l0 17856c0,1645 1333,2977 2977,2977l11161 0c1643,0 2975,-1332 2975,-2977l1 -17856c0,-1644 -1333,-2976 -2976,-2976zm1488 20832c0,823 -666,1490 -1488,1490l-11161 -2c-821,0 -1488,-665 -1488,-1488l0 -2233 14137 2 0 2231zm0 -3720l-14137 0 0 -11904 14137 0 0 11904zm0 -13392l-14137 0 0 -744c0,-822 666,-1489 1488,-1489l11161 1c821,0 1488,667 1488,1488l0 744zm-7069 17857c616,0 1116,-501 1116,-1116 0,-616 -500,-1116 -1116,-1116 -615,0 -1116,500 -1116,1116 0,615 501,1116 1116,1116z"/>
    </g>
   </g>
   <g>
   </g>
   <g>
   </g>
   <g>
   </g>
   <g>
   </g>
   <g>
   </g>
   <g>
   </g>
   <g>
   </g>
   <g>
   </g>
   <g>
   </g>
   <g>
   </g>
   <g>
   </g>
   <g>
   </g>
   <g>
   </g>
   <g>
   </g>
   <g>
   </g>
  </g>
  <rect class="fil1" width="38094" height="38094"/>
 </g>
</svg>
