<?xml version="1.0" encoding="UTF-8"?>
<!DOCTYPE svg PUBLIC "-//W3C//DTD SVG 1.1//EN" "http://www.w3.org/Graphics/SVG/1.1/DTD/svg11.dtd">
<!-- Creator: CorelDRAW X7 -->
<svg xmlns="http://www.w3.org/2000/svg" xml:space="preserve" width="40px" height="40px" version="1.1" style="shape-rendering:geometricPrecision; text-rendering:geometricPrecision; image-rendering:optimizeQuality; fill-rule:evenodd; clip-rule:evenodd"
viewBox="0 0 77951 77951"
 xmlns:xlink="http://www.w3.org/1999/xlink">
 <defs>
  <style type="text/css">
   <![CDATA[
    .fil0 {fill:none}
    .fil1 {fill:#8A0044;fill-rule:nonzero}
   ]]>
  </style>
 </defs>
 <g id="Layer_x0020_1">
  <metadata id="CorelCorpID_0Corel-Layer"/>
  <rect class="fil0" x="-1" width="77954" height="77954"/>
  <path class="fil1" d="M38976 31097l85 0 90 0 32 2 53 0 89 2 67 0 19 0 85 7 90 3 13 0 72 2 87 4 46 3 39 2 86 5 82 4 5 0 85 7 85 5 30 2 58 5 85 7 60 4 27 2 86 12 85 7 4 0 81 9 85 9 39 3 46 7 85 9 171 23 83 11 18 3 67 9 85 14 48 4 35 9 168 23 2 3 83 13 665 129 37 7c651,143 1282,327 1901,541l12 3 34 13 90 33 46 16 16 4 30 12 42 18 46 16 46 16 20 7 426 171 44 18 44 21 87 34 44 19 435 198 5 0 384 186 41 21 44 21c283,142 559,294 833,453l0 -8132c0,-2231 -913,-4263 -2382,-5729 -1466,-1469 -3499,-2383 -5729,-2383l-2 0c-2231,0 -4261,914 -5729,2383 -1469,1466 -2383,3498 -2383,5729l0 8134 205 -117 44 -25 16 -10 23 -13 41 -21 44 -25 39 -21 23 -12 21 -11 41 -23 42 -23 41 -23 26 -12 18 -9 41 -23 86 -44 30 -14 11 -6 41 -23 44 -21 42 -21 36 -18 7 -5 44 -21 44 -20 41 -21 39 -18 5 -3 44 -20 41 -21 44 -21 44 -18 41 -23 44 -19 44 -18 43 -23 5 0 39 -19 44 -18 43 -21 44 -18 7 -5 37 -14 44 -20 43 -19 44 -18 14 -5 32 -14 42 -18 46 -18 43 -19 19 -7 27 -11 44 -19 44 -16 46 -18 21 -9 25 -10 41 -16 46 -18 46 -18 26 -10 18 -7 44 -16 46 -16 46 -18 30 -12 14 -4 46 -16 46 -17 44 -16 36 -13 10 -3 78 -25 80 -30 19 -7 60 -18 78 -28 48 -16 270 -83 82 -25 28 -9 51 -14 80 -23 405 -111 37 -11 44 -12 410 -96 82 -19 49 -14 529 -103 60 -14 25 -2 251 -42 85 -14 40 -9 43 -4 85 -12 72 -11 11 0 85 -12 86 -11 18 -7 67 -7 85 -9 48 -7 37 -3 83 -9 85 -9 2 0 86 -7 85 -12 30 -2 55 -4 85 -7 62 -5 23 -2 88 -5 85 -7 9 0 78 -4 86 -5 43 -2 44 -3 87 -4 74 -2 12 0 87 -3 88 -7 18 0 67 0 87 -2 55 0 33 -2 87 0 88 0zm10542 3924c294,258 582,525 856,799 2914,2914 4721,6947 4721,11396 0,4447 -1807,8477 -4721,11396l-5 5c-2918,2911 -6949,4718 -11393,4718 -4452,0 -8482,-1807 -11396,-4718 -2917,-2917 -4724,-6949 -4724,-11401 0,-4440 1810,-8475 4724,-11391l2 -3 2 -2c274,-274 560,-536 852,-790l0 -9874c0,-2898 1188,-5538 3093,-7446 1909,-1906 4549,-3094 7447,-3094l2 0c2902,0 5538,1188 7446,3094 1906,1908 3094,4548 3094,7446l0 9865zm-10545 8821l7 0c668,0 1211,545 1211,1215l0 6171c0,667 -543,1211 -1211,1211l-7 0c-667,0 -1213,-544 -1213,-1211l0 -6171c0,-670 546,-1215 1213,-1215zm9686 -6305c-308,-308 -635,-605 -974,-884l-126 -103 -14 -12 -55 -46 -58 -44 -2 -2 -55 -41 -58 -44 -16 -14 -39 -30 -58 -41 -34 -30 -83 -58 -48 -37 -10 -4 -55 -44 -60 -41 -11 -10 -48 -34 -58 -39 -30 -19 -30 -23 -60 -39 -46 -32 -14 -9 -59 -42 -120 -78 -62 -39 -19 -14 -41 -25 -62 -39 -37 -23 -23 -16 -62 -37 -55 -35 -7 -2 -63 -37 -62 -39 -9 -7 -53 -30 -62 -34 -28 -19 -34 -18 -111 -65 -16 -7 -64 -34 -62 -35 -3 -2 -62 -34 -64 -33 -19 -11 -43 -23 -65 -32 -41 -21 -23 -14 -65 -32 -60 -30 -6 -5 -65 -30 -64 -32 -14 -7 -51 -25 -69 -32 -30 -14 -37 -16 -64 -30 -48 -23 -19 -7 -67 -30 -64 -30 -5 0 -62 -30 -244 -99 -25 -11 -129 -51 -7 -5 -69 -27 -67 -26 -13 -4 -56 -23 -101 -35 -35 -14 -124 -43 -14 -7c-465,-164 -939,-302 -1424,-414l-19 -3 -120 -27 -48 -12 -502 -97 -13 -4 -69 -12 -74 -13 -12 -3 -59 -9 -72 -12 -37 -4 -34 -5 -72 -11 -66 -7 -5 -2 -71 -12 -74 -9 -21 -2 -50 -7 -74 -7 -48 -7 -23 -2 -72 -7 -73 -7 -3 0 -71 -9 -74 -7 -30 -3 -41 -4 -74 -5 -57 -4 -16 -3 -72 -4 -76 -5 -11 0 -62 -5 -74 -4 -39 -3 -35 0 -73 -4 -69 -2 -7 0 -74 -3 -73 -4 -19 0 -55 -3 -74 0 -48 -2 -28 0 -76 0 -73 0 -74 0 -76 0 -28 0 -48 2 -74 0 -55 3 -18 0 -74 4 -74 3 -11 0 -67 2 -73 4 -33 0 -39 3 -73 4 -63 5 -11 0 -76 5 -74 4 -14 3 -57 4 -74 5 -44 4 -29 3 -72 7 -71 9 -5 0 -71 7 -74 7 -20 2 -51 7 -71 7 -51 7 -23 2 -74 9 -71 12 -5 2 -66 7 -72 11 -32 5 -39 4 -72 12 -57 9 -14 3 -74 13 -69 12 -13 4 -270 49 -64 14 -5 0 -73 13 -90 21 -49 12 -209 46 -69 18 -5 2 -64 14 -67 16 -34 9 -37 10 -205 55 -69 21 -14 4 -53 14 -69 18c-341,99 -670,217 -994,339l-16 4 -139 53 -4 3 -62 23 -534 228 -19 9 -48 21 -64 29 -37 19 -228 108 -65 30 -7 5 -57 29 -384 201 -65 37 -62 32 -16 11 -46 26 -65 34 -34 23 -28 14 -115 69 -9 5 -62 36 -62 37 -7 5 -56 34 -59 35 -26 18 -37 21 -59 41 -44 26 -19 11 -59 39 -60 42 -60 37 -60 41 -18 12 -42 27 -60 42 -32 23 -27 18 -60 42 -49 34 -9 7 -57 44 -58 39 -11 9 -46 35 -58 43 -28 16 -32 28 -57 41 -42 33 -71 57 -58 42 0 2 -57 44 -56 46 -16 11 -126 104 -14 11c-334,274 -647,560 -958,870l-4 5c-2470,2472 -4005,5897 -4005,9679 0,3782 1535,7207 4009,9683 2475,2475 5900,4008 9682,4008 3781,0 7209,-1533 9685,-4005 2470,-2477 4005,-5904 4005,-9686 0,-3780 -1535,-7205 -4007,-9679z"/>
 </g>
</svg>
