<?xml version="1.0" encoding="UTF-8"?>
<!DOCTYPE svg PUBLIC "-//W3C//DTD SVG 1.1//EN" "http://www.w3.org/Graphics/SVG/1.1/DTD/svg11.dtd">
<!-- Creator: CorelDRAW X7 -->
<svg xmlns="http://www.w3.org/2000/svg" xml:space="preserve" width="40px" height="40px" version="1.1" style="shape-rendering:geometricPrecision; text-rendering:geometricPrecision; image-rendering:optimizeQuality; fill-rule:evenodd; clip-rule:evenodd"
viewBox="0 0 7893 7893"
 xmlns:xlink="http://www.w3.org/1999/xlink">
 <defs>
  <style type="text/css">
   <![CDATA[
    .fil1 {fill:none}
    .fil0 {fill:#8A0044}
   ]]>
  </style>
 </defs>
 <g id="Layer_x0020_1">
  <metadata id="CorelCorpID_0Corel-Layer"/>
  <g id="_1169981488">
   <g id="_1_15_">
    <g>
     <path class="fil0" d="M3947 2568c-423,0 -766,343 -766,766 0,423 343,766 766,766 423,0 766,-343 766,-766 0,-423 -343,-766 -766,-766zm0 1225c-254,0 -460,-205 -460,-459 0,-254 206,-460 460,-460 254,0 459,206 459,460 0,254 -205,459 -459,459zm0 -2297c-1015,0 -1838,823 -1838,1838 0,768 1532,3065 1838,3063 300,2 1838,-2305 1838,-3063 0,-1015 -823,-1838 -1838,-1838zm0 4442c-255,1 -1532,-1964 -1532,-2604 0,-846 686,-1532 1532,-1532 846,0 1531,686 1531,1532 0,632 -1281,2605 -1531,2604z"/>
    </g>
   </g>
   <g>
   </g>
   <g>
   </g>
   <g>
   </g>
   <g>
   </g>
   <g>
   </g>
   <g>
   </g>
   <g>
   </g>
   <g>
   </g>
   <g>
   </g>
   <g>
   </g>
   <g>
   </g>
   <g>
   </g>
   <g>
   </g>
   <g>
   </g>
   <g>
   </g>
  </g>
  <rect class="fil1" width="7893" height="7893"/>
 </g>
</svg>
