<?xml version="1.0" encoding="UTF-8"?>
<!DOCTYPE svg PUBLIC "-//W3C//DTD SVG 1.1//EN" "http://www.w3.org/Graphics/SVG/1.1/DTD/svg11.dtd">
<!-- Creator: CorelDRAW X7 -->
<svg xmlns="http://www.w3.org/2000/svg" xml:space="preserve" width="40px" height="40px" version="1.1" style="shape-rendering:geometricPrecision; text-rendering:geometricPrecision; image-rendering:optimizeQuality; fill-rule:evenodd; clip-rule:evenodd"
viewBox="0 0 3540 3540"
 xmlns:xlink="http://www.w3.org/1999/xlink">
 <defs>
  <style type="text/css">
   <![CDATA[
    .fil1 {fill:none}
    .fil0 {fill:#8A0044}
   ]]>
  </style>
 </defs>
 <g id="Layer_x0020_1">
  <metadata id="CorelCorpID_0Corel-Layer"/>
  <g id="_1183197088">
   <g id="_9_17_">
    <g>
     <path class="fil0" d="M1770 2045c-38,0 -69,31 -69,69l0 276c0,38 31,69 69,69 38,0 69,-31 69,-69l0 -276c0,-38 -31,-69 -69,-69zm551 -274l0 -552c0,-305 -247,-552 -551,-552 -304,0 -551,247 -551,552l0 552c-86,115 -138,258 -138,412 0,381 308,689 689,689 380,0 689,-308 689,-689 0,-154 -52,-297 -138,-412zm-965 -552c0,-229 186,-414 414,-414 228,0 413,185 413,414l0 414c-115,-87 -258,-139 -413,-139 -155,0 -298,52 -414,139l0 -414zm414 1515c-304,0 -551,-246 -551,-551 0,-304 247,-551 551,-551 294,0 551,257 551,551 0,305 -247,551 -551,551z"/>
    </g>
   </g>
   <g>
   </g>
   <g>
   </g>
   <g>
   </g>
   <g>
   </g>
   <g>
   </g>
   <g>
   </g>
   <g>
   </g>
   <g>
   </g>
   <g>
   </g>
   <g>
   </g>
   <g>
   </g>
   <g>
   </g>
   <g>
   </g>
   <g>
   </g>
   <g>
   </g>
  </g>
  <rect class="fil1" width="3540" height="3540"/>
 </g>
</svg>
