<?xml version="1.0" encoding="utf-8"?>
<!-- Generator: Adobe Illustrator 19.1.1, SVG Export Plug-In . SVG Version: 6.00 Build 0)  -->
<svg version="1.1" id="Layer_1" xmlns="http://www.w3.org/2000/svg" xmlns:xlink="http://www.w3.org/1999/xlink" x="0px" y="0px"
	 viewBox="-619 781 40 40" style="enable-background:new -619 781 40 40;" xml:space="preserve">
<style type="text/css">
	.st0{fill:#8A0044;}
</style>
<g>
	<g>
		<path class="st0" d="M-586,800h-2v-7l0,0l0,0c0-7-5-12-11-12s-11,5-11,12l0,0l0,0v7h-2c-1,0-2,1-2,2v17c0,1,1,2,2,2h26
			c1,0,2-1,2-2v-17C-584,801-585,800-586,800z M-593,793v7h-12v-7l0,0l0,0c0-4,3-6,6-6S-593,789-593,793L-593,793L-593,793z"/>
	</g>
</g>
</svg>
